<svg id="레이어_1" data-name="레이어 1" xmlns="http://www.w3.org/2000/svg" viewBox="0 0 320 320"><defs><style>.cls-1{fill:none;}</style></defs><title>container대지 3 사본</title><path class="cls-1" d="M160,0c-13,0-25.29,5.2-36.36,14.52C112.57,5.2,100.25,0,87.27,0,39.07,0,0,71.63,0,160S39.07,320,87.27,320c13,0,25.3-5.2,36.37-14.52C134.71,314.8,147,320,160,320s25.29-5.2,36.36-14.52C207.43,314.8,219.75,320,232.73,320c48.2,0,87.27-71.63,87.27-160S280.93,0,232.73,0c-13,0-25.3,5.2-36.37,14.52C185.29,5.2,173,0,160,0"/></svg>