<?xml version="1.0" encoding="utf-8"?>
<!-- Generator: Adobe Illustrator 25.0.1, SVG Export Plug-In . SVG Version: 6.00 Build 0)  -->
<svg version="1.1" id="레이어_1" xmlns="http://www.w3.org/2000/svg" xmlns:xlink="http://www.w3.org/1999/xlink" x="0px"
	 y="0px" viewBox="0 0 189.9 24" style="enable-background:new 0 0 189.9 24;" xml:space="preserve">
<style type="text/css">
	.st0{fill:#0000FF;}
</style>
<g>
	<path class="st0" d="M5.3,12.1v6.1l0.9,0.8v0.1H2.4C1,19.2,0,18.2,0,16c0-1.3,0.4-2.3,1.2-2.8c-0.4-0.4-0.7-1.1-0.7-1.9
		c0-1.7,1-2.7,2.5-2.7C4.3,8.6,5.3,9.4,5.3,12.1z M1.3,13.1c0.3-0.2,0.8-0.3,1.2-0.3c0.3,0,0.6,0,0.9,0.1v-0.8C3.4,10.5,3,9.6,2,9.6
		c-0.7,0-1.4,0.5-1.4,1.7C0.6,12,0.9,12.7,1.3,13.1z M1.9,16c0,1.6,0.3,2.4,1,2.4c0.2,0,0.3,0,0.5-0.2v-4.9c-0.1,0-0.1,0-0.2,0
		C2.2,13.4,1.9,14.4,1.9,16z"/>
	<path class="st0" d="M8.7,19.2v-0.1l0.9-0.8V6L8.7,5.2V5h2.8v3.7c0.1,0,0.3,0,0.4,0c2.1,0,3,2.3,3,5.6c0,2.7-0.4,4.9-2.6,4.9H8.7z
		 M11.5,18.4c0.1,0,0.2,0.1,0.3,0.1c0.9,0,1.2-1.3,1.2-4.1c0-2.6-0.5-4.9-1.5-4.9V18.4z"/>
	<path class="st0" d="M23.4,14.3c0,3.6-0.7,5.2-2.8,5.2c-2.2,0-2.9-1.6-2.9-5.2c0-3.4,0.7-5.7,2.9-5.7C22.7,8.6,23.4,10.9,23.4,14.3
		z M19.7,14c0,3.2,0.2,4.6,0.9,4.6c0.6,0,0.9-1.3,0.9-4.6c0-3.1-0.3-4.6-0.9-4.6C19.9,9.4,19.7,10.8,19.7,14z"/>
	<path class="st0" d="M28.6,8.8v7.9c0,1,0.2,1.3,0.6,1.3c0.6,0,1.1-1.1,1.1-2.4V9.8L29.3,9V8.8h2.8v9.4l0.9,0.8v0.1h-2.7l0.1-1.8
		h-0.1c-0.3,1.4-1,2-1.9,2c-1.5,0-1.7-1.3-1.7-3.1V9.8L25.7,9V8.8H28.6z"/>
	<path class="st0" d="M39.6,16.4c0,2.4-0.6,3.1-1.7,3.1c-1.5,0-2-1.1-2-3.1V9.9h-1V9.8l2.7-3.2l0.1,0v2.2h1.8V16.4z M37.8,9.9v6
		c0,1.9,0.3,2.2,0.8,2.2s0.9-0.4,0.9-1.8v-4.8L39,9.9H37.8z"/>
	<path class="st0" d="M52.3,5.6L53.1,5l0.1,0l-1,6.1h1.2v8.2l-1.2-1.1c-0.3,0.8-0.9,1.2-1.8,1.2c-2,0-2.9-2.1-2.9-7
		c0-4.7,1.4-7.7,3.4-7.7C51.5,4.8,52,5.1,52.3,5.6z M49.5,12c0,5,0.6,6.1,1.2,6.1c0.5,0,0.7-0.3,0.7-1.1v-4.9l-0.9-0.8v-0.1h1.4
		c0.5-2.4,0.1-5.3-1-5.3C50.2,5.8,49.5,7.2,49.5,12z"/>
	<path class="st0" d="M59,8.8v9.4l0.9,0.8v0.1h-3.7v-0.1l0.9-0.8V9.8L56.2,9V8.8H59z M59.1,6.6c0,0.6-0.5,1.1-1.1,1.1S57,7.1,57,6.6
		s0.5-1.1,1.1-1.1S59.1,6,59.1,6.6z"/>
	<path class="st0" d="M65.2,8.8L65.1,11h0.1c0-0.9,0.7-2.4,2-2.4v5.3h-0.1v-1.5l-0.7-1.7c-0.7,0-1.2,1.1-1.2,2.2v5.4l1.1,0.9v0.1
		h-3.9v-0.1l0.9-0.9V9.8L62.4,9V8.8H65.2z"/>
	<path class="st0" d="M72.1,5v13.2l0.9,0.8v0.1h-3.7v-0.1l0.9-0.8V6l-0.9-0.8V5H72.1z"/>
	<path class="st0" d="M80,9.2l0.8-0.3l0.1,0l-2,4c0.9,1,1.9,2,1.9,3.7c0,1.8-1.3,2.9-2.5,2.9c-0.7,0-1.4-0.2-1.9-0.6l-0.8,0.3
		l-0.1-0.1l2.3-4.3c-0.8-1-1.7-2.1-1.7-3.5c0-1.8,1.2-2.8,2.3-2.8C79.1,8.6,79.6,8.7,80,9.2z M77.8,14.9l-0.1,0.2
		c-0.6,1.2-1,3.3,0.4,3.3c0.5,0,0.9-0.3,0.9-1C79,16.6,78.5,15.8,77.8,14.9z M78.7,12.8l0.2-0.4c0.8-1.5,0.4-2.9-0.5-2.9
		c-0.4,0-0.8,0.4-0.8,1.1C77.7,11.4,78.1,12.1,78.7,12.8z"/>
	<path class="st0" d="M91.1,8.8v9.4l0.9,0.8v0.1h-3.7v-0.1l0.9-0.8V9.8L88.3,9V8.8H91.1z M91.2,6.6c0,0.6-0.5,1.1-1.1,1.1
		s-1.1-0.5-1.1-1.1s0.5-1.1,1.1-1.1S91.2,6,91.2,6.6z"/>
	<path class="st0" d="M97.2,8.8l-0.1,2h0.1c0.3-1.4,1.1-2.2,2-2.2c1.5,0,1.6,1.3,1.6,3.1v6.5l0.9,0.8v0.1h-7.2v-0.1l0.9-0.8V9.8
		L94.5,9V8.8H97.2z M97.3,12.5v5.7l0.9,0.8l0.7-0.8v-6.9c0-1-0.2-1.3-0.6-1.3C97.8,10.1,97.3,11.2,97.3,12.5z"/>
	<path class="st0" d="M115.6,12.5c0,4.2-0.4,6.5-2.4,6.9c0.6,0.1,1.1,0.5,1.4,1.3l0.2,0.7c0.3,0.8,0.7,1.3,1.3,1l0.1,0.2
		c-0.6,0.3-1.1,0.4-1.8,0.4c-1,0-1.5-0.5-1.9-1.9l-0.5-1.6c-2.3-0.2-2.8-2.6-2.8-6.9c0-4.4,0.8-7.7,3.2-7.7
		C114.8,4.8,115.6,8.1,115.6,12.5z M111.3,12.1c0,4.7,0.1,6.3,1.1,6.3c1.1,0,1.2-1.6,1.2-6.3c0-4-0.4-6.3-1.2-6.3
		C111.6,5.8,111.3,8.1,111.3,12.1z"/>
	<path class="st0" d="M121,8.8v7.9c0,1,0.2,1.3,0.6,1.3c0.6,0,1.1-1.1,1.1-2.4V9.8L121.7,9V8.8h2.8v9.4l0.9,0.8v0.1h-2.7l0.1-1.8
		h-0.1c-0.3,1.4-1,2-1.9,2c-1.5,0-1.7-1.3-1.7-3.1V9.8L118.2,9V8.8H121z"/>
	<path class="st0" d="M132.9,12.1v6.1l0.9,0.8v0.1H130c-1.4,0-2.4-1-2.4-3.2c0-1.3,0.4-2.3,1.2-2.8c-0.4-0.4-0.7-1.1-0.7-1.9
		c0-1.7,1-2.7,2.5-2.7C131.9,8.6,132.9,9.4,132.9,12.1z M128.9,13.1c0.3-0.2,0.8-0.3,1.2-0.3c0.3,0,0.6,0,0.9,0.1v-0.8
		c0-1.6-0.4-2.5-1.4-2.5c-0.7,0-1.4,0.5-1.4,1.7C128.2,12,128.5,12.7,128.9,13.1z M129.5,16c0,1.6,0.3,2.4,1,2.4
		c0.2,0,0.3,0,0.5-0.2v-4.9c-0.1,0-0.1,0-0.2,0C129.8,13.4,129.5,14.4,129.5,16z"/>
	<path class="st0" d="M139.2,8.8l-0.1,2.1h0.1c0-0.9,0.7-2.4,2-2.4v5.3H141v-1.5l-0.7-1.7c-0.7,0-1.2,1.1-1.2,2.2v5.4l1.1,0.9v0.1
		h-3.9v-0.1l0.9-0.9V9.8L136.4,9V8.8H139.2z"/>
	<path class="st0" d="M149,12.1v6.1l0.9,0.8v0.1h-3.8c-1.4,0-2.4-1-2.4-3.2c0-1.3,0.4-2.3,1.2-2.8c-0.4-0.4-0.7-1.1-0.7-1.9
		c0-1.7,1-2.7,2.5-2.7C147.9,8.6,149,9.4,149,12.1z M144.9,13.1c0.3-0.2,0.8-0.3,1.2-0.3c0.3,0,0.6,0,0.9,0.1v-0.8
		c0-1.6-0.4-2.5-1.4-2.5c-0.7,0-1.4,0.5-1.4,1.7C144.3,12,144.5,12.7,144.9,13.1z M145.6,16c0,1.6,0.3,2.4,1,2.4
		c0.2,0,0.3,0,0.5-0.2v-4.9c-0.1,0-0.1,0-0.2,0C145.8,13.4,145.6,14.4,145.6,16z"/>
	<path class="st0" d="M155.1,8.8l-0.1,2h0.1c0.3-1.4,1.1-2.2,2-2.2c1.5,0,1.6,1.3,1.6,3.1v6.5l0.9,0.8v0.1h-7.2v-0.1l0.9-0.8V9.8
		L152.4,9V8.8H155.1z M155.2,12.5v5.7l0.9,0.8l0.7-0.8v-6.9c0-1-0.2-1.3-0.6-1.3C155.7,10.1,155.2,11.2,155.2,12.5z"/>
	<path class="st0" d="M166.3,16.4c0,2.4-0.6,3.1-1.7,3.1c-1.5,0-2-1.1-2-3.1V9.9h-1V9.8l2.7-3.2l0.1,0v2.2h1.8V16.4z M164.4,9.9v6
		c0,1.9,0.3,2.2,0.8,2.2c0.5,0,0.9-0.4,0.9-1.8v-4.8l-0.5-1.7H164.4z"/>
	<path class="st0" d="M171.8,8.8v9.4l0.9,0.8v0.1H169v-0.1l0.9-0.8V9.8L169,9V8.8H171.8z M171.9,6.6c0,0.6-0.5,1.1-1.1,1.1
		s-1.1-0.5-1.1-1.1s0.5-1.1,1.1-1.1S171.9,6,171.9,6.6z"/>
	<path class="st0" d="M177.9,8.8l-0.1,2h0.1c0.3-1.4,1.1-2.2,2-2.2c1.5,0,1.6,1.3,1.6,3.1v6.5l0.9,0.8v0.1h-7.2v-0.1l0.9-0.8V9.8
		L175.2,9V8.8H177.9z M178,12.5v5.7l0.9,0.8l0.7-0.8v-6.9c0-1-0.2-1.3-0.6-1.3C178.5,10.1,178,11.2,178,12.5z"/>
	<path class="st0" d="M189.9,13.9c0,4.3-0.9,5.5-2.5,5.5c-1.8,0-2.6-1.6-2.6-5.2c0-3.4,0.6-5.7,2.8-5.7
		C189.2,8.6,189.9,9.8,189.9,13.9z M189.7,13.9h-3.2c0,2.6,0.4,4,1.5,4C189,18,189.7,16.6,189.7,13.9z M186.6,13.1h1.8
		c0-2.8-0.3-3.7-0.9-3.7C187,9.4,186.6,10.3,186.6,13.1z"/>
</g>
</svg>
