<svg id="레이어_1" data-name="레이어 1" xmlns="http://www.w3.org/2000/svg" xmlns:xlink="http://www.w3.org/1999/xlink" viewBox="0 0 320 320"><defs><style>.cls-1{fill:none;}.cls-2{clip-path:url(#clip-path);}.cls-3{fill:#c8a8e3;}</style><clipPath id="clip-path"><rect class="cls-1" width="320" height="320"/></clipPath></defs><title>container대지 3</title><g class="cls-2"><path class="cls-3" d="M320,160c0-13-5.2-25.29-14.52-36.36C314.8,112.57,320,100.25,320,87.27,320,39.07,248.37,0,160,0S0,39.07,0,87.27c0,13,5.2,25.3,14.52,36.37C5.2,134.71,0,147,0,160s5.2,25.29,14.52,36.36C5.2,207.43,0,219.75,0,232.73,0,280.93,71.63,320,160,320s160-39.07,160-87.27c0-13-5.2-25.3-14.52-36.37C314.8,185.29,320,173,320,160"/></g></svg>