<svg id="레이어_1" data-name="레이어 1" xmlns="http://www.w3.org/2000/svg" xmlns:xlink="http://www.w3.org/1999/xlink" viewBox="0 0 40 40"><defs><style>.cls-1{fill:none;}.cls-2{clip-path:url(#clip-path);}.cls-3{fill:#c8a8e3;}.cls-4{fill:#9150c8;}</style><clipPath id="clip-path"><rect class="cls-1" width="40.01" height="40.01"/></clipPath></defs><title>logo대지 1</title><g class="cls-2"><path class="cls-3" d="M10,37.32A20,20,0,1,0,2.68,10,20,20,0,0,0,10,37.32"/><path class="cls-4" d="M11,15.56,14.8,27.75l2.82-1.06a55.58,55.58,0,0,0-5-10.11l.14-.12c2.65,1.94,6.8,4.78,10.37,6.84L28,26.13l1.29-2.25-4.9-2.83c-3.57-2.06-8.07-4.28-11.06-5.64l0-.18A51.56,51.56,0,0,0,24.6,14.6l-.49-3L11.67,14.44Z"/></g></svg>