<?xml version="1.0" encoding="utf-8"?>
<!-- Generator: Adobe Illustrator 25.0.1, SVG Export Plug-In . SVG Version: 6.00 Build 0)  -->
<svg version="1.1" xmlns="http://www.w3.org/2000/svg" xmlns:xlink="http://www.w3.org/1999/xlink" x="0px" y="0px"
	 viewBox="0 0 1024 459.1" style="enable-background:new 0 0 1024 459.1;" xml:space="preserve">
<style type="text/css">
	.st0{fill:#00FF00;}
	.st1{display:none;}
	.st2{display:inline;}
	.st3{fill:#0000FF;}
</style>
<g id="레이어_2">
	<g>
		<path class="st0" d="M301.9,12.1L314,2.4l1.8,0.6l-15.7,92.6h18.8v124.7l-17.6-17.2c-4.2,11.8-14.2,18.8-27.5,18.8
			c-30.3,0-43.9-32.1-43.9-105.6C229.9,45.4,251.1,0,281.3,0C291,0,298.6,4.8,301.9,12.1z M260.7,109.5c0,75.4,9.1,92,18.8,92
			c7,0,10.9-4.5,10.9-17.2v-73.8l-13.9-12.7v-2.1h20.6c8.2-36.6,2.1-79.9-15.7-79.9C270.7,15.7,260.7,36.3,260.7,109.5z"/>
		<path class="st0" d="M366.8,61.1v141.9l13.9,12.7v2.1h-56.3v-2.1l13.9-12.7V76l-13.9-12.7v-2.1H366.8z M368.6,26.6
			c0,8.8-7.3,16-16,16s-16-7.3-16-16c0-8.8,7.3-16,16-16S368.6,17.9,368.6,26.6z"/>
		<path class="st0" d="M424.7,61.1l-1.5,32.4h1.2c0-13,10.6-36.6,30.6-36.6v80.2h-2.1v-22.7l-10.3-26c-10.6,0-17.9,16-17.9,32.7
			v81.4l16.9,13.3v2.1h-59.3v-2.1l13.9-13.3V76l-13.9-12.7v-2.1H424.7z"/>
		<path class="st0" d="M491.1,3.3v199.7l13.9,12.7v2.1h-56.3v-2.1l13.9-12.7V18.2L448.8,5.4V3.3H491.1z"/>
		<path class="st0" d="M574.3,66l11.8-4.8l1.2,0.6l-30.6,61.1c13.3,14.8,29.1,30.6,29.1,55.7c0,27.5-19.7,43.3-38.1,43.3
			c-11.2,0-21.8-2.7-28.4-9.1l-12.1,5.1l-1.5-0.9l34.2-65.7c-12.1-15.4-25.4-31.2-25.4-52.7c0-27.5,18.2-41.8,35.1-41.8
			C560.6,56.9,568.5,59.6,574.3,66z M541.3,153.4l-1.5,3.3c-9.1,18.8-14.8,50.5,6.4,50.5c7.6,0,13.3-4.8,13.3-15.1
			C559.4,177.9,551,165.8,541.3,153.4z M554.9,120.7l3-5.7c11.8-23.3,5.8-43.3-7.3-43.3c-6.7,0-11.8,5.7-11.8,16
			C538.9,100.5,546.1,110.8,554.9,120.7z"/>
		<path class="st0" d="M675.3,61.1v141.9l13.9,12.7v2.1H633v-2.1l13.9-12.7V76L633,63.2v-2.1H675.3z M677.1,26.6c0,8.8-7.3,16-16,16
			c-8.8,0-16-7.3-16-16c0-8.8,7.3-16,16-16C669.9,10.6,677.1,17.9,677.1,26.6z"/>
		<path class="st0" d="M731.7,61.1l-1.2,30.6h0.9c5.1-21.2,16-33.6,30-33.6c22.4,0,24.8,19.7,24.8,46.9v98l13.9,12.7v2.1H690.9v-2.1
			l13.9-12.7V76l-13.9-12.7v-2.1H731.7z M733.2,116.2v86.8l13.3,12.7l11.2-12.7V99c0-14.5-2.7-19.1-8.5-19.1
			C740.8,79.9,733.2,96.8,733.2,116.2z"/>
		<path class="st0" d="M164.8,299.9c0,62.9-6.1,97.7-36.6,104.4c9.4,2.1,16.9,7.9,20.6,19.1l3.3,10.3c4.2,12.7,10.9,19.4,19.7,15.7
			l0.9,3.3c-9.7,4.2-17.2,6.4-26.6,6.4c-14.5,0-22.1-8.2-28.4-29.4l-7.6-24.8c-34.8-3.6-41.8-38.7-41.8-105
			c0-66.9,11.5-116.2,48.1-116.2C153.3,183.7,164.8,233.1,164.8,299.9z M99.1,293.9c0,70.5,1.8,95.3,17.2,95.3
			c16,0,17.6-24.8,17.6-95.3c0-60.8-6.1-95-17.9-95S99.1,233.1,99.1,293.9z"/>
		<path class="st0" d="M208.9,244.9v118.9c0,14.5,2.7,19.1,8.5,19.1c8.5,0,16-16.9,16-36.3v-86.8L219.8,247v-2.1h42.1v141.9
			l13.9,12.7v2.1H235l1.2-27.5h-0.9c-5.1,21.2-15.4,30.6-29.4,30.6c-22.4,0-25.4-19.7-25.4-46.9v-98L166.6,247v-2.1H208.9z"/>
		<path class="st0" d="M352.7,293.9v92.9l13.9,12.7v2.1h-58.1c-20.6,0-36-14.8-36-48.1c0-20,6.4-35.1,17.6-43
			c-6.1-5.4-11.2-16.3-11.2-28.4c0-25.1,14.8-41.5,37.8-41.5C337,240.6,352.7,253.3,352.7,293.9z M291.6,309.3
			c5.1-3.3,11.5-5.1,18.5-5.1c4.5,0,9.1,0.3,13.9,1.2v-11.5c0-23.9-6.4-37.2-21.2-37.2c-11.2,0-21.5,8.2-21.5,25.4
			C281.3,293.3,285.5,303.6,291.6,309.3z M301.6,353.8c0,24.8,3.9,36.3,14.8,36.3c2.4,0,4.8-0.6,7.6-2.4v-73.5
			c-0.9-0.3-1.8-0.3-2.7-0.3C305.2,313.9,301.6,329.3,301.6,353.8z"/>
		<path class="st0" d="M410.8,244.9l-1.5,32.4h1.2c0-13,10.6-36.6,30.6-36.6v80.2h-2.1v-22.7l-10.3-26c-10.6,0-17.9,16-17.9,32.7
			v81.4l16.9,13.3v2.1h-59.3v-2.1l13.9-13.3V259.7L368.4,247v-2.1H410.8z"/>
		<path class="st0" d="M522.1,293.9v92.9l13.9,12.7v2.1h-58.1c-20.6,0-36-14.8-36-48.1c0-20,6.4-35.1,17.6-43
			c-6.1-5.4-11.2-16.3-11.2-28.4c0-25.1,14.8-41.5,37.8-41.5C506.3,240.6,522.1,253.3,522.1,293.9z M460.9,309.3
			c5.1-3.3,11.5-5.1,18.5-5.1c4.5,0,9.1,0.3,13.9,1.2v-11.5c0-23.9-6.4-37.2-21.2-37.2c-11.2,0-21.5,8.2-21.5,25.4
			C450.6,293.3,454.9,303.6,460.9,309.3z M470.9,353.8c0,24.8,3.9,36.3,14.8,36.3c2.4,0,4.8-0.6,7.6-2.4v-73.5
			c-0.9-0.3-1.8-0.3-2.7-0.3C474.5,313.9,470.9,329.3,470.9,353.8z"/>
		<path class="st0" d="M578.6,244.9l-1.2,30.6h0.9c5.1-21.2,16-33.6,30-33.6c22.4,0,24.8,19.7,24.8,46.9v98l13.9,12.7v2.1H537.7
			v-2.1l13.9-12.7V259.7L537.7,247v-2.1H578.6z M580.1,299.9v86.9l13.3,12.7l11.2-12.7V282.7c0-14.5-2.7-19.1-8.5-19.1
			C587.7,263.6,580.1,280.6,580.1,299.9z"/>
		<path class="st0" d="M710,359.2c0,35.7-9.4,46.3-26.3,46.3c-22.7,0-29.7-16.9-29.7-47.5v-96.5h-14.5v-1.8l41.5-49l1.5,0.6v33.6
			H710V359.2z M682.4,261.5v91.4c0,28.4,4.2,33.3,12.1,33.3c7.9,0,13.3-5.4,13.3-26.9v-72l-8.2-25.7H682.4z"/>
		<path class="st0" d="M756.7,244.9v141.9l13.9,12.7v2.1h-56.3v-2.1l13.9-12.7V259.7L714.3,247v-2.1H756.7z"/>
		<path class="st0" d="M813,244.9l-1.2,30.6h0.9c5.1-21.2,16-33.6,30-33.6c22.4,0,24.8,19.7,24.8,46.9v98l13.9,12.7v2.1H772.2v-2.1
			l13.9-12.7V259.7L772.2,247v-2.1H813z M814.5,299.9v86.9l13.3,12.7l11.2-12.7V282.7c0-14.5-2.7-19.1-8.5-19.1
			C822.1,263.6,814.5,280.6,814.5,299.9z"/>
		<path class="st0" d="M956.3,321.7c0,65.7-14.2,83.8-37.2,83.8c-26.9,0-39.9-24.5-39.9-78.4c0-51.4,9.7-86.5,41.8-86.5
			C946,240.6,956.3,258.8,956.3,321.7z M954.4,322h-47.8c0,39.6,5.4,60.8,22.1,60.8C942.6,382.8,954.4,362.6,954.4,322z
			 M907.2,308.7h26.6c0-42.4-4.8-55.7-13.3-55.7C912.7,253,907.2,266.6,907.2,308.7z"/>
	</g>
</g>
<g id="레이어_1" class="st1">
	<g class="st2">
		<path class="st3" d="M54.2,82.4c-0.9,0-1.6,0.1-1.8,0.1v2.3h-2v-2.2c-0.4,0-0.6,0-1.2,0.1c-0.9,0-1.6,0.1-2,0.1
			c-0.1,0-0.6,0.3-0.6-0.1c-0.1-0.4-0.1-1.4-0.1-1.8c0.7,0,2.5-0.1,4.9-0.1c0.7,0,1.2,0,1.7,0c0.1-0.6,0.1-2.4,0.1-2.9h-5.7v-1.8
			h7.8c0,0.9,0,3.5-0.2,4.7c0.5,0,1,0,1.3,0v1.8C55.8,82.3,55.1,82.3,54.2,82.4z M48.3,89.1V85c0.6,0,1.3,0,1.8,0
			c0.8,0,0.4,0.6,0.4,0.8v1.5h9.1v1.8H48.3z M57.2,85.8v-1.1h-2.9v-1.7h2.9v-8.3c0.5,0,1.3,0,1.8,0c0.7,0,0.3,0.4,0.3,0.6v10.4H57.2
			z"/>
		<path class="st3" d="M76.2,85.9c-1.1-1.1-1.8-2.3-2.1-3.1c-0.3,0.8-1.3,2.4-2.6,3.4c-0.4-0.5-0.9-1.2-1.5-1.6
			c0.9-0.7,2-1.6,2.6-3.4c0.7-2.1,0.5-4.1,0.5-4.8c0.5,0,1.6,0,2,0c0.5,0,0.1,0.5,0.1,0.6c0,0.2-0.2,2.2-0.1,2.9
			c0.5,2.9,1.7,3.7,2.3,4.3C77.2,84.5,76.5,85.4,76.2,85.9z M78.1,88.9v-7.5h-1.9v-1.8h1.9v-4.4c0.6,0,1.2,0,1.8,0
			c0.6,0,0.2,0.6,0.2,1v12.7H78.1z M81.5,89.5V74.8c0.4,0,1.6,0,1.9,0c0.5,0,0.2,0.4,0.2,0.7v14H81.5z"/>
		<path class="st3" d="M102.4,83c-0.4-0.1-1.4-0.4-2.1-1.1c-0.8-0.7-1-1.1-1.2-1.3c-0.1,0.2-0.5,1-1.7,1.8c-0.9,0.6-1.4,0.8-1.8,0.9
			c-0.2-0.4-1.1-1.3-1.4-1.5c0.5-0.2,1.7-0.5,2.7-1.4c1-0.9,1.2-2.3,1.2-2.9h-2.8v-1.8h7.6v1.8H100c0,0.6,0.1,1.6,0.9,2.5
			c1.1,1.1,2.1,1.3,2.6,1.4C103.1,81.9,102.7,82.6,102.4,83z M101.9,89.3c-2.2,0-5.6-0.4-5.6-2.7c0-2.3,3.2-2.8,5.6-2.8
			c2.3,0,5.5,0.4,5.5,2.8C107.4,88.9,104.2,89.3,101.9,89.3z M101.8,85.4c-1.1,0-3.4,0.2-3.4,1.2c0,1,2.3,1.1,3.4,1.1
			c1.2,0,3.4-0.1,3.4-1.1C105.3,85.6,103,85.4,101.8,85.4z M105.1,83.7v-3.6h-2.5v-1.8h2.5v-3.5c0.4,0,1.4,0,1.8,0
			c0.7,0,0.4,0.3,0.4,0.5v8.4H105.1z"/>
		<path class="st3" d="M118.3,90c0.4-0.4,0.9-1.4,0.9-2c-0.5,0-1-0.3-1-0.9s0.4-1,0.9-1s0.9,0.5,0.9,1.1
			C120,88.5,119.3,89.6,118.3,90L118.3,90z"/>
		<path class="st3" d="M191.2,114.6v-7.1c0.4,0,1.1,0,1.9,0c0.4,0,0.1,0.4,0.1,0.6v1.4h3.1v-2c0.5,0,1.1,0,1.9,0
			c0.4,0,0.1,0.4,0.1,0.7v6.4H191.2z M200.8,121.5v-3.8h-8.9v-1.9h11v5.7H200.8z M196.4,111.2h-3.1v1.7h3.1V111.2z M202.9,112.2v2.8
			h-2.1v-8.3c0.3,0,1.7,0,2,0c0.5,0,0.1,0.6,0.1,0.8v2.7h1.9v2H202.9z"/>
		<path class="st3" d="M214.1,119.5v-2h6v-1.9c0.5,0,1.5,0,2.1,0.1c0.5,0,0.1,0.4,0.1,0.7v1.1h5.9v2H214.1z M215.8,115.3v-7.1
			c0.5,0,1.4,0,2,0c0.5,0,0.2,0.5,0.2,0.8v1.1h6.5v-1.9c0.5,0,1.5,0,1.9,0c0.5,0,0.2,0.6,0.2,0.7v6.3H215.8z M224.4,111.8H218v1.7
			h6.5V111.8z"/>
		<path class="st3" d="M238.9,118v-9.7h7.2v9.7H238.9z M244,110.2H241v6.1h3.1V110.2z M250.6,114.6v6.9h-2.1v-14.7
			c0.3,0,1.5,0,2,0.1c0.6,0,0.2,0.4,0.2,0.9v4.9h1.9v2H250.6z"/>
		<path class="st3" d="M261.8,122c0.4-0.4,0.9-1.4,0.9-2c-0.5,0-1-0.3-1-0.9s0.4-1,0.9-1s0.9,0.5,0.9,1.1
			C263.5,120.5,262.8,121.6,261.8,122L261.8,122z"/>
		<path class="st3" d="M191.3,178.8v-6.9c0.4,0,1,0,1.7,0c0.4,0,0.1,0.4,0.1,0.6v1.2h1.8v-1.8c0.2,0,1,0,1.7,0
			c0.4,0,0.2,0.4,0.2,0.7v6.2H191.3z M201.6,185.5v-3.7h-9.1v-1.8h11.3v5.6H201.6z M195,175.5h-1.8v1.5h1.8V175.5z M201.6,179.3
			v-3.1h-1.4v3.1h-2v-8.3c0.3,0,1.4,0,1.7,0c0.8,0,0.4,0.4,0.4,0.6v2.8h1.4v-3.7c0.4,0,1.4,0,1.9,0c0.6,0,0.2,0.5,0.2,0.7v7.8H201.6
			z"/>
		<path class="st3" d="M222.6,180v5.5h-2.1V180h-6.1v-1.9h14.2v1.9H222.6z M226.8,176.5c-0.8-0.1-1.9-0.3-3.5-1.1
			c-1.1-0.5-1.7-1.3-2-1.6c-0.2,0.3-0.9,1.3-2.7,2.2c-1.1,0.5-2.1,0.7-2.6,0.8c-0.4-0.5-0.8-1-1.3-1.6c0.7-0.1,2.6-0.4,3.8-1.2
			c1.6-1.2,1.7-1.9,1.9-2.5c0.4,0,1.2,0,2,0.1c0.4,0,0.1,0.3,0.1,0.6c0.2,0.5,0.5,1.1,1.5,1.6c1.8,0.9,2.9,1,4.1,1.1
			C227.8,175.1,227.1,176,226.8,176.5z"/>
		<path class="st3" d="M238.8,175.2v-1.7h8.9v1.7H238.8z M243.4,180.4c-1,0-4-0.3-4-2.3c0-2.2,2.8-2.4,4-2.4c1.1,0,3.8,0.2,3.8,2.4
			C247.2,180.2,244.4,180.4,243.4,180.4z M240.5,185v-4.2c0.3,0,1.6,0,1.8,0c0.7,0,0.3,0.5,0.3,0.8v1.4h8.8v2H240.5z M241.2,172.8
			v-1.5h4.1v1.5H241.2z M243.4,177.1c-0.5,0-1.8,0.2-1.8,1c0,0.8,1.5,0.9,1.8,0.9c0.4,0,1.7-0.1,1.7-0.9
			C245.1,177.3,244,177.1,243.4,177.1z M249.2,181.7v-1.6h-1.7v-1.7h1.7v-0.8h-1.7v-1.7h1.7v-5c0.4,0,1.7,0,1.9,0
			c0.7,0,0.3,0.6,0.3,0.7v10.2H249.2z"/>
		<path class="st3" d="M262.4,186c0.4-0.4,0.9-1.4,0.9-2c-0.5,0-1-0.3-1-0.9s0.4-1,0.9-1s0.9,0.5,0.9,1.1
			C264.1,184.5,263.4,185.6,262.4,186L262.4,186z"/>
		<path class="st3" d="M158.8,211c-2.4,0-4-1.6-4-3.6c0-2,1.7-3.6,4-3.6c2.4,0,4,1.6,4,3.6C162.9,209.4,161.2,211,158.8,211z
			 M156.5,217v-4.7c0.3,0,1.6,0,1.8,0c0.7,0,0.3,0.5,0.3,0.8v1.9h8.6v2H156.5z M158.8,205.7c-1,0-1.9,0.8-1.9,1.7
			c0,1,0.8,1.7,1.9,1.7s1.9-0.8,1.9-1.7C160.7,206.5,160,205.7,158.8,205.7z M166.9,209.3v3.9h-2.1v-10.5c0.3,0,1.7,0,2,0
			c0.5,0,0.1,0.6,0.1,0.8v3.8h1.9v2H166.9z"/>
		<path class="st3" d="M178.3,215.5v-2h5.9v-2c0.5,0,1.5,0,2.1,0.1c0.5,0,0.1,0.4,0.1,0.7v1.2h6.1v2H178.3z M190.7,212
			c-0.6-0.1-1.6-0.2-3.1-0.9c-1.4-0.6-1.8-1.2-2.2-1.6c-0.4,0.5-1,1.1-2.4,1.8c-1.3,0.6-2.3,0.8-3,0.9c-0.3-0.5-1.3-1.7-1.3-1.7
			c0,0,2.3-0.3,3.5-0.9c1.6-0.9,1.8-1.3,2.1-1.7h-4.7v-1.8h11.6v1.8h-4.7c0.3,0.4,0.5,1,2.1,1.6c1.3,0.5,2.9,0.7,3.5,0.8
			C191.6,210.7,191.1,211.4,190.7,212z M182.9,205.1v-1.6h4.9v1.6H182.9z"/>
		<path class="st3" d="M202.6,211.9v-1.6h6v-0.8h-4.2v-3.8h8.5v-0.7h-8.5v-1.6h10.5v3.9h-8.5v0.7h8.6v1.6h-4.4v0.8h6v1.6H202.6z
			 M209.6,217.2c-1.4,0-5.5,0-5.5-2.4c0-2.4,4-2.4,5.5-2.4c1.5,0,5.6,0,5.6,2.4C215.2,217.3,211,217.2,209.6,217.2z M209.6,213.9
			c-0.6,0-3.5,0-3.6,1c0,0.9,3,1,3.5,1c0.5,0,3.7-0.1,3.7-1C213.3,213.8,210.2,213.9,209.6,213.9z"/>
		<path class="st3" d="M226.2,218c0.4-0.4,0.9-1.4,0.9-2c-0.5,0-1-0.3-1-0.9s0.4-1,0.9-1s0.9,0.5,0.9,1.1
			C228,216.5,227.3,217.6,226.2,218L226.2,218z"/>
	</g>
	<g class="st2">
		<path class="st3" d="M609.7,66.3c-2.3,0-4-1.6-4-3.5c0-1.9,1.7-3.5,4-3.5c2.3,0,4,1.6,4,3.5C613.7,64.7,612,66.3,609.7,66.3z
			 M612.5,72.8c-2.2,0-5.5-0.4-5.5-2.7c0-2.3,3.1-2.8,5.5-2.8c2.3,0,5.4,0.4,5.4,2.8C617.9,72.4,614.9,72.8,612.5,72.8z M609.7,61.1
			c-1,0-1.8,0.8-1.8,1.7s0.8,1.7,1.8,1.7s1.8-0.8,1.8-1.7S610.8,61.1,609.7,61.1z M612.4,68.9c-1.1,0-3.3,0.2-3.3,1.2
			c0,1,2.2,1.1,3.3,1.1c1.2,0,3.3-0.1,3.3-1.1C615.8,69.1,613.6,68.9,612.4,68.9z M617.8,65.5v1.5h-2.1v-8.8c0.3,0,1.3,0,1.8,0
			c0.9,0,0.4,0.4,0.4,0.6v1.3h1.9v1.8h-1.9v1.7h1.9v1.8H617.8z"/>
		<path class="st3" d="M640.3,67.3v2h-2v-2h-1.7v2.1h-2v-2.1h-4.7v-1.8h14.1v1.8H640.3z M636.8,64.3c-2.4,0-5.6-0.3-5.6-2.7
			c0-2.3,3.3-2.7,5.6-2.7c2.2,0,5.6,0.4,5.6,2.7C642.4,63.9,639.1,64.3,636.8,64.3z M631.5,72.6v-4.2c0.7,0,1.5,0,1.9,0
			c0.6,0,0.2,0.5,0.2,0.7v1.7h8.9v1.8H631.5z M636.7,60.5c-1.3,0-3.3,0.2-3.3,1c0,0.9,2.1,1,3.3,1c1.4,0,3.3-0.1,3.3-1
			C640,60.7,638.1,60.5,636.7,60.5z"/>
		<path class="st3" d="M659.5,70.2c-2.7,0.2-4.2,0.2-4.8,0.2c-0.2,0-0.9,0.5-1,0c-0.1-0.7-0.1-1.4-0.1-1.8c0.5,0,1.1,0,2.1,0
			c0.3,0,1.2,0,2.2-0.1l0-0.8c-0.5,0-2.6-0.3-2.6-2.1c0-1.8,2.4-2.1,3.5-2.1c1.2,0,3.4,0.3,3.4,2.1c0,1.7-2,2-2.4,2.1v0.7
			c1,0,1.7-0.1,1.7-0.1c0.9,0,1.7-0.1,2.1-0.1v1.6C663.1,70,661.7,70.1,659.5,70.2z M654.6,63v-1.6h8.5V63H654.6z M656.8,60.7v-1.5
			h4.2v1.5H656.8z M658.9,64.9c-0.3,0-1.5,0.1-1.6,0.8c0,0.7,1,0.8,1.5,0.8c0.4,0,1.5-0.1,1.5-0.8C660.3,64.9,659.3,64.9,658.9,64.9
			z M666.3,66.2V73h-2.1V58.3c0.3,0,1.5,0,2,0.1c0.6,0,0.2,0.4,0.2,0.9v4.9h1.9v2H666.3z"/>
		<path class="st3" d="M677.5,73.6c0.4-0.4,0.9-1.4,0.9-2c-0.5,0-1-0.3-1-0.9s0.4-1,0.9-1c0.5,0,0.9,0.5,0.9,1.1
			C679.2,72,678.5,73.1,677.5,73.6L677.5,73.6z"/>
		<path class="st3" d="M753.5,106.3c-2.2,0-3.9-1.8-3.9-5.3c0-3.5,1.8-5.4,3.9-5.4c2.2,0,3.7,1.9,3.7,5.4
			C757.3,104.5,756,106.3,753.5,106.3z M753.5,97.6c-1.3,0-1.8,1.9-1.8,3.4c0,1.5,0.5,3.4,1.8,3.4c1.4,0,1.7-1.9,1.7-3.4
			C755.2,99.5,754.8,97.6,753.5,97.6z M760.1,109V94.3c0.5,0,1.7,0,1.9,0c0.6,0,0.3,0.5,0.3,0.8V109H760.1z"/>
		<path class="st3" d="M781.3,103.9v5.2h-2.1v-5.2h-6.1V102h14.2v1.9H781.3z M785.5,100.8c-0.8,0-2-0.1-3.4-0.8
			c-1.1-0.5-1.6-1.2-1.8-1.3c-0.2,0.2-0.9,1-2.5,1.7c-1,0.4-1.7,0.6-2.8,0.7c-0.3-0.4-0.8-1.2-1.2-1.6c0.9,0,2.2-0.2,3.1-0.5
			c1.6-0.7,2-1.3,2.4-1.9h-4.6v-1.7h11.3v1.7h-4.6c0.2,0.3,0.6,1,1.7,1.5c1.4,0.6,3,0.7,3.6,0.8C786.3,99.5,785.7,100.4,785.5,100.8
			z"/>
		<path class="st3" d="M801.5,102.6c-2.4,0-4-1.6-4-3.6c0-2,1.7-3.6,4-3.6c2.4,0,4,1.6,4,3.6C805.5,101,803.8,102.6,801.5,102.6z
			 M799.1,108.6v-4.7c0.3,0,1.6,0,1.8,0c0.7,0,0.3,0.5,0.3,0.8v1.9h8.8v2H799.1z M801.5,97.3c-1,0-1.9,0.8-1.9,1.7
			c0,1,0.8,1.7,1.9,1.7c1.1,0,1.9-0.8,1.9-1.7C803.3,98.1,802.6,97.3,801.5,97.3z M807.8,104.8v-3.1h-2.2V100h2.2v-1.8h-2.1v-1.7
			h2.1v-2.2c0.4,0,1.7,0,1.9,0c0.7,0,0.3,0.6,0.3,0.7v9.7H807.8z"/>
		<path class="st3" d="M820.9,109.6c0.4-0.4,0.9-1.4,0.9-2c-0.5,0-1-0.3-1-0.9s0.4-1,0.9-1c0.5,0,0.9,0.5,0.9,1.1
			C822.6,108,821.9,109.1,820.9,109.6L820.9,109.6z"/>
		<path class="st3" d="M649.4,138.6c-0.4-0.1-1.3-0.4-2.1-1.1c-0.8-0.6-1-1.1-1.2-1.3c-0.1,0.2-0.5,1-1.7,1.8
			c-0.9,0.6-1.4,0.8-1.8,0.9c-0.2-0.4-1.1-1.3-1.4-1.5c0.5-0.2,1.7-0.5,2.7-1.4c1-0.9,1.2-2.2,1.2-2.9h-2.8v-1.8h7.6v1.8H647
			c0,0.6,0.1,1.7,0.9,2.5c1.1,1.1,2.1,1.3,2.6,1.4C650.1,137.4,649.7,138.1,649.4,138.6z M648.5,144.8c-2.2,0-5.5-0.4-5.5-2.7
			c0-2.3,3.1-2.8,5.5-2.8c2.3,0,5.4,0.4,5.4,2.8C653.9,144.4,650.9,144.8,648.5,144.8z M648.4,140.9c-1.1,0-3.3,0.2-3.3,1.2
			c0,1,2.2,1.1,3.3,1.1c1.2,0,3.3-0.1,3.3-1.1C651.8,141.1,649.6,140.9,648.4,140.9z M653.8,136.3v2.8h-2.1v-8.8c0.3,0,1.7,0,2,0
			c0.5,0,0.1,0.6,0.1,0.8v3.2h1.9v2H653.8z"/>
		<path class="st3" d="M672.5,141.6c-0.4-0.3-1.2-0.7-2-1.7c-0.7-0.9-1-1.7-1.2-2.1c-0.1,0.4-0.5,1.2-1.2,2.1c-0.8,1-1.4,1.6-2,2
			c-0.3-0.4-1.1-1.2-1.6-1.5c0.5-0.4,2.1-1.4,2.9-3.3c1-2.1,0.8-4.1,0.8-5.3c0.4,0,1.2,0,1.9,0c0.8,0.1,0.2,0.6,0.2,0.9
			c-0.1,1.4-0.1,2.3,0.5,3.9c0.7,1.9,2,2.9,3,3.5C673.4,140.4,672.8,141.2,672.5,141.6z M675.5,145v-8.2h-2.9v-1.9h2.9v-4.6
			c0.5,0,1.3,0,2,0.1c0.6,0,0.2,0.6,0.2,1.1V145H675.5z"/>
		<path class="st3" d="M692.7,138.3c-2.3,0-4-1.6-4-3.5s1.7-3.5,4-3.5c2.3,0,4,1.6,4,3.5S695,138.3,692.7,138.3z M695.8,144.8
			c-2.2,0-5.6-0.4-5.6-2.7c0-2.3,3.2-2.8,5.6-2.8c2.3,0,5.5,0.4,5.5,2.8C701.3,144.4,698.2,144.8,695.8,144.8z M692.7,133.1
			c-1,0-1.8,0.8-1.8,1.7s0.8,1.7,1.8,1.7s1.8-0.8,1.8-1.7S693.8,133.1,692.7,133.1z M695.8,140.9c-1.1,0-3.4,0.2-3.4,1.2
			c0,1,2.3,1.1,3.4,1.1c1.2,0,3.4-0.1,3.4-1.1C699.2,141.1,696.9,140.9,695.8,140.9z M699,139.2v-1.7h-2.2v-1.7h2.2v-1.6h-2.2v-1.7
			h2.2v-2.1c0.4,0,1.7,0,1.9,0c0.7,0,0.3,0.6,0.3,0.7v8.1H699z"/>
		<path class="st3" d="M712.2,145.6c0.4-0.4,0.9-1.4,0.9-2c-0.5,0-1-0.3-1-0.9s0.4-1,0.9-1c0.5,0,0.9,0.5,0.9,1.1
			C714,144,713.2,145.1,712.2,145.6L712.2,145.6z"/>
	</g>
	<g class="st2">
		<path class="st3" d="M392.5,198.8c-1.7,0.1-4,0.2-4.4,0.2c-0.4,0-0.9,0.4-1-0.2c-0.1-0.5,0-1.4,0-1.7c0.2,0,0.6,0,1.2,0
			c0.6,0,1.9-0.1,2.9-0.1v-1.8c0.2,0,1.3,0,1.8,0c0.5,0,0.1,0.5,0.1,0.8v0.9c1.2-0.1,2.5-0.1,3.9-0.3v1.8
			C395.7,198.6,394.3,198.7,392.5,198.8z M395.8,195.8c-0.3,0-1.1-0.1-2.1-0.8c-0.8-0.5-1.2-1-1.3-1.2c-0.1,0.2-0.5,0.7-1.6,1.3
			c-0.7,0.4-1.7,0.7-2.1,0.8c-0.4-0.5-1.1-1.2-1.4-1.5c0.6-0.1,1.8-0.4,2.5-0.9c0.9-0.6,1.1-0.8,1.5-1.3h-3.3v-1.7h8.3v1.7h-3
			c0.2,0.3,0.4,0.7,1.6,1.3c0.9,0.5,1.5,0.6,2.1,0.8C396.6,194.7,396,195.4,395.8,195.8z M390,190v-1.5h4.4v1.5H390z M397.6,202.1
			v-14.7c0.3,0,1.5,0,2,0.1c0.6,0,0.2,0.4,0.2,0.9v13.8H397.6z"/>
		<path class="st3" d="M410.6,200.1v-2h6v-1.9c0.5,0,1.5,0,2.1,0.1c0.5,0,0.1,0.4,0.1,0.7v1.1h5.9v2H410.6z M412.2,195.8v-7.1
			c0.5,0,1.4,0,2,0c0.5,0,0.2,0.5,0.2,0.8v1.1h6.5v-1.9c0.5,0,1.5,0,1.9,0c0.5,0,0.2,0.6,0.2,0.7v6.3H412.2z M420.9,192.4h-6.5v1.7
			h6.5V192.4z"/>
		<path class="st3" d="M435,196.3v-5h4.5v-1.2h-4.6v-1.8h6.7v4.8h-4.5v1.4c1.2,0,3.5-0.1,4.9-0.3l0.1,1.7
			C439.9,196.1,437.1,196.3,435,196.3z M436,201.6v-4.7c0.3,0,1.6,0,1.8,0c0.7,0,0.3,0.5,0.3,0.8v1.9h8.8v2H436z M444.7,198v-3.4
			h-2.5v-1.7h2.5v-1.6h-2.5v-1.7h2.5v-2.3c0.4,0,1.4,0,1.8,0c0.7,0,0.4,0.3,0.4,0.5V198H444.7z"/>
		<path class="st3" d="M457.8,202.6c0.4-0.4,0.9-1.4,0.9-2c-0.5,0-1-0.3-1-0.9s0.4-1,0.9-1s0.9,0.5,0.9,1.1
			C459.5,201.1,458.8,202.1,457.8,202.6L457.8,202.6z"/>
		<path class="st3" d="M351.1,255.8V254h8.9v1.7H351.1z M355.7,261c-1,0-4-0.3-4-2.3c0-2.2,2.8-2.4,4-2.4c1.1,0,3.8,0.2,3.8,2.4
			C359.5,260.7,356.7,261,355.7,261z M352.8,265.6v-4c0.3,0,1.6,0,1.8,0c0.7,0,0.3,0.5,0.3,0.8v1.3h8.6v2H352.8z M353.5,253.4v-1.5
			h4.1v1.5H353.5z M355.7,257.7c-0.5,0-1.8,0.2-1.8,1c0,0.8,1.5,0.9,1.8,0.9c0.4,0,1.7-0.1,1.7-0.9
			C357.4,257.9,356.3,257.7,355.7,257.7z M363.3,258.2v3.9h-2.1v-10.9c0.3,0,1.7,0,2,0c0.5,0,0.1,0.6,0.1,0.8v4.1h1.9v2H363.3z"/>
		<path class="st3" d="M382.4,262.6c-0.4-0.2-1-0.5-1.8-1.4c-0.8-0.8-1.1-1.6-1.3-2c-0.2,0.5-0.5,1.1-1.4,2
			c-0.9,0.9-1.6,1.4-2.1,1.6c-0.3-0.4-0.9-1.1-1.6-1.4c0.8-0.4,2.1-1.4,3.1-2.6c1.2-1.6,1.1-3,1.1-3.9h-3.1v-1.8h8v1.8h-2.9
			c0,0.9-0.2,2.3,0.7,3.8c0.8,1.5,2.1,2.2,2.6,2.4C383.3,261.4,382.8,262.1,382.4,262.6z M385.3,266.1v-14.7c0.5,0,1.3,0,2,0.1
			c0.6,0,0.2,0.6,0.2,1.1v13.6H385.3z"/>
		<path class="st3" d="M406.1,259.3c-0.9,0-1.1,0.1-1.3,0.1v2.1h-2v-2c-0.4,0-1.1,0-1.7,0.1c-0.9,0-1.6,0.1-2,0.1
			c-0.1,0-0.6,0.3-0.6-0.1c-0.1-0.4-0.1-1.2-0.1-1.7c0.7,0,2.5,0,4.9-0.1c2.5-0.1,4.3-0.2,5.2-0.2v1.7
			C407.7,259.3,407,259.3,406.1,259.3z M403.1,256.9c-1.9,0-3.7-0.7-3.7-2.3c0-1.7,1.8-2.4,3.7-2.4c2.1,0,3.8,0.7,3.8,2.4
			C406.9,256.2,405.1,256.9,403.1,256.9z M400.3,265.7v-4.2c0.6,0,1.3,0,1.8,0c0.8,0,0.4,0.6,0.4,0.8v1.6h9.1v1.8H400.3z
			 M403.2,253.6c-1.1,0-1.6,0.4-1.6,1c0,0.6,0.6,0.9,1.6,0.9c1.1,0,1.6-0.3,1.6-0.9C404.8,254,404.2,253.6,403.2,253.6z
			 M409.1,262.4v-0.6h-2.9v-1.7h2.9v-8.8c0.5,0,1.3,0,1.8,0c0.7,0,0.3,0.4,0.3,0.6v10.4H409.1z"/>
		<path class="st3" d="M422.7,266.6c0.4-0.4,0.9-1.4,0.9-2c-0.5,0-1-0.3-1-0.9s0.4-1,0.9-1s0.9,0.5,0.9,1.1
			C424.5,265.1,423.7,266.1,422.7,266.6L422.7,266.6z"/>
		<path class="st3" d="M603.1,287.8V286h8.9v1.7H603.1z M607.7,293c-1,0-4-0.3-4-2.3c0-2.2,2.8-2.4,4-2.4c1.1,0,3.8,0.2,3.8,2.4
			C611.5,292.7,608.7,293,607.7,293z M604.8,297.6v-4c0.3,0,1.6,0,1.8,0c0.7,0,0.3,0.5,0.3,0.8v1.3h8.6v2H604.8z M605.5,285.4v-1.5
			h4.1v1.5H605.5z M607.7,289.7c-0.5,0-1.8,0.2-1.8,1c0,0.8,1.5,0.9,1.8,0.9c0.4,0,1.7-0.1,1.7-0.9
			C609.4,289.9,608.3,289.7,607.7,289.7z M615.3,290.2v3.9h-2.1v-10.9c0.3,0,1.7,0,2,0c0.5,0,0.1,0.6,0.1,0.8v4.1h1.9v2H615.3z"/>
		<path class="st3" d="M634.4,294.6c-0.4-0.2-1-0.5-1.8-1.4c-0.8-0.8-1.1-1.6-1.3-2c-0.2,0.5-0.5,1.1-1.4,2
			c-0.9,0.9-1.6,1.4-2.1,1.6c-0.3-0.4-0.9-1.1-1.6-1.4c0.8-0.4,2.1-1.4,3.1-2.6c1.2-1.6,1.1-3,1.1-3.9h-3.1v-1.8h8v1.8h-2.9
			c0,0.9-0.2,2.3,0.7,3.8c0.8,1.5,2.1,2.2,2.6,2.4C635.3,293.4,634.8,294.1,634.4,294.6z M637.3,298.1v-14.7c0.5,0,1.3,0,2,0.1
			c0.6,0,0.2,0.6,0.2,1.1v13.6H637.3z"/>
		<path class="st3" d="M650.5,287.5v-1.6h8.8v1.6H650.5z M655,292.3c-1,0-3.8-0.3-3.8-2.2c0-2,2.7-2.3,3.8-2.3
			c1.1,0,3.6,0.2,3.6,2.3C658.7,292.1,655.9,292.3,655,292.3z M657.5,297.8c-0.8,0-5.2,0-5.2-2.5c0-2.4,4.3-2.4,5.2-2.4
			c0.8,0,5.4,0,5.4,2.4C662.9,297.9,658.5,297.8,657.5,297.8z M652.9,285.4v-1.5h4.1v1.5H652.9z M655,289.2c-0.5,0-1.7,0.2-1.7,0.9
			c0,0.8,1.4,0.9,1.8,0.9c0.4,0,1.6-0.1,1.6-0.8C656.7,289.4,655.6,289.2,655,289.2z M657.6,294.3c-0.6,0-3.2,0-3.2,1
			c0,1.1,2.6,1.1,3.2,1.1c0.5,0,3.3,0,3.3-1.1C660.9,294.3,658.2,294.3,657.6,294.3z M660.9,293v-0.8h-1.7v-1.7h1.7v-0.9h-1.7v-1.7
			h1.7v-4.5c0.4,0,1.7,0,1.9,0c0.7,0,0.3,0.6,0.3,0.7v8.9H660.9z"/>
	</g>
	<g class="st2">
		<path class="st3" d="M790.2,194.9c0,6.6-5.9,13.8-5.9,20.2h3.4l1.5-8.6h0.3l0.8,11.3H780c0-5.4,2-9.6,3.8-13.4l-4.9-14.7l0.2-0.1
			l2,1.2c0.8-1.1,2.2-1.8,4.1-1.8C788.6,189,790.2,191.1,790.2,194.9z M783.1,201.1l0.9,2.9c1.4-3,2.7-5.8,2.7-9
			c0-1.9-0.7-3.4-2.2-3.4c-1.6,0-2.5,1.4-2.5,3.7C782,197.2,782.5,199,783.1,201.1z"/>
		<path class="st3" d="M816.4,204.4c0,8.1-1,14-6.4,14s-6.4-5.9-6.4-14c0-7.2,1.5-15.4,6.4-15.4C814.8,189,816.4,197.1,816.4,204.4z
			 M807.7,203.6c0,9.3,0.2,12.6,2.3,12.6c2.1,0,2.3-3.3,2.3-12.6c0-8-0.8-12.5-2.4-12.5S807.7,195.5,807.7,203.6z"/>
		<path class="st3" d="M839.7,194.9c0,6.6-5.9,13.8-5.9,20.2h3.4l1.5-8.6h0.3l0.8,11.3h-10.2c0-5.4,2-9.6,3.8-13.4l-4.9-14.7
			l0.2-0.1l2,1.2c0.8-1.1,2.2-1.8,4.1-1.8C838.1,189,839.7,191.1,839.7,194.9z M832.6,201.1l0.9,2.9c1.4-3,2.7-5.8,2.7-9
			c0-1.9-0.7-3.4-2.2-3.4c-1.6,0-2.5,1.4-2.5,3.7C831.5,197.2,832,199,832.6,201.1z"/>
		<path class="st3" d="M865.9,204.4c0,8.1-1,14-6.4,14c-5.4,0-6.4-5.9-6.4-14c0-7.2,1.5-15.4,6.4-15.4
			C864.4,189,865.9,197.1,865.9,204.4z M857.2,203.6c0,9.3,0.2,12.6,2.3,12.6c2.1,0,2.3-3.3,2.3-12.6c0-8-0.8-12.5-2.4-12.5
			S857.2,195.5,857.2,203.6z"/>
		<path class="st3" d="M881.6,213.3c1.3,0,2.4,1.1,2.4,2.4c0,1.3-1.1,2.4-2.4,2.4c-1.3,0-2.4-1-2.4-2.4
			C879.3,214.4,880.3,213.3,881.6,213.3z"/>
		<path class="st3" d="M904.7,189.1v26.7l3.4,1.7v0.3h-10.5v-0.3l3.3-1.7V193h-2.8v-0.3l6.4-3.7L904.7,189.1z"/>
		<path class="st3" d="M931.6,194.9c0,6.6-5.9,13.8-5.9,20.2h3.4l1.5-8.6h0.3l0.8,11.3h-10.2c0-5.4,2-9.6,3.8-13.4l-4.9-14.7
			l0.2-0.1l2,1.2c0.8-1.1,2.2-1.8,4.1-1.8C930,189,931.6,191.1,931.6,194.9z M924.6,201.1l0.9,2.9c1.4-3,2.7-5.8,2.7-9
			c0-1.9-0.7-3.4-2.2-3.4c-1.6,0-2.5,1.4-2.5,3.7C923.4,197.2,923.9,199,924.6,201.1z"/>
		<path class="st3" d="M948.2,213.3c1.3,0,2.4,1.1,2.4,2.4c0,1.3-1.1,2.4-2.4,2.4c-1.3,0-2.4-1-2.4-2.4
			C945.9,214.4,946.9,213.3,948.2,213.3z"/>
		<path class="st3" d="M975,194.8c0,2.7-1.3,5.7-2.6,7.8c2,1.8,3,5.1,3,8.2c0,3.9-1.4,7.4-5.4,7.4c-3.8,0-5.3-2.4-5.3-5.5
			c0-1.9,0.6-3.8,1.7-5.9l1.9-3.4c2.3-4.1,3.2-6.2,3.2-8.6c0-2-0.7-3.5-2.2-3.5c-1.9,0-2.7,1.6-2.7,4.2c0,1.4,0.3,3.2,0.8,5.1
			l-0.2,0l-4-11.2l0.2-0.1l2.3,1.2c0.9-1,2.4-1.8,4.2-1.8C973.5,189,975,191.4,975,194.8z M966.8,207.1c-1,1.8-1.4,3.2-1.4,4.5
			c0,2.5,1.4,4,3.3,4c2.3,0,3.1-2.3,3.1-5s-0.9-5.5-3.1-6.8L966.8,207.1z"/>
		<path class="st3" d="M995.4,189.1v26.7l3.4,1.7v0.3h-10.5v-0.3l3.3-1.7V193h-2.8v-0.3l6.4-3.7L995.4,189.1z"/>
	</g>
	<g class="st2">
		<path class="st3" d="M19.8,265.8c0,8.1-1,14-6.4,14c-5.4,0-6.4-5.9-6.4-14c0-7.2,1.5-15.4,6.4-15.4
			C18.3,250.5,19.8,258.6,19.8,265.8z M11.1,265c0,9.3,0.2,12.6,2.3,12.6c2.1,0,2.3-3.3,2.3-12.6c0-8-0.8-12.5-2.4-12.5
			S11.1,257,11.1,265z"/>
		<path class="st3" d="M39.2,250.6v26.7l3.4,1.7v0.3H32.2V279l3.3-1.7v-22.8h-2.8v-0.3l6.4-3.7L39.2,250.6z"/>
		<path class="st3" d="M58.3,274.8c1.3,0,2.4,1.1,2.4,2.4c0,1.3-1.1,2.4-2.4,2.4s-2.4-1-2.4-2.4C56,275.8,57,274.8,58.3,274.8z"/>
		<path class="st3" d="M81.4,250.6v26.7l3.4,1.7v0.3H74.4V279l3.3-1.7v-22.8h-2.8v-0.3l6.4-3.7L81.4,250.6z"/>
		<path class="st3" d="M109.3,265.8c0,8.1-1,14-6.4,14c-5.4,0-6.4-5.9-6.4-14c0-7.2,1.5-15.4,6.4-15.4
			C107.8,250.5,109.3,258.6,109.3,265.8z M100.6,265c0,9.3,0.2,12.6,2.3,12.6c2.1,0,2.3-3.3,2.3-12.6c0-8-0.8-12.5-2.4-12.5
			S100.6,257,100.6,265z"/>
	</g>
	<g class="st2">
		<path class="st3" d="M926,256.4c0,6.6-5.9,13.8-5.9,20.2h3.4l1.5-8.6h0.3l0.8,11.3h-10.2c0-5.4,2-9.6,3.8-13.4l-4.9-14.7l0.2-0.1
			l2,1.2c0.8-1.1,2.2-1.8,4.1-1.8C924.4,250.5,926,252.5,926,256.4z M918.9,262.5l0.9,2.9c1.4-3,2.7-5.8,2.7-9
			c0-1.9-0.7-3.4-2.2-3.4c-1.6,0-2.5,1.4-2.5,3.7C917.8,258.6,918.3,260.5,918.9,262.5z"/>
		<path class="st3" d="M952.2,265.8c0,8.1-1,14-6.4,14c-5.4,0-6.4-5.9-6.4-14c0-7.2,1.5-15.4,6.4-15.4
			C950.7,250.5,952.2,258.6,952.2,265.8z M943.5,265c0,9.3,0.2,12.6,2.3,12.6c2.1,0,2.3-3.3,2.3-12.6c0-8-0.8-12.5-2.4-12.5
			S943.5,257,943.5,265z"/>
		<path class="st3" d="M975.5,256.4c0,6.6-5.9,13.8-5.9,20.2h3.4l1.5-8.6h0.3l0.8,11.3h-10.2c0-5.4,2-9.6,3.8-13.4l-4.9-14.7
			l0.2-0.1l2,1.2c0.8-1.1,2.2-1.8,4.1-1.8C973.9,250.5,975.5,252.5,975.5,256.4z M968.5,262.5l0.9,2.9c1.4-3,2.7-5.8,2.7-9
			c0-1.9-0.7-3.4-2.2-3.4c-1.6,0-2.5,1.4-2.5,3.7C967.3,258.6,967.8,260.5,968.5,262.5z"/>
		<path class="st3" d="M996.2,250.6v26.7l3.4,1.7v0.3h-10.5V279l3.3-1.7v-22.8h-2.8v-0.3l6.4-3.7L996.2,250.6z"/>
		<path class="st3" d="M1015.3,274.8c1.3,0,2.4,1.1,2.4,2.4c0,1.3-1.1,2.4-2.4,2.4c-1.3,0-2.4-1-2.4-2.4
			C1013,275.8,1014,274.8,1015.3,274.8z"/>
	</g>
</g>
</svg>
