<?xml version="1.0" encoding="utf-8"?>
<!-- Generator: Adobe Illustrator 25.0.1, SVG Export Plug-In . SVG Version: 6.00 Build 0)  -->
<svg version="1.1" id="레이어_1" xmlns="http://www.w3.org/2000/svg" xmlns:xlink="http://www.w3.org/1999/xlink" x="0px"
	 y="0px" viewBox="0 0 3741 280" style="enable-background:new 0 0 3741 280;" xml:space="preserve">
<style type="text/css">
	.st0{fill:#0000FF;}
</style>
<g>
	<g>
		<path class="st0" d="M1960,36.4l11.2-9l1.7,0.6l-14.6,85.7h17.4V229l-16.2-16c-3.9,10.9-13.2,17.4-25.5,17.4
			c-28,0-40.6-29.7-40.6-97.7c0-65.5,19.6-107.5,47.6-107.5C1949.9,25.2,1956.9,29.7,1960,36.4z M1921.9,126.6
			c0,69.7,8.4,85.1,17.4,85.1c6.4,0,10.1-4.2,10.1-16v-68.3l-12.9-11.8v-2h19c7.6-33.9,2-73.9-14.6-73.9
			C1931.1,39.8,1921.9,58.8,1921.9,126.6z"/>
		<path class="st0" d="M2020,81.8v131.3l12.9,11.8v2h-52.1v-2l12.9-11.8V95.5l-12.9-11.8v-2H2020z M2021.7,49.8
			c0,8.1-6.7,14.8-14.8,14.8S1992,58,1992,49.8c0-8.1,6.7-14.8,14.8-14.8S2021.7,41.7,2021.7,49.8z"/>
		<path class="st0" d="M2073.5,81.8l-1.4,30h1.1c0-12,9.8-33.9,28.3-33.9V152h-2v-21l-9.5-24.1c-9.8,0-16.5,14.8-16.5,30.2v75.3
			l15.7,12.3v2h-54.9v-2l12.9-12.3v-117l-12.9-11.8v-2H2073.5z"/>
		<path class="st0" d="M2135.1,28.3v184.8l12.9,11.8v2h-52.1v-2l12.9-11.8V42l-12.9-11.8v-2H2135.1z"/>
		<path class="st0" d="M2212,86.2l10.9-4.5l1.1,0.6l-28.3,56.6c12.3,13.7,26.9,28.3,26.9,51.5c0,25.5-18.2,40-35.3,40
			c-10.4,0-20.2-2.5-26.3-8.4l-11.2,4.8l-1.4-0.8l31.6-60.8c-11.2-14.3-23.5-28.8-23.5-48.7c0-25.5,16.8-38.6,32.5-38.6
			C2199.4,77.8,2206.7,80.4,2212,86.2z M2181.4,167.2l-1.4,3.1c-8.4,17.4-13.7,46.8,5.9,46.8c7,0,12.3-4.5,12.3-14
			C2198.2,189.8,2190.4,178.6,2181.4,167.2z M2194,136.9l2.8-5.3c10.9-21.6,5.3-40-6.7-40c-6.2,0-10.9,5.3-10.9,14.8
			C2179.2,118.2,2185.9,127.7,2194,136.9z"/>
		<path class="st0" d="M2305.5,81.8v131.3l12.9,11.8v2h-52.1v-2l12.9-11.8V95.5l-12.9-11.8v-2H2305.5z M2307.2,49.8
			c0,8.1-6.7,14.8-14.8,14.8s-14.8-6.7-14.8-14.8c0-8.1,6.7-14.8,14.8-14.8S2307.2,41.7,2307.2,49.8z"/>
		<path class="st0" d="M2357.6,81.8l-1.1,28.3h0.8c4.8-19.6,14.8-31.1,27.7-31.1c20.7,0,23,18.2,23,43.4v90.7l12.9,11.8v2h-101.1v-2
			l12.9-11.8V95.5l-12.9-11.8v-2H2357.6z M2359,132.7v80.4l12.3,11.8l10.4-11.8v-96.3c0-13.4-2.5-17.6-7.8-17.6
			C2366,99.1,2359,114.8,2359,132.7z"/>
		<path class="st0" d="M2553.4,132.7c0,58.2-5.6,90.4-33.9,96.6c8.7,2,15.7,7.3,19,17.6l3.1,9.5c3.9,11.8,10.1,17.9,18.2,14.6
			l0.8,3.1c-9,3.9-16,5.9-24.6,5.9c-13.4,0-20.4-7.6-26.3-27.2l-7-23c-32.2-3.4-38.6-35.8-38.6-97.2c0-61.9,10.6-107.5,44.5-107.5
			C2542.7,25.2,2553.4,70.8,2553.4,132.7z M2492.6,127.1c0,65.2,1.7,88.2,16,88.2c14.8,0,16.2-23,16.2-88.2
			c0-56.3-5.6-87.9-16.5-87.9S2492.6,70.8,2492.6,127.1z"/>
		<path class="st0" d="M2594.2,81.8v110c0,13.4,2.5,17.6,7.8,17.6c7.8,0,14.8-15.7,14.8-33.6V95.5l-12.6-11.8v-2h38.9v131.3
			l12.9,11.8v2h-37.8l1.1-25.5h-0.8c-4.8,19.6-14.3,28.3-27.2,28.3c-20.7,0-23.5-18.2-23.5-43.4V95.5L2555,83.7v-2H2594.2z"/>
		<path class="st0" d="M2727.2,127.1v86l12.9,11.8v2h-53.8c-19,0-33.3-13.7-33.3-44.5c0-18.5,5.9-32.5,16.2-39.8
			c-5.6-5-10.4-15.1-10.4-26.3c0-23.2,13.7-38.4,35-38.4C2712.7,77.8,2727.2,89.6,2727.2,127.1z M2670.7,141.4
			c4.8-3.1,10.6-4.8,17.1-4.8c4.2,0,8.4,0.3,12.9,1.1v-10.6c0-22.1-5.9-34.4-19.6-34.4c-10.4,0-19.9,7.6-19.9,23.5
			C2661.2,126.6,2665.1,136.1,2670.7,141.4z M2679.9,182.6c0,23,3.6,33.6,13.7,33.6c2.2,0,4.5-0.6,7-2.2v-68
			c-0.8-0.3-1.7-0.3-2.5-0.3C2683.3,145.6,2679.9,159.9,2679.9,182.6z"/>
		<path class="st0" d="M2780.9,81.8l-1.4,30h1.1c0-12,9.8-33.9,28.3-33.9V152h-2v-21l-9.5-24.1c-9.8,0-16.5,14.8-16.5,30.2v75.3
			l15.7,12.3v2h-54.9v-2l12.9-12.3v-117l-12.9-11.8v-2H2780.9z"/>
		<path class="st0" d="M2883.9,127.1v86l12.9,11.8v2H2843c-19,0-33.3-13.7-33.3-44.5c0-18.5,5.9-32.5,16.2-39.8
			c-5.6-5-10.4-15.1-10.4-26.3c0-23.2,13.7-38.4,35-38.4C2869.4,77.8,2883.9,89.6,2883.9,127.1z M2827.4,141.4
			c4.8-3.1,10.6-4.8,17.1-4.8c4.2,0,8.4,0.3,12.9,1.1v-10.6c0-22.1-5.9-34.4-19.6-34.4c-10.4,0-19.9,7.6-19.9,23.5
			C2817.8,126.6,2821.8,136.1,2827.4,141.4z M2836.6,182.6c0,23,3.6,33.6,13.7,33.6c2.2,0,4.5-0.6,7-2.2v-68
			c-0.8-0.3-1.7-0.3-2.5-0.3C2840,145.6,2836.6,159.9,2836.6,182.6z"/>
		<path class="st0" d="M2936.2,81.8l-1.1,28.3h0.8c4.8-19.6,14.8-31.1,27.7-31.1c20.7,0,23,18.2,23,43.4v90.7l12.9,11.8v2h-101.1v-2
			l12.9-11.8V95.5l-12.9-11.8v-2H2936.2z M2937.6,132.7v80.4l12.3,11.8l10.4-11.8v-96.3c0-13.4-2.5-17.6-7.8-17.6
			C2944.6,99.1,2937.6,114.8,2937.6,132.7z"/>
		<path class="st0" d="M3057.8,187.6c0,33-8.7,42.8-24.4,42.8c-21,0-27.4-15.7-27.4-44V97.2h-13.4v-1.7l38.4-45.4l1.4,0.6v31.1h25.5
			V187.6z M3032.3,97.2v84.6c0,26.3,3.9,30.8,11.2,30.8c7.3,0,12.3-5,12.3-24.9V121l-7.6-23.8H3032.3z"/>
		<path class="st0" d="M3101,81.8v131.3l12.9,11.8v2h-52.1v-2l12.9-11.8V95.5l-12.9-11.8v-2H3101z M3102.7,49.8
			c0,8.1-6.7,14.8-14.8,14.8c-8.1,0-14.8-6.7-14.8-14.8c0-8.1,6.7-14.8,14.8-14.8C3096,35,3102.7,41.7,3102.7,49.8z"/>
		<path class="st0" d="M3153.2,81.8L3152,110h0.8c4.8-19.6,14.8-31.1,27.7-31.1c20.7,0,23,18.2,23,43.4v90.7l12.9,11.8v2h-101.1v-2
			l12.9-11.8V95.5l-12.9-11.8v-2H3153.2z M3154.6,132.7v80.4l12.3,11.8l10.4-11.8v-96.3c0-13.4-2.5-17.6-7.8-17.6
			C3161.6,99.1,3154.6,114.8,3154.6,132.7z"/>
		<path class="st0" d="M3285.7,152.9c0,60.8-13.2,77.6-34.4,77.6c-24.9,0-37-22.7-37-72.5c0-47.6,9-80.1,38.6-80.1
			C3276.2,77.8,3285.7,94.6,3285.7,152.9z M3284,153.2h-44.2c0,36.7,5,56.3,20.4,56.3C3273.1,209.4,3284,190.7,3284,153.2z
			 M3240.3,140.8h24.6c0-39.2-4.5-51.5-12.3-51.5C3245.4,89.3,3240.3,101.9,3240.3,140.8z"/>
	</g>
</g>
<g>
	<path class="st0" d="M3355.3,57.1c0,24.7-22,51.9-22,75.9h12.6l5.7-32.4h1l3,42.3h-38.4c0-20.4,7.3-36,14.1-50.2L3313,37.5l0.9-0.4
		l7.7,4.6c3.1-4,8.2-6.7,15.3-6.7C3349.3,34.9,3355.3,42.6,3355.3,57.1z M3328.8,80.1l3.3,10.8c5.4-11.4,10-21.9,10-33.7
		c0-7-2.7-12.6-8.2-12.6c-6,0-9.3,5.4-9.3,13.8C3324.6,65.5,3326.4,72.4,3328.8,80.1z"/>
	<path class="st0" d="M3405.8,92.5c0,30.3-3.8,52.3-23.8,52.3c-20.1,0-24-22-24-52.3c0-27.1,5.7-57.6,23.8-57.6
		C3400.1,34.9,3405.8,65.4,3405.8,92.5z M3373.3,89.5c0,34.9,0.9,47.2,8.5,47.2c8,0,8.7-12.3,8.7-47.2c0-30.1-3-46.8-8.8-46.8
		S3373.3,59.4,3373.3,89.5z"/>
	<path class="st0" d="M3445.6,57.1c0,24.7-22,51.9-22,75.9h12.6l5.7-32.4h1l3,42.3h-38.4c0-20.4,7.3-36,14.1-50.2l-18.3-55.2
		l0.9-0.4l7.7,4.6c3.1-4,8.2-6.7,15.3-6.7C3439.6,34.9,3445.6,42.6,3445.6,57.1z M3419.1,80.1l3.3,10.8c5.4-11.4,10-21.9,10-33.7
		c0-7-2.7-12.6-8.2-12.6c-6,0-9.3,5.4-9.3,13.8C3414.9,65.5,3416.7,72.4,3419.1,80.1z"/>
	<path class="st0" d="M3496.1,92.5c0,30.3-3.8,52.3-23.8,52.3c-20.1,0-24-22-24-52.3c0-27.1,5.7-57.6,23.8-57.6
		C3490.4,34.9,3496.1,65.4,3496.1,92.5z M3463.6,89.5c0,34.9,0.9,47.2,8.5,47.2c8,0,8.7-12.3,8.7-47.2c0-30.1-3-46.8-8.8-46.8
		S3463.6,59.4,3463.6,89.5z"/>
	<path class="st0" d="M3507.3,126c4.9,0,9,4,9,9s-4,8.8-9,8.8c-5,0-8.8-3.9-8.8-8.8S3502.3,126,3507.3,126z"/>
	<path class="st0" d="M3546.2,35.4v100.2l12.9,6.3v1h-39.3v-1l12.3-6.3V49.9h-10.6v-1.1l24-13.8L3546.2,35.4z"/>
	<path class="st0" d="M3599.6,57.1c0,24.7-22,51.9-22,75.9h12.6l5.7-32.4h1l3,42.3h-38.4c0-20.4,7.3-36,14.1-50.2l-18.3-55.2
		l0.9-0.4l7.7,4.6c3.1-4,8.2-6.7,15.3-6.7C3593.6,34.9,3599.6,42.6,3599.6,57.1z M3573,80.1l3.3,10.8c5.4-11.4,10-21.9,10-33.7
		c0-7-2.7-12.6-8.2-12.6c-6,0-9.3,5.4-9.3,13.8C3568.8,65.5,3570.6,72.4,3573,80.1z"/>
	<path class="st0" d="M3614.1,126c4.9,0,9,4,9,9s-4,8.8-9,8.8c-5,0-8.8-3.9-8.8-8.8S3609.1,126,3614.1,126z"/>
	<path class="st0" d="M3666.8,56.7c0,10-5,21.3-9.6,29.4c7.5,6.7,11.2,19.2,11.2,30.9c0,14.5-5.4,27.9-20.4,27.9
		c-14.1,0-19.8-9-19.8-20.5c0-7,2.1-14.4,6.5-22l7.2-12.6c8.7-15.3,12-23.4,12-32.1c0-7.5-2.6-13.2-8.2-13.2c-7,0-10.2,6-10.2,15.6
		c0,5.4,1.1,12,3,19.2l-0.8,0.1l-14.8-42l0.6-0.3l8.7,4.5c3.5-3.7,8.8-6.6,15.9-6.6C3660.9,34.9,3666.8,43.8,3666.8,56.7z
		 M3635.7,102.7c-3.9,6.6-5.2,12-5.2,16.9c0,9.3,5.2,15.1,12.3,15.1c8.5,0,11.5-8.7,11.5-18.6c0-9.9-3.4-20.5-11.5-25.5
		L3635.7,102.7z"/>
	<path class="st0" d="M3695.4,35.4v100.2l12.9,6.3v1H3669v-1l12.3-6.3V49.9h-10.6v-1.1l24-13.8L3695.4,35.4z"/>
	<path class="st0" d="M3356.2,157.1c0,24.7-22,51.9-22,75.9h12.6l5.7-32.4h1l3,42.3h-38.4c0-20.4,7.3-36,14.1-50.2l-18.3-55.2
		l0.9-0.4l7.7,4.6c3.1-4,8.2-6.7,15.3-6.7C3350.2,134.9,3356.2,142.6,3356.2,157.1z M3329.7,180.1l3.3,10.8
		c5.4-11.4,10-21.9,10-33.7c0-7-2.7-12.6-8.2-12.6c-6,0-9.3,5.4-9.3,13.8C3325.5,165.5,3327.3,172.4,3329.7,180.1z"/>
	<path class="st0" d="M3406.8,192.5c0,30.3-3.8,52.3-23.8,52.3c-20.1,0-24-22-24-52.3c0-27.1,5.7-57.6,23.8-57.6
		C3401.1,134.9,3406.8,165.4,3406.8,192.5z M3374.2,189.5c0,34.9,0.9,47.2,8.5,47.2c8,0,8.7-12.3,8.7-47.2c0-30.1-3-46.8-8.8-46.8
		S3374.2,159.4,3374.2,189.5z"/>
	<path class="st0" d="M3446.5,157.1c0,24.7-22,51.9-22,75.9h12.6l5.7-32.4h1l3,42.3h-38.4c0-20.4,7.3-36,14.1-50.2l-18.3-55.2
		l0.9-0.4l7.7,4.6c3.1-4,8.2-6.7,15.3-6.7C3440.5,134.9,3446.5,142.6,3446.5,157.1z M3420,180.1l3.3,10.8c5.4-11.4,10-21.9,10-33.7
		c0-7-2.7-12.6-8.2-12.6c-6,0-9.3,5.4-9.3,13.8C3415.8,165.5,3417.6,172.4,3420,180.1z"/>
	<path class="st0" d="M3476.3,135.4v100.2l12.9,6.3v1h-39.3v-1l12.3-6.3v-85.6h-10.6v-1.1l24-13.8L3476.3,135.4z"/>
	<path class="st0" d="M3500.5,226c5,0,9,4,9,9c0,4.9-4,8.8-9,8.8s-8.8-3.9-8.8-8.8C3491.6,230,3495.5,226,3500.5,226z"/>
	<path class="st0" d="M3559.5,192.5c0,30.3-3.8,52.3-23.8,52.3c-20.1,0-24-22-24-52.3c0-27.1,5.7-57.6,23.8-57.6
		C3553.8,134.9,3559.5,165.4,3559.5,192.5z M3527,189.5c0,34.9,0.9,47.2,8.5,47.2c8,0,8.7-12.3,8.7-47.2c0-30.1-3-46.8-8.9-46.8
		C3529.5,142.7,3527,159.4,3527,189.5z"/>
	<path class="st0" d="M3584.4,135.4v100.2l12.9,6.3v1H3558v-1l12.3-6.3v-85.6h-10.6v-1.1l24-13.8L3584.4,135.4z"/>
	<path class="st0" d="M3608.6,226c4.9,0,9,4,9,9c0,4.9-4,8.8-9,8.8c-5,0-8.8-3.9-8.8-8.8C3599.7,230,3603.6,226,3608.6,226z"/>
	<path class="st0" d="M3647.5,135.4v100.2l12.9,6.3v1h-39.3v-1l12.3-6.3v-85.6h-10.6v-1.1l24-13.8L3647.5,135.4z"/>
	<path class="st0" d="M3704.1,192.5c0,30.3-3.8,52.3-23.8,52.3c-20.1,0-24-22-24-52.3c0-27.1,5.7-57.6,23.8-57.6
		C3698.4,134.9,3704.1,165.4,3704.1,192.5z M3671.5,189.5c0,34.9,0.9,47.2,8.5,47.2c8,0,8.7-12.3,8.7-47.2c0-30.1-3-46.8-8.9-46.8
		C3674.1,142.7,3671.5,159.4,3671.5,189.5z"/>
</g>
<g>
	<g>
		<g>
			<path class="st0" d="M105,36.4l11.2-9l1.7,0.6l-14.6,85.7h17.4V229l-16.2-16c-3.9,10.9-13.2,17.4-25.5,17.4
				c-28,0-40.6-29.7-40.6-97.7c0-65.5,19.6-107.5,47.6-107.5C94.9,25.2,101.9,29.7,105,36.4z M66.9,126.6c0,69.7,8.4,85.1,17.4,85.1
				c6.4,0,10.1-4.2,10.1-16v-68.3l-12.9-11.8v-2h19c7.6-33.9,2-73.9-14.6-73.9C76.1,39.8,66.9,58.8,66.9,126.6z"/>
			<path class="st0" d="M165,81.8v131.3l12.9,11.8v2h-52.1v-2l12.9-11.8V95.5l-12.9-11.8v-2H165z M166.7,49.8
				c0,8.1-6.7,14.8-14.8,14.8S137,58,137,49.8c0-8.1,6.7-14.8,14.8-14.8S166.7,41.7,166.7,49.8z"/>
			<path class="st0" d="M218.5,81.8l-1.4,30h1.1c0-12,9.8-33.9,28.3-33.9V152h-2v-21l-9.5-24.1c-9.8,0-16.5,14.8-16.5,30.2v75.3
				l15.7,12.3v2h-54.9v-2l12.9-12.3v-117l-12.9-11.8v-2H218.5z"/>
			<path class="st0" d="M280.1,28.3v184.8l12.9,11.8v2h-52.1v-2l12.9-11.8V42l-12.9-11.8v-2H280.1z"/>
			<path class="st0" d="M357,86.2l10.9-4.5l1.1,0.6l-28.3,56.6c12.3,13.7,26.9,28.3,26.9,51.5c0,25.5-18.2,40-35.3,40
				c-10.4,0-20.2-2.5-26.3-8.4l-11.2,4.8l-1.4-0.8l31.6-60.8c-11.2-14.3-23.5-28.8-23.5-48.7c0-25.5,16.8-38.6,32.5-38.6
				C344.4,77.8,351.7,80.4,357,86.2z M326.4,167.2l-1.4,3.1c-8.4,17.4-13.7,46.8,5.9,46.8c7,0,12.3-4.5,12.3-14
				C343.2,189.8,335.4,178.6,326.4,167.2z M339,136.9l2.8-5.3c10.9-21.6,5.3-40-6.7-40c-6.2,0-10.9,5.3-10.9,14.8
				C324.2,118.2,330.9,127.7,339,136.9z"/>
			<path class="st0" d="M450.5,81.8v131.3l12.9,11.8v2h-52.1v-2l12.9-11.8V95.5l-12.9-11.8v-2H450.5z M452.2,49.8
				c0,8.1-6.7,14.8-14.8,14.8s-14.8-6.7-14.8-14.8c0-8.1,6.7-14.8,14.8-14.8S452.2,41.7,452.2,49.8z"/>
			<path class="st0" d="M502.6,81.8l-1.1,28.3h0.8c4.8-19.6,14.8-31.1,27.7-31.1c20.7,0,23,18.2,23,43.4v90.7l12.9,11.8v2H464.8v-2
				l12.9-11.8V95.5l-12.9-11.8v-2H502.6z M504,132.7v80.4l12.3,11.8l10.4-11.8v-96.3c0-13.4-2.5-17.6-7.8-17.6
				C511,99.1,504,114.8,504,132.7z"/>
			<path class="st0" d="M698.4,132.7c0,58.2-5.6,90.4-33.9,96.6c8.7,2,15.7,7.3,19,17.6l3.1,9.5c3.9,11.8,10.1,17.9,18.2,14.6
				l0.8,3.1c-9,3.9-16,5.9-24.6,5.9c-13.4,0-20.4-7.6-26.3-27.2l-7-23c-32.2-3.4-38.6-35.8-38.6-97.2c0-61.9,10.6-107.5,44.5-107.5
				C687.7,25.2,698.4,70.8,698.4,132.7z M637.6,127.1c0,65.2,1.7,88.2,16,88.2c14.8,0,16.2-23,16.2-88.2c0-56.3-5.6-87.9-16.5-87.9
				S637.6,70.8,637.6,127.1z"/>
			<path class="st0" d="M739.2,81.8v110c0,13.4,2.5,17.6,7.8,17.6c7.8,0,14.8-15.7,14.8-33.6V95.5l-12.6-11.8v-2h38.9v131.3
				l12.9,11.8v2h-37.8l1.1-25.5h-0.8c-4.8,19.6-14.3,28.3-27.2,28.3c-20.7,0-23.5-18.2-23.5-43.4V95.5L700,83.7v-2H739.2z"/>
			<path class="st0" d="M872.2,127.1v86l12.9,11.8v2h-53.8c-19,0-33.3-13.7-33.3-44.5c0-18.5,5.9-32.5,16.2-39.8
				c-5.6-5-10.4-15.1-10.4-26.3c0-23.2,13.7-38.4,35-38.4C857.7,77.8,872.2,89.6,872.2,127.1z M815.7,141.4
				c4.8-3.1,10.6-4.8,17.1-4.8c4.2,0,8.4,0.3,12.9,1.1v-10.6c0-22.1-5.9-34.4-19.6-34.4c-10.4,0-19.9,7.6-19.9,23.5
				C806.2,126.6,810.1,136.1,815.7,141.4z M824.9,182.6c0,23,3.6,33.6,13.7,33.6c2.2,0,4.5-0.6,7-2.2v-68c-0.8-0.3-1.7-0.3-2.5-0.3
				C828.3,145.6,824.9,159.9,824.9,182.6z"/>
			<path class="st0" d="M925.9,81.8l-1.4,30h1.1c0-12,9.8-33.9,28.3-33.9V152h-2v-21l-9.5-24.1c-9.8,0-16.5,14.8-16.5,30.2v75.3
				l15.7,12.3v2h-54.9v-2l12.9-12.3v-117l-12.9-11.8v-2H925.9z"/>
			<path class="st0" d="M1028.9,127.1v86l12.9,11.8v2H988c-19,0-33.3-13.7-33.3-44.5c0-18.5,5.9-32.5,16.2-39.8
				c-5.6-5-10.4-15.1-10.4-26.3c0-23.2,13.7-38.4,35-38.4C1014.4,77.8,1028.9,89.6,1028.9,127.1z M972.4,141.4
				c4.8-3.1,10.6-4.8,17.1-4.8c4.2,0,8.4,0.3,12.9,1.1v-10.6c0-22.1-5.9-34.4-19.6-34.4c-10.4,0-19.9,7.6-19.9,23.5
				C962.8,126.6,966.8,136.1,972.4,141.4z M981.6,182.6c0,23,3.6,33.6,13.7,33.6c2.2,0,4.5-0.6,7-2.2v-68c-0.8-0.3-1.7-0.3-2.5-0.3
				C985,145.6,981.6,159.9,981.6,182.6z"/>
			<path class="st0" d="M1081.2,81.8l-1.1,28.3h0.8c4.8-19.6,14.8-31.1,27.7-31.1c20.7,0,23,18.2,23,43.4v90.7l12.9,11.8v2h-101.1
				v-2l12.9-11.8V95.5l-12.9-11.8v-2H1081.2z M1082.6,132.7v80.4l12.3,11.8l10.4-11.8v-96.3c0-13.4-2.5-17.6-7.8-17.6
				C1089.6,99.1,1082.6,114.8,1082.6,132.7z"/>
			<path class="st0" d="M1202.8,187.6c0,33-8.7,42.8-24.4,42.8c-21,0-27.4-15.7-27.4-44V97.2h-13.4v-1.7l38.4-45.4l1.4,0.6v31.1
				h25.5V187.6z M1177.3,97.2v84.6c0,26.3,3.9,30.8,11.2,30.8c7.3,0,12.3-5,12.3-24.9V121l-7.6-23.8H1177.3z"/>
			<path class="st0" d="M1246,81.8v131.3l12.9,11.8v2h-52.1v-2l12.9-11.8V95.5l-12.9-11.8v-2H1246z M1247.7,49.8
				c0,8.1-6.7,14.8-14.8,14.8c-8.1,0-14.8-6.7-14.8-14.8c0-8.1,6.7-14.8,14.8-14.8C1241,35,1247.7,41.7,1247.7,49.8z"/>
			<path class="st0" d="M1298.2,81.8L1297,110h0.8c4.8-19.6,14.8-31.1,27.7-31.1c20.7,0,23,18.2,23,43.4v90.7l12.9,11.8v2h-101.1v-2
				l12.9-11.8V95.5l-12.9-11.8v-2H1298.2z M1299.6,132.7v80.4l12.3,11.8l10.4-11.8v-96.3c0-13.4-2.5-17.6-7.8-17.6
				C1306.6,99.1,1299.6,114.8,1299.6,132.7z"/>
			<path class="st0" d="M1430.7,152.9c0,60.8-13.2,77.6-34.4,77.6c-24.9,0-37-22.7-37-72.5c0-47.6,9-80.1,38.6-80.1
				C1421.2,77.8,1430.7,94.6,1430.7,152.9z M1429,153.2h-44.2c0,36.7,5,56.3,20.4,56.3C1418.1,209.4,1429,190.7,1429,153.2z
				 M1385.3,140.8h24.6c0-39.2-4.5-51.5-12.3-51.5C1390.4,89.3,1385.3,101.9,1385.3,140.8z"/>
		</g>
	</g>
	<g>
		<path class="st0" d="M1500.3,57.1c0,24.7-22,51.9-22,75.9h12.6l5.7-32.4h1l3,42.3h-38.4c0-20.4,7.3-36,14.1-50.2L1458,37.5
			l0.9-0.4l7.7,4.6c3.1-4,8.2-6.7,15.3-6.7C1494.3,34.9,1500.3,42.6,1500.3,57.1z M1473.8,80.1l3.3,10.8c5.4-11.4,10-21.9,10-33.7
			c0-7-2.7-12.6-8.2-12.6c-6,0-9.3,5.4-9.3,13.8C1469.6,65.5,1471.4,72.4,1473.8,80.1z"/>
		<path class="st0" d="M1550.8,92.5c0,30.3-3.8,52.3-23.8,52.3c-20.1,0-24-22-24-52.3c0-27.1,5.7-57.6,23.8-57.6
			C1545.1,34.9,1550.8,65.4,1550.8,92.5z M1518.3,89.5c0,34.9,0.9,47.2,8.5,47.2c8,0,8.7-12.3,8.7-47.2c0-30.1-3-46.8-8.8-46.8
			S1518.3,59.4,1518.3,89.5z"/>
		<path class="st0" d="M1590.6,57.1c0,24.7-22,51.9-22,75.9h12.6l5.7-32.4h1l3,42.3h-38.4c0-20.4,7.3-36,14.1-50.2l-18.3-55.2
			l0.9-0.4l7.7,4.6c3.1-4,8.2-6.7,15.3-6.7C1584.6,34.9,1590.6,42.6,1590.6,57.1z M1564.1,80.1l3.3,10.8c5.4-11.4,10-21.9,10-33.7
			c0-7-2.7-12.6-8.2-12.6c-6,0-9.3,5.4-9.3,13.8C1559.9,65.5,1561.7,72.4,1564.1,80.1z"/>
		<path class="st0" d="M1641.1,92.5c0,30.3-3.8,52.3-23.8,52.3c-20.1,0-24-22-24-52.3c0-27.1,5.7-57.6,23.8-57.6
			C1635.4,34.9,1641.1,65.4,1641.1,92.5z M1608.6,89.5c0,34.9,0.9,47.2,8.5,47.2c8,0,8.7-12.3,8.7-47.2c0-30.1-3-46.8-8.8-46.8
			S1608.6,59.4,1608.6,89.5z"/>
		<path class="st0" d="M1652.3,126c4.9,0,9,4,9,9s-4,8.8-9,8.8c-5,0-8.8-3.9-8.8-8.8S1647.3,126,1652.3,126z"/>
		<path class="st0" d="M1691.2,35.4v100.2l12.9,6.3v1h-39.3v-1l12.3-6.3V49.9h-10.6v-1.1l24-13.8L1691.2,35.4z"/>
		<path class="st0" d="M1744.6,57.1c0,24.7-22,51.9-22,75.9h12.6l5.7-32.4h1l3,42.3h-38.4c0-20.4,7.3-36,14.1-50.2l-18.3-55.2
			l0.9-0.4l7.7,4.6c3.1-4,8.2-6.7,15.3-6.7C1738.6,34.9,1744.6,42.6,1744.6,57.1z M1718,80.1l3.3,10.8c5.4-11.4,10-21.9,10-33.7
			c0-7-2.7-12.6-8.2-12.6c-6,0-9.3,5.4-9.3,13.8C1713.8,65.5,1715.6,72.4,1718,80.1z"/>
		<path class="st0" d="M1759.1,126c4.9,0,9,4,9,9s-4,8.8-9,8.8c-5,0-8.8-3.9-8.8-8.8S1754.1,126,1759.1,126z"/>
		<path class="st0" d="M1811.8,56.7c0,10-5,21.3-9.6,29.4c7.5,6.7,11.2,19.2,11.2,30.9c0,14.5-5.4,27.9-20.4,27.9
			c-14.1,0-19.8-9-19.8-20.5c0-7,2.1-14.4,6.5-22l7.2-12.6c8.7-15.3,12-23.4,12-32.1c0-7.5-2.6-13.2-8.2-13.2c-7,0-10.2,6-10.2,15.6
			c0,5.4,1.1,12,3,19.2l-0.8,0.1l-14.8-42l0.6-0.3l8.7,4.5c3.5-3.7,8.8-6.6,15.9-6.6C1805.9,34.9,1811.8,43.8,1811.8,56.7z
			 M1780.7,102.7c-3.9,6.6-5.2,12-5.2,16.9c0,9.3,5.2,15.1,12.3,15.1c8.5,0,11.5-8.7,11.5-18.6c0-9.9-3.4-20.5-11.5-25.5
			L1780.7,102.7z"/>
		<path class="st0" d="M1840.4,35.4v100.2l12.9,6.3v1H1814v-1l12.3-6.3V49.9h-10.6v-1.1l24-13.8L1840.4,35.4z"/>
		<path class="st0" d="M1501.2,157.1c0,24.7-22,51.9-22,75.9h12.6l5.7-32.4h1l3,42.3h-38.4c0-20.4,7.3-36,14.1-50.2l-18.3-55.2
			l0.9-0.4l7.7,4.6c3.1-4,8.2-6.7,15.3-6.7C1495.2,134.9,1501.2,142.6,1501.2,157.1z M1474.7,180.1l3.3,10.8
			c5.4-11.4,10-21.9,10-33.7c0-7-2.7-12.6-8.2-12.6c-6,0-9.3,5.4-9.3,13.8C1470.5,165.5,1472.3,172.4,1474.7,180.1z"/>
		<path class="st0" d="M1551.8,192.5c0,30.3-3.8,52.3-23.8,52.3c-20.1,0-24-22-24-52.3c0-27.1,5.7-57.6,23.8-57.6
			C1546.1,134.9,1551.8,165.4,1551.8,192.5z M1519.2,189.5c0,34.9,0.9,47.2,8.5,47.2c8,0,8.7-12.3,8.7-47.2c0-30.1-3-46.8-8.8-46.8
			S1519.2,159.4,1519.2,189.5z"/>
		<path class="st0" d="M1591.5,157.1c0,24.7-22,51.9-22,75.9h12.6l5.7-32.4h1l3,42.3h-38.4c0-20.4,7.3-36,14.1-50.2l-18.3-55.2
			l0.9-0.4l7.7,4.6c3.1-4,8.2-6.7,15.3-6.7C1585.5,134.9,1591.5,142.6,1591.5,157.1z M1565,180.1l3.3,10.8c5.4-11.4,10-21.9,10-33.7
			c0-7-2.7-12.6-8.2-12.6c-6,0-9.3,5.4-9.3,13.8C1560.8,165.5,1562.6,172.4,1565,180.1z"/>
		<path class="st0" d="M1621.3,135.4v100.2l12.9,6.3v1h-39.3v-1l12.3-6.3v-85.6h-10.6v-1.1l24-13.8L1621.3,135.4z"/>
		<path class="st0" d="M1645.5,226c5,0,9,4,9,9c0,4.9-4,8.8-9,8.8s-8.8-3.9-8.8-8.8C1636.6,230,1640.5,226,1645.5,226z"/>
		<path class="st0" d="M1704.5,192.5c0,30.3-3.8,52.3-23.8,52.3c-20.1,0-24-22-24-52.3c0-27.1,5.7-57.6,23.8-57.6
			C1698.8,134.9,1704.5,165.4,1704.5,192.5z M1672,189.5c0,34.9,0.9,47.2,8.5,47.2c8,0,8.7-12.3,8.7-47.2c0-30.1-3-46.8-8.9-46.8
			C1674.5,142.7,1672,159.4,1672,189.5z"/>
		<path class="st0" d="M1729.4,135.4v100.2l12.9,6.3v1H1703v-1l12.3-6.3v-85.6h-10.6v-1.1l24-13.8L1729.4,135.4z"/>
		<path class="st0" d="M1753.6,226c4.9,0,9,4,9,9c0,4.9-4,8.8-9,8.8c-5,0-8.8-3.9-8.8-8.8C1744.7,230,1748.6,226,1753.6,226z"/>
		<path class="st0" d="M1792.5,135.4v100.2l12.9,6.3v1h-39.3v-1l12.3-6.3v-85.6h-10.6v-1.1l24-13.8L1792.5,135.4z"/>
		<path class="st0" d="M1849.1,192.5c0,30.3-3.8,52.3-23.8,52.3c-20.1,0-24-22-24-52.3c0-27.1,5.7-57.6,23.8-57.6
			C1843.4,134.9,1849.1,165.4,1849.1,192.5z M1816.5,189.5c0,34.9,0.9,47.2,8.5,47.2c8,0,8.7-12.3,8.7-47.2c0-30.1-3-46.8-8.9-46.8
			C1819.1,142.7,1816.5,159.4,1816.5,189.5z"/>
	</g>
</g>
</svg>
