<?xml version="1.0" encoding="utf-8"?>
<!-- Generator: Adobe Illustrator 25.0.1, SVG Export Plug-In . SVG Version: 6.00 Build 0)  -->
<svg version="1.1" id="레이어_1" xmlns="http://www.w3.org/2000/svg" xmlns:xlink="http://www.w3.org/1999/xlink" x="0px"
	 y="0px" viewBox="0 0 1024 459.1" style="enable-background:new 0 0 1024 459.1;" xml:space="preserve">
<style type="text/css">
	.st0{display:none;}
	.st1{display:inline;}
	.st2{fill:#00FF00;}
	.st3{fill:#0000FF;}
</style>
<g id="레이어_2_1_" class="st0">
	<g class="st1">
		<path class="st2" d="M301.9,12.1L314,2.4l1.8,0.6l-15.7,92.6h18.8v124.7l-17.6-17.2c-4.2,11.8-14.2,18.8-27.5,18.8
			c-30.3,0-43.9-32.1-43.9-105.6C229.9,45.4,251.1,0,281.3,0C291,0,298.6,4.8,301.9,12.1z M260.7,109.5c0,75.4,9.1,92,18.8,92
			c7,0,10.9-4.5,10.9-17.2v-73.8l-13.9-12.7v-2.1h20.6c8.2-36.6,2.1-79.9-15.7-79.9C270.7,15.7,260.7,36.3,260.7,109.5z"/>
		<path class="st2" d="M366.8,61.1V203l13.9,12.7v2.1h-56.3v-2.1l13.9-12.7V76l-13.9-12.7v-2.1h42.4V61.1z M368.6,26.6
			c0,8.8-7.3,16-16,16s-16-7.3-16-16c0-8.8,7.3-16,16-16S368.6,17.9,368.6,26.6z"/>
		<path class="st2" d="M424.7,61.1l-1.5,32.4h1.2c0-13,10.6-36.6,30.6-36.6v80.2h-2.1v-22.7l-10.3-26c-10.6,0-17.9,16-17.9,32.7
			v81.4l16.9,13.3v2.1h-59.3v-2.1l13.9-13.3V76l-13.9-12.7v-2.1h42.4L424.7,61.1L424.7,61.1z"/>
		<path class="st2" d="M491.1,3.3V203l13.9,12.7v2.1h-56.3v-2.1l13.9-12.7V18.2L448.8,5.4V3.3H491.1z"/>
		<path class="st2" d="M574.3,66l11.8-4.8l1.2,0.6l-30.6,61.1c13.3,14.8,29.1,30.6,29.1,55.7c0,27.5-19.7,43.3-38.1,43.3
			c-11.2,0-21.8-2.7-28.4-9.1l-12.1,5.1l-1.5-0.9l34.2-65.7c-12.1-15.4-25.4-31.2-25.4-52.7c0-27.5,18.2-41.8,35.1-41.8
			C560.6,56.9,568.5,59.6,574.3,66z M541.3,153.4l-1.5,3.3c-9.1,18.8-14.8,50.5,6.4,50.5c7.6,0,13.3-4.8,13.3-15.1
			C559.4,177.9,551,165.8,541.3,153.4z M554.9,120.7l3-5.7c11.8-23.3,5.8-43.3-7.3-43.3c-6.7,0-11.8,5.7-11.8,16
			C538.9,100.5,546.1,110.8,554.9,120.7z"/>
		<path class="st2" d="M675.3,61.1V203l13.9,12.7v2.1H633v-2.1l13.9-12.7V76L633,63.2v-2.1C633,61.1,675.3,61.1,675.3,61.1z
			 M677.1,26.6c0,8.8-7.3,16-16,16c-8.8,0-16-7.3-16-16c0-8.8,7.3-16,16-16C669.9,10.6,677.1,17.9,677.1,26.6z"/>
		<path class="st2" d="M731.7,61.1l-1.2,30.6h0.9c5.1-21.2,16-33.6,30-33.6c22.4,0,24.8,19.7,24.8,46.9v98l13.9,12.7v2.1H690.9v-2.1
			l13.9-12.7V76l-13.9-12.7v-2.1h40.8V61.1z M733.2,116.2V203l13.3,12.7l11.2-12.7V99c0-14.5-2.7-19.1-8.5-19.1
			C740.8,79.9,733.2,96.8,733.2,116.2z"/>
		<path class="st2" d="M164.8,299.9c0,62.9-6.1,97.7-36.6,104.4c9.4,2.1,16.9,7.9,20.6,19.1l3.3,10.3c4.2,12.7,10.9,19.4,19.7,15.7
			l0.9,3.3c-9.7,4.2-17.2,6.4-26.6,6.4c-14.5,0-22.1-8.2-28.4-29.4l-7.6-24.8c-34.8-3.6-41.8-38.7-41.8-105
			c0-66.9,11.5-116.2,48.1-116.2C153.3,183.7,164.8,233.1,164.8,299.9z M99.1,293.9c0,70.5,1.8,95.3,17.2,95.3
			c16,0,17.6-24.8,17.6-95.3c0-60.8-6.1-95-17.9-95S99.1,233.1,99.1,293.9z"/>
		<path class="st2" d="M208.9,244.9v118.9c0,14.5,2.7,19.1,8.5,19.1c8.5,0,16-16.9,16-36.3v-86.8L219.8,247v-2.1h42.1v141.9
			l13.9,12.7v2.1H235l1.2-27.5h-0.9c-5.1,21.2-15.4,30.6-29.4,30.6c-22.4,0-25.4-19.7-25.4-46.9v-98L166.6,247v-2.1H208.9z"/>
		<path class="st2" d="M352.7,293.9v92.9l13.9,12.7v2.1h-58.1c-20.6,0-36-14.8-36-48.1c0-20,6.4-35.1,17.6-43
			c-6.1-5.4-11.2-16.3-11.2-28.4c0-25.1,14.8-41.5,37.8-41.5C337,240.6,352.7,253.3,352.7,293.9z M291.6,309.3
			c5.1-3.3,11.5-5.1,18.5-5.1c4.5,0,9.1,0.3,13.9,1.2v-11.5c0-23.9-6.4-37.2-21.2-37.2c-11.2,0-21.5,8.2-21.5,25.4
			C281.3,293.3,285.5,303.6,291.6,309.3z M301.6,353.8c0,24.8,3.9,36.3,14.8,36.3c2.4,0,4.8-0.6,7.6-2.4v-73.5
			c-0.9-0.3-1.8-0.3-2.7-0.3C305.2,313.9,301.6,329.3,301.6,353.8z"/>
		<path class="st2" d="M410.8,244.9l-1.5,32.4h1.2c0-13,10.6-36.6,30.6-36.6v80.2H439v-22.7l-10.3-26c-10.6,0-17.9,16-17.9,32.7
			v81.4l16.9,13.3v2.1h-59.3v-2.1l13.9-13.3V259.7L368.4,247v-2.1H410.8z"/>
		<path class="st2" d="M522.1,293.9v92.9l13.9,12.7v2.1h-58.1c-20.6,0-36-14.8-36-48.1c0-20,6.4-35.1,17.6-43
			c-6.1-5.4-11.2-16.3-11.2-28.4c0-25.1,14.8-41.5,37.8-41.5C506.3,240.6,522.1,253.3,522.1,293.9z M460.9,309.3
			c5.1-3.3,11.5-5.1,18.5-5.1c4.5,0,9.1,0.3,13.9,1.2v-11.5c0-23.9-6.4-37.2-21.2-37.2c-11.2,0-21.5,8.2-21.5,25.4
			C450.6,293.3,454.9,303.6,460.9,309.3z M470.9,353.8c0,24.8,3.9,36.3,14.8,36.3c2.4,0,4.8-0.6,7.6-2.4v-73.5
			c-0.9-0.3-1.8-0.3-2.7-0.3C474.5,313.9,470.9,329.3,470.9,353.8z"/>
		<path class="st2" d="M578.6,244.9l-1.2,30.6h0.9c5.1-21.2,16-33.6,30-33.6c22.4,0,24.8,19.7,24.8,46.9v98l13.9,12.7v2.1H537.7
			v-2.1l13.9-12.7V259.7L537.7,247v-2.1H578.6z M580.1,299.9v86.9l13.3,12.7l11.2-12.7V282.7c0-14.5-2.7-19.1-8.5-19.1
			C587.7,263.6,580.1,280.6,580.1,299.9z"/>
		<path class="st2" d="M710,359.2c0,35.7-9.4,46.3-26.3,46.3c-22.7,0-29.7-16.9-29.7-47.5v-96.5h-14.5v-1.8l41.5-49l1.5,0.6v33.6
			H710V359.2z M682.4,261.5v91.4c0,28.4,4.2,33.3,12.1,33.3c7.9,0,13.3-5.4,13.3-26.9v-72l-8.2-25.7L682.4,261.5L682.4,261.5z"/>
		<path class="st2" d="M756.7,244.9v141.9l13.9,12.7v2.1h-56.3v-2.1l13.9-12.7V259.7L714.3,247v-2.1H756.7z"/>
		<path class="st2" d="M813,244.9l-1.2,30.6h0.9c5.1-21.2,16-33.6,30-33.6c22.4,0,24.8,19.7,24.8,46.9v98l13.9,12.7v2.1H772.2v-2.1
			l13.9-12.7V259.7L772.2,247v-2.1H813z M814.5,299.9v86.9l13.3,12.7l11.2-12.7V282.7c0-14.5-2.7-19.1-8.5-19.1
			C822.1,263.6,814.5,280.6,814.5,299.9z"/>
		<path class="st2" d="M956.3,321.7c0,65.7-14.2,83.8-37.2,83.8c-26.9,0-39.9-24.5-39.9-78.4c0-51.4,9.7-86.5,41.8-86.5
			C946,240.6,956.3,258.8,956.3,321.7z M954.4,322h-47.8c0,39.6,5.4,60.8,22.1,60.8C942.6,382.8,954.4,362.6,954.4,322z
			 M907.2,308.7h26.6c0-42.4-4.8-55.7-13.3-55.7C912.7,253,907.2,266.6,907.2,308.7z"/>
	</g>
</g>
<path class="st3" d="M102.1,82.8c-0.3-0.1-1.1-0.3-1.7-0.9s-0.8-0.9-1-1c-0.1,0.2-0.4,0.8-1.4,1.4c-0.7,0.5-1.1,0.6-1.4,0.7
	c-0.2-0.3-0.9-1-1.1-1.2c0.4-0.2,1.4-0.4,2.2-1.1c0.8-0.7,1-1.8,1-2.3h-2.2V77h6.1v1.4h-2.3c0,0.5,0.1,1.3,0.7,2
	c0.9,0.9,1.7,1,2.1,1.1C102.6,81.9,102.3,82.5,102.1,82.8z M101.7,87.9c-1.8,0-4.5-0.3-4.5-2.2s2.6-2.2,4.5-2.2
	c1.8,0,4.4,0.3,4.4,2.2C106.1,87.5,103.5,87.9,101.7,87.9z M101.6,84.7c-0.9,0-2.7,0.2-2.7,1s1.8,0.9,2.7,0.9c1,0,2.7-0.1,2.7-0.9
	C104.4,84.9,102.6,84.7,101.6,84.7z M104.2,83.4v-2.9h-2V79h2v-2.8c0.3,0,1.1,0,1.4,0c0.6,0,0.3,0.2,0.3,0.4v6.7h-1.7V83.4z"/>
<path class="st3" d="M118.5,89.6c0.3-0.3,0.7-1.1,0.7-1.6c-0.4,0-0.8-0.2-0.8-0.7s0.3-0.8,0.7-0.8s0.7,0.4,0.7,0.9
	C119.8,88.4,119.3,89.3,118.5,89.6L118.5,89.6z"/>
<path class="st3" d="M192.6,114.5v-5.7c0.3,0,0.9,0,1.5,0c0.3,0,0.1,0.3,0.1,0.5v1.1h2.5v-1.6c0.4,0,0.9,0,1.5,0
	c0.3,0,0.1,0.3,0.1,0.6v5.1H192.6z M200.2,120v-3h-7.1v-1.5h8.8v4.6C201.9,120,200.2,120,200.2,120z M196.7,111.8h-2.5v1.4h2.5
	V111.8z M201.9,112.6v2.2h-1.7v-6.6c0.2,0,1.4,0,1.6,0c0.4,0,0.1,0.5,0.1,0.6v2.2h1.5v1.6C203.4,112.6,201.9,112.6,201.9,112.6z"/>
<path class="st3" d="M215.5,118.4v-1.6h4.8v-1.5c0.4,0,1.2,0,1.7,0.1c0.4,0,0.1,0.3,0.1,0.6v0.9h4.7v1.6
	C226.8,118.4,215.5,118.4,215.5,118.4z M216.9,115v-5.7c0.4,0,1.1,0,1.6,0c0.4,0,0.2,0.4,0.2,0.6v0.9h5.2v-1.5c0.4,0,1.2,0,1.5,0
	c0.4,0,0.2,0.5,0.2,0.6v5L216.9,115L216.9,115z M223.8,112.2h-5.1v1.4h5.2L223.8,112.2L223.8,112.2z"/>
<path class="st3" d="M240.3,117.2v-7.8h5.8v7.8H240.3z M244.4,111H242v4.9h2.5L244.4,111L244.4,111z M249.6,114.5v5.5h-1.7v-11.8
	c0.2,0,1.2,0,1.6,0.1c0.5,0,0.2,0.3,0.2,0.7v3.9h1.5v1.6L249.6,114.5L249.6,114.5z"/>
<path class="st3" d="M262,121.6c0.3-0.3,0.7-1.1,0.7-1.6c-0.4,0-0.8-0.2-0.8-0.7s0.3-0.8,0.7-0.8s0.7,0.4,0.7,0.9
	C263.3,120.4,262.8,121.3,262,121.6L262,121.6z"/>
<path class="st3" d="M192.6,178.7v-5.5c0.3,0,0.8,0,1.4,0c0.3,0,0.1,0.3,0.1,0.5v1h1.4v-1.4c0.2,0,0.8,0,1.4,0
	c0.3,0,0.2,0.3,0.2,0.6v5h-4.5V178.7z M200.8,184v-3h-7.3v-1.4h9v4.5L200.8,184L200.8,184z M195.5,176h-1.4v1.2h1.4V176z
	 M200.8,179.1v-2.5h-1.1v2.5h-1.6v-6.6c0.2,0,1.1,0,1.4,0c0.6,0,0.3,0.3,0.3,0.5v2.2h1.1v-3c0.3,0,1.1,0,1.5,0
	c0.5,0,0.2,0.4,0.2,0.6v6.2L200.8,179.1L200.8,179.1z"/>
<path class="st3" d="M222.4,179.7v4.4h-1.7v-4.4h-4.9v-1.5h11.4v1.5H222.4z M225.7,176.9c-0.6-0.1-1.5-0.2-2.8-0.9
	c-0.9-0.4-1.4-1-1.6-1.3c-0.2,0.2-0.7,1-2.2,1.8c-0.9,0.4-1.7,0.6-2.1,0.6c-0.3-0.4-0.6-0.8-1-1.3c0.6-0.1,2.1-0.3,3-1
	c1.3-1,1.4-1.5,1.5-2c0.3,0,1,0,1.6,0.1c0.3,0,0.1,0.2,0.1,0.5c0.2,0.4,0.4,0.9,1.2,1.3c1.4,0.7,2.3,0.8,3.3,0.9
	C226.5,175.8,226,176.5,225.7,176.9z"/>
<path class="st3" d="M240.1,175.8v-1.4h7.1v1.4H240.1z M243.8,179.9c-0.8,0-3.2-0.2-3.2-1.8c0-1.8,2.2-1.9,3.2-1.9
	c0.9,0,3,0.2,3,1.9C246.8,179.8,244.6,179.9,243.8,179.9z M241.4,183.6v-3.4c0.2,0,1.3,0,1.4,0c0.6,0,0.2,0.4,0.2,0.6v1.1h7v1.6
	L241.4,183.6L241.4,183.6z M242,173.8v-1.2h3.3v1.2H242z M243.8,177.3c-0.4,0-1.4,0.2-1.4,0.8s1.2,0.7,1.4,0.7
	c0.3,0,1.4-0.1,1.4-0.7C245.1,177.4,244.2,177.3,243.8,177.3z M248.4,180.9v-1.3H247v-1.4h1.4v-0.6H247v-1.4h1.4v-4
	c0.3,0,1.4,0,1.5,0c0.6,0,0.2,0.5,0.2,0.6v8.2L248.4,180.9L248.4,180.9z"/>
<path class="st3" d="M262.6,185.6c0.3-0.3,0.7-1.1,0.7-1.6c-0.4,0-0.8-0.2-0.8-0.7s0.3-0.8,0.7-0.8s0.7,0.4,0.7,0.9
	C263.9,184.4,263.4,185.3,262.6,185.6L262.6,185.6z"/>
<path class="st3" d="M159.4,210.8c-1.9,0-3.2-1.3-3.2-2.9c0-1.6,1.4-2.9,3.2-2.9c1.9,0,3.2,1.3,3.2,2.9
	C162.7,209.5,161.3,210.8,159.4,210.8z M157.6,215.6v-3.8c0.2,0,1.3,0,1.4,0c0.6,0,0.2,0.4,0.2,0.6v1.5h6.9v1.6L157.6,215.6
	L157.6,215.6z M159.4,206.5c-0.8,0-1.5,0.6-1.5,1.4c0,0.8,0.6,1.4,1.5,1.4s1.5-0.6,1.5-1.4C160.9,207.2,160.4,206.5,159.4,206.5z
	 M165.9,209.4v3.1h-1.7v-8.4c0.2,0,1.4,0,1.6,0c0.4,0,0.1,0.5,0.1,0.6v3h1.5v1.6L165.9,209.4L165.9,209.4z"/>
<path class="st3" d="M179.7,214.3v-1.6h4.7v-1.6c0.4,0,1.2,0,1.7,0.1c0.4,0,0.1,0.3,0.1,0.6v1h4.9v1.6h-11.4V214.3z M189.6,211.5
	c-0.5-0.1-1.3-0.2-2.5-0.7c-1.1-0.5-1.4-1-1.8-1.3c-0.3,0.4-0.8,0.9-1.9,1.4c-1,0.5-1.8,0.6-2.4,0.7c-0.2-0.4-1-1.4-1-1.4
	s1.8-0.2,2.8-0.7c1.3-0.7,1.4-1,1.7-1.4h-3.8v-1.4h9.3v1.4h-3.8c0.2,0.3,0.4,0.8,1.7,1.3c1,0.4,2.3,0.6,2.8,0.6
	C190.4,210.5,190,211,189.6,211.5z M183.4,206v-1.3h3.9v1.3H183.4z"/>
<path class="st3" d="M204,211.6v-1.3h4.8v-0.6h-3.4v-3h6.8v-0.6h-6.8v-1.3h8.4v3.1H207v0.6h6.9v1.3h-3.5v0.6h4.8v1.3L204,211.6
	L204,211.6z M209.6,215.8c-1.1,0-4.4,0-4.4-1.9s3.2-1.9,4.4-1.9s4.5,0,4.5,1.9C214.1,215.9,210.7,215.8,209.6,215.8z M209.6,213.2
	c-0.5,0-2.8,0-2.9,0.8c0,0.7,2.4,0.8,2.8,0.8c0.4,0,3-0.1,3-0.8C212.6,213.1,210.1,213.2,209.6,213.2z"/>
<path class="st3" d="M226.4,217.6c0.3-0.3,0.7-1.1,0.7-1.6c-0.4,0-0.8-0.2-0.8-0.7s0.3-0.8,0.7-0.8s0.7,0.4,0.7,0.9
	C227.8,216.4,227.2,217.3,226.4,217.6L226.4,217.6z"/>
<path class="st3" d="M610.3,66.1c-1.8,0-3.2-1.3-3.2-2.8c0-1.5,1.4-2.8,3.2-2.8s3.2,1.3,3.2,2.8C613.5,64.9,612.2,66.1,610.3,66.1z
	 M612.5,71.3c-1.8,0-4.4-0.3-4.4-2.2c0-1.8,2.5-2.2,4.4-2.2c1.8,0,4.3,0.3,4.3,2.2C616.9,71,614.5,71.3,612.5,71.3z M610.3,62
	c-0.8,0-1.4,0.6-1.4,1.4c0,0.7,0.6,1.4,1.4,1.4s1.4-0.6,1.4-1.4C611.8,62.6,611.2,62,610.3,62z M612.5,68.2c-0.9,0-2.6,0.2-2.6,1
	s1.8,0.9,2.6,0.9c1,0,2.6-0.1,2.6-0.9C615.2,68.4,613.4,68.2,612.5,68.2z M616.8,65.5v1.2h-1.7v-7c0.2,0,1,0,1.4,0
	c0.7,0,0.3,0.3,0.3,0.5v1h1.5v1.4h-1.5V64h1.5v1.4L616.8,65.5L616.8,65.5z"/>
<path class="st3" d="M639.6,67v1.6H638V67h-1.4v1.7H635V67h-3.8v-1.4h11.3V67H639.6z M636.8,64.6c-1.9,0-4.5-0.2-4.5-2.2
	c0-1.8,2.6-2.2,4.5-2.2c1.8,0,4.5,0.3,4.5,2.2C641.3,64.3,638.7,64.6,636.8,64.6z M632.6,71.2v-3.4c0.6,0,1.2,0,1.5,0
	c0.5,0,0.2,0.4,0.2,0.6v1.4h7.1v1.4H632.6z M636.8,61.5c-1,0-2.6,0.2-2.6,0.8c0,0.7,1.7,0.8,2.6,0.8c1.1,0,2.6-0.1,2.6-0.8
	C639.4,61.7,637.9,61.5,636.8,61.5z"/>
<path class="st3" d="M659.8,69.3c-2.2,0.2-3.4,0.2-3.8,0.2c-0.2,0-0.7,0.4-0.8,0c-0.1-0.6-0.1-1.1-0.1-1.4c0.4,0,0.9,0,1.7,0
	c0.2,0,1,0,1.8-0.1v-0.6c-0.4,0-2.1-0.2-2.1-1.7c0-1.4,1.9-1.7,2.8-1.7c1,0,2.7,0.2,2.7,1.7c0,1.4-1.6,1.6-1.9,1.7V68
	c0.8,0,1.4-0.1,1.4-0.1c0.7,0,1.4-0.1,1.7-0.1V69C662.7,69.1,661.6,69.2,659.8,69.3z M655.9,63.5v-1.3h6.8v1.3H655.9z M657.6,61.7
	v-1.2h3.4v1.2H657.6z M659.3,65.1c-0.2,0-1.2,0.1-1.3,0.6c0,0.6,0.8,0.6,1.2,0.6c0.3,0,1.2-0.1,1.2-0.6
	C660.4,65.1,659.6,65.1,659.3,65.1z M665.2,66.1v5.4h-1.7V59.8c0.2,0,1.2,0,1.6,0.1c0.5,0,0.2,0.3,0.2,0.7v3.9h1.5v1.6H665.2z"/>
<path class="st3" d="M677.7,73.2c0.3-0.3,0.7-1.1,0.7-1.6c-0.4,0-0.8-0.2-0.8-0.7s0.3-0.8,0.7-0.8s0.7,0.4,0.7,0.9
	C679,71.9,678.5,72.8,677.7,73.2L677.7,73.2z"/>
<path class="st3" d="M754,105.4c-1.8,0-3.1-1.4-3.1-4.2c0-2.8,1.4-4.3,3.1-4.3c1.8,0,3,1.5,3,4.3C757,103.9,756,105.4,754,105.4z
	 M754,98.4c-1,0-1.4,1.5-1.4,2.7s0.4,2.7,1.4,2.7c1.1,0,1.4-1.5,1.4-2.7S755,98.4,754,98.4z M759.3,107.5V95.8c0.4,0,1.4,0,1.5,0
	c0.5,0,0.2,0.4,0.2,0.6v11.1H759.3z"/>
<path class="st3" d="M781.1,103.6v4.2h-1.7v-4.2h-4.9v-1.5h11.4v1.5H781.1z M784.4,101.1c-0.6,0-1.6-0.1-2.7-0.6
	c-0.9-0.4-1.3-1-1.4-1c-0.2,0.2-0.7,0.8-2,1.4c-0.8,0.3-1.4,0.5-2.2,0.6c-0.2-0.3-0.6-1-1-1.3c0.7,0,1.8-0.2,2.5-0.4
	c1.3-0.6,1.6-1,1.9-1.5h-3.7v-1.4h9v1.4h-3.7c0.2,0.2,0.5,0.8,1.4,1.2c1.1,0.5,2.4,0.6,2.9,0.6C785.1,100.1,784.6,100.8,784.4,101.1
	z"/>
<path class="st3" d="M802,102.4c-1.9,0-3.2-1.3-3.2-2.9s1.4-2.9,3.2-2.9c1.9,0,3.2,1.3,3.2,2.9S803.8,102.4,802,102.4z M800,107.2
	v-3.8c0.2,0,1.3,0,1.4,0c0.6,0,0.2,0.4,0.2,0.6v1.5h7v1.6C808.8,107.2,800,107.2,800,107.2z M802,98.1c-0.8,0-1.5,0.6-1.5,1.4
	s0.6,1.4,1.5,1.4s1.5-0.6,1.5-1.4C803.4,98.8,802.8,98.1,802,98.1z M807,104.1v-2.5h-1.8v-1.4h1.8v-1.4h-1.7v-1.4h1.7v-1.8
	c0.3,0,1.4,0,1.5,0c0.6,0,0.2,0.5,0.2,0.6v7.8L807,104.1L807,104.1z"/>
<path class="st3" d="M821.1,109.2c0.3-0.3,0.7-1.1,0.7-1.6c-0.4,0-0.8-0.2-0.8-0.7s0.3-0.8,0.7-0.8s0.7,0.4,0.7,0.9
	C822.4,107.9,821.9,108.8,821.1,109.2L821.1,109.2z"/>
<path class="st3" d="M649.2,138.4c-0.3-0.1-1-0.3-1.7-0.9c-0.6-0.5-0.8-0.9-1-1c-0.1,0.2-0.4,0.8-1.4,1.4c-0.7,0.5-1.1,0.6-1.4,0.7
	c-0.2-0.3-0.9-1-1.1-1.2c0.4-0.2,1.4-0.4,2.2-1.1c0.8-0.7,1-1.8,1-2.3h-2.2v-1.4h6.1v1.4h-2.3c0,0.5,0.1,1.4,0.7,2
	c0.9,0.9,1.7,1,2.1,1.1C649.8,137.4,649.5,138,649.2,138.4z M648.5,143.4c-1.8,0-4.4-0.3-4.4-2.2c0-1.8,2.5-2.2,4.4-2.2
	c1.8,0,4.3,0.3,4.3,2.2C652.8,143,650.4,143.4,648.5,143.4z M648.4,140.2c-0.9,0-2.6,0.2-2.6,1s1.8,0.9,2.6,0.9c1,0,2.6-0.1,2.6-0.9
	C651.1,140.4,649.4,140.2,648.4,140.2z M652.7,136.6v2.2H651v-7c0.2,0,1.4,0,1.6,0c0.4,0,0.1,0.5,0.1,0.6v2.6h1.5v1.6L652.7,136.6
	L652.7,136.6z"/>
<path class="st3" d="M672.2,140.8c-0.3-0.2-1-0.6-1.6-1.4c-0.6-0.7-0.8-1.4-1-1.7c-0.1,0.3-0.4,1-1,1.7c-0.6,0.8-1.1,1.3-1.6,1.6
	c-0.2-0.3-0.9-1-1.3-1.2c0.4-0.3,1.7-1.1,2.3-2.6c0.8-1.7,0.6-3.3,0.6-4.2c0.3,0,1,0,1.5,0c0.6,0.1,0.2,0.5,0.2,0.7
	c-0.1,1.1-0.1,1.8,0.4,3.1c0.6,1.5,1.6,2.3,2.4,2.8C673,139.8,672.5,140.5,672.2,140.8z M674.6,143.5V137h-2.3v-1.5h2.3v-3.7
	c0.4,0,1,0,1.6,0.1c0.5,0,0.2,0.5,0.2,0.9v10.8h-1.8V143.5z"/>
<path class="st3" d="M693.2,138.2c-1.8,0-3.2-1.3-3.2-2.8s1.4-2.8,3.2-2.8s3.2,1.3,3.2,2.8S695,138.2,693.2,138.2z M695.6,143.4
	c-1.8,0-4.5-0.3-4.5-2.2c0-1.8,2.6-2.2,4.5-2.2c1.8,0,4.4,0.3,4.4,2.2C700,143,697.6,143.4,695.6,143.4z M693.2,134
	c-0.8,0-1.4,0.6-1.4,1.4c0,0.7,0.6,1.4,1.4,1.4s1.4-0.6,1.4-1.4C694.6,134.6,694,134,693.2,134z M695.6,140.2c-0.9,0-2.7,0.2-2.7,1
	s1.8,0.9,2.7,0.9c1,0,2.7-0.1,2.7-0.9C698.4,140.4,696.5,140.2,695.6,140.2z M698.2,138.9v-1.4h-1.8v-1.4h1.8v-1.3h-1.8v-1.4h1.8
	v-1.7c0.3,0,1.4,0,1.5,0c0.6,0,0.2,0.5,0.2,0.6v6.5L698.2,138.9L698.2,138.9z"/>
<path class="st3" d="M712.4,145.2c0.3-0.3,0.7-1.1,0.7-1.6c-0.4,0-0.8-0.2-0.8-0.7s0.3-0.8,0.7-0.8s0.7,0.4,0.7,0.9
	C713.8,143.9,713.2,144.8,712.4,145.2L712.4,145.2z"/>
<path class="st3" d="M392.7,198c-1.4,0.1-3.2,0.2-3.5,0.2s-0.7,0.3-0.8-0.2c-0.1-0.4,0-1.1,0-1.4c0.2,0,0.5,0,1,0s1.5-0.1,2.3-0.1
	v-1.4c0.2,0,1,0,1.4,0s0.1,0.4,0.1,0.6v0.7c1-0.1,2-0.1,3.1-0.2v1.4C395.3,197.8,394.1,197.9,392.7,198z M395.3,195.6
	c-0.2,0-0.9-0.1-1.7-0.6c-0.6-0.4-1-0.8-1-1c-0.1,0.2-0.4,0.6-1.3,1c-0.6,0.3-1.4,0.6-1.7,0.6c-0.3-0.4-0.9-1-1.1-1.2
	c0.5-0.1,1.4-0.3,2-0.7c0.7-0.5,0.9-0.6,1.2-1h-2.6v-1.4h6.6v1.4h-2.4c0.2,0.2,0.3,0.6,1.3,1c0.7,0.4,1.2,0.5,1.7,0.6
	C396,194.7,395.5,195.3,395.3,195.6z M390.7,191v-1.2h3.5v1.2H390.7z M396.8,200.6v-11.8c0.2,0,1.2,0,1.6,0.1c0.5,0,0.2,0.3,0.2,0.7
	v11H396.8L396.8,200.6z"/>
<path class="st3" d="M412,199v-1.6h4.8v-1.5c0.4,0,1.2,0,1.7,0.1c0.4,0,0.1,0.3,0.1,0.6v0.9h4.7v1.6L412,199L412,199z M413.3,195.5
	v-5.7c0.4,0,1.1,0,1.6,0c0.4,0,0.2,0.4,0.2,0.6v0.9h5.2v-1.5c0.4,0,1.2,0,1.5,0c0.4,0,0.2,0.5,0.2,0.6v5L413.3,195.5L413.3,195.5z
	 M420.2,192.8H415v1.4h5.2V192.8z"/>
<path class="st3" d="M436.2,195.9v-4h3.6v-1h-3.7v-1.4h5.4v3.8h-3.6v1.1c1,0,2.8-0.1,3.9-0.2l0.1,1.4
	C440.1,195.8,437.9,195.9,436.2,195.9z M437,200.2v-3.8c0.2,0,1.3,0,1.4,0c0.6,0,0.2,0.4,0.2,0.6v1.5h7v1.6L437,200.2L437,200.2z
	 M443.9,197.3v-2.7h-2v-1.4h2v-1.3h-2v-1.4h2v-1.8c0.3,0,1.1,0,1.4,0c0.6,0,0.3,0.2,0.3,0.4v8.2H443.9z"/>
<path class="st3" d="M458,202.2c0.3-0.3,0.7-1.1,0.7-1.6c-0.4,0-0.8-0.2-0.8-0.7s0.3-0.8,0.7-0.8s0.7,0.4,0.7,0.9
	C459.3,201,458.8,201.8,458,202.2L458,202.2z"/>
<path class="st3" d="M382.1,261.8c-0.3-0.2-0.8-0.4-1.4-1.1c-0.6-0.6-0.9-1.3-1-1.6c-0.2,0.4-0.4,0.9-1.1,1.6s-1.3,1.1-1.7,1.3
	c-0.2-0.3-0.7-0.9-1.3-1.1c0.6-0.3,1.7-1.1,2.5-2.1c1-1.3,0.9-2.4,0.9-3.1h-2.5v-1.4h6.4v1.4h-2.3c0,0.7-0.2,1.8,0.6,3
	c0.6,1.2,1.7,1.8,2.1,1.9C382.8,260.9,382.4,261.4,382.1,261.8z M384.4,264.6v-11.8c0.4,0,1,0,1.6,0.1c0.5,0,0.2,0.5,0.2,0.9v10.9
	L384.4,264.6L384.4,264.6z"/>
<path class="st3" d="M405.9,259.1c-0.7,0-0.9,0.1-1,0.1v1.7h-1.6v-1.6c-0.3,0-0.9,0-1.4,0.1c-0.7,0-1.3,0.1-1.6,0.1
	c-0.1,0-0.5,0.2-0.5-0.1c-0.1-0.3-0.1-1-0.1-1.4c0.6,0,2,0,3.9-0.1c2-0.1,3.4-0.2,4.2-0.2v1.4C407.2,259.1,406.6,259.1,405.9,259.1z
	 M403.5,257.2c-1.5,0-3-0.6-3-1.8c0-1.4,1.4-1.9,3-1.9c1.7,0,3,0.6,3,1.9C406.5,256.7,405.1,257.2,403.5,257.2z M401.2,264.3v-3.4
	c0.5,0,1,0,1.4,0c0.6,0,0.3,0.5,0.3,0.6v1.3h7.3v1.4L401.2,264.3L401.2,264.3z M403.6,254.6c-0.9,0-1.3,0.3-1.3,0.8s0.5,0.7,1.3,0.7
	c0.9,0,1.3-0.2,1.3-0.7C404.8,254.9,404.4,254.6,403.6,254.6z M408.3,261.6v-0.5H406v-1.4h2.3v-7c0.4,0,1,0,1.4,0
	c0.6,0,0.2,0.3,0.2,0.5v8.3L408.3,261.6L408.3,261.6z"/>
<path class="st3" d="M422.9,266.2c0.3-0.3,0.7-1.1,0.7-1.6c-0.4,0-0.8-0.2-0.8-0.7s0.3-0.8,0.7-0.8s0.7,0.4,0.7,0.9
	C424.3,265,423.7,265.8,422.9,266.2L422.9,266.2z"/>
<path class="st3" d="M604.5,288.3v-1.4h7.1v1.4H604.5L604.5,288.3z M608.2,292.5c-0.8,0-3.2-0.2-3.2-1.8c0-1.8,2.2-1.9,3.2-1.9
	c0.9,0,3,0.2,3,1.9C611.2,292.2,609,292.5,608.2,292.5z M605.9,296.2V293c0.2,0,1.3,0,1.4,0c0.6,0,0.2,0.4,0.2,0.6v1h6.9v1.6H605.9
	L605.9,296.2z M606.4,286.4v-1.2h3.3v1.2H606.4z M608.2,289.9c-0.4,0-1.4,0.2-1.4,0.8c0,0.6,1.2,0.7,1.4,0.7c0.3,0,1.4-0.1,1.4-0.7
	C609.6,290,608.7,289.9,608.2,289.9z M614.3,290.2v3.1h-1.7v-8.7c0.2,0,1.4,0,1.6,0c0.4,0,0.1,0.5,0.1,0.6v3.3h1.5v1.6L614.3,290.2
	L614.3,290.2z"/>
<path class="st3" d="M634.1,293.8c-0.3-0.2-0.8-0.4-1.4-1.1c-0.6-0.6-0.9-1.3-1-1.6c-0.2,0.4-0.4,0.9-1.1,1.6
	c-0.7,0.7-1.3,1.1-1.7,1.3c-0.2-0.3-0.7-0.9-1.3-1.1c0.6-0.3,1.7-1.1,2.5-2.1c1-1.3,0.9-2.4,0.9-3.1h-2.5v-1.4h6.4v1.4h-2.3
	c0,0.7-0.2,1.8,0.6,3c0.6,1.2,1.7,1.8,2.1,1.9C634.8,292.9,634.4,293.4,634.1,293.8z M636.4,296.6v-11.8c0.4,0,1,0,1.6,0.1
	c0.5,0,0.2,0.5,0.2,0.9v10.9L636.4,296.6L636.4,296.6z"/>
<path class="st3" d="M651.8,288.1v-1.3h7v1.3H651.8z M655.4,292c-0.8,0-3-0.2-3-1.8c0-1.6,2.2-1.8,3-1.8c0.9,0,2.9,0.2,2.9,1.8
	C658.3,291.8,656.1,292,655.4,292z M657.4,296.4c-0.6,0-4.2,0-4.2-2c0-1.9,3.4-1.9,4.2-1.9c0.6,0,4.3,0,4.3,1.9
	C661.7,296.4,658.2,296.4,657.4,296.4z M653.7,286.4v-1.2h3.3v1.2H653.7z M655.4,289.5c-0.4,0-1.4,0.2-1.4,0.7
	c0,0.6,1.1,0.7,1.4,0.7c0.3,0,1.3-0.1,1.3-0.6C656.7,289.6,655.9,289.5,655.4,289.5z M657.5,293.6c-0.5,0-2.6,0-2.6,0.8
	c0,0.9,2.1,0.9,2.6,0.9c0.4,0,2.6,0,2.6-0.9C660.1,293.6,657.9,293.6,657.5,293.6z M660.1,292.5v-0.6h-1.4v-1.4h1.4v-0.7h-1.4v-1.4
	h1.4v-3.6c0.3,0,1.4,0,1.5,0c0.6,0,0.2,0.5,0.2,0.6v7.1H660.1z"/>
<g>
	<path class="st3" d="M790.2,194.9c0,6.6-5.9,13.8-5.9,20.2h3.4l1.5-8.6h0.3l0.8,11.3H780c0-5.4,2-9.6,3.8-13.4l-4.9-14.7l0.2-0.1
		l2,1.2c0.8-1.1,2.2-1.8,4.1-1.8C788.6,189,790.2,191.1,790.2,194.9z M783.1,201.1l0.9,2.9c1.4-3,2.7-5.8,2.7-9
		c0-1.9-0.7-3.4-2.2-3.4c-1.6,0-2.5,1.4-2.5,3.7C782,197.2,782.5,199,783.1,201.1z"/>
	<path class="st3" d="M816.4,204.4c0,8.1-1,14-6.4,14s-6.4-5.9-6.4-14c0-7.2,1.5-15.4,6.4-15.4C814.8,189,816.4,197.1,816.4,204.4z
		 M807.7,203.6c0,9.3,0.2,12.6,2.3,12.6s2.3-3.3,2.3-12.6c0-8-0.8-12.5-2.4-12.5S807.7,195.5,807.7,203.6z"/>
	<path class="st3" d="M839.7,194.9c0,6.6-5.9,13.8-5.9,20.2h3.4l1.5-8.6h0.3l0.8,11.3h-10.2c0-5.4,2-9.6,3.8-13.4l-4.9-14.7l0.2-0.1
		l2,1.2c0.8-1.1,2.2-1.8,4.1-1.8C838.1,189,839.7,191.1,839.7,194.9z M832.6,201.1l0.9,2.9c1.4-3,2.7-5.8,2.7-9
		c0-1.9-0.7-3.4-2.2-3.4c-1.6,0-2.5,1.4-2.5,3.7C831.5,197.2,832,199,832.6,201.1z"/>
	<path class="st3" d="M865.9,204.4c0,8.1-1,14-6.4,14s-6.4-5.9-6.4-14c0-7.2,1.5-15.4,6.4-15.4S865.9,197.1,865.9,204.4z
		 M857.2,203.6c0,9.3,0.2,12.6,2.3,12.6s2.3-3.3,2.3-12.6c0-8-0.8-12.5-2.4-12.5S857.2,195.5,857.2,203.6z"/>
	<path class="st3" d="M881.6,213.3c1.3,0,2.4,1.1,2.4,2.4c0,1.3-1.1,2.4-2.4,2.4c-1.3,0-2.4-1-2.4-2.4
		C879.3,214.4,880.3,213.3,881.6,213.3z"/>
	<path class="st3" d="M904.7,189.1v26.7l3.4,1.7v0.3h-10.5v-0.3l3.3-1.7V193h-2.8v-0.3l6.4-3.7L904.7,189.1z"/>
	<path class="st3" d="M931.6,194.9c0,6.6-5.9,13.8-5.9,20.2h3.4l1.5-8.6h0.3l0.8,11.3h-10.2c0-5.4,2-9.6,3.8-13.4l-4.9-14.7l0.2-0.1
		l2,1.2c0.8-1.1,2.2-1.8,4.1-1.8C930,189,931.6,191.1,931.6,194.9z M924.6,201.1l0.9,2.9c1.4-3,2.7-5.8,2.7-9c0-1.9-0.7-3.4-2.2-3.4
		c-1.6,0-2.5,1.4-2.5,3.7C923.4,197.2,923.9,199,924.6,201.1z"/>
	<path class="st3" d="M948.2,213.3c1.3,0,2.4,1.1,2.4,2.4c0,1.3-1.1,2.4-2.4,2.4c-1.3,0-2.4-1-2.4-2.4
		C945.9,214.4,946.9,213.3,948.2,213.3z"/>
	<path class="st3" d="M975,194.8c0,2.7-1.3,5.7-2.6,7.8c2,1.8,3,5.1,3,8.2c0,3.9-1.4,7.4-5.4,7.4c-3.8,0-5.3-2.4-5.3-5.5
		c0-1.9,0.6-3.8,1.7-5.9l1.9-3.4c2.3-4.1,3.2-6.2,3.2-8.6c0-2-0.7-3.5-2.2-3.5c-1.9,0-2.7,1.6-2.7,4.2c0,1.4,0.3,3.2,0.8,5.1h-0.2
		l-4-11.2l0.2-0.1l2.3,1.2c0.9-1,2.4-1.8,4.2-1.8C973.5,189,975,191.4,975,194.8z M966.8,207.1c-1,1.8-1.4,3.2-1.4,4.5
		c0,2.5,1.4,4,3.3,4c2.3,0,3.1-2.3,3.1-5s-0.9-5.5-3.1-6.8L966.8,207.1z"/>
	<path class="st3" d="M995.4,189.1v26.7l3.4,1.7v0.3h-10.5v-0.3l3.3-1.7V193h-2.8v-0.3l6.4-3.7L995.4,189.1z"/>
</g>
<g>
	<path class="st3" d="M19.8,265.8c0,8.1-1,14-6.4,14s-6.4-5.9-6.4-14c0-7.2,1.5-15.4,6.4-15.4C18.3,250.5,19.8,258.6,19.8,265.8z
		 M11.1,265c0,9.3,0.2,12.6,2.3,12.6s2.3-3.3,2.3-12.6c0-8-0.8-12.5-2.4-12.5S11.1,257,11.1,265z"/>
	<path class="st3" d="M39.2,250.6v26.7l3.4,1.7v0.3H32.2V279l3.3-1.7v-22.8h-2.8v-0.3l6.4-3.7L39.2,250.6z"/>
	<path class="st3" d="M58.3,274.8c1.3,0,2.4,1.1,2.4,2.4s-1.1,2.4-2.4,2.4s-2.4-1-2.4-2.4C56,275.8,57,274.8,58.3,274.8z"/>
	<path class="st3" d="M81.4,250.6v26.7l3.4,1.7v0.3H74.4V279l3.3-1.7v-22.8h-2.8v-0.3l6.4-3.7L81.4,250.6z"/>
	<path class="st3" d="M109.3,265.8c0,8.1-1,14-6.4,14s-6.4-5.9-6.4-14c0-7.2,1.5-15.4,6.4-15.4C107.8,250.5,109.3,258.6,109.3,265.8
		z M100.6,265c0,9.3,0.2,12.6,2.3,12.6c2.1,0,2.3-3.3,2.3-12.6c0-8-0.8-12.5-2.4-12.5S100.6,257,100.6,265z"/>
</g>
<g>
	<path class="st3" d="M926,256.4c0,6.6-5.9,13.8-5.9,20.2h3.4l1.5-8.6h0.3l0.8,11.3h-10.2c0-5.4,2-9.6,3.8-13.4l-4.9-14.7l0.2-0.1
		l2,1.2c0.8-1.1,2.2-1.8,4.1-1.8C924.4,250.5,926,252.5,926,256.4z M918.9,262.5l0.9,2.9c1.4-3,2.7-5.8,2.7-9c0-1.9-0.7-3.4-2.2-3.4
		c-1.6,0-2.5,1.4-2.5,3.7C917.8,258.6,918.3,260.5,918.9,262.5z"/>
	<path class="st3" d="M952.2,265.8c0,8.1-1,14-6.4,14s-6.4-5.9-6.4-14c0-7.2,1.5-15.4,6.4-15.4C950.7,250.5,952.2,258.6,952.2,265.8
		z M943.5,265c0,9.3,0.2,12.6,2.3,12.6s2.3-3.3,2.3-12.6c0-8-0.8-12.5-2.4-12.5S943.5,257,943.5,265z"/>
	<path class="st3" d="M975.5,256.4c0,6.6-5.9,13.8-5.9,20.2h3.4l1.5-8.6h0.3l0.8,11.3h-10.2c0-5.4,2-9.6,3.8-13.4l-4.9-14.7l0.2-0.1
		l2,1.2c0.8-1.1,2.2-1.8,4.1-1.8C973.9,250.5,975.5,252.5,975.5,256.4z M968.5,262.5l0.9,2.9c1.4-3,2.7-5.8,2.7-9
		c0-1.9-0.7-3.4-2.2-3.4c-1.6,0-2.5,1.4-2.5,3.7C967.3,258.6,967.8,260.5,968.5,262.5z"/>
	<path class="st3" d="M996.2,250.6v26.7l3.4,1.7v0.3h-10.5V279l3.3-1.7v-22.8h-2.8v-0.3l6.4-3.7L996.2,250.6z"/>
	<path class="st3" d="M1015.3,274.8c1.3,0,2.4,1.1,2.4,2.4s-1.1,2.4-2.4,2.4c-1.3,0-2.4-1-2.4-2.4
		C1013,275.8,1014,274.8,1015.3,274.8z"/>
</g>
<path class="st3" d="M54,82.3c-0.7,0-1.3,0.1-1.4,0.1v1.8H51v-1.8c-0.3,0-0.5,0-1,0.1c-0.7,0-1.3,0.1-1.6,0.1
	c-0.1,0-0.5,0.2-0.5-0.1c-0.1-0.3-0.1-1.1-0.1-1.4c0.6,0,2-0.1,3.9-0.1c0.6,0,1,0,1.4,0c0.1-0.5,0.1-1.9,0.1-2.3h-4.6v-1.4h6.2
	c0,0.7,0,2.8-0.2,3.8c0.4,0,0.8,0,1,0v1.4C55.2,82.2,54.7,82.2,54,82.3z M49.2,87.7v-3.3c0.5,0,1,0,1.4,0c0.6,0,0.3,0.5,0.3,0.6v1.2
	h7.3v1.4C58.3,87.7,49.2,87.7,49.2,87.7z M56.4,85v-0.9H54v-1.4h2.3v-6.6c0.4,0,1,0,1.4,0c0.6,0,0.2,0.3,0.2,0.5v8.3L56.4,85
	L56.4,85z"/>
<path class="st3" d="M76.3,85.2c-0.9-0.9-1.4-1.8-1.7-2.5c-0.2,0.6-1,1.9-2.1,2.7c-0.3-0.4-0.7-1-1.2-1.3c0.7-0.6,1.6-1.3,2.1-2.7
	c0.6-1.7,0.4-3.3,0.4-3.8c0.4,0,1.3,0,1.6,0c0.4,0,0.1,0.4,0.1,0.5c0,0.2-0.2,1.8-0.1,2.3c0.4,2.3,1.4,3,1.8,3.4
	C77.1,84,76.6,84.8,76.3,85.2z M77.8,87.6v-6h-1.5v-1.4h1.5v-3.5c0.5,0,1,0,1.4,0s0.2,0.5,0.2,0.8v10.2
	C79.4,87.5,77.8,87.5,77.8,87.6z M80.6,88V76.3c0.3,0,1.3,0,1.5,0c0.4,0,0.2,0.3,0.2,0.6V88H80.6z"/>
<path class="st3" d="M352.9,258.9v-5.7c0.3,0,0.9,0,1.5,0c0.3,0,0.1,0.3,0.1,0.4v1.1h2.5v-1.6c0.4,0,0.9,0,1.5,0
	c0.4,0,0.1,0.3,0.1,0.5v5.1H352.9z M360.6,264.4v-3h-7.1v-1.6h8.8v4.6H360.6z M357,256.2h-2.5v1.4h2.5V256.2z M362.3,257v2.3h-1.7
	v-6.7c0.3,0,1.4,0,1.6,0c0.4,0,0.1,0.4,0.1,0.6v2.2h1.5v1.6H362.3z"/>
</svg>
