<svg id="레이어_1" data-name="레이어 1" xmlns="http://www.w3.org/2000/svg" viewBox="0 0 625 450"><defs><style>.cls-1{fill:#fff;}.cls-2{fill:#9150c8;}</style></defs><title>대지 2</title><path class="cls-1" d="M413.9,383.53c-2.34,0-3.48-1.44-3.48-4.38,0-9.78,12.21-31.81,22.89-50-6.86.51-13.52,1.32-20.95,2.54h0a.39.39,0,0,1-.36-.17.38.38,0,0,1,0-.42l1-1.4a.41.41,0,0,1,.25-.15c7.14-1.16,14.09-2,21.23-2.49,4.22-7.06,9-15,15.11-25a.36.36,0,0,1,.32-.19l.1,0,1.7.5a.38.38,0,0,1,.25.23.36.36,0,0,1,0,.32c-5,8.27-9.82,16.34-14.25,24,6-.4,12-.45,16.63-.45a.38.38,0,0,1,.32.18.37.37,0,0,1,0,.38l-.7,1.2a.38.38,0,0,1-.32.18c-5.49,0-10.92.16-17.08.49-16,27.78-24.15,44.82-24.15,50.64,0,2,.82,2.23,1.53,2.23,2.49,0,8.33-4.41,16.43-12.4a.38.38,0,0,1,.27-.1.37.37,0,0,1,.3.15l.8,1.1a.38.38,0,0,1,0,.49C423,379.32,417,383.53,413.9,383.53Z"/><path class="cls-2" d="M449.9,302H450l1.7.5a.26.26,0,0,1,.16.15.25.25,0,0,1,0,.22c-5.05,8.32-9.88,16.45-14.36,24.19,6.06-.42,12.17-.47,16.85-.47a.23.23,0,0,1,.21.13.23.23,0,0,1,0,.25l-.7,1.2a.26.26,0,0,1-.21.12c-5.51,0-11,.16-17.16.49-16.05,27.84-24.19,44.91-24.19,50.76,0,2.11.94,2.35,1.65,2.35,2.52,0,8.39-4.41,16.52-12.43a.29.29,0,0,1,.18-.07h0a.25.25,0,0,1,.18.1l.8,1.1a.26.26,0,0,1,0,.33C423,379.2,417,383.4,413.9,383.4c-2.26,0-3.35-1.39-3.35-4.25,0-9.75,12.23-31.83,23-50.12-6.94.51-13.69,1.33-21.2,2.57h0a.25.25,0,0,1-.22-.12.26.26,0,0,1,0-.28l1-1.4a.27.27,0,0,1,.17-.1c7.16-1.16,14.13-2,21.29-2.49,4.23-7.09,9.05-15.07,15.13-25.09a.25.25,0,0,1,.22-.12m0-.25a.5.5,0,0,0-.43.24c-6.08,10-10.87,18-15.07,25-7.12.52-14,1.33-21.18,2.49a.48.48,0,0,0-.33.2l-1,1.4a.48.48,0,0,0,0,.55.5.5,0,0,0,.43.24h.08c7.34-1.2,13.93-2,20.7-2.52-10.66,18.14-22.78,40.06-22.78,49.83,0,3,1.21,4.5,3.6,4.5,3.17,0,9.17-4.22,17.84-12.54a.49.49,0,0,0,.06-.65l-.8-1.1a.49.49,0,0,0-.36-.21h0a.51.51,0,0,0-.38.14c-8.09,8-13.89,12.36-16.35,12.36-.42,0-1.4,0-1.4-2.1,0-5.79,8.1-22.79,24.09-50.52,6.13-.33,11.54-.48,17-.48a.5.5,0,0,0,.43-.25l.7-1.2a.5.5,0,0,0,0-.5.52.52,0,0,0-.43-.25c-4.54,0-10.48,0-16.4.44,4.41-7.61,9.16-15.61,14.12-23.78a.49.49,0,0,0,0-.44.46.46,0,0,0-.32-.3l-1.7-.5-.14,0Z"/><path class="cls-1" d="M385.5,383.82c-4.49,0-7.28-2.25-7.28-5.87,0-5.48,6.54-11.79,18.65-12.67h0a.41.41,0,0,1,.28.09.39.39,0,0,1,.12.28v1.1a.37.37,0,0,1-.36.37c-10.59.49-16.24,6.84-16.24,11.23,0,2.52,1.8,4,4.83,4,7,0,14.12-6.43,14.12-18.72,0-2-.15-4.36-.3-6.65s-.3-4.56-.3-6.45c0-7.23,3.94-12.27,9.58-12.27,3.46,0,6,2,6,4.87a9.15,9.15,0,0,1-2.28,5.43.38.38,0,0,1-.29.15.47.47,0,0,1-.17,0l-.8-.41a.38.38,0,0,1-.19-.46,12.71,12.71,0,0,0,1-4.17c0-2.54-.93-3.62-3.12-3.62-4.72,0-6.83,5.18-6.83,10.32,0,2,.13,4.42.26,6.77s.24,4.4.24,6.13C402.37,378.24,392,383.82,385.5,383.82Z"/><path class="cls-2" d="M408.6,338.4c3.39,0,5.85,2,5.85,4.75a9,9,0,0,1-2.26,5.36.25.25,0,0,1-.19.09l-.12,0-.8-.4a.25.25,0,0,1-.12-.31,13,13,0,0,0,1-4.21c0-2.59-1-3.75-3.25-3.75-4.81,0-6.95,5.25-6.95,10.45,0,2,.13,4.42.26,6.77s.24,4.42.24,6.13c0,14.9-10.28,20.45-16.75,20.45-4.41,0-7.15-2.2-7.15-5.75,0-5.43,6.49-11.67,18.53-12.55h0a.26.26,0,0,1,.25.25v1.1a.26.26,0,0,1-.24.25c-10.68.49-16.36,6.91-16.36,11.35,0,2.6,1.85,4.15,4.95,4.15,7.08,0,14.25-6.47,14.25-18.85,0-2-.16-4.4-.31-6.7s-.29-4.52-.29-6.4c0-7.15,3.88-12.15,9.45-12.15m0-.25c-5.72,0-9.7,5.1-9.7,12.4,0,1.9.14,4.1.29,6.42s.31,4.67.31,6.68c0,12.21-7.05,18.6-14,18.6-2.95,0-4.7-1.46-4.7-3.9,0-4.34,5.6-10.62,16.12-11.1a.5.5,0,0,0,.48-.5v-1.1a.52.52,0,0,0-.16-.37.55.55,0,0,0-.34-.13c-12.23.89-18.8,7.26-18.8,12.8,0,3.7,2.83,6,7.4,6,6.57,0,17-5.62,17-20.7,0-1.74-.13-4-.24-6.14-.13-2.34-.26-4.76-.26-6.76,0-5.08,2.07-10.2,6.7-10.2,2.1,0,3,1.05,3,3.5a12.67,12.67,0,0,1-1,4.12.51.51,0,0,0,.24.63l.8.4a.59.59,0,0,0,.23.05.51.51,0,0,0,.39-.19,9.26,9.26,0,0,0,2.31-5.51c0-2.9-2.57-5-6.1-5Z"/><path class="cls-1" d="M373.89,388.31a8.35,8.35,0,0,1-6.07-8.26c0-9.46,12.25-29.3,17.48-37.77l.08-.13a.38.38,0,0,1,.32-.18l.1,0,1.7.5a.42.42,0,0,1,.25.22.41.41,0,0,1,0,.34c-4.29,6.94-17.35,28.09-17.35,36.9,0,1.91.95,5.74,4.52,6.64a.37.37,0,0,1,.26.24.36.36,0,0,1-.06.35l-.8,1a.37.37,0,0,1-.29.14Z"/><path class="cls-2" d="M385.7,342.1h.07l1.7.5a.26.26,0,0,1,.16.15.24.24,0,0,1,0,.22c-4.3,7-17.36,28.13-17.36,37,0,1.94,1,5.85,4.61,6.76a.23.23,0,0,1,.17.16.24.24,0,0,1,0,.24l-.8,1a.25.25,0,0,1-.19.09h-.08a8.23,8.23,0,0,1-6-8.14c0-9.42,12.23-29.24,17.45-37.7l.08-.13a.25.25,0,0,1,.22-.12m0-.25a.5.5,0,0,0-.43.24l-.08.12c-5.23,8.49-17.49,28.35-17.49,37.84a8.47,8.47,0,0,0,6.15,8.38l.15,0a.51.51,0,0,0,.39-.19l.8-1a.49.49,0,0,0,.08-.47.51.51,0,0,0-.35-.33c-3.5-.87-4.42-4.64-4.42-6.51,0-8.77,13-29.9,17.32-36.84a.49.49,0,0,0,0-.44.48.48,0,0,0-.32-.3l-1.7-.5-.14,0Z"/><path class="cls-1" d="M393.7,331.21l-1.8-.5a.37.37,0,0,1-.23-.54l5.9-10.8a.36.36,0,0,1,.33-.19h.1l1.8.5a.35.35,0,0,1,.24.22.36.36,0,0,1,0,.32l-5.9,10.8a.39.39,0,0,1-.33.19Z"/><path class="cls-2" d="M397.9,319.3H398l1.8.5a.24.24,0,0,1,.17.14.28.28,0,0,1,0,.22L394,331a.26.26,0,0,1-.22.13h-.07l-1.8-.5a.25.25,0,0,1-.16-.14.24.24,0,0,1,0-.22l5.9-10.8a.25.25,0,0,1,.22-.13m0-.25a.49.49,0,0,0-.44.26l-5.9,10.8a.49.49,0,0,0,0,.44.5.5,0,0,0,.32.28l1.8.5.14,0a.51.51,0,0,0,.44-.26l5.9-10.8a.5.5,0,0,0-.31-.72l-1.8-.5-.13,0Z"/><path class="cls-1" d="M346.9,383.82c-4.49,0-7.28-2.25-7.28-5.87,0-5.48,6.54-11.79,18.65-12.67h0a.41.41,0,0,1,.28.09.39.39,0,0,1,.12.28v1.1a.37.37,0,0,1-.36.37c-10.59.49-16.24,6.84-16.24,11.23,0,2.52,1.81,4,4.83,4,7,0,14.12-6.43,14.12-18.72,0-2-.15-4.4-.3-6.69s-.3-4.52-.3-6.41c0-7.23,3.94-12.27,9.58-12.27,3.46,0,6,2,6,4.87a9.15,9.15,0,0,1-2.28,5.43.38.38,0,0,1-.29.15.47.47,0,0,1-.17,0l-.8-.41a.36.36,0,0,1-.18-.46,12.91,12.91,0,0,0,1-4.17c0-2.54-.93-3.62-3.12-3.62-4.72,0-6.83,5.18-6.83,10.32,0,2,.13,4.42.26,6.77s.24,4.44.24,6.13C363.77,378.24,353.42,383.82,346.9,383.82Z"/><path class="cls-2" d="M370,338.4c3.39,0,5.85,2,5.85,4.75a9,9,0,0,1-2.26,5.36.25.25,0,0,1-.19.09l-.12,0-.8-.4a.25.25,0,0,1-.12-.31,12.7,12.7,0,0,0,1-4.21c0-2.59-1-3.75-3.25-3.75-4.8,0-7,5.25-7,10.45,0,2,.13,4.42.26,6.77s.24,4.42.24,6.13c0,14.9-10.28,20.45-16.75,20.45-4.41,0-7.15-2.2-7.15-5.75,0-5.43,6.49-11.67,18.53-12.55h0a.26.26,0,0,1,.25.25v1.1a.26.26,0,0,1-.24.25c-10.68.49-16.36,6.91-16.36,11.35,0,2.6,1.85,4.15,4.95,4.15,7.08,0,14.25-6.47,14.25-18.85,0-2-.16-4.4-.31-6.7s-.29-4.52-.29-6.4c0-7.15,3.88-12.15,9.45-12.15m0-.25c-5.71,0-9.7,5.1-9.7,12.4,0,1.9.14,4.1.29,6.42s.31,4.67.31,6.68c0,12.21-7,18.6-14,18.6-2.95,0-4.7-1.46-4.7-3.9,0-4.34,5.6-10.62,16.12-11.1a.5.5,0,0,0,.48-.5v-1.1a.52.52,0,0,0-.16-.37.55.55,0,0,0-.34-.13c-12.23.89-18.8,7.26-18.8,12.8,0,3.7,2.83,6,7.4,6,6.57,0,17-5.62,17-20.7,0-1.7-.12-3.82-.24-6.07v-.07c-.13-2.34-.26-4.76-.26-6.76,0-5.08,2.07-10.2,6.7-10.2,2.1,0,3,1.05,3,3.5a12.67,12.67,0,0,1-1,4.12.51.51,0,0,0,.24.63l.8.4a.59.59,0,0,0,.23.05.51.51,0,0,0,.39-.19,9.26,9.26,0,0,0,2.31-5.51c0-2.9-2.57-5-6.1-5Z"/><path class="cls-1" d="M322.3,383.82c-4.49,0-7.28-2.25-7.28-5.87,0-5.48,6.54-11.79,18.65-12.67h0a.41.41,0,0,1,.28.09.39.39,0,0,1,.12.28v1.1a.37.37,0,0,1-.36.37c-10.59.49-16.24,6.84-16.24,11.23,0,2.52,1.81,4,4.83,4,7,0,14.12-6.43,14.12-18.72,0-2-.15-4.39-.3-6.69s-.3-4.51-.3-6.41c0-7.23,3.94-12.27,9.58-12.27,3.46,0,6,2,6,4.87a9.15,9.15,0,0,1-2.28,5.43.38.38,0,0,1-.29.15.47.47,0,0,1-.17,0l-.8-.41a.36.36,0,0,1-.18-.46,12.91,12.91,0,0,0,1-4.17c0-2.54-.93-3.62-3.12-3.62-4.72,0-6.83,5.18-6.83,10.32,0,2,.13,4.43.26,6.77v.1c.12,2.23.23,4.34.23,6C339.17,378.24,328.82,383.82,322.3,383.82Z"/><path class="cls-2" d="M345.4,338.4c3.39,0,5.85,2,5.85,4.75a9,9,0,0,1-2.26,5.36.25.25,0,0,1-.19.09l-.12,0-.8-.4a.25.25,0,0,1-.12-.31,12.7,12.7,0,0,0,1-4.21c0-2.59-1-3.75-3.25-3.75-4.8,0-6.95,5.25-6.95,10.45,0,2,.13,4.42.26,6.77s.24,4.42.24,6.13c0,14.9-10.28,20.45-16.75,20.45-4.41,0-7.15-2.2-7.15-5.75,0-5.43,6.49-11.67,18.53-12.55h0a.26.26,0,0,1,.25.25v1.1a.26.26,0,0,1-.24.25c-10.68.49-16.36,6.91-16.36,11.35,0,2.6,1.85,4.15,4.95,4.15,7.08,0,14.25-6.47,14.25-18.85,0-2-.16-4.4-.31-6.7s-.29-4.52-.29-6.4c0-7.15,3.88-12.15,9.45-12.15m0-.25c-5.71,0-9.7,5.1-9.7,12.4,0,1.9.14,4.09.29,6.42s.31,4.67.31,6.68c0,12.21-7.05,18.6-14,18.6-2.95,0-4.7-1.46-4.7-3.9,0-4.34,5.6-10.62,16.12-11.1a.5.5,0,0,0,.48-.5v-1.1a.52.52,0,0,0-.16-.37.53.53,0,0,0-.34-.13c-12.23.89-18.8,7.26-18.8,12.8,0,3.7,2.83,6,7.4,6,6.57,0,17-5.62,17-20.7,0-1.7-.12-3.83-.24-6.08v-.06c-.13-2.34-.26-4.77-.26-6.76,0-5.08,2.07-10.2,6.7-10.2,2.1,0,3,1.05,3,3.5a12.67,12.67,0,0,1-1,4.12.51.51,0,0,0,.24.63l.8.4a.59.59,0,0,0,.23.05.51.51,0,0,0,.39-.19,9.26,9.26,0,0,0,2.31-5.51c0-2.9-2.57-5-6.1-5Z"/><path class="cls-1" d="M309.69,388.31a8.35,8.35,0,0,1-6.07-8.26c0-9.46,12.25-29.3,17.48-37.77l.08-.13a.38.38,0,0,1,.32-.18l.1,0,1.7.5a.39.39,0,0,1,.25.22.4.4,0,0,1,0,.34c-4.29,6.94-17.35,28.09-17.35,36.9,0,1.91.95,5.74,4.52,6.64a.35.35,0,0,1,.26.24.37.37,0,0,1-.06.35l-.8,1a.37.37,0,0,1-.29.14Z"/><path class="cls-2" d="M321.5,342.1h.07l1.7.5a.26.26,0,0,1,.16.15.24.24,0,0,1,0,.22c-4.29,7-17.36,28.13-17.36,37,0,1.94,1,5.85,4.61,6.76a.23.23,0,0,1,.17.16.24.24,0,0,1,0,.24l-.8,1a.25.25,0,0,1-.19.09h-.08a8.23,8.23,0,0,1-6-8.14c0-9.42,12.23-29.24,17.46-37.7l.07-.13a.25.25,0,0,1,.22-.12m0-.25a.5.5,0,0,0-.43.24l-.08.12c-5.23,8.49-17.49,28.35-17.49,37.84a8.47,8.47,0,0,0,6.15,8.38l.15,0a.51.51,0,0,0,.39-.19l.8-1a.5.5,0,0,0,.08-.47.51.51,0,0,0-.35-.33c-3.5-.87-4.42-4.64-4.42-6.51,0-8.77,13-29.9,17.32-36.84a.49.49,0,0,0-.28-.74l-1.7-.5-.14,0Z"/><path class="cls-1" d="M329.5,331.21l-1.8-.5a.37.37,0,0,1-.25-.22.36.36,0,0,1,0-.32l5.9-10.8a.36.36,0,0,1,.33-.19h.1l1.8.5a.35.35,0,0,1,.24.22.36.36,0,0,1,0,.32l-5.9,10.8a.37.37,0,0,1-.33.19Z"/><path class="cls-2" d="M333.7,319.3h.06l1.8.5a.24.24,0,0,1,.17.14.28.28,0,0,1,0,.22l-5.9,10.8a.26.26,0,0,1-.22.13h-.07l-1.8-.5a.25.25,0,0,1-.16-.14.24.24,0,0,1,0-.22l5.9-10.8a.25.25,0,0,1,.22-.13m0-.25a.5.5,0,0,0-.44.26l-5.9,10.8a.52.52,0,0,0,0,.44.48.48,0,0,0,.32.28l1.8.5.14,0a.51.51,0,0,0,.44-.26l5.9-10.8a.5.5,0,0,0-.31-.72l-1.8-.5-.13,0Z"/><path class="cls-1" d="M282.6,384.42c-5.39,0-8.48-3.12-8.48-8.57,0-6.44,4.12-14.86,11-22.53,6.69-7.43,14.11-12,19.37-12,3.26,0,5.37,1.87,5.37,4.77s-2.05,6.16-5.64,9a.34.34,0,0,1-.23.08.38.38,0,0,1-.27-.1l-.6-.6a.39.39,0,0,1,0-.53c2.49-2.58,4.09-5.78,4.09-8.14A2.44,2.44,0,0,0,304.5,343c-9.51,0-27.63,19.62-27.63,32.82,0,4.66,1.82,6.82,5.73,6.82,3.7,0,8.29-1.91,13.28-5.52a.35.35,0,0,1,.22-.08l.12,0a.42.42,0,0,1,.24.25l.3,1a.4.4,0,0,1-.14.42C291.29,382.52,286.57,384.42,282.6,384.42Z"/><path class="cls-2" d="M304.5,341.4c3.19,0,5.25,1.83,5.25,4.65s-2,6.09-5.6,8.9a.27.27,0,0,1-.15.05.24.24,0,0,1-.18-.07l-.6-.6a.25.25,0,0,1,0-.35c2.51-2.61,4.13-5.84,4.13-8.23a2.56,2.56,0,0,0-2.85-2.85c-9.56,0-27.75,19.7-27.75,33,0,4.74,1.86,6.95,5.85,6.95,3.73,0,8.34-1.92,13.35-5.55a.3.3,0,0,1,.15-.05h.08a.27.27,0,0,1,.16.17l.3,1a.24.24,0,0,1-.1.27c-5.3,3.75-10,5.65-13.94,5.65-5.31,0-8.35-3.08-8.35-8.45,0-6.41,4.1-14.8,11-22.44,6.66-7.41,14-12,19.27-12m0-.25c-5.3,0-12.75,4.63-19.46,12.09-6.91,7.69-11,16.14-11,22.61,0,5.53,3.13,8.7,8.6,8.7,4,0,8.74-1.92,14.09-5.69a.51.51,0,0,0,.19-.55l-.3-1a.5.5,0,0,0-.32-.33.45.45,0,0,0-.16,0,.47.47,0,0,0-.3.1c-5,3.6-9.53,5.5-13.2,5.5-3.87,0-5.6-2.07-5.6-6.7,0-13.15,18-32.7,27.5-32.7a2.3,2.3,0,0,1,2.6,2.6c0,2.33-1.59,5.49-4.06,8.05a.5.5,0,0,0,0,.7l.6.6a.5.5,0,0,0,.67,0c3.61-2.85,5.69-6.17,5.69-9.09s-2.16-4.9-5.5-4.9Z"/><path class="cls-1" d="M239.7,387.53c-1.22,0-2.67-.71-2.67-4.08,0-5.89,4.43-17.28,8.7-26.24-10.13,10.41-27.64,26.32-33.23,26.32-1.62,0-2.47-1-2.47-2.78,0-9.55,17.7-40.18,38.37-40.18a14.35,14.35,0,0,1,5.77,1.4c1.17-1.71,2.77-3.69,3.93-3.69a1.14,1.14,0,0,1,1.28,1.17c0,2-3.73,6.72-6.86,10.29-5.39,10.8-13.44,28.95-13.44,34.61,0,1.43.44,1.43.62,1.43,3.38,0,7.79-4.95,10.81-8.67a.4.4,0,0,1,.29-.14.38.38,0,0,1,.23.08l1.2.9a.44.44,0,0,1,.15.25.38.38,0,0,1-.09.29C248.66,383,243.35,387.53,239.7,387.53Zm8.4-45.5c-17.95,0-36.82,32.34-36.82,38.92a1.08,1.08,0,0,0,1.22,1.22c4.54,0,25-19.09,37.34-32a69.87,69.87,0,0,1,3.77-6.56.12.12,0,0,0,0-.1l-.06-.08A11.2,11.2,0,0,0,248.1,342Z"/><path class="cls-2" d="M258.1,338.4a1,1,0,0,1,1.15,1.05c0,2-3.73,6.68-6.82,10.21C247,360.49,239,378.67,239,384.35c0,1.55.53,1.55.75,1.55,3.44,0,7.87-5,10.91-8.71a.25.25,0,0,1,.34,0l1.2.9a.23.23,0,0,1,.1.17.26.26,0,0,1-.05.19c-3.62,4.47-8.89,9-12.5,9-1.16,0-2.55-.68-2.55-3.95,0-6.06,4.71-17.93,9-26.87-11.13,11.51-28.25,26.82-33.68,26.82-1.56,0-2.35-.89-2.35-2.65,0-9.52,17.65-40.05,38.25-40.05a14.15,14.15,0,0,1,5.82,1.43c1-1.47,2.71-3.73,3.88-3.73m-45.6,43.9c4.56,0,25-19.08,37.43-32a73.3,73.3,0,0,1,3.78-6.57.28.28,0,0,0,0-.2.26.26,0,0,0-.13-.16,11.37,11.37,0,0,0-5.52-1.43c-18,0-36.95,32.44-36.95,39.05a1.21,1.21,0,0,0,1.35,1.35m45.6-44.15c-1.19,0-2.79,2-4,3.66a14.47,14.47,0,0,0-5.73-1.36c-20.74,0-38.5,30.72-38.5,40.3,0,2.4,1.42,2.9,2.6,2.9,3.17,0,9.83-5,14.86-9.15,5.49-4.55,12.11-10.7,17.94-16.66-4.18,8.86-8.4,19.85-8.4,25.61,0,3.65,1.76,4.2,2.8,4.2,3.69,0,9-4.56,12.69-9.09a.45.45,0,0,0,.11-.37.52.52,0,0,0-.2-.34l-1.2-.9a.45.45,0,0,0-.3-.1.49.49,0,0,0-.38.18c-3,3.7-7.39,8.62-10.72,8.62-.13,0-.5,0-.5-1.3,0-5.63,8-23.73,13.44-34.55,3.13-3.58,6.86-8.28,6.86-10.35a1.25,1.25,0,0,0-1.4-1.3Zm-45.6,43.9a1,1,0,0,1-1.1-1.1c0-6.56,18.81-38.8,36.7-38.8a11.1,11.1,0,0,1,5.4,1.4c-1.1,1.66-2.37,3.87-3.78,6.57-12.85,13.39-32.92,31.93-37.22,31.93Z"/><path class="cls-1" d="M254.9,344.82a.39.39,0,0,1-.21-.06.38.38,0,0,1-.12-.49c2.67-5,3.28-5,3.53-5a.54.54,0,0,1,.52.31c.12.27.38.85-3.44,5.11A.36.36,0,0,1,254.9,344.82Z"/><path class="cls-2" d="M258.1,339.4a.41.41,0,0,1,.4.24c.1.21.35.78-3.41,5a.27.27,0,0,1-.19.08.23.23,0,0,1-.14,0,.27.27,0,0,1-.08-.33c2.63-4.93,3.23-4.93,3.42-4.93m0-.25c-.32,0-.94,0-3.64,5.06a.5.5,0,0,0,.16.65.47.47,0,0,0,.28.09.5.5,0,0,0,.38-.17c3.87-4.31,3.6-4.92,3.45-5.25a.66.66,0,0,0-.63-.38Z"/><path class="cls-1" d="M197.32,318.82a.38.38,0,0,1-.29-.39c.5-9.42,1.73-20.65,4.78-20.65.47,0,1.27.32,1.27,2.47,0,3.48-2,10.34-5.33,18.34a.37.37,0,0,1-.34.23Z"/><path class="cls-2" d="M201.81,297.9c.42,0,1.15.3,1.15,2.35,0,3.46-2,10.3-5.32,18.3a.26.26,0,0,1-.23.15h-.06a.23.23,0,0,1-.19-.25c.4-7.67,1.54-20.54,4.65-20.54m0-.25c-3.15,0-4.4,11.3-4.9,20.77a.5.5,0,0,0,.39.52h.11a.5.5,0,0,0,.46-.31c3.34-8,5.34-14.9,5.34-18.39,0-2.26-.88-2.6-1.4-2.6Z"/><path class="cls-1" d="M145.81,386.12a.38.38,0,0,1-.27-.1l-.9-.9a.4.4,0,0,1-.1-.33.36.36,0,0,1,.19-.27C172.33,370,190.22,334,195,323.29c.3-17.82,2.52-26.51,6.77-26.51.81,0,2.17.47,2.17,3.67,0,4.33-2.3,12.08-6.31,21.26-.09,3.6-.19,7.51-.19,11.74V337c0,9.84,0,22.06,1.16,35.69,15.41-37.84,32.72-66.93,51.47-86.48,15.17-15.81,30.8-24.53,44-24.53,15.35,0,25.27,11.61,25.27,29.58A61.5,61.5,0,0,1,316,310.57a.37.37,0,0,1-.35.25l-2-.3a.39.39,0,0,1-.27-.18.42.42,0,0,1,0-.31,60,60,0,0,0,3.38-19c0-17.24-8.31-27.52-22.22-27.52-13.17,0-28.65,8.69-43.59,24.49-18.66,19.72-36.14,49.45-51.95,88.36.06.5.12,1.08.19,1.67s.17,1.38.22,2.07a3.9,3.9,0,0,1-.75,3,1.69,1.69,0,0,1-1.22.6c-.86,0-1.78-.78-1.78-2.48a7.42,7.42,0,0,1,.53-2.33l.78-1.9c-1.35-19.71-2-35.23-2-47.37v-1.92c-15.85,33.48-35.67,52.1-49,58.36A.45.45,0,0,1,145.81,386.12Z"/><path class="cls-2" d="M294.11,261.8c15.27,0,25.15,11.56,25.15,29.45a61.21,61.21,0,0,1-3.42,19.28.25.25,0,0,1-.23.17h0l-1.9-.3a.25.25,0,0,1-.2-.33,60.18,60.18,0,0,0,3.39-19c0-17.31-8.36-27.65-22.35-27.65-13.2,0-28.72,8.71-43.69,24.53-18.68,19.75-36.17,49.53-52,88.4.05.56.12,1.14.19,1.73s.16,1.38.21,2.07a3.8,3.8,0,0,1-.71,2.92,1.59,1.59,0,0,1-1.13.55c-.8,0-1.65-.73-1.65-2.35a7.43,7.43,0,0,1,.51-2.29l.79-1.89c-1.35-19.78-2-35.29-2-47.42v-2.47c-15.87,33.74-35.75,52.49-49.15,58.8l-.1,0a.29.29,0,0,1-.18-.07l-.9-.9a.26.26,0,0,1-.07-.22.24.24,0,0,1,.13-.18C172.51,370,190.37,334,195.16,323.35c.31-17.8,2.48-26.45,6.65-26.45.76,0,2.05.46,2.05,3.55,0,4.3-2.31,12.06-6.3,21.21-.11,3.64-.2,7.55-.2,11.79V337c0,10,0,22.38,1.21,36.21,15.45-38.05,32.82-67.29,51.64-86.91,15.15-15.79,30.74-24.49,43.91-24.49m0-.25c-13.24,0-28.89,8.72-44.09,24.57-18.68,19.47-35.94,48.41-51.3,86-1.16-13.41-1.14-25.45-1.12-35.16v-3.54c0-4.21.09-8.11.19-11.74,4-9.17,6.31-16.92,6.31-21.26,0-3.31-1.45-3.8-2.3-3.8-4.39,0-6.58,8.46-6.9,26.64-4.86,10.73-22.72,46.59-50.24,61.12a.5.5,0,0,0-.12.79l.9.9a.49.49,0,0,0,.36.15.54.54,0,0,0,.21-.05c13.25-6.24,33-24.72,48.79-57.91v1.36c0,12.13.65,27.63,2,47.38l-.76,1.83a7.84,7.84,0,0,0-.53,2.39c0,1.79,1,2.6,1.9,2.6a1.78,1.78,0,0,0,1.31-.63,4,4,0,0,0,.78-3.12c-.05-.68-.13-1.37-.21-2s-.13-1.15-.18-1.69c15.8-38.87,33.26-68.56,51.9-88.26,14.92-15.77,30.37-24.46,43.5-24.46,13.83,0,22.1,10.24,22.1,27.4A59.63,59.63,0,0,1,313.23,310a.5.5,0,0,0,0,.43.48.48,0,0,0,.35.23l1.9.3h.08a.51.51,0,0,0,.47-.34,61.71,61.71,0,0,0,3.43-19.36c0-18-10-29.7-25.4-29.7Z"/><path class="cls-1" d="M542.44,298.73c-7.21,0-10.87-3.73-10.87-11.08,0-12.57,11.56-37.79,35.35-77.09,7.5-12.48,21.76-33.58,27.62-33.58.59,0,2,.27,2,2.77,0,7.55-13.82,34.94-45.77,64-11,20.87-16.43,35.07-16.43,43.39,0,6.41,3,9.52,9.12,9.52,3.75,0,8.46-1.88,11.62-3.65a.41.41,0,0,1,.18,0l.13,0a.38.38,0,0,1,.22.21l.5,1.2a.37.37,0,0,1-.17.47C552.31,296.78,547.9,298.73,542.44,298.73Zm51.3-119.41c-2.63,0-10.64,8.56-25.21,32.56-6.48,10.67-11.85,20-16.4,28.41a.14.14,0,0,0,0,.16l.25.08-.08-.09c21.41-19.91,42.44-49.43,42.44-59.59C594.77,179.59,594.21,179.32,593.74,179.32Z"/><path class="cls-2" d="M594.54,177.1c.56,0,1.85.26,1.85,2.65,0,7.53-13.82,34.89-45.73,63.92-11.08,20.92-16.47,35.14-16.47,43.48,0,6.49,3,9.65,9.25,9.65,3.77,0,8.51-1.89,11.68-3.67l.12,0h.08a.26.26,0,0,1,.15.14l.5,1.2a.26.26,0,0,1-.11.32c-3.59,1.89-8,3.83-13.42,3.83-7.13,0-10.75-3.68-10.75-11,0-12.55,11.56-37.74,35.34-77,7.49-12.45,21.71-33.52,27.51-33.52m-42.3,63.5a.23.23,0,0,0,.17-.07c21.44-19.93,42.48-49.49,42.48-59.68,0-1.44-.72-1.65-1.15-1.65-2.67,0-10.72,8.57-25.31,32.62-6.5,10.68-11.87,20-16.41,28.41a.25.25,0,0,0,.07.32.27.27,0,0,0,.15,0m42.3-63.75c-5.91,0-20.21,21.15-27.73,33.64-23.8,39.33-35.37,64.57-35.37,77.16,0,7.43,3.7,11.2,11,11.2A28.36,28.36,0,0,0,556,295a.5.5,0,0,0,.23-.63l-.5-1.2a.47.47,0,0,0-.3-.28.41.41,0,0,0-.16,0,.5.5,0,0,0-.24.06c-3.15,1.76-7.84,3.64-11.56,3.64-6.05,0-9-3.07-9-9.4,0-8.29,5.37-22.46,16.42-43.33,32-29.08,45.78-56.5,45.78-64.07,0-2.69-1.61-2.9-2.1-2.9Zm-42.3,63.5c4.55-8.45,9.92-17.74,16.4-28.4,14.56-24,22.62-32.5,25.1-32.5.75,0,.9.76.9,1.4,0,10.14-21,39.61-42.4,59.5v0Z"/><path class="cls-1" d="M516.94,287.53c-1.22,0-2.67-.71-2.67-4.08,0-5.89,4.43-17.28,8.7-26.24-10.13,10.41-27.64,26.32-33.23,26.32-1.62,0-2.47-1-2.47-2.78,0-9.55,17.7-40.18,38.37-40.18a14.35,14.35,0,0,1,5.77,1.4c1.17-1.71,2.78-3.69,3.93-3.69a1.14,1.14,0,0,1,1.28,1.17c0,2-3.73,6.72-6.86,10.29-5.39,10.8-13.44,28.95-13.44,34.61,0,1.43.44,1.43.62,1.43,3.39,0,7.79-4.95,10.81-8.67A.42.42,0,0,1,528,277a.38.38,0,0,1,.23.08l1.2.9a.44.44,0,0,1,.15.25.43.43,0,0,1-.08.29C525.9,283,520.59,287.53,516.94,287.53Zm8.4-45.5c-18,0-36.82,32.34-36.82,38.92a1.08,1.08,0,0,0,1.22,1.22c4.54,0,25-19.09,37.34-32a69,69,0,0,1,3.77-6.56.18.18,0,0,0,0-.1l-.07-.08A11.2,11.2,0,0,0,525.34,242Z"/><path class="cls-2" d="M535.34,238.4a1,1,0,0,1,1.15,1c0,2-3.73,6.68-6.82,10.21-5.42,10.83-13.48,29-13.48,34.69,0,1.55.53,1.55.75,1.55,3.44,0,7.87-5,10.91-8.71a.25.25,0,0,1,.34,0l1.2.9a.23.23,0,0,1,.1.17.26.26,0,0,1,0,.19c-3.62,4.47-8.89,9-12.5,9-1.16,0-2.55-.68-2.55-3.95,0-6.06,4.72-17.93,9-26.87-11.13,11.51-28.25,26.82-33.68,26.82-1.55,0-2.35-.89-2.35-2.65,0-9.52,17.65-40.05,38.25-40.05a14.15,14.15,0,0,1,5.82,1.43c1-1.47,2.72-3.73,3.88-3.73m-45.6,43.9c4.56,0,25-19.08,37.43-32a73.3,73.3,0,0,1,3.78-6.57.28.28,0,0,0,0-.2.26.26,0,0,0-.13-.16,11.37,11.37,0,0,0-5.52-1.43c-18,0-37,32.44-37,39a1.21,1.21,0,0,0,1.35,1.35m45.6-44.15c-1.19,0-2.79,1.95-4,3.66a14.47,14.47,0,0,0-5.73-1.36c-20.74,0-38.5,30.72-38.5,40.3,0,2.4,1.42,2.9,2.6,2.9,3.17,0,9.83-5,14.86-9.15,5.49-4.55,12.11-10.7,17.94-16.66-4.17,8.86-8.4,19.85-8.4,25.61,0,3.65,1.76,4.2,2.8,4.2,3.7,0,9-4.56,12.69-9.09a.47.47,0,0,0,.11-.37.55.55,0,0,0-.19-.34l-1.21-.9a.45.45,0,0,0-.3-.1.49.49,0,0,0-.38.18c-3,3.7-7.39,8.62-10.72,8.62-.13,0-.5,0-.5-1.3,0-5.63,8-23.73,13.44-34.55,3.14-3.58,6.86-8.28,6.86-10.35a1.25,1.25,0,0,0-1.4-1.3Zm-45.6,43.9a1,1,0,0,1-1.1-1.1c0-6.56,18.81-38.8,36.7-38.8a11.07,11.07,0,0,1,5.4,1.4c-1.1,1.66-2.37,3.87-3.78,6.57-12.85,13.39-32.91,31.93-37.22,31.93Z"/><path class="cls-1" d="M532.14,244.82a.39.39,0,0,1-.21-.06.38.38,0,0,1-.12-.49c2.67-5,3.28-5,3.53-5a.53.53,0,0,1,.52.31c.12.27.38.85-3.44,5.11A.36.36,0,0,1,532.14,244.82Z"/><path class="cls-2" d="M535.34,239.4a.41.41,0,0,1,.4.24c.1.21.35.78-3.41,5a.27.27,0,0,1-.19.08.23.23,0,0,1-.14,0,.27.27,0,0,1-.08-.33c2.63-4.93,3.23-4.93,3.42-4.93m0-.25c-.32,0-.94,0-3.64,5.06a.5.5,0,0,0,.16.65.47.47,0,0,0,.28.09.5.5,0,0,0,.38-.17c3.87-4.32,3.6-4.92,3.45-5.25a.66.66,0,0,0-.63-.38Z"/><path class="cls-1" d="M469.35,284.42c-5.39,0-8.48-3.12-8.48-8.57,0-6.44,4.12-14.86,11-22.53,6.68-7.43,14.1-12,19.36-12,3.27,0,5.38,1.87,5.38,4.77s-2.06,6.16-5.64,9a.34.34,0,0,1-.23.08.38.38,0,0,1-.27-.1l-.6-.6a.38.38,0,0,1,0-.53c2.48-2.58,4.09-5.78,4.09-8.14a2.41,2.41,0,0,0-2.73-2.72c-9.51,0-27.62,19.62-27.62,32.82,0,4.66,1.82,6.82,5.73,6.82,3.7,0,8.29-1.91,13.27-5.52a.4.4,0,0,1,.23-.08l.11,0a.37.37,0,0,1,.24.25l.3,1a.38.38,0,0,1-.14.42C478,282.52,473.32,284.42,469.35,284.42Z"/><path class="cls-2" d="M491.25,241.4c3.18,0,5.25,1.83,5.25,4.65s-2,6.09-5.6,8.9a.3.3,0,0,1-.15.05.24.24,0,0,1-.18-.07l-.6-.6a.24.24,0,0,1,0-.35c2.5-2.61,4.13-5.84,4.13-8.23a2.56,2.56,0,0,0-2.85-2.85c-9.56,0-27.75,19.7-27.75,33,0,4.74,1.85,6.95,5.85,6.95,3.72,0,8.34-1.92,13.35-5.55a.25.25,0,0,1,.15-.05h.08a.26.26,0,0,1,.15.17l.3,1a.22.22,0,0,1-.09.27c-5.31,3.75-10,5.65-13.94,5.65-5.31,0-8.35-3.08-8.35-8.45,0-6.41,4.1-14.8,11-22.44,6.66-7.41,14-12,19.28-12m0-.25c-5.3,0-12.76,4.63-19.46,12.09-6.92,7.69-11,16.14-11,22.61,0,5.53,3.13,8.7,8.6,8.7,4,0,8.73-1.92,14.08-5.69a.48.48,0,0,0,.19-.55l-.3-1A.47.47,0,0,0,483,277l-.16,0a.47.47,0,0,0-.3.1c-5,3.6-9.53,5.5-13.2,5.5-3.88,0-5.6-2.07-5.6-6.7,0-13.15,18-32.7,27.5-32.7a2.3,2.3,0,0,1,2.6,2.6c0,2.33-1.6,5.49-4.06,8.05a.49.49,0,0,0,0,.7l.6.6a.49.49,0,0,0,.36.15.51.51,0,0,0,.31-.11c3.61-2.85,5.69-6.17,5.69-9.09s-2.16-4.9-5.5-4.9Z"/><path class="cls-1" d="M451.94,288.31a8.36,8.36,0,0,1-6.07-8.26c0-9.45,12.25-29.29,17.47-37.76l.09-.14a.38.38,0,0,1,.31-.18l.11,0,1.7.5a.41.41,0,0,1,.25.23.39.39,0,0,1,0,.33c-4.29,6.95-17.35,28.09-17.35,36.9,0,1.91.95,5.74,4.52,6.64a.37.37,0,0,1,.2.59l-.8,1a.37.37,0,0,1-.29.14Z"/><path class="cls-2" d="M463.75,242.1h.07l1.7.5a.26.26,0,0,1,.16.15.24.24,0,0,1,0,.22c-4.3,7-17.36,28.13-17.36,37,0,1.94,1,5.85,4.61,6.76a.23.23,0,0,1,.17.16.26.26,0,0,1,0,.24l-.8,1a.25.25,0,0,1-.19.09H452a8.23,8.23,0,0,1-6-8.14c0-9.42,12.23-29.24,17.45-37.7l.08-.13a.25.25,0,0,1,.22-.12m0-.25a.5.5,0,0,0-.43.24l-.08.12c-5.23,8.49-17.49,28.35-17.49,37.84a8.47,8.47,0,0,0,6.15,8.38l.15,0a.51.51,0,0,0,.39-.19l.8-1a.52.52,0,0,0,.08-.47.55.55,0,0,0-.35-.33c-3.5-.87-4.42-4.64-4.42-6.51,0-8.77,13-29.9,17.32-36.84a.49.49,0,0,0,0-.44.48.48,0,0,0-.32-.3l-1.7-.5-.14,0Z"/><path class="cls-1" d="M471.75,231.21l-1.8-.5a.35.35,0,0,1-.25-.22.36.36,0,0,1,0-.32l5.9-10.8a.36.36,0,0,1,.33-.19h.1l1.8.5a.36.36,0,0,1,.24.21.38.38,0,0,1,0,.33L472.17,231a.36.36,0,0,1-.32.19Z"/><path class="cls-2" d="M476,219.3H476l1.8.5a.24.24,0,0,1,.17.14.28.28,0,0,1,0,.22l-5.9,10.8a.26.26,0,0,1-.22.13h-.07l-1.8-.5a.25.25,0,0,1-.16-.14.24.24,0,0,1,0-.22l5.9-10.8a.25.25,0,0,1,.22-.13m0-.25a.5.5,0,0,0-.44.26l-5.9,10.8a.49.49,0,0,0,0,.44.48.48,0,0,0,.32.28l1.8.5.14,0a.51.51,0,0,0,.44-.26l5.89-10.8a.49.49,0,0,0,0-.44.52.52,0,0,0-.33-.28l-1.8-.5-.13,0Z"/><path class="cls-1" d="M355.94,353.21l-1.6-.5a.38.38,0,0,1-.25-.23.45.45,0,0,1,0-.34c11.59-17.48,25.9-40.32,39.74-62.4,9.75-15.57,19.83-31.65,28.56-45.21-2.1.49-4.52,1.09-7.59,1.88h0a.38.38,0,0,1-.37-.18l-.5-.9a.4.4,0,0,1,0-.32.41.41,0,0,1,.23-.22c3.2-1,6.56-1.85,9.74-2.49,5-7.71,10.28-15.78,14.77-22.26a.37.37,0,0,1,.31-.16l.13,0,1.6.6a.39.39,0,0,1,.23.24.4.4,0,0,1-.05.32c-3.88,5.58-8.26,12.26-13.62,20.56a62.85,62.85,0,0,1,11.11-1.14c9.23,0,11.17,3.63,11.17,6.67,0,5.63-7,14.66-17.89,23-8.71,6.66-21.48,13.83-31.27,14l-4.89,7.77c-13.57,21.56-27.61,43.87-39.11,61.17a.39.39,0,0,1-.31.17ZM437.05,242a60.67,60.67,0,0,0-11.43,1.3c-6.72,10.37-14.66,22.89-25.08,39.45a.15.15,0,0,0,0,.13.12.12,0,0,0,.11.07c8.63-.23,20.07-5.46,30.59-14,9.53-7.74,15.93-16.2,15.93-21C447.17,245.25,445.42,242,437.05,242Z"/><path class="cls-2" d="M439,220l.09,0,1.6.6a.24.24,0,0,1,.15.16.23.23,0,0,1,0,.21c-3.87,5.58-8.32,12.36-13.77,20.8a63.46,63.46,0,0,1,11.37-1.19c9.13,0,11,3.56,11,6.55,0,5.6-7,14.58-17.85,22.89-8.72,6.68-21.49,13.84-31.26,14l-4.82,7.66c-13.61,21.62-27.68,44-39.21,61.33a.26.26,0,0,1-.21.11H356l-1.6-.5a.28.28,0,0,1-.16-.16.29.29,0,0,1,0-.22c11.57-17.47,25.89-40.31,39.73-62.4,9.82-15.66,20-31.85,28.73-45.48-2.19.52-4.72,1.15-7.89,2h-.06a.25.25,0,0,1-.22-.13l-.5-.9a.22.22,0,0,1,0-.21.23.23,0,0,1,.15-.15c3.18-1,6.54-1.84,9.73-2.48,5.05-7.77,10.34-15.83,14.84-22.32A.26.26,0,0,1,439,220m-38.3,63.1h0c8.66-.22,20.13-5.46,30.67-14,9.56-7.76,16-16.25,16-21.13,0-2.76-1.78-6-10.25-6a61.7,61.7,0,0,0-11.45,1.3.27.27,0,0,0-.16.11c-6.64,10.32-14.59,22.84-25,39.41a.25.25,0,0,0,0,.25.26.26,0,0,0,.22.13M439,219.75h0a.48.48,0,0,0-.41.22c-4.47,6.44-9.75,14.49-14.8,22.23-3.15.64-6.49,1.49-9.64,2.47a.54.54,0,0,0-.32.29.53.53,0,0,0,0,.43l.5.9a.51.51,0,0,0,.44.26l.12,0c2.9-.74,5.24-1.33,7.29-1.81-8.66,13.46-18.63,29.37-28.28,44.77l-.12.19c-13.84,22.07-28.14,44.9-39.73,62.39a.48.48,0,0,0,0,.45.52.52,0,0,0,.32.31l1.6.5.15,0a.48.48,0,0,0,.41-.22C368,335.8,382,313.47,395.63,291.87l.05-.08.21-.34,4.54-7.2c9.81-.19,22.57-7.35,31.27-14,10.9-8.35,17.95-17.41,17.95-23.08,0-3.1-2-6.8-11.3-6.8a63.26,63.26,0,0,0-10.85,1.09c5.29-8.18,9.62-14.78,13.46-20.3a.49.49,0,0,0,.06-.44.48.48,0,0,0-.3-.32l-1.6-.6a.47.47,0,0,0-.17,0Zm-38.3,63.1h0c10.41-16.57,18.36-29.09,25-39.4a61.23,61.23,0,0,1,11.4-1.3c6.54,0,10,2,10,5.8,0,4.81-6.39,13.22-15.89,20.94-10.5,8.52-21.91,13.74-30.51,14Z"/><path class="cls-1" d="M341.45,333.12c-6.65,0-9.88-4.57-9.88-14a85.92,85.92,0,0,1,1.71-15.27.38.38,0,0,1,.37-.31l2,.21a.38.38,0,0,1,.26.14.4.4,0,0,1,.07.3,87.73,87.73,0,0,0-1.7,15.13c0,8.09,2.33,12,7.13,12,11.95,0,41.26-50.86,53.08-71.51-8.07,9.27-22.11,23.67-31.58,23.67-3.26,0-5-1.55-5-4.48,0-5.83,7-16.84,13.11-26.55,2.38-3.75,4.61-7.28,6.34-10.33a.38.38,0,0,1,.33-.2l.1,0,1.8.5a.39.39,0,0,1,.25.22.38.38,0,0,1,0,.33c-1.66,2.88-3.79,6.26-6.05,9.84-6.28,10-13.4,21.25-13.4,26.37a2.23,2.23,0,0,0,2.53,2.53c11,0,33-26.63,39.78-36.33l2.6-4.39a.38.38,0,0,1,.32-.19l2,.52a.39.39,0,0,1,.25.2.34.34,0,0,1,0,.31,30.47,30.47,0,0,1-3,4.85c-.93,1.61-2,3.51-3.2,5.63l-.5.89C386.53,279.19,356.06,333.12,341.45,333.12Z"/><path class="cls-2" d="M405.65,241h.06l1.9.5a.26.26,0,0,1,.16.13.22.22,0,0,1,0,.21,31,31,0,0,1-3,4.82c-1.06,1.85-2.31,4.06-3.71,6.53C386.43,279.11,356,333,341.45,333c-6.56,0-9.75-4.53-9.75-13.85a86.62,86.62,0,0,1,1.7-15.25.27.27,0,0,1,.25-.2h0l2,.2a.25.25,0,0,1,.18.1.26.26,0,0,1,0,.19,87,87,0,0,0-1.7,15.16c0,8.18,2.37,12.15,7.25,12.15,11.87,0,40.34-49.12,53.83-72.7-7.53,8.77-22.48,24.6-32.33,24.6-3.17,0-4.85-1.5-4.85-4.35,0-5.8,7-16.79,13.1-26.5,2.36-3.74,4.6-7.27,6.33-10.32a.26.26,0,0,1,.22-.13h.07l1.8.5a.24.24,0,0,1,.16.15.28.28,0,0,1,0,.22c-1.67,2.87-3.8,6.25-6,9.83-6.29,10-13.42,21.28-13.42,26.44A2.35,2.35,0,0,0,363,281.9c11.08,0,33.12-26.68,39.88-36.38l2.6-4.4a.27.27,0,0,1,.22-.12m0-.25a.48.48,0,0,0-.43.25l-2.6,4.4c-6.75,9.66-28.7,36.25-39.67,36.25a2.11,2.11,0,0,1-2.4-2.4c0-5.08,7.1-16.36,13.37-26.3,2.27-3.6,4.4-7,6.06-9.85a.49.49,0,0,0,0-.44.5.5,0,0,0-.33-.29l-1.8-.5-.13,0a.52.52,0,0,0-.44.25c-1.72,3-3.95,6.56-6.3,10.29-6.19,9.77-13.16,20.79-13.16,26.66,0,3,1.81,4.6,5.1,4.6,9.2,0,22.66-13.48,30.85-22.77-12.19,21.28-40.68,70.37-52.35,70.37-4.71,0-7-3.89-7-11.9a87.26,87.26,0,0,1,1.69-15.11.49.49,0,0,0-.09-.39.52.52,0,0,0-.35-.2l-2-.2h-.05a.49.49,0,0,0-.49.41,86.11,86.11,0,0,0-1.71,15.29c0,9.49,3.27,14.1,10,14.1,14.69,0,45.18-54,59.83-79.92l.16-.28c1.34-2.37,2.52-4.47,3.54-6.25a31.76,31.76,0,0,0,3-4.85.51.51,0,0,0,0-.42.47.47,0,0,0-.32-.26l-1.9-.5-.13,0Z"/><path class="cls-1" d="M223.45,284.32a1,1,0,0,1-1.07-1.07c0-1.75,2.85-6,6.79-12,5.28-8,12.5-18.82,16.43-29.07A.38.38,0,0,1,246,242l1.88.4a.41.41,0,0,1,.25.19.34.34,0,0,1,0,.31c-2,5.32-6.37,14.43-15.9,28.49,11.17-14.49,33.51-41.59,51.75-41.59a.37.37,0,0,1,.38.37v1a.38.38,0,0,1-.38.38c-17.57,0-38.09,26.12-50.36,41.72C227.56,280.93,224.84,284.32,223.45,284.32Z"/><path class="cls-2" d="M284,229.9a.25.25,0,0,1,.25.25v1a.25.25,0,0,1-.25.25c-17.63,0-38.18,26.15-50.46,41.78-5.84,7.44-8.71,11-10,11a.88.88,0,0,1-.95-.95c0-1.71,2.85-6,6.79-11.93,5.27-7.94,12.49-18.81,16.43-29.06a.25.25,0,0,1,.23-.16H246l1.8.4a.22.22,0,0,1,.16.12.26.26,0,0,1,0,.21c-2.28,6-7.4,16.46-18.89,32.81,11.23-14.81,35.3-45.75,54.85-45.75m0-.25c-17.19,0-38,24-49.7,38.88,8.2-12.43,12.11-20.66,14-25.6a.51.51,0,0,0,0-.42.48.48,0,0,0-.33-.25l-1.8-.4H246a.5.5,0,0,0-.46.32c-3.93,10.23-11.15,21.09-16.41,29-4.12,6.21-6.83,10.29-6.83,12.07a1.12,1.12,0,0,0,1.2,1.2c1.44,0,4.18-3.41,10.24-11.12,12.25-15.59,32.76-41.68,50.26-41.68a.5.5,0,0,0,.5-.5v-1a.5.5,0,0,0-.5-.5Z"/><path class="cls-1" d="M211.66,291.53a3,3,0,0,1-2.45-1c-.84-1-1.07-2.58-.73-4.94.87-6.54,6.11-17.46,10.57-25.83-8.07,9.26-22.23,23.76-31.69,23.76-3.26,0-5-1.55-5-4.48,0-5.83,7-16.85,13.12-26.56,2.38-3.76,4.6-7.28,6.33-10.32a.38.38,0,0,1,.33-.2l.1,0,1.8.5a.38.38,0,0,1,.22.55c-1.67,2.89-3.8,6.26-6.05,9.84-6.29,10-13.4,21.25-13.4,26.37,0,1.65.8,2.42,2.53,2.42,10.42,0,31.4-24.46,39.38-35.62,1-1.73,2.13-3.69,3-5a.4.4,0,0,1,.32-.17l2,.52a.36.36,0,0,1,.24.19.37.37,0,0,1,0,.31,32.12,32.12,0,0,1-3.53,5.56c-4.27,7.44-18.24,32.41-18.24,40.5,0,1.59.52,2.33,1.63,2.33a4.17,4.17,0,0,0,1.55-.37.33.33,0,0,1,.15,0,.37.37,0,0,1,.2.07.36.36,0,0,1,.17.31v.5a.38.38,0,0,1-.26.36A7.31,7.31,0,0,1,211.66,291.53Z"/><path class="cls-2" d="M230.06,241h.06l1.9.5a.23.23,0,0,1,.16.13.28.28,0,0,1,0,.2,32.24,32.24,0,0,1-3.52,5.53c-4.28,7.47-18.26,32.46-18.26,40.58,0,1.65.57,2.45,1.75,2.45a4.27,4.27,0,0,0,1.6-.38l.1,0a.22.22,0,0,1,.13,0,.27.27,0,0,1,.12.21v.5a.26.26,0,0,1-.17.24,7.15,7.15,0,0,1-2.28.41,2.94,2.94,0,0,1-2.36-.94c-.81-.93-1-2.52-.69-4.84.92-7,6.9-19,11.08-26.77-7.44,8.62-22.51,24.55-32.33,24.55-3.18,0-4.85-1.5-4.85-4.35,0-5.8,7-16.79,13.09-26.5,2.37-3.74,4.61-7.27,6.34-10.32a.25.25,0,0,1,.22-.13h.06l1.8.5a.23.23,0,0,1,.17.15.25.25,0,0,1,0,.22c-1.66,2.87-3.79,6.25-6,9.83-6.29,10-13.41,21.28-13.41,26.44,0,1.72.86,2.55,2.65,2.55,10.47,0,31.51-24.51,39.48-35.67,1-1.74,2.12-3.69,3-5a.25.25,0,0,1,.21-.11m0-.25a.5.5,0,0,0-.42.22c-.89,1.33-2,3.29-3,5a187.66,187.66,0,0,1-18.76,22c-8.93,8.88-16,13.58-20.5,13.58-1.64,0-2.4-.73-2.4-2.3,0-5.08,7.1-16.35,13.36-26.29,2.27-3.59,4.4-7,6.07-9.86a.49.49,0,0,0,0-.44.5.5,0,0,0-.33-.29l-1.8-.5-.13,0a.52.52,0,0,0-.44.25c-1.72,3-3.95,6.56-6.31,10.28-6.17,9.77-13.15,20.8-13.15,26.67,0,3,1.81,4.6,5.1,4.6,9.24,0,22.89-13.71,31.08-23-4.35,8.24-9.24,18.61-10.08,24.92-.35,2.4-.11,4.05.75,5.05a3.19,3.19,0,0,0,2.55,1,7.34,7.34,0,0,0,2.35-.43.48.48,0,0,0,.35-.47v-.5a.52.52,0,0,0-.23-.42.53.53,0,0,0-.27-.08.45.45,0,0,0-.2,0,3.83,3.83,0,0,1-1.5.36c-.65,0-1.5-.23-1.5-2.2,0-8.06,14-33,18.23-40.45a32.24,32.24,0,0,0,3.53-5.56.49.49,0,0,0,0-.41.47.47,0,0,0-.32-.26l-1.9-.5-.12,0Z"/><path class="cls-1" d="M155,284.42c-5.39,0-8.48-3.12-8.48-8.57,0-6.44,4.12-14.86,11-22.53,6.69-7.43,14.11-12,19.37-12a.37.37,0,0,1,.37.37v1a.38.38,0,0,1-.37.38c-9.45,0-27.43,19.62-27.43,32.82,0,4.72,1.71,6.82,5.53,6.82,11.35,0,28.92-24.33,28.92-36.62a6.66,6.66,0,0,0-1.89-5,8,8,0,0,0-5.57-1.86l-.74,0h0a.39.39,0,0,1-.33-.16.36.36,0,0,1,0-.35l.5-1.31a.38.38,0,0,1,.35-.24c8.58.36,10.37,5.52,10.37,9.78C186.53,260.19,168,284.42,155,284.42Z"/><path class="cls-2" d="M176.16,237.3h0c8.46.35,10.24,5.44,10.24,9.65,0,13.19-18.49,37.35-31.45,37.35-5.31,0-8.35-3.08-8.35-8.45,0-6.41,4.1-14.8,11-22.44,6.67-7.41,14-12,19.28-12a.25.25,0,0,1,.25.25v1a.25.25,0,0,1-.25.25c-9.49,0-27.55,19.7-27.55,33,0,4.81,1.74,6.95,5.65,6.95,11.39,0,29-24.42,29-36.75a6.77,6.77,0,0,0-1.94-5.08,8,8,0,0,0-5.65-1.89l-.75,0h0a.25.25,0,0,1-.2-.1.26.26,0,0,1,0-.24l.5-1.3a.26.26,0,0,1,.24-.16m0-.25a.51.51,0,0,0-.47.32l-.5,1.3a.49.49,0,0,0,.06.47.52.52,0,0,0,.41.21l.76,0a7.79,7.79,0,0,1,5.48,1.82,6.53,6.53,0,0,1,1.86,4.9c0,5.76-4,14.73-10.2,22.85-6.53,8.55-13.48,13.65-18.6,13.65-3.79,0-5.4-2-5.4-6.7,0-13.15,17.9-32.7,27.3-32.7a.5.5,0,0,0,.5-.5v-1a.5.5,0,0,0-.5-.5c-5.3,0-12.75,4.63-19.46,12.09-6.91,7.69-11,16.14-11,22.61,0,5.53,3.13,8.7,8.6,8.7,13.06,0,31.7-24.32,31.7-37.6,0-4.32-1.82-9.54-10.48-9.9Z"/><path class="cls-1" d="M64.56,326.42c-16.66,0-28.79-16.38-36.07-48.69a.37.37,0,0,1,.07-.3.35.35,0,0,1,.26-.15l2-.2a.39.39,0,0,1,.4.29c6.92,31,18.41,46.7,34.13,46.7,25.39,0,57.63-41.18,80.35-76-8.73,6.27-17.42,9.45-25.85,9.45-7.44,0-11.37-4.25-11.37-12.28,0-14.07,12.28-39.48,30.57-63.23a.38.38,0,0,1,.3-.15l.13,0,1.6.6a.36.36,0,0,1,.23.25.39.39,0,0,1-.06.33c-17.4,22.51-30,48.79-30,62.47,0,6.78,2.9,10.23,8.62,10.23,9.59,0,19.28-4.16,28.81-12.36,13.87-21.65,24.76-41.71,29.41-50.27,1.22-2.26,2-3.64,2.36-4.29l.14-.24c3-5.22,5.3-9.34,8.18-9.34.74,0,2,.33,2,2.57,0,5-15.24,39.84-38.18,60.62C129,280.76,94.58,326.42,64.56,326.42Zm123.3-145.69c-1,0-2.37,2.23-4.57,5.93-.5.84-1,1.76-1.64,2.73-.37.62-1.2,2.21-2.46,4.63-4.28,8.18-13.13,25.12-24.74,44.26a.14.14,0,0,0,0,.17l.26.08-.09-.09c20.7-21,34-53.65,34-56.49C188.69,181.1,188.27,180.73,187.86,180.73Z"/><path class="cls-2" d="M188.76,179.4c.69,0,1.85.32,1.85,2.45,0,5-15.24,39.78-38.14,60.53-23.56,38.28-57.95,83.92-87.91,83.92C48,326.3,35.87,310,28.62,277.7a.25.25,0,0,1,0-.2.27.27,0,0,1,.18-.1l2-.2h0a.24.24,0,0,1,.24.2c6.95,31.05,18.47,46.8,34.26,46.8,25.51,0,57.89-41.37,80.83-76.61-8.9,6.51-17.75,9.81-26.33,9.81-7.36,0-11.25-4.2-11.25-12.15,0-14.05,12.28-39.43,30.55-63.15a.23.23,0,0,1,.2-.1l.09,0,1.6.6a.22.22,0,0,1,.15.16.24.24,0,0,1,0,.22c-17.41,22.53-30,48.84-30,62.55,0,6.87,2.94,10.35,8.75,10.35,9.63,0,19.36-4.18,28.89-12.39,13.93-21.73,24.82-41.8,29.47-50.36,1.15-2.11,1.94-3.56,2.32-4.22l.14-.25c2.95-5.18,5.28-9.28,8.08-9.28m-34.2,59.2a.29.29,0,0,0,.18-.07c20.72-21,34.07-53.74,34.07-56.58,0-.93-.48-1.35-.95-1.35-1.11,0-2.38,2.13-4.68,6-.5.84-1,1.75-1.63,2.72h0c-.38.63-1.22,2.25-2.5,4.69-4.25,8.14-13.1,25.08-24.7,44.21a.25.25,0,0,0,.06.33.27.27,0,0,0,.15,0m34.2-59.45c-2.95,0-5.31,4.15-8.29,9.41l-.14.24c-.4.68-1.21,2.16-2.33,4.23-4.66,8.59-15.55,28.63-29.44,50.32-9.49,8.16-19.15,12.3-28.7,12.3-5.64,0-8.5-3.4-8.5-10.1,0-13.66,12.62-39.9,30-62.39a.55.55,0,0,0,.08-.45.49.49,0,0,0-.3-.33l-1.6-.6a.57.57,0,0,0-.18,0,.53.53,0,0,0-.4.19c-18.3,23.77-30.6,49.21-30.6,63.31,0,8.11,4,12.4,11.5,12.4,8.28,0,16.81-3,25.39-9.08C122.57,283.23,90.55,324,65.36,324c-15.66,0-27.1-15.68-34-46.61a.5.5,0,0,0-.49-.39l-2.05.2a.54.54,0,0,0-.36.21.51.51,0,0,0-.08.4c7.29,32.37,19.46,48.79,36.19,48.79,30.07,0,64.51-45.68,88.11-84,23-20.81,38.19-55.65,38.19-60.69,0-2.44-1.47-2.7-2.1-2.7Zm-7,10.3c.59-1,1.12-1.87,1.62-2.7,2.19-3.69,3.51-5.9,4.48-5.9.35,0,.7.34.7,1.1,0,2.83-13.32,35.42-34,56.4v0h0c11.6-19.13,20.46-36.08,24.71-44.22,1.23-2.35,2.11-4,2.49-4.68Z"/><path class="cls-1" d="M224,186.12a.36.36,0,0,1-.26-.11l-.9-.89a.38.38,0,0,1-.11-.33.37.37,0,0,1,.2-.27C250.52,170,268.41,134,273.24,123.29c.3-17.82,2.51-26.51,6.76-26.51.81,0,2.18.47,2.18,3.67,0,4.33-2.3,12.08-6.31,21.26-.09,3.56-.19,7.45-.19,11.74V137c0,9.84,0,22.06,1.16,35.69,15.41-37.84,32.73-66.93,51.48-86.48,15.17-15.81,30.79-24.53,44-24.53,15.36,0,25.28,11.61,25.28,29.58a61.5,61.5,0,0,1-3.42,19.32.38.38,0,0,1-.36.25l-2-.3a.37.37,0,0,1-.26-.18.34.34,0,0,1,0-.31,59.92,59.92,0,0,0,3.38-19c0-17.24-8.31-27.52-22.23-27.52-13.16,0-28.64,8.69-43.59,24.49-18.66,19.72-36.13,49.45-51.94,88.36.05.47.19,1.67.19,1.67.08.68.16,1.38.22,2.07a3.93,3.93,0,0,1-.75,3,1.71,1.71,0,0,1-1.23.6c-.85,0-1.77-.78-1.77-2.48a7.64,7.64,0,0,1,.52-2.33l.79-1.9c-1.36-19.72-2-35.23-2-47.37v-1.92c-15.86,33.48-35.67,52.1-49,58.36A.41.41,0,0,1,224,186.12ZM280,98c-2.19,0-3.84,7.44-4.52,20.41a.11.11,0,0,0,.09.13h0a.14.14,0,0,0,.14-.07c3.32-8,5.31-14.8,5.31-18.25C281,98.82,280.66,98,280,98Z"/><path class="cls-2" d="M372.3,61.8c15.28,0,25.15,11.56,25.15,29.45A61.47,61.47,0,0,1,394,110.53a.26.26,0,0,1-.24.17h0l-1.9-.3a.27.27,0,0,1-.17-.12.22.22,0,0,1,0-.21,60.16,60.16,0,0,0,3.38-19c0-17.31-8.35-27.65-22.35-27.65C359.5,63.4,344,72.11,329,87.93c-18.68,19.75-36.17,49.53-52,88.4.05.56.12,1.14.19,1.73s.16,1.38.21,2.07a3.8,3.8,0,0,1-.72,2.92,1.55,1.55,0,0,1-1.13.55c-.79,0-1.65-.73-1.65-2.35a7.5,7.5,0,0,1,.52-2.29l.78-1.89c-1.34-19.78-2-35.29-2-47.42v-2.47c-15.86,33.74-35.74,52.49-49.14,58.8l-.11,0a.31.31,0,0,1-.18-.07l-.9-.9a.29.29,0,0,1-.07-.22.27.27,0,0,1,.13-.18C250.7,170,268.56,134,273.35,123.35c.31-17.8,2.49-26.45,6.65-26.45.77,0,2.05.46,2.05,3.55,0,4.3-2.3,12.06-6.3,21.21-.1,3.64-.2,7.55-.2,11.79V137c0,10,0,22.38,1.21,36.21,15.44-38,32.82-67.29,51.64-86.91C343.54,70.5,359.14,61.8,372.3,61.8m-96.7,56.9a.25.25,0,0,0,.23-.15c3.33-8,5.32-14.84,5.32-18.3,0-2-.72-2.35-1.15-2.35-3.1,0-4.24,12.87-4.65,20.54a.25.25,0,0,0,.2.25h.05m96.7-57.15c-13.23,0-28.89,8.72-44.08,24.57-18.68,19.47-35.94,48.41-51.31,86-1.15-13.41-1.13-25.45-1.11-35.16v-3.54c0-4.27.1-8.14.2-11.74,4-9.17,6.3-16.92,6.3-21.26,0-3.31-1.44-3.8-2.3-3.8-4.38,0-6.58,8.46-6.9,26.64-4.85,10.73-22.71,46.59-50.23,61.12a.48.48,0,0,0-.26.37.48.48,0,0,0,.14.42l.9.9a.47.47,0,0,0,.35.15.5.5,0,0,0,.21-.05c13.26-6.24,33-24.72,48.79-57.91v1.36c0,12.13.65,27.62,2,47.38l-.76,1.83a7.91,7.91,0,0,0-.54,2.39c0,1.79,1,2.6,1.9,2.6a1.8,1.8,0,0,0,1.32-.63,4.07,4.07,0,0,0,.78-3.12c-.05-.68-.13-1.37-.21-2V178q-.11-.84-.18-1.62c15.8-38.87,33.27-68.57,51.9-88.26,14.92-15.77,30.37-24.46,43.5-24.46,13.84,0,22.1,10.24,22.1,27.4A59.89,59.89,0,0,1,391.43,110a.54.54,0,0,0,0,.43.52.52,0,0,0,.35.23l1.9.3h.08a.51.51,0,0,0,.48-.34,61.73,61.73,0,0,0,3.42-19.36c0-18-10-29.7-25.4-29.7Zm-96.7,56.9c1-18.32,3.4-20.3,4.4-20.3.57,0,.9.77.9,2.1,0,3.43-2,10.23-5.3,18.2Z"/><path class="cls-1" d="M214.4,204.23c-9.27,0-14.17-6.64-14.17-19.18,0-16.72,8.77-42.07,22.35-64.57,14.7-24.36,31.35-38.91,44.52-38.91a.38.38,0,0,1,.38.38v1a.37.37,0,0,1-.38.37c-27.62,0-64.32,70.35-64.32,102.53,0,11,3.91,16.63,11.62,16.63a.37.37,0,0,1,.38.37v1A.38.38,0,0,1,214.4,204.23Z"/><path class="cls-2" d="M267.1,81.7a.25.25,0,0,1,.25.25v1a.25.25,0,0,1-.25.25c-27.67,0-64.45,70.43-64.45,102.65,0,11.12,4,16.75,11.75,16.75a.25.25,0,0,1,.25.25v1a.25.25,0,0,1-.25.25c-9.19,0-14.05-6.59-14.05-19,0-16.7,8.77-42,22.34-64.5C237.37,96.22,254,81.7,267.1,81.7m0-.25c-13.22,0-29.9,14.57-44.62,39-13.59,22.52-22.38,47.89-22.38,64.63,0,12.63,5,19.3,14.3,19.3a.5.5,0,0,0,.5-.5v-1a.5.5,0,0,0-.5-.5c-7.63,0-11.5-5.55-11.5-16.5,0-32.14,36.64-102.4,64.2-102.4a.5.5,0,0,0,.5-.5V82a.5.5,0,0,0-.5-.5Z"/><path class="cls-1" d="M403.4,204.23a.38.38,0,0,1-.38-.38v-1a.37.37,0,0,1,.38-.37c27.62,0,64.32-70.35,64.32-102.53,0-6.47-1.38-11.11-4.1-13.8a10,10,0,0,0-7.34-2.73h-.18a.38.38,0,0,1-.27-.1.39.39,0,0,1-.11-.27v-1a.38.38,0,0,1,.37-.38h.2a12.48,12.48,0,0,1,9.14,3.42c3.21,3.18,4.84,8.45,4.84,15.66,0,16.72-8.77,42.07-22.35,64.57C433.21,189.68,416.57,204.23,403.4,204.23Z"/><path class="cls-2" d="M456.29,81.8a12.36,12.36,0,0,1,9,3.38c3.19,3.15,4.81,8.39,4.81,15.57,0,16.7-8.77,42-22.34,64.5-14.68,24.33-31.28,38.85-44.41,38.85a.25.25,0,0,1-.25-.25v-1a.25.25,0,0,1,.25-.25c27.67,0,64.45-70.43,64.45-102.65,0-6.5-1.39-11.18-4.14-13.89a10.15,10.15,0,0,0-7.43-2.76h-.18a.29.29,0,0,1-.18-.07.24.24,0,0,1-.07-.18v-1a.25.25,0,0,1,.24-.25h.2m0-.25h-.2a.5.5,0,0,0-.49.5v1a.49.49,0,0,0,.15.36.48.48,0,0,0,.35.14h.18a9.91,9.91,0,0,1,7.26,2.69c2.69,2.66,4.06,7.28,4.06,13.71,0,32.14-36.64,102.4-64.2,102.4a.5.5,0,0,0-.5.5v1a.5.5,0,0,0,.5.5c13.22,0,29.9-14.57,44.62-39,13.6-22.52,22.38-47.89,22.38-64.63,0-7.25-1.64-12.54-4.88-15.75a12.61,12.61,0,0,0-9.23-3.45Z"/><path class="cls-1" d="M330.45,291.51l-1.71-.5a.37.37,0,0,1-.24-.23.38.38,0,0,1,0-.33c3.56-5.66,7.65-12.48,12.39-20.38,15.76-26.27,37.29-62.17,56.59-83.37-5-.88-10-1.89-15.24-3-14.33-2.91-29.15-5.92-43.22-5.92-34,0-55.4,17.56-67.24,55.24a.37.37,0,0,1-.36.26l-1.57-.3a.36.36,0,0,1-.25-.18.35.35,0,0,1,0-.3c12.21-39,33.6-56.47,69.36-56.47,14.19,0,29,2.73,43.26,5.36,6.1,1.13,11.78,2.17,17.4,3,.76-.85,1.62-1.71,2.45-2.54a.4.4,0,0,1,.29-.14.47.47,0,0,1,.17,0l1.4.7a.39.39,0,0,1,.2.28.4.4,0,0,1-.1.33c-.55.54-1.15,1.14-1.72,1.76a131.18,131.18,0,0,0,17.65,1.4c20.4,0,32.44-7.33,39.05-23.77a.38.38,0,0,1,.35-.23l1.45.2a.36.36,0,0,1,.28.18.42.42,0,0,1,0,.33c-7.05,17.76-20.19,26-41.35,26a126.67,126.67,0,0,1-19.66-1.88c-18.82,20.41-40.36,56.36-56.1,82.61-4.8,8-9.34,15.59-13.12,21.59a.38.38,0,0,1-.32.18Z"/><path class="cls-2" d="M459.35,162.4h0l1.4.2a.26.26,0,0,1,.18.13.22.22,0,0,1,0,.21c-7,17.71-20.13,26-41.23,26A127.34,127.34,0,0,1,400,187c-18.83,20.41-40.4,56.39-56.16,82.68-4.8,8-9.35,15.6-13.12,21.58a.25.25,0,0,1-.21.12h-.07l-1.7-.5a.22.22,0,0,1-.16-.15.24.24,0,0,1,0-.22c3.56-5.67,7.66-12.51,12.41-20.42,15.78-26.32,37.37-62.31,56.71-83.48-5.05-.89-10.11-1.91-15.46-3-14.34-2.91-29.17-5.92-43.25-5.92-34.1,0-55.5,17.58-67.36,55.33a.25.25,0,0,1-.24.17h-.05l-1.5-.29a.25.25,0,0,1-.16-.12.26.26,0,0,1,0-.21c12.19-39,33.54-56.37,69.24-56.37,14.17,0,28.95,2.72,43.24,5.35,6.06,1.12,11.8,2.18,17.46,3,.79-.87,1.67-1.75,2.52-2.61a.31.31,0,0,1,.18-.07.2.2,0,0,1,.11,0l1.4.7a.26.26,0,0,1,.14.18.29.29,0,0,1-.07.22c-.6.6-1.27,1.26-1.88,1.94A132.42,132.42,0,0,0,420,186.4c20.46,0,32.54-7.35,39.17-23.84a.25.25,0,0,1,.23-.16m0-.25a.48.48,0,0,0-.46.31c-6.59,16.38-18.6,23.69-38.94,23.69a129.93,129.93,0,0,1-17.39-1.37c.5-.54,1-1.07,1.52-1.55a.51.51,0,0,0-.1-.83l-1.41-.7a.54.54,0,0,0-.22,0,.47.47,0,0,0-.35.15l-.06,0c-.81.81-1.64,1.64-2.38,2.47-5.64-.86-11.32-1.9-17.33-3C367.92,178.67,353.14,176,339,176c-35.83,0-57.26,17.44-69.48,56.55a.54.54,0,0,0,0,.41.49.49,0,0,0,.33.23l1.5.3h.1a.5.5,0,0,0,.48-.35C283.75,195.47,305.08,178,339.05,178c14.05,0,28.87,3,43.2,5.91,5.19,1.06,10.11,2.06,15,2.93C378,208,356.53,243.8,340.83,270c-4.74,7.91-8.84,14.74-12.4,20.41a.49.49,0,0,0,.28.75l1.7.5.14,0a.5.5,0,0,0,.42-.23c3.77-6,8.31-13.55,13.11-21.56,15.74-26.26,37.26-62.16,56.06-82.57a126.65,126.65,0,0,0,19.61,1.86c21.22,0,34.39-8.3,41.46-26.12a.47.47,0,0,0,0-.43.48.48,0,0,0-.36-.24l-1.4-.2Z"/><path class="cls-1" d="M248.5,384.32a1,1,0,0,1-1.07-1.07c0-1.75,2.84-6,6.79-12,5.28-8,12.5-18.83,16.43-29.07A.38.38,0,0,1,271,342l1.88.4a.41.41,0,0,1,.25.19.37.37,0,0,1,0,.31c-2,5.32-6.37,14.43-15.9,28.49,11.17-14.49,33.51-41.59,51.75-41.59a.37.37,0,0,1,.38.37v1a.38.38,0,0,1-.38.38c-17.57,0-38.09,26.12-50.36,41.72C252.61,380.93,249.88,384.32,248.5,384.32Z"/><path class="cls-2" d="M309,329.9a.25.25,0,0,1,.25.25v1a.25.25,0,0,1-.25.25c-17.63,0-38.18,26.15-50.46,41.78-5.85,7.44-8.72,11-10,11a.88.88,0,0,1-.95-.95c0-1.71,2.85-6,6.78-11.93,5.28-7.94,12.5-18.81,16.44-29.06a.25.25,0,0,1,.23-.16h.05l1.8.4a.22.22,0,0,1,.17.12.26.26,0,0,1,0,.21c-2.27,6.05-7.39,16.46-18.89,32.81,11.24-14.81,35.31-45.75,54.86-45.75m0-.25c-17.19,0-38,24-49.7,38.88,8.2-12.43,12.11-20.66,14-25.6a.51.51,0,0,0,0-.42.49.49,0,0,0-.33-.25l-1.8-.4H271a.51.51,0,0,0-.47.32c-3.92,10.22-11.14,21.08-16.4,29-4.12,6.21-6.83,10.29-6.83,12.07a1.12,1.12,0,0,0,1.2,1.2c1.44,0,4.18-3.41,10.24-11.12C271,357.74,291.49,331.65,309,331.65a.5.5,0,0,0,.5-.5v-1a.5.5,0,0,0-.5-.5Z"/><path class="cls-1" d="M322.9,184.53c-13.13,0-20.07-6.29-20.07-18.18,0-23.59,31.88-65.28,63.27-74,7.28-6.27,14.26-9.47,20.7-9.47,8,0,12.17,4.94,12.17,14.28,0,13.92-9.68,35.65-24.09,54.08C358.33,172.39,339.39,184.53,322.9,184.53Zm41.56-90.4c-30,10.21-59.38,50-59.38,72.22,0,11.23,6,16.93,17.82,16.93,15.75,0,34.12-12.2,50.41-33.45,14-18.22,23.72-40.13,23.72-53.28,0-8.13-3.54-12.43-10.23-12.43-5.38,0-11.33,2.6-17.68,7.73a.12.12,0,0,0,0,.15.11.11,0,0,0,.11.07l.4-.07a43.22,43.22,0,0,1,4.39-.61l.13.1.1.41-.11.15a40.11,40.11,0,0,0-6.64,1.23c-8.33,7.26-15.92,17.55-22,25.82l-1.64,2.22-.14.05-1.12-.42-.06-.19.33-.44c5.58-7.65,13.23-18.13,21.76-26a.11.11,0,0,0,0-.15.15.15,0,0,0-.11-.07V94Z"/><path class="cls-2" d="M386.8,83c7.88,0,12.05,4.89,12.05,14.15,0,13.9-9.67,35.6-24.07,54-16.52,21.13-35.43,33.25-51.88,33.25-13,0-19.95-6.24-19.95-18.05,0-23.54,31.89-65.19,63.19-73.89,7.3-6.28,14.25-9.46,20.66-9.46m-17.6,9.2h0l.39-.07a43.75,43.75,0,0,1,4.37-.62l.09.42a38.86,38.86,0,0,0-6.65,1.23c-8.4,7.3-16,17.59-22.09,25.87l-1.64,2.22-1.11-.42.32-.44c5.58-7.64,13.23-18.11,21.75-26a.24.24,0,0,0,0-.31.22.22,0,0,0-.21-.12h-.08C334.35,104.24,305,144.08,305,166.35c0,11.31,6,17.05,17.95,17.05,15.79,0,34.2-12.21,50.51-33.5,14-18.24,23.74-40.18,23.74-53.35,0-8.21-3.58-12.55-10.35-12.55-5.41,0-11.38,2.61-17.76,7.75a.25.25,0,0,0,.16.45m17.6-9.45c-6.46,0-13.45,3.19-20.78,9.48-31.42,8.78-63.32,50.5-63.32,74.12,0,12,7,18.3,20.2,18.3,16.53,0,35.51-12.15,52.08-33.34,14.43-18.45,24.12-40.21,24.12-54.16,0-9.42-4.25-14.4-12.3-14.4ZM369.2,92c6.33-5.11,12.25-7.7,17.6-7.7,6.61,0,10.1,4.25,10.1,12.3,0,13.12-9.74,35-23.69,53.2-16.27,21.23-34.6,33.4-50.31,33.4-11.75,0-17.7-5.65-17.7-16.8,0-22.19,29.32-61.9,59.3-72.1-8.54,7.86-16.19,18.34-21.78,26l-.17.23-.16.21.12.39.25.09.86.32.29-.08,1.64-2.22c6.09-8.26,13.65-18.52,22-25.79a37.79,37.79,0,0,1,6.56-1.21l.22-.31,0-.2,0-.21-.27-.2a41.39,41.39,0,0,0-4.37.62l-.41.07Z"/><path class="cls-1" d="M387.09,191.51l-1.7-.5a.37.37,0,0,1-.24-.23.38.38,0,0,1,0-.33c3.58-5.69,7.67-12.51,12.41-20.41,15.73-26.23,37.25-62.13,56.57-83.34-5-.88-10-1.89-15.24-3-14.34-2.91-29.16-5.92-43.22-5.92-34,0-55.4,17.56-67.25,55.24a.35.35,0,0,1-.35.26l-1.58-.3a.36.36,0,0,1-.24-.18.35.35,0,0,1,0-.3c12.2-39,33.59-56.47,69.36-56.47,14.18,0,29,2.73,43.26,5.36,6.1,1.13,11.78,2.17,17.39,3,.79-.87,1.69-1.77,2.48-2.57a.39.39,0,0,1,.27-.11.42.42,0,0,1,.16,0l1.4.7a.4.4,0,0,1,.21.28.38.38,0,0,1-.11.33c-.54.54-1.14,1.14-1.71,1.76a131.18,131.18,0,0,0,17.65,1.4c20.4,0,32.44-7.33,39-23.77a.37.37,0,0,1,.35-.23l1.45.2a.34.34,0,0,1,.27.18.38.38,0,0,1,0,.33c-7.06,17.76-20.2,26-41.35,26a126.45,126.45,0,0,1-19.66-1.88c-18.82,20.41-40.37,56.36-56.1,82.61-4.81,8-9.35,15.61-13.13,21.59a.37.37,0,0,1-.31.18Z"/><path class="cls-2" d="M516,62.4h0l1.4.2a.26.26,0,0,1,.2.34c-7,17.71-20.13,26-41.23,26A127.34,127.34,0,0,1,456.69,87c-18.84,20.41-40.4,56.39-56.16,82.68-4.81,8-9.35,15.6-13.12,21.58a.25.25,0,0,1-.21.12h-.07l-1.7-.5a.26.26,0,0,1-.17-.15.25.25,0,0,1,0-.22c3.56-5.67,7.66-12.51,12.4-20.42,15.79-26.32,37.38-62.31,56.71-83.48-5-.89-10.1-1.91-15.46-3-14.34-2.91-29.17-5.92-43.24-5.92-34.1,0-55.5,17.58-67.36,55.33a.27.27,0,0,1-.24.17h-.05l-1.5-.31a.25.25,0,0,1-.17-.11.28.28,0,0,1,0-.2c12.18-39,33.54-56.38,69.24-56.38,14.17,0,28.94,2.72,43.23,5.35,6.07,1.12,11.8,2.18,17.47,3,.78-.87,1.67-1.75,2.52-2.61a.29.29,0,0,1,.18-.07.23.23,0,0,1,.11,0l1.4.7a.23.23,0,0,1,.13.18.23.23,0,0,1-.07.22c-.59.6-1.26,1.26-1.87,1.94a132.42,132.42,0,0,0,17.9,1.43c20.45,0,32.53-7.35,39.17-23.84a.24.24,0,0,1,.23-.16m0-.25a.5.5,0,0,0-.47.31C509,78.84,496.94,86.15,476.6,86.15a130.06,130.06,0,0,1-17.4-1.37c.52-.55,1.06-1.09,1.55-1.58a.49.49,0,0,0,.14-.43.47.47,0,0,0-.27-.37l-1.4-.7a.59.59,0,0,0-.22,0,.49.49,0,0,0-.36.15c-.82.82-1.67,1.67-2.43,2.52-5.64-.86-11.32-1.9-17.33-3C424.57,78.67,409.79,76,395.6,76c-35.83,0-57.26,17.44-69.48,56.55a.54.54,0,0,0,.05.41.49.49,0,0,0,.33.23l1.5.3h.1a.48.48,0,0,0,.47-.35C340.4,95.47,361.73,78,395.7,78c14.05,0,28.87,3,43.19,5.91,5.2,1.06,10.11,2.06,15,2.93-19.27,21.23-40.74,57-56.43,83.18-4.74,7.91-8.84,14.74-12.41,20.41a.51.51,0,0,0,0,.45.52.52,0,0,0,.33.3l1.7.5.14,0a.5.5,0,0,0,.42-.23c3.77-6,8.3-13.54,13.1-21.55l0,0c15.72-26.23,37.23-62.13,56-82.54a126.76,126.76,0,0,0,19.62,1.86c21.21,0,34.39-8.3,41.46-26.12a.47.47,0,0,0,0-.43.48.48,0,0,0-.36-.24l-1.4-.2Z"/></svg>