<svg id="레이어_1" data-name="레이어 1" xmlns="http://www.w3.org/2000/svg" xmlns:xlink="http://www.w3.org/1999/xlink" viewBox="0 0 40 40"><defs><style>.cls-1{fill:none;}.cls-2{clip-path:url(#clip-path);}.cls-3{fill:#c8a8e3;}.cls-4{fill:#9150c8;}</style><clipPath id="clip-path"><rect class="cls-1" width="40.01" height="40.01"/></clipPath></defs><title>logo대지 1</title><g class="cls-2"><path class="cls-3" d="M30,2.68A20,20,0,1,0,37.32,30,20,20,0,0,0,30,2.68"/><path class="cls-4" d="M29,24.44,25.21,12.26l-2.83,1.06a55.75,55.75,0,0,0,5,10.1l-.14.13c-2.66-1.94-6.8-4.78-10.37-6.84L12,13.88l-1.3,2.25L15.59,19c3.57,2.07,8.07,4.29,11.07,5.64l0,.19a51.65,51.65,0,0,0-11.22.63l.5,3,12.44-2.82Z"/></g></svg>