<?xml version="1.0" encoding="utf-8"?>
<!-- Generator: Adobe Illustrator 25.0.1, SVG Export Plug-In . SVG Version: 6.00 Build 0)  -->
<svg version="1.1" id="레이어_1" xmlns="http://www.w3.org/2000/svg" xmlns:xlink="http://www.w3.org/1999/xlink" x="0px"
	 y="0px" viewBox="0 0 274.3 135.3" style="enable-background:new 0 0 274.3 135.3;" xml:space="preserve">
<style type="text/css">
	.st0{fill:#00FF00;}
</style>
<g>
	<path class="st0" d="M20.3,18.3c15.4,0,21.4,11.7,21.4,30c0,17.3-5.5,28.5-19.2,28.5c-1.4,0-2.9-0.1-4.5-0.4v25l7.1,5.4v0.9H0.4
		v-0.9l5.8-5.4V24.6l-5.8-5.4v-0.9H20.3z M18,70c0.9,0.1,1.6,0.3,2.4,0.3c6.8,0,8.4-5.5,8.4-22.8c0-16.6-3.9-22.8-8.8-22.8h-2V70z"
		/>
	<path class="st0" d="M61.5,42.4l-0.6,13.5h0.5c0-5.4,4.4-15.3,12.7-15.3v33.4h-0.9v-9.5l-4.3-10.8c-4.4,0-7.4,6.7-7.4,13.6v33.9
		l7.1,5.5v0.9H43.8v-0.9l5.8-5.5V48.6l-5.8-5.3v-0.9H61.5z"/>
	<path class="st0" d="M112.9,76.7c0,22.4-4.3,32.7-17.9,32.7c-13.7,0-18-10.2-18-32.7c0-21.4,4.7-36.1,18-36.1
		C108.4,40.7,112.9,55.3,112.9,76.7z M89.3,74.8c0,20.4,1.5,28.7,5.7,28.7c4,0,5.5-8.3,5.5-28.7c0-19.8-1.6-29-5.5-29
		C91,45.8,89.3,55,89.3,74.8z"/>
	<path class="st0" d="M134.5,42.4v68.7c0,14.9-8.3,20.6-16.3,20.6c-6.9,0-13.6-4.3-13.6-12.4c0-3.4,1.1-7.3,3.8-11.6h1.1
		c-2.1,3.7-3,6.8-3,9.6c0,5.7,3.8,8.4,7.6,8.4c4.2,0,8.6-3.4,8.6-12.9V48.6l-5.8-5.3v-0.9H134.5z M135.3,28c0,3.7-3,6.7-6.7,6.7
		s-6.7-3-6.7-6.7s3-6.7,6.7-6.7S135.3,24.4,135.3,28z"/>
	<path class="st0" d="M172.2,74.4c0,27.4-5.9,34.9-15.5,34.9c-11.2,0-16.6-10.2-16.6-32.7c0-21.4,4-36.1,17.4-36.1
		C167.9,40.7,172.2,48.2,172.2,74.4z M171.4,74.6h-19.9c0,16.5,2.3,25.3,9.2,25.3C166.5,99.9,171.4,91.5,171.4,74.6z M151.8,69h11.1
		c0-17.7-2-23.2-5.5-23.2C154,45.8,151.8,51.5,151.8,69z"/>
	<path class="st0" d="M201.6,44.2l5.8-3.9l0.6,0.3l-11,34.3l-0.9-0.1c2-6.9,3.2-13.1,3.2-18.5c0-5.5-1.4-8.8-4.8-8.8
		c-4,0-6.8,4.2-6.8,29.8c0,18.8,3.8,22.8,8.8,22.8c5.5,0,8.3-8.6,8.3-18.8h1.3c0,16.6-2.9,28.2-14.4,28.2c-9.3,0-15.8-9-15.8-31.4
		c0-21.4,5.5-37.3,18.9-37.3C197.7,40.7,200,41.9,201.6,44.2z"/>
	<path class="st0" d="M237.4,90.1c0,14.9-3.9,19.3-11,19.3c-9.5,0-12.4-7.1-12.4-19.8V49.4h-6.1v-0.8l17.3-20.4l0.6,0.3v14h11.5
		V90.1z M226,49.4v38.1c0,11.9,1.8,13.9,5,13.9s5.5-2.3,5.5-11.2v-30l-3.4-10.7H226z"/>
	<path class="st0" d="M267.3,44.4l4.9-2l0.5,0.3L260,68.1c5.5,6.2,12.1,12.7,12.1,23.2c0,11.5-8.2,18-15.9,18
		c-4.7,0-9.1-1.1-11.9-3.8l-5,2.1l-0.6-0.4L252.9,80c-5-6.4-10.6-13-10.6-21.9c0-11.5,7.6-17.4,14.6-17.4
		C261.6,40.7,264.9,41.8,267.3,44.4z M253.5,80.9l-0.6,1.4c-3.8,7.8-6.2,21.1,2.6,21.1c3.2,0,5.5-2,5.5-6.3
		C261.1,91.1,257.6,86,253.5,80.9z M259.2,67.3l1.3-2.4c4.9-9.7,2.4-18-3-18c-2.8,0-4.9,2.4-4.9,6.7
		C252.5,58.8,255.6,63.1,259.2,67.3z"/>
</g>
</svg>
