<?xml version="1.0" encoding="utf-8"?>
<!-- Generator: Adobe Illustrator 25.0.1, SVG Export Plug-In . SVG Version: 6.00 Build 0)  -->
<svg version="1.1" id="레이어_1" xmlns="http://www.w3.org/2000/svg" xmlns:xlink="http://www.w3.org/1999/xlink" x="0px"
	 y="0px" viewBox="0 0 400 135.3" style="enable-background:new 0 0 400 135.3;" xml:space="preserve">
<style type="text/css">
	.st0{fill:#0000FF;}
</style>
<g>
	<path class="st0" d="M79.3,32.9c11,0,15.3,8.4,15.3,21.4c0,12.3-4,20.3-13.7,20.3c-1,0-2.1-0.1-3.2-0.3v17.8l5,3.9v0.6H65V96
		l4.1-3.9V37.4L65,33.5v-0.6H79.3z M77.6,69.8c0.6,0.1,1.2,0.2,1.7,0.2c4.9,0,6-4,6-16.3c0-11.9-2.8-16.3-6.3-16.3h-1.4V69.8z"/>
	<path class="st0" d="M119.5,50.1l-0.4,9.6h0.4c0-3.9,3.1-10.9,9.1-10.9v23.8H128v-6.7l-3.1-7.7c-3.1,0-5.3,4.8-5.3,9.7v24.2l5,4
		v0.6h-17.7V96l4.1-4V54.5l-4.1-3.8v-0.6C106.9,50.1,119.5,50.1,119.5,50.1z"/>
	<path class="st0" d="M167,74.5c0,16-3.1,23.3-12.8,23.3c-9.8,0-12.9-7.3-12.9-23.3c0-15.3,3.3-25.7,12.9-25.7S167,59.2,167,74.5z
		 M150.1,73.2c0,14.6,1.1,20.5,4,20.5s4-5.9,4-20.5c0-14.1-1.2-20.7-4-20.7C151.3,52.5,150.1,59.1,150.1,73.2z"/>
	<path class="st0" d="M193.2,50.1v49c0,10.6-5.9,14.7-11.6,14.7c-4.9,0-9.7-3.1-9.7-8.8c0-2.4,0.8-5.2,2.7-8.3h0.8
		c-1.5,2.6-2.2,4.9-2.2,6.8c0,4,2.7,6,5.4,6c3,0,6.1-2.4,6.1-9.2V54.5l-4.1-3.8v-0.6C180.6,50.1,193.2,50.1,193.2,50.1z M193.7,39.8
		c0,2.6-2.2,4.8-4.8,4.8s-4.8-2.2-4.8-4.8s2.2-4.8,4.8-4.8S193.7,37.2,193.7,39.8z"/>
	<path class="st0" d="M230.9,72.9c0,19.5-4.2,24.9-11.1,24.9c-8,0-11.9-7.3-11.9-23.3c0-15.3,2.9-25.7,12.4-25.7
		C227.8,48.8,230.9,54.2,230.9,72.9z M230.3,73h-14.2c0,11.8,1.6,18.1,6.6,18.1C226.8,91.1,230.3,85.1,230.3,73z M216.3,69h7.9
		c0-12.6-1.4-16.6-4-16.6C217.9,52.5,216.3,56.5,216.3,69z"/>
	<path class="st0" d="M262.7,51.3l4.1-2.8l0.5,0.2l-7.8,24.5l-0.6-0.1c1.4-5,2.2-9.4,2.2-13.2c0-4-1-6.3-3.4-6.3
		c-2.9,0-4.9,3-4.9,21.2c0,13.4,2.7,16.3,6.3,16.3c4,0,5.9-6.1,5.9-13.4h0.9c0,11.9-2.1,20.2-10.3,20.2c-6.7,0-11.2-6.4-11.2-22.4
		c0-15.3,4-26.6,13.5-26.6C259.9,48.8,261.5,49.7,262.7,51.3z"/>
	<path class="st0" d="M299.1,84.1c0,10.6-2.8,13.8-7.8,13.8c-6.8,0-8.8-5-8.8-14.1V55h-4.4v-0.5l12.3-14.6l0.5,0.2v10h8.2V84.1z
		 M290.9,55v27.2c0,8.5,1.3,9.9,3.6,9.9s4-1.6,4-8V62.7l-2.4-7.6h-5.2V55z"/>
	<path class="st0" d="M331.2,51.5l3.5-1.4l0.4,0.2L326,68.5c4,4.4,8.6,9.1,8.6,16.6c0,8.2-5.9,12.9-11.3,12.9
		c-3.3,0-6.5-0.8-8.5-2.7l-3.6,1.5l-0.5-0.3L320.9,77c-3.6-4.6-7.6-9.3-7.6-15.7c0-8.2,5.4-12.4,10.4-12.4
		C327.1,48.8,329.5,49.6,331.2,51.5z M321.4,77.5l-0.5,1c-2.7,5.6-4.4,15,1.9,15c2.2,0,4-1.4,4-4.5
		C326.8,84.8,324.2,81.2,321.4,77.5z M325.4,67.8l0.9-1.7c3.5-6.9,1.7-12.9-2.2-12.9c-2,0-3.5,1.7-3.5,4.8
		C320.6,61.8,322.8,64.8,325.4,67.8z"/>
</g>
</svg>
