<?xml version="1.0" encoding="utf-8"?>
<!-- Generator: Adobe Illustrator 25.0.1, SVG Export Plug-In . SVG Version: 6.00 Build 0)  -->
<svg version="1.1" id="레이어_1" xmlns="http://www.w3.org/2000/svg" xmlns:xlink="http://www.w3.org/1999/xlink" x="0px"
	 y="0px" viewBox="0 0 585.2 251.7" style="enable-background:new 0 0 585.2 251.7;" xml:space="preserve">
<style type="text/css">
	.st0{fill:#00FF00;}
	.st1{fill:#0000FF;}
</style>
<g>
	<g>
		<path class="st0" d="M44.2,0c34.2,0,47.6,26,47.6,66.6c0,38.4-12.3,63.3-42.6,63.3c-3.1,0-6.4-0.3-10.1-0.8v55.4l15.7,12v2H0v-2
			l12.9-12V14L0,2V0H44.2z M39.2,114.8c2,0.3,3.6,0.6,5.3,0.6c15.1,0,18.8-12.3,18.8-50.7c0-37-8.7-50.7-19.6-50.7h-4.5V114.8z"/>
		<path class="st0" d="M132.9,53.5l-1.4,30h1.1c0-12,9.8-33.9,28.3-33.9v74.2h-2v-21l-9.5-24.1c-9.8,0-16.5,14.8-16.5,30.2v75.3
			l15.7,12.3v2H93.7v-2l12.9-12.3v-117L93.7,55.4v-2H132.9z"/>
		<path class="st0" d="M244.3,129.6c0,49.8-9.5,72.5-39.8,72.5c-30.5,0-40-22.7-40-72.5c0-47.6,10.4-80.1,40-80.1
			C234.2,49.6,244.3,82,244.3,129.6z M192,125.4c0,45.4,3.4,63.8,12.6,63.8c9,0,12.3-18.5,12.3-63.8c0-44-3.6-64.4-12.3-64.4
			C195.6,61,192,81.5,192,125.4z"/>
		<path class="st0" d="M289.5,53.5v152.6c0,33-18.5,45.6-36.1,45.6c-15.4,0-30.2-9.5-30.2-27.4c0-7.6,2.5-16.2,8.4-25.8h2.5
			c-4.8,8.1-6.7,15.1-6.7,21.3c0,12.6,8.4,18.8,16.8,18.8c9.2,0,19-7.6,19-28.6V67.2l-12.9-11.8v-2H289.5z M291.2,21.6
			c0,8.1-6.7,14.8-14.8,14.8s-14.8-6.7-14.8-14.8s6.7-14.8,14.8-14.8S291.2,13.4,291.2,21.6z"/>
		<path class="st0" d="M370.3,124.6c0,60.8-13.2,77.6-34.4,77.6c-24.9,0-37-22.7-37-72.5c0-47.6,9-80.1,38.6-80.1
			C360.8,49.6,370.3,66.4,370.3,124.6z M368.7,124.9h-44.2c0,36.7,5,56.3,20.4,56.3C357.7,181.2,368.7,162.4,368.7,124.9z
			 M325,112.6h24.6c0-39.2-4.5-51.5-12.3-51.5C330,61,325,73.6,325,112.6z"/>
		<path class="st0" d="M432.9,57.4l12.9-8.7l1.4,0.6l-24.4,76.2l-2-0.3c4.5-15.4,7-29.1,7-41.2c0-12.3-3.1-19.6-10.6-19.6
			c-9,0-15.1,9.2-15.1,66.1c0,41.7,8.4,50.7,19.6,50.7c12.3,0,18.5-19,18.5-41.7h2.8c0,37-6.4,62.7-31.9,62.7
			c-20.7,0-35-19.9-35-69.7c0-47.6,12.3-82.9,42-82.9C424.2,49.6,429.3,52.4,432.9,57.4z"/>
		<path class="st0" d="M509.7,159.3c0,33-8.7,42.8-24.4,42.8c-21,0-27.4-15.7-27.4-44V68.9h-13.4v-1.7l38.4-45.4l1.4,0.6v31.1h25.5
			V159.3z M484.2,68.9v84.6c0,26.3,3.9,30.8,11.2,30.8c7.3,0,12.3-5,12.3-24.9V92.7l-7.6-23.8H484.2z"/>
		<path class="st0" d="M573.2,58l10.9-4.5l1.1,0.6l-28.3,56.6c12.3,13.7,26.9,28.3,26.9,51.5c0,25.5-18.2,40-35.3,40
			c-10.4,0-20.2-2.5-26.3-8.4l-11.2,4.8l-1.4-0.8l31.6-60.8c-11.2-14.3-23.5-28.8-23.5-48.7c0-25.5,16.8-38.6,32.5-38.6
			C560.6,49.6,567.9,52.1,573.2,58z M542.7,138.9l-1.4,3.1c-8.4,17.4-13.7,46.8,5.9,46.8c7,0,12.3-4.5,12.3-14
			C559.5,161.6,551.6,150.4,542.7,138.9z M555.3,108.6l2.8-5.3c10.9-21.6,5.3-40-6.7-40c-6.2,0-10.9,5.3-10.9,14.8
			C540.4,89.9,547.1,99.4,555.3,108.6z"/>
	</g>
	<g>
		<path class="st1" d="M186.7,2.3l0.8-0.6l0.1,0l-1,6.1h1.2V16l-1.2-1.1c-0.3,0.8-0.9,1.2-1.8,1.2c-2,0-2.9-2.1-2.9-7
			c0-4.7,1.4-7.7,3.4-7.7C186,1.5,186.5,1.8,186.7,2.3z M184,8.7c0,5,0.6,6.1,1.2,6.1c0.5,0,0.7-0.3,0.7-1.1V8.8L185,7.9V7.8h1.4
			c0.5-2.4,0.1-5.3-1-5.3C184.6,2.5,184,3.9,184,8.7z"/>
		<path class="st1" d="M197.4,5.5v9.4l0.9,0.8v0.1h-3.7v-0.1l0.9-0.8V6.5l-0.9-0.8V5.5H197.4z M197.6,3.2c0,0.6-0.5,1.1-1.1,1.1
			s-1.1-0.5-1.1-1.1s0.5-1.1,1.1-1.1S197.6,2.7,197.6,3.2z"/>
		<path class="st1" d="M207.7,5.5l-0.1,2.1h0.1c0-0.9,0.7-2.4,2-2.4v5.3h-0.1V9l-0.7-1.7c-0.7,0-1.2,1.1-1.2,2.2v5.4l1.1,0.9v0.1
			h-3.9v-0.1l0.9-0.9V6.5l-0.9-0.8V5.5H207.7z"/>
		<path class="st1" d="M218.5,1.7v13.2l0.9,0.8v0.1h-3.7v-0.1l0.9-0.8V2.7l-0.9-0.8V1.7H218.5z"/>
		<path class="st1" d="M230.4,5.8l0.8-0.3l0.1,0l-2,4c0.9,1,1.9,2,1.9,3.7c0,1.8-1.3,2.9-2.5,2.9c-0.7,0-1.4-0.2-1.9-0.6l-0.8,0.3
			l-0.1-0.1l2.3-4.3c-0.8-1-1.7-2.1-1.7-3.5c0-1.8,1.2-2.8,2.3-2.8C229.5,5.2,230.1,5.4,230.4,5.8z M228.3,11.6l-0.1,0.2
			c-0.6,1.2-1,3.3,0.4,3.3c0.5,0,0.9-0.3,0.9-1C229.5,13.2,228.9,12.4,228.3,11.6z M229.2,9.5l0.2-0.4c0.8-1.5,0.4-2.9-0.5-2.9
			c-0.4,0-0.8,0.4-0.8,1.1C228.1,8.1,228.6,8.8,229.2,9.5z"/>
		<path class="st1" d="M249.5,5.5v9.4l0.9,0.8v0.1h-3.7v-0.1l0.9-0.8V6.5l-0.9-0.8V5.5H249.5z M249.6,3.2c0,0.6-0.5,1.1-1.1,1.1
			s-1.1-0.5-1.1-1.1s0.5-1.1,1.1-1.1S249.6,2.7,249.6,3.2z"/>
		<path class="st1" d="M259.7,5.5l-0.1,2h0.1c0.3-1.4,1.1-2.2,2-2.2c1.5,0,1.6,1.3,1.6,3.1v6.5l0.9,0.8v0.1H257v-0.1l0.9-0.8V6.5
			L257,5.7V5.5H259.7z M259.8,9.2v5.7l0.9,0.8l0.7-0.8V8c0-1-0.2-1.3-0.6-1.3C260.3,6.8,259.8,7.9,259.8,9.2z"/>
		<path class="st1" d="M286,9.2c0,4.2-0.4,6.5-2.4,6.9c0.6,0.1,1.1,0.5,1.4,1.3l0.2,0.7c0.3,0.8,0.7,1.3,1.3,1l0.1,0.2
			c-0.6,0.3-1.1,0.4-1.8,0.4c-1,0-1.5-0.5-1.9-1.9l-0.5-1.6c-2.3-0.2-2.8-2.6-2.8-6.9c0-4.4,0.8-7.7,3.2-7.7
			C285.3,1.5,286,4.7,286,9.2z M281.7,8.8c0,4.7,0.1,6.3,1.1,6.3c1.1,0,1.2-1.6,1.2-6.3c0-4-0.4-6.3-1.2-6.3
			C282,2.5,281.7,4.7,281.7,8.8z"/>
		<path class="st1" d="M295.4,5.5v7.9c0,1,0.2,1.3,0.6,1.3c0.6,0,1.1-1.1,1.1-2.4V6.5l-0.9-0.8V5.5h2.8v9.4l0.9,0.8v0.1h-2.7
			l0.1-1.8h-0.1c-0.3,1.4-1,2-1.9,2c-1.5,0-1.7-1.3-1.7-3.1V6.5l-0.9-0.8V5.5H295.4z"/>
		<path class="st1" d="M311.4,8.8v6.1l0.9,0.8v0.1h-3.8c-1.4,0-2.4-1-2.4-3.2c0-1.3,0.4-2.3,1.2-2.8c-0.4-0.4-0.7-1.1-0.7-1.9
			c0-1.7,1-2.7,2.5-2.7C310.3,5.2,311.4,6.1,311.4,8.8z M307.3,9.8c0.3-0.2,0.8-0.3,1.2-0.3c0.3,0,0.6,0,0.9,0.1V8.8
			c0-1.6-0.4-2.5-1.4-2.5c-0.7,0-1.4,0.5-1.4,1.7C306.6,8.7,306.9,9.4,307.3,9.8z M308,12.7c0,1.6,0.3,2.4,1,2.4
			c0.2,0,0.3,0,0.5-0.2v-4.9c-0.1,0-0.1,0-0.2,0C308.2,10.1,308,11.1,308,12.7z"/>
		<path class="st1" d="M321.6,5.5l-0.1,2.1h0.1c0-0.9,0.7-2.4,2-2.4v5.3h-0.1V9l-0.7-1.7c-0.7,0-1.2,1.1-1.2,2.2v5.4l1.1,0.9v0.1
			h-3.9v-0.1l0.9-0.9V6.5l-0.9-0.8V5.5H321.6z"/>
		<path class="st1" d="M335.4,8.8v6.1l0.9,0.8v0.1h-3.8c-1.4,0-2.4-1-2.4-3.2c0-1.3,0.4-2.3,1.2-2.8c-0.4-0.4-0.7-1.1-0.7-1.9
			c0-1.7,1-2.7,2.5-2.7C334.4,5.2,335.4,6.1,335.4,8.8z M331.4,9.8c0.3-0.2,0.8-0.3,1.2-0.3c0.3,0,0.6,0,0.9,0.1V8.8
			c0-1.6-0.4-2.5-1.4-2.5c-0.7,0-1.4,0.5-1.4,1.7C330.7,8.7,331,9.4,331.4,9.8z M332,12.7c0,1.6,0.3,2.4,1,2.4c0.2,0,0.3,0,0.5-0.2
			v-4.9c-0.1,0-0.1,0-0.2,0C332.3,10.1,332,11.1,332,12.7z"/>
		<path class="st1" d="M345.6,5.5l-0.1,2h0.1c0.3-1.4,1.1-2.2,2-2.2c1.5,0,1.6,1.3,1.6,3.1v6.5l0.9,0.8v0.1h-7.2v-0.1l0.9-0.8V6.5
			l-0.9-0.8V5.5H345.6z M345.7,9.2v5.7l0.9,0.8l0.7-0.8V8c0-1-0.2-1.3-0.6-1.3C346.2,6.8,345.7,7.9,345.7,9.2z"/>
		<path class="st1" d="M360.7,13.1c0,2.4-0.6,3.1-1.7,3.1c-1.5,0-2-1.1-2-3.1V6.6h-1V6.5l2.7-3.2l0.1,0v2.2h1.8V13.1z M358.9,6.6v6
			c0,1.9,0.3,2.2,0.8,2.2c0.5,0,0.9-0.4,0.9-1.8V8.3L360,6.6H358.9z"/>
		<path class="st1" d="M370.2,5.5v9.4l0.9,0.8v0.1h-3.7v-0.1l0.9-0.8V6.5l-0.9-0.8V5.5H370.2z M370.3,3.2c0,0.6-0.5,1.1-1.1,1.1
			s-1.1-0.5-1.1-1.1s0.5-1.1,1.1-1.1S370.3,2.7,370.3,3.2z"/>
		<path class="st1" d="M380.4,5.5l-0.1,2h0.1c0.3-1.4,1.1-2.2,2-2.2c1.5,0,1.6,1.3,1.6,3.1v6.5l0.9,0.8v0.1h-7.2v-0.1l0.9-0.8V6.5
			l-0.9-0.8V5.5H380.4z M380.5,9.2v5.7l0.9,0.8l0.7-0.8V8c0-1-0.2-1.3-0.6-1.3C381,6.8,380.5,7.9,380.5,9.2z"/>
		<path class="st1" d="M396.3,10.6c0,4.3-0.9,5.5-2.5,5.5c-1.8,0-2.6-1.6-2.6-5.2c0-3.4,0.6-5.7,2.8-5.7
			C395.6,5.2,396.3,6.4,396.3,10.6z M396.2,10.6H393c0,2.6,0.4,4,1.5,4C395.4,14.6,396.2,13.3,396.2,10.6z M393.1,9.7h1.8
			c0-2.8-0.3-3.7-0.9-3.7C393.4,6.1,393.1,7,393.1,9.7z"/>
	</g>
</g>
</svg>
