<?xml version="1.0" encoding="utf-8"?>
<!-- Generator: Adobe Illustrator 25.0.1, SVG Export Plug-In . SVG Version: 6.00 Build 0)  -->
<svg version="1.1" id="레이어_1" xmlns="http://www.w3.org/2000/svg" xmlns:xlink="http://www.w3.org/1999/xlink" x="0px"
	 y="0px" viewBox="0 0 337.8 135.3" style="enable-background:new 0 0 337.8 135.3;" xml:space="preserve">
<style type="text/css">
	.st0{fill:#0000FF;}
</style>
<g>
	<path class="st0" d="M28.9,35.5L33,33l0.4,0.3L23,58.2c4.8,6.3,10.3,13.2,10.3,23.2c0,10-4.4,16.5-13.1,16.5
		c-3.1,0-7.1-0.9-9.4-3.1l-5.1,2.7l-0.5-0.2l12.4-29.5c-4.3-5.6-8.7-11.5-8.7-20.6c0-10.3,5.7-15.3,11.9-15.3
		C24.7,31.9,26.4,33,28.9,35.5z M18.2,68.5c-4.1,10.6-5.7,24.4,2,24.4c4.2,0,5.6-3.2,5.6-8.2C25.7,78.2,22,73.5,18.2,68.5z
		 M22.5,57.4c2.2-5.4,4.8-20.5-2.1-20.5c-2.7,0-4.6,2.2-4.6,6.3C15.8,48.3,18.9,52.8,22.5,57.4z"/>
	<path class="st0" d="M64.5,51.3l4.1-2.8l0.5,0.2l-7.8,24.5l-0.6-0.1c1.4-5,2.2-9.4,2.2-13.2c0-4-1-6.3-3.4-6.3
		c-2.9,0-4.9,3-4.9,21.2c0,13.4,2.7,16.3,6.3,16.3c4,0,5.9-6.1,5.9-13.4h0.9c0,11.9-2.1,20.2-10.3,20.2c-6.7,0-11.2-6.4-11.2-22.4
		c0-15.3,4-26.6,13.5-26.6C61.7,48.8,63.3,49.7,64.5,51.3z"/>
	<path class="st0" d="M93.5,50.1l-0.4,9.6h0.4c0-3.9,3.1-10.9,9.1-10.9v23.8h-0.6v-6.7l-3.1-7.7c-3.1,0-5.3,4.8-5.3,9.7v24.2l5,4
		v0.6H80.9V96l4.1-4V54.5l-4.1-3.8v-0.6H93.5z"/>
	<path class="st0" d="M138.3,72.9c0,19.5-4.2,24.9-11.1,24.9c-8,0-11.9-7.3-11.9-23.3c0-15.3,2.9-25.7,12.4-25.7
		C135.2,48.8,138.3,54.2,138.3,72.9z M137.7,73h-14.2c0,11.8,1.6,18.1,6.6,18.1C134.2,91.1,137.7,85.1,137.7,73z M123.7,69h7.9
		c0-12.6-1.4-16.6-4-16.6C125.3,52.5,123.7,56.5,123.7,69z"/>
	<path class="st0" d="M174.9,72.9c0,19.5-4.2,24.9-11.1,24.9c-8,0-11.9-7.3-11.9-23.3c0-15.3,2.9-25.7,12.4-25.7
		C171.9,48.8,174.9,54.2,174.9,72.9z M174.4,73h-14.2c0,11.8,1.6,18.1,6.6,18.1C170.9,91.1,174.4,85.1,174.4,73z M160.3,69h7.9
		c0-12.6-1.4-16.6-4-16.6C162,52.5,160.3,56.5,160.3,69z"/>
	<path class="st0" d="M198.7,50.1l-0.4,9.1h0.3c1.5-6.3,4.8-10,8.9-10c6.7,0,7.4,5.8,7.4,13.9v29.2L219,96v0.6h-32.5V96l4.1-3.8
		V54.5l-4.1-3.8v-0.6H198.7z M199.1,66.4v25.8l4,3.8l3.3-3.8v-31c0-4.3-0.8-5.7-2.5-5.7C201.4,55.6,199.1,60.7,199.1,66.4z"/>
	<path class="st0" d="M243.9,50.1v42.2L248,96v0.6h-16.7V96l4.1-3.8V54.5l-4.1-3.8v-0.6H243.9z M244.4,39.8c0,2.6-2.2,4.8-4.8,4.8
		c-2.6,0-4.8-2.2-4.8-4.8c0-2.6,2.2-4.8,4.8-4.8C242.2,35,244.4,37.2,244.4,39.8z"/>
	<path class="st0" d="M272.3,50.1l-0.4,9.1h0.3c1.5-6.3,4.8-10,8.9-10c6.7,0,7.4,5.8,7.4,13.9v29.2l4.1,3.8v0.6h-32.5V96l4.1-3.8
		V54.5l-4.1-3.8v-0.6H272.3z M272.8,66.4v25.8l4,3.8l3.3-3.8v-31c0-4.3-0.8-5.7-2.5-5.7C275,55.6,272.8,60.7,272.8,66.4z"/>
	<path class="st0" d="M332.5,50.1v0.6l-4.1,3.8v38.4c0,13.6-3.2,20.9-13.2,20.9c-7.2,0-10.3-4.7-10.3-10.5c0-4,1.4-7.9,4-12.1
		c-2.6-3.9-4-10.1-4-17.3c0-10.4,3.1-23.8,13-23.8H332.5z M309.3,91.9c-1.6,3-2.2,5.6-2.2,8.3c0,5,2.5,7.9,6.4,7.9
		c5,0,6.6-4.1,6.6-12.9v-0.6c-1.3,0.5-2.9,0.7-4.3,0.7C313.1,95.3,311,94.1,309.3,91.9z M313.1,72.8c0,11,1.6,18.4,5.6,18.4
		c0.4,0,0.8-0.1,1.2-0.3V52.8C316.7,52.8,313.1,58.5,313.1,72.8z"/>
</g>
</svg>
