<?xml version="1.0" encoding="utf-8"?>
<!-- Generator: Adobe Illustrator 25.0.1, SVG Export Plug-In . SVG Version: 6.00 Build 0)  -->
<svg version="1.1" id="레이어_1" xmlns="http://www.w3.org/2000/svg" xmlns:xlink="http://www.w3.org/1999/xlink" x="0px"
	 y="0px" viewBox="0 0 400 135.3" style="enable-background:new 0 0 400 135.3;" xml:space="preserve">
<style type="text/css">
	.st0{fill:#00FF00;}
</style>
<g>
	<path class="st0" d="M64.3,22l5.8-3.4l0.6,0.4L56.1,53.8c6.7,8.8,14.4,18.5,14.4,32.5s-6.2,23.1-18.4,23.1c-4.4,0-10-1.3-13.1-4.3
		l-7.2,3.8l-0.7-0.3l17.4-41.4c-6.1-7.8-12.2-16.1-12.2-28.8C36.3,24,44.2,17,52.9,17C58.5,17,60.9,18.5,64.3,22z M49.3,68.3
		c-5.8,14.9-7.9,34.2,2.8,34.2c5.9,0,7.8-4.5,7.8-11.5C59.8,81.9,54.7,75.3,49.3,68.3z M55.3,52.8c3.2-7.6,6.7-28.7-2.9-28.7
		c-3.8,0-6.4,3-6.4,8.8C46,40,50.3,46.2,55.3,52.8z"/>
	<path class="st0" d="M99,44.2l5.8-3.9l0.6,0.3l-11,34.3l-0.9-0.1c2-6.9,3.2-13.1,3.2-18.5c0-5.5-1.4-8.8-4.8-8.8
		c-4,0-6.8,4.2-6.8,29.8c0,18.8,3.8,22.8,8.8,22.8c5.5,0,8.3-8.6,8.3-18.8h1.3c0,16.6-2.9,28.2-14.4,28.2c-9.3,0-15.8-9-15.8-31.4
		c0-21.4,5.5-37.3,18.9-37.3C95.1,40.7,97.4,41.9,99,44.2z"/>
	<path class="st0" d="M124.6,42.4L124,55.9h0.5c0-5.4,4.4-15.3,12.7-15.3V74h-0.9v-9.5L132,53.7c-4.4,0-7.4,6.7-7.4,13.6v33.9
		l7.1,5.5v0.9h-24.8v-0.9l5.8-5.5V48.6l-5.8-5.3v-0.9C106.9,42.4,124.6,42.4,124.6,42.4z"/>
	<path class="st0" d="M172.1,74.4c0,27.4-5.9,34.9-15.5,34.9c-11.2,0-16.6-10.2-16.6-32.7c0-21.4,4-36.1,17.4-36.1
		C167.8,40.7,172.1,48.2,172.1,74.4z M171.4,74.6h-19.9c0,16.5,2.3,25.3,9.2,25.3C166.5,99.9,171.4,91.5,171.4,74.6z M151.7,69h11.1
		c0-17.7-2-23.2-5.5-23.2C154,45.8,151.7,51.5,151.7,69z"/>
	<path class="st0" d="M208.3,74.4c0,27.4-5.9,34.9-15.5,34.9c-11.2,0-16.6-10.2-16.6-32.7c0-21.4,4-36.1,17.4-36.1
		C204.1,40.7,208.3,48.2,208.3,74.4z M207.6,74.6h-19.9c0,16.5,2.3,25.3,9.2,25.3C202.7,99.9,207.6,91.5,207.6,74.6z M187.9,69H199
		c0-17.7-2-23.2-5.5-23.2C190.2,45.8,187.9,51.5,187.9,69z"/>
	<path class="st0" d="M226.5,42.4L226,55.1h0.4c2.1-8.8,6.7-14,12.5-14c9.3,0,10.3,8.2,10.3,19.5v40.9l5.8,5.3v0.9h-45.5v-0.9
		l5.8-5.3v-53l-5.8-5.3v-0.9h17V42.4z M227.1,65.4v36.2l5.5,5.3l4.7-5.3V58.2c0-6.1-1.1-7.9-3.5-7.9
		C230.3,50.2,227.1,57.3,227.1,65.4z"/>
	<path class="st0" d="M274.6,42.4v59.1l5.8,5.3v0.9h-23.5v-0.9l5.8-5.3v-53l-5.8-5.3v-0.9h17.7V42.4z M275.4,28c0,3.7-3,6.7-6.7,6.7
		s-6.7-3-6.7-6.7s3-6.7,6.7-6.7S275.4,24.4,275.4,28z"/>
	<path class="st0" d="M299.4,42.4l-0.5,12.7h0.4c2.1-8.8,6.7-14,12.5-14c9.3,0,10.3,8.2,10.3,19.5v40.9l5.8,5.3v0.9h-45.5v-0.9
		l5.8-5.3v-53l-5.8-5.3v-0.9h17V42.4z M300,65.4v36.2l5.5,5.3l4.7-5.3V58.2c0-6.1-1.1-7.9-3.5-7.9C303.2,50.2,300,57.3,300,65.4z"/>
	<path class="st0" d="M368.6,42.4v0.9l-5.8,5.3v53.8c0,19-4.5,29.3-18.5,29.3c-10.1,0-14.5-6.6-14.5-14.8c0-5.7,2-11.1,5.5-17
		c-3.7-5.4-5.5-14.1-5.5-24.2c0-14.6,4.3-33.3,18.2-33.3C348,42.4,368.6,42.4,368.6,42.4z M336,101c-2.3,4.2-3.2,7.8-3.2,11.6
		c0,6.9,3.5,11.1,9,11.1c7.1,0,9.2-5.8,9.2-18v-0.9c-1.8,0.6-4,1-6.1,1C341.3,105.8,338.4,104.1,336,101z M341.5,74.3
		c0,15.4,2.3,25.7,7.8,25.7c0.5,0,1.1-0.1,1.6-0.4V46.2C346.5,46.2,341.5,54.3,341.5,74.3z"/>
</g>
</svg>
