<?xml version="1.0" encoding="utf-8"?>
<!-- Generator: Adobe Illustrator 25.0.1, SVG Export Plug-In . SVG Version: 6.00 Build 0)  -->
<svg version="1.1" id="레이어_1" xmlns="http://www.w3.org/2000/svg" xmlns:xlink="http://www.w3.org/1999/xlink" x="0px"
	 y="0px" viewBox="0 0 727.1 254.8" style="enable-background:new 0 0 727.1 254.8;" xml:space="preserve">
<style type="text/css">
	.st0{fill:#00FF00;}
	.st1{fill:#0000FF;}
</style>
<g>
	<g>
		<path class="st0" d="M73.6,11.2l12.9-7.6l1.4,0.8L55.4,81.8c14.8,19.6,31.9,41.2,31.9,72.2s-13.7,51.2-40.9,51.2
			c-9.8,0-22.1-2.8-29.1-9.5l-16,8.4L0,203.6l38.6-91.8C25.2,94.4,11.5,75.9,11.5,47.6C11.5,15.7,29.1,0,48.4,0
			C60.8,0,66.1,3.4,73.6,11.2z M40.3,114c-12.9,33-17.6,75.9,6.2,75.9c13.2,0,17.4-10.1,17.4-25.5C63.8,144.2,52.4,129.6,40.3,114z
			 M53.8,79.5c7-16.8,14.8-63.8-6.4-63.8c-8.4,0-14.3,6.7-14.3,19.6C33,51.2,42.6,65,53.8,79.5z"/>
		<path class="st0" d="M148.1,60.5l12.9-8.7l1.4,0.6L138,128.5l-2-0.3c4.5-15.4,7-29.1,7-41.2c0-12.3-3.1-19.6-10.6-19.6
			c-9,0-15.1,9.2-15.1,66.1c0,41.7,8.4,50.7,19.6,50.7c12.3,0,18.5-19,18.5-41.7h2.8c0,37-6.4,62.7-31.9,62.7
			c-20.7,0-35-19.9-35-69.7c0-47.6,12.3-82.9,42-82.9C139.4,52.6,144.5,55.4,148.1,60.5z"/>
		<path class="st0" d="M202,56.6l-1.4,30h1.1c0-12,9.8-33.9,28.3-33.9v74.2h-2v-21l-9.5-24.1c-9.8,0-16.5,14.8-16.5,30.2v75.3
			l15.7,12.3v2h-54.9v-2l12.9-12.3v-117l-12.9-11.8v-2H202z"/>
		<path class="st0" d="M304.8,127.7c0,60.8-13.2,77.6-34.4,77.6c-24.9,0-37-22.7-37-72.5c0-47.6,9-80.1,38.6-80.1
			C295.3,52.6,304.8,69.4,304.8,127.7z M303.1,128h-44.2c0,36.7,5,56.3,20.4,56.3C292.2,184.2,303.1,165.5,303.1,128z M259.4,115.6
			h24.6c0-39.2-4.5-51.5-12.3-51.5C264.5,64.1,259.4,76.7,259.4,115.6z"/>
		<path class="st0" d="M382.4,127.7c0,60.8-13.2,77.6-34.4,77.6c-24.9,0-37-22.7-37-72.5c0-47.6,9-80.1,38.6-80.1
			C372.9,52.6,382.4,69.4,382.4,127.7z M380.8,128h-44.2c0,36.7,5,56.3,20.4,56.3C369.8,184.2,380.8,165.5,380.8,128z M337.1,115.6
			h24.6c0-39.2-4.5-51.5-12.3-51.5C342.1,64.1,337.1,76.7,337.1,115.6z"/>
		<path class="st0" d="M420,56.6l-1.1,28.3h0.8c4.8-19.6,14.8-31.1,27.7-31.1c20.7,0,23,18.2,23,43.4v90.7l12.9,11.8v2H382.2v-2
			l12.9-11.8V70.3l-12.9-11.8v-2H420z M421.4,107.5v80.4l12.3,11.8l10.4-11.8V91.6c0-13.4-2.5-17.6-7.8-17.6
			C428.4,73.9,421.4,89.6,421.4,107.5z"/>
		<path class="st0" d="M524.1,56.6v131.3l12.9,11.8v2h-52.1v-2l12.9-11.8V70.3l-12.9-11.8v-2H524.1z M525.8,24.6
			c0,8.1-6.7,14.8-14.8,14.8c-8.1,0-14.8-6.7-14.8-14.8s6.7-14.8,14.8-14.8C519.1,9.8,525.8,16.5,525.8,24.6z"/>
		<path class="st0" d="M576.3,56.6l-1.1,28.3h0.8c4.8-19.6,14.8-31.1,27.7-31.1c20.7,0,23,18.2,23,43.4v90.7l12.9,11.8v2H538.5v-2
			l12.9-11.8V70.3l-12.9-11.8v-2H576.3z M577.7,107.5v80.4l12.3,11.8l10.4-11.8V91.6c0-13.4-2.5-17.6-7.8-17.6
			C584.7,73.9,577.7,89.6,577.7,107.5z"/>
		<path class="st0" d="M727.1,56.6v2l-12.9,11.8v119.6c0,42.3-10.1,65-41.2,65c-22.4,0-32.2-14.6-32.2-32.8
			c0-12.6,4.5-24.6,12.3-37.8c-8.1-12-12.3-31.4-12.3-53.8c0-32.5,9.5-73.9,40.3-73.9H727.1z M654.8,186.8c-5,9.2-7,17.4-7,25.8
			c0,15.4,7.8,24.6,19.9,24.6c15.7,0,20.4-12.9,20.4-40v-2c-3.9,1.4-9,2.2-13.4,2.2C666.6,197.4,660.1,193.5,654.8,186.8z
			 M666.9,127.4c0,34.2,5,57.1,17.4,57.1c1.1,0,2.5-0.3,3.6-0.8V65C678.1,65,666.9,82.9,666.9,127.4z"/>
	</g>
	<g>
		<path class="st1" d="M257.9,5.4l0.8-0.6l0.1,0l-1,6.1h1.2v8.2l-1.2-1.1c-0.3,0.8-0.9,1.2-1.8,1.2c-2,0-2.9-2.1-2.9-7
			c0-4.7,1.4-7.7,3.4-7.7C257.2,4.6,257.7,4.9,257.9,5.4z M255.2,11.8c0,5,0.6,6.1,1.2,6.1c0.5,0,0.7-0.3,0.7-1.1v-4.9l-0.9-0.8
			v-0.1h1.4c0.5-2.4,0.1-5.3-1-5.3C255.9,5.6,255.2,7,255.2,11.8z"/>
		<path class="st1" d="M268.6,8.6V18l0.9,0.8V19h-3.7v-0.1l0.9-0.8V9.6l-0.9-0.8V8.6H268.6z M268.8,6.3c0,0.6-0.5,1.1-1.1,1.1
			s-1.1-0.5-1.1-1.1s0.5-1.1,1.1-1.1S268.8,5.7,268.8,6.3z"/>
		<path class="st1" d="M278.9,8.6l-0.1,2.1h0.1c0-0.9,0.7-2.4,2-2.4v5.3h-0.1v-1.5l-0.7-1.7c-0.7,0-1.2,1.1-1.2,2.2v5.4l1.1,0.9V19
			h-3.9v-0.1l0.9-0.9V9.6l-0.9-0.8V8.6H278.9z"/>
		<path class="st1" d="M289.7,4.8V18l0.9,0.8V19h-3.7v-0.1l0.9-0.8V5.8l-0.9-0.8V4.8H289.7z"/>
		<path class="st1" d="M301.6,8.9l0.8-0.3l0.1,0l-2,4c0.9,1,1.9,2,1.9,3.7c0,1.8-1.3,2.9-2.5,2.9c-0.7,0-1.4-0.2-1.9-0.6l-0.8,0.3
			l-0.1-0.1l2.3-4.3c-0.8-1-1.7-2.1-1.7-3.5c0-1.8,1.2-2.8,2.3-2.8C300.7,8.3,301.3,8.5,301.6,8.9z M299.5,14.7l-0.1,0.2
			c-0.6,1.2-1,3.3,0.4,3.3c0.5,0,0.9-0.3,0.9-1C300.7,16.3,300.1,15.5,299.5,14.7z M300.4,12.5l0.2-0.4c0.8-1.5,0.4-2.9-0.5-2.9
			c-0.4,0-0.8,0.4-0.8,1.1C299.3,11.2,299.8,11.9,300.4,12.5z"/>
		<path class="st1" d="M320.7,8.6V18l0.9,0.8V19h-3.7v-0.1l0.9-0.8V9.6l-0.9-0.8V8.6H320.7z M320.8,6.3c0,0.6-0.5,1.1-1.1,1.1
			s-1.1-0.5-1.1-1.1s0.5-1.1,1.1-1.1S320.8,5.7,320.8,6.3z"/>
		<path class="st1" d="M330.9,8.6l-0.1,2h0.1c0.3-1.4,1.1-2.2,2-2.2c1.5,0,1.6,1.3,1.6,3.1V18l0.9,0.8V19h-7.2v-0.1l0.9-0.8V9.6
			l-0.9-0.8V8.6H330.9z M331,12.2V18l0.9,0.8l0.7-0.8v-6.9c0-1-0.2-1.3-0.6-1.3C331.5,9.8,331,11,331,12.2z"/>
		<path class="st1" d="M357.2,12.2c0,4.2-0.4,6.5-2.4,6.9c0.6,0.1,1.1,0.5,1.4,1.3l0.2,0.7c0.3,0.8,0.7,1.3,1.3,1l0.1,0.2
			c-0.6,0.3-1.1,0.4-1.8,0.4c-1,0-1.5-0.5-1.9-1.9l-0.5-1.6c-2.3-0.2-2.8-2.6-2.8-6.9c0-4.4,0.8-7.7,3.2-7.7
			C356.5,4.6,357.2,7.8,357.2,12.2z M352.9,11.8c0,4.7,0.1,6.3,1.1,6.3c1.1,0,1.2-1.6,1.2-6.3c0-4-0.4-6.3-1.2-6.3
			C353.2,5.6,352.9,7.8,352.9,11.8z"/>
		<path class="st1" d="M366.6,8.6v7.9c0,1,0.2,1.3,0.6,1.3c0.6,0,1.1-1.1,1.1-2.4V9.6l-0.9-0.8V8.6h2.8V18l0.9,0.8V19h-2.7l0.1-1.8
			h-0.1c-0.3,1.4-1,2-1.9,2c-1.5,0-1.7-1.3-1.7-3.1V9.6l-0.9-0.8V8.6H366.6z"/>
		<path class="st1" d="M382.6,11.8V18l0.9,0.8V19h-3.8c-1.4,0-2.4-1-2.4-3.2c0-1.3,0.4-2.3,1.2-2.8c-0.4-0.4-0.7-1.1-0.7-1.9
			c0-1.7,1-2.7,2.5-2.7C381.5,8.3,382.6,9.2,382.6,11.8z M378.5,12.9c0.3-0.2,0.8-0.3,1.2-0.3c0.3,0,0.6,0,0.9,0.1v-0.8
			c0-1.6-0.4-2.5-1.4-2.5c-0.7,0-1.4,0.5-1.4,1.7C377.8,11.8,378.1,12.5,378.5,12.9z M379.2,15.8c0,1.6,0.3,2.4,1,2.4
			c0.2,0,0.3,0,0.5-0.2v-4.9c-0.1,0-0.1,0-0.2,0C379.4,13.2,379.2,14.2,379.2,15.8z"/>
		<path class="st1" d="M392.8,8.6l-0.1,2.1h0.1c0-0.9,0.7-2.4,2-2.4v5.3h-0.1v-1.5l-0.7-1.7c-0.7,0-1.2,1.1-1.2,2.2v5.4l1.1,0.9V19
			H390v-0.1l0.9-0.9V9.6L390,8.7V8.6H392.8z"/>
		<path class="st1" d="M406.6,11.8V18l0.9,0.8V19h-3.8c-1.4,0-2.4-1-2.4-3.2c0-1.3,0.4-2.3,1.2-2.8c-0.4-0.4-0.7-1.1-0.7-1.9
			c0-1.7,1-2.7,2.5-2.7C405.6,8.3,406.6,9.2,406.6,11.8z M402.6,12.9c0.3-0.2,0.8-0.3,1.2-0.3c0.3,0,0.6,0,0.9,0.1v-0.8
			c0-1.6-0.4-2.5-1.4-2.5c-0.7,0-1.4,0.5-1.4,1.7C401.9,11.8,402.2,12.5,402.6,12.9z M403.2,15.8c0,1.6,0.3,2.4,1,2.4
			c0.2,0,0.3,0,0.5-0.2v-4.9c-0.1,0-0.1,0-0.2,0C403.5,13.2,403.2,14.2,403.2,15.8z"/>
		<path class="st1" d="M416.8,8.6l-0.1,2h0.1c0.3-1.4,1.1-2.2,2-2.2c1.5,0,1.6,1.3,1.6,3.1V18l0.9,0.8V19h-7.2v-0.1L415,18V9.6
			l-0.9-0.8V8.6H416.8z M416.9,12.2V18l0.9,0.8l0.7-0.8v-6.9c0-1-0.2-1.3-0.6-1.3C417.4,9.8,416.9,11,416.9,12.2z"/>
		<path class="st1" d="M431.9,16.2c0,2.4-0.6,3.1-1.7,3.1c-1.5,0-2-1.1-2-3.1V9.7h-1V9.6l2.7-3.2l0.1,0v2.2h1.8V16.2z M430.1,9.7v6
			c0,1.9,0.3,2.2,0.8,2.2c0.5,0,0.9-0.4,0.9-1.8v-4.8l-0.5-1.7H430.1z"/>
		<path class="st1" d="M441.4,8.6V18l0.9,0.8V19h-3.7v-0.1l0.9-0.8V9.6l-0.9-0.8V8.6H441.4z M441.6,6.3c0,0.6-0.5,1.1-1.1,1.1
			s-1.1-0.5-1.1-1.1s0.5-1.1,1.1-1.1S441.6,5.7,441.6,6.3z"/>
		<path class="st1" d="M451.6,8.6l-0.1,2h0.1c0.3-1.4,1.1-2.2,2-2.2c1.5,0,1.6,1.3,1.6,3.1V18l0.9,0.8V19h-7.2v-0.1l0.9-0.8V9.6
			l-0.9-0.8V8.6H451.6z M451.7,12.2V18l0.9,0.8l0.7-0.8v-6.9c0-1-0.2-1.3-0.6-1.3C452.2,9.8,451.7,11,451.7,12.2z"/>
		<path class="st1" d="M467.5,13.7c0,4.3-0.9,5.5-2.5,5.5c-1.8,0-2.6-1.6-2.6-5.2c0-3.4,0.6-5.7,2.8-5.7
			C466.8,8.3,467.5,9.5,467.5,13.7z M467.4,13.7h-3.2c0,2.6,0.4,4,1.5,4C466.6,17.7,467.4,16.4,467.4,13.7z M464.3,12.8h1.8
			c0-2.8-0.3-3.7-0.9-3.7C464.6,9.1,464.3,10,464.3,12.8z"/>
	</g>
</g>
</svg>
