<?xml version="1.0" encoding="utf-8"?>
<!-- Generator: Adobe Illustrator 25.0.1, SVG Export Plug-In . SVG Version: 6.00 Build 0)  -->
<svg version="1.1" id="레이어_1" xmlns="http://www.w3.org/2000/svg" xmlns:xlink="http://www.w3.org/1999/xlink" x="0px"
	 y="0px" viewBox="0 0 400 135.3" style="enable-background:new 0 0 400 135.3;" xml:space="preserve">
<style type="text/css">
	.st0{fill:#0000FF;}
</style>
<g>
	<path class="st0" d="M60,35.5l4.1-2.5l0.4,0.3L54.1,58.2c4.8,6.3,10.3,13.2,10.3,23.2S60,97.9,51.3,97.9c-3.1,0-7.1-0.9-9.4-3.1
		l-5.1,2.7l-0.5-0.2l12.4-29.5C44.4,62.2,40,56.3,40,47.2c0-10.3,5.7-15.3,11.9-15.3C55.8,31.9,57.5,33,60,35.5z M49.3,68.5
		c-4.1,10.6-5.7,24.4,2,24.4c4.2,0,5.6-3.2,5.6-8.2C56.8,78.2,53.1,73.5,49.3,68.5z M53.6,57.4c2.2-5.4,4.8-20.5-2.1-20.5
		c-2.7,0-4.6,2.2-4.6,6.3C46.9,48.3,50,52.8,53.6,57.4z"/>
	<path class="st0" d="M95.6,51.3l4.1-2.8l0.5,0.2l-7.8,24.5l-0.6-0.1c1.4-5,2.2-9.4,2.2-13.2c0-4-1-6.3-3.4-6.3
		c-2.9,0-4.9,3-4.9,21.2c0,13.4,2.7,16.3,6.3,16.3c4,0,5.9-6.1,5.9-13.4h0.9c0,11.9-2.1,20.2-10.3,20.2c-6.7,0-11.2-6.4-11.2-22.4
		c0-15.3,4-26.6,13.5-26.6C92.8,48.8,94.4,49.7,95.6,51.3z"/>
	<path class="st0" d="M124.6,50.1l-0.4,9.6h0.4c0-3.9,3.1-10.9,9.1-10.9v23.8h-0.6v-6.7l-3.1-7.7c-3.1,0-5.3,4.8-5.3,9.7v24.2l5,4
		v0.6H112V96l4.1-4V54.5l-4.1-3.8v-0.6C112,50.1,124.6,50.1,124.6,50.1z"/>
	<path class="st0" d="M169.4,72.9c0,19.5-4.2,24.9-11.1,24.9c-8,0-11.9-7.3-11.9-23.3c0-15.3,2.9-25.7,12.4-25.7
		C166.3,48.8,169.4,54.2,169.4,72.9z M168.8,73h-14.2c0,11.8,1.6,18.1,6.6,18.1C165.3,91.1,168.8,85.1,168.8,73z M154.8,69h7.9
		c0-12.6-1.4-16.6-4-16.6C156.4,52.5,154.8,56.5,154.8,69z"/>
	<path class="st0" d="M206,72.9c0,19.5-4.2,24.9-11.1,24.9c-8,0-11.9-7.3-11.9-23.3c0-15.3,2.9-25.7,12.4-25.7
		C203,48.8,206,54.2,206,72.9z M205.5,73h-14.2c0,11.8,1.6,18.1,6.6,18.1C202,91.1,205.5,85.1,205.5,73z M191.4,69h7.9
		c0-12.6-1.4-16.6-4-16.6C193.1,52.5,191.4,56.5,191.4,69z"/>
	<path class="st0" d="M229.8,50.1l-0.4,9.1h0.3c1.5-6.3,4.8-10,8.9-10c6.7,0,7.4,5.8,7.4,13.9v29.2l4.1,3.7v0.6h-32.5V96l4.1-3.8
		V54.5l-4.1-3.8v-0.6C217.6,50.1,229.8,50.1,229.8,50.1z M230.2,66.4v25.8l4,3.8l3.3-3.8v-31c0-4.3-0.8-5.7-2.5-5.7
		C232.5,55.6,230.2,60.7,230.2,66.4z"/>
	<path class="st0" d="M275,50.1v42.2l4.1,3.7v0.6h-16.7V96l4.1-3.8V54.5l-4.1-3.8v-0.6C262.4,50.1,275,50.1,275,50.1z M275.5,39.8
		c0,2.6-2.2,4.8-4.8,4.8c-2.6,0-4.8-2.2-4.8-4.8s2.2-4.8,4.8-4.8C273.3,35,275.5,37.2,275.5,39.8z"/>
	<path class="st0" d="M303.4,50.1l-0.4,9.1h0.3c1.5-6.3,4.8-10,8.9-10c6.7,0,7.4,5.8,7.4,13.9v29.2l4.1,3.8v0.6h-32.5V96l4.1-3.8
		V54.5l-4.1-3.8v-0.6C291.2,50.1,303.4,50.1,303.4,50.1z M303.9,66.4v25.8l4,3.8l3.3-3.8v-31c0-4.3-0.8-5.7-2.5-5.7
		C306.1,55.6,303.9,60.7,303.9,66.4z"/>
	<path class="st0" d="M363.6,50.1v0.6l-4.1,3.8v38.4c0,13.6-3.2,20.9-13.2,20.9c-7.2,0-10.3-4.7-10.3-10.5c0-4,1.4-7.9,4-12.1
		c-2.6-3.9-4-10.1-4-17.3c0-10.4,3.1-23.8,13-23.8C349,50.1,363.6,50.1,363.6,50.1z M340.4,91.9c-1.6,3-2.2,5.6-2.2,8.3
		c0,5,2.5,7.9,6.4,7.9c5,0,6.6-4.1,6.6-12.9v-0.6c-1.3,0.5-2.9,0.7-4.3,0.7C344.2,95.3,342.1,94.1,340.4,91.9z M344.2,72.8
		c0,11,1.6,18.4,5.6,18.4c0.4,0,0.8-0.1,1.2-0.3V52.8C347.8,52.8,344.2,58.5,344.2,72.8z"/>
</g>
</svg>
