<?xml version="1.0" encoding="utf-8"?>
<!-- Generator: Adobe Illustrator 25.0.1, SVG Export Plug-In . SVG Version: 6.00 Build 0)  -->
<svg version="1.1" id="레이어_1" xmlns="http://www.w3.org/2000/svg" xmlns:xlink="http://www.w3.org/1999/xlink" x="0px"
	 y="0px" viewBox="0 0 337.8 135.3" style="enable-background:new 0 0 337.8 135.3;" xml:space="preserve">
<style type="text/css">
	.st0{fill:#00FF00;}
</style>
<g>
	<path class="st0" d="M33.2,22l5.8-3.4l0.6,0.4L25,53.8c6.7,8.8,14.4,18.5,14.4,32.5c0,14-6.2,23.1-18.4,23.1
		c-4.4,0-10-1.3-13.1-4.3l-7.2,3.8L0,108.6l17.4-41.4C11.3,59.4,5.2,51.1,5.2,38.4C5.2,24,13.1,17,21.8,17
		C27.4,17,29.8,18.5,33.2,22z M18.2,68.3c-5.8,14.9-7.9,34.2,2.8,34.2c5.9,0,7.8-4.5,7.8-11.5C28.7,81.9,23.6,75.3,18.2,68.3z
		 M24.2,52.8c3.2-7.6,6.7-28.7-2.9-28.7c-3.8,0-6.4,3-6.4,8.8C14.9,40,19.2,46.2,24.2,52.8z"/>
	<path class="st0" d="M67.9,44.2l5.8-3.9l0.6,0.3l-11,34.3l-0.9-0.1c2-6.9,3.2-13.1,3.2-18.5c0-5.5-1.4-8.8-4.8-8.8
		c-4,0-6.8,4.2-6.8,29.8c0,18.8,3.8,22.8,8.8,22.8c5.5,0,8.3-8.6,8.3-18.8h1.3c0,16.6-2.9,28.2-14.4,28.2c-9.3,0-15.8-9-15.8-31.4
		c0-21.4,5.5-37.3,18.9-37.3C64,40.7,66.3,41.9,67.9,44.2z"/>
	<path class="st0" d="M93.5,42.4l-0.6,13.5h0.5c0-5.4,4.4-15.3,12.7-15.3v33.4h-0.9v-9.5l-4.3-10.8c-4.4,0-7.4,6.7-7.4,13.6v33.9
		l7.1,5.5v0.9H75.8v-0.9l5.8-5.5V48.6l-5.8-5.3v-0.9H93.5z"/>
	<path class="st0" d="M141,74.4c0,27.4-5.9,34.9-15.5,34.9c-11.2,0-16.6-10.2-16.6-32.7c0-21.4,4-36.1,17.4-36.1
		C136.7,40.7,141,48.2,141,74.4z M140.3,74.6h-19.9c0,16.5,2.3,25.3,9.2,25.3C135.4,99.9,140.3,91.5,140.3,74.6z M120.6,69h11.1
		c0-17.7-2-23.2-5.5-23.2C122.9,45.8,120.6,51.5,120.6,69z"/>
	<path class="st0" d="M177.2,74.4c0,27.4-5.9,34.9-15.5,34.9c-11.2,0-16.6-10.2-16.6-32.7c0-21.4,4-36.1,17.4-36.1
		C173,40.7,177.2,48.2,177.2,74.4z M176.5,74.6h-19.9c0,16.5,2.3,25.3,9.2,25.3C171.6,99.9,176.5,91.5,176.5,74.6z M156.8,69h11.1
		c0-17.7-2-23.2-5.5-23.2C159.1,45.8,156.8,51.5,156.8,69z"/>
	<path class="st0" d="M195.4,42.4l-0.5,12.7h0.4c2.1-8.8,6.7-14,12.5-14c9.3,0,10.3,8.2,10.3,19.5v40.9l5.8,5.3v0.9h-45.5v-0.9
		l5.8-5.3v-53l-5.8-5.3v-0.9H195.4z M196,65.4v36.2l5.5,5.3l4.7-5.3V58.2c0-6.1-1.1-7.9-3.5-7.9C199.2,50.2,196,57.3,196,65.4z"/>
	<path class="st0" d="M243.5,42.4v59.1l5.8,5.3v0.9h-23.5v-0.9l5.8-5.3v-53l-5.8-5.3v-0.9H243.5z M244.3,28c0,3.7-3,6.7-6.7,6.7
		s-6.7-3-6.7-6.7s3-6.7,6.7-6.7S244.3,24.4,244.3,28z"/>
	<path class="st0" d="M268.3,42.4l-0.5,12.7h0.4c2.1-8.8,6.7-14,12.5-14c9.3,0,10.3,8.2,10.3,19.5v40.9l5.8,5.3v0.9h-45.5v-0.9
		l5.8-5.3v-53l-5.8-5.3v-0.9H268.3z M268.9,65.4v36.2l5.5,5.3l4.7-5.3V58.2c0-6.1-1.1-7.9-3.5-7.9C272.1,50.2,268.9,57.3,268.9,65.4
		z"/>
	<path class="st0" d="M337.5,42.4v0.9l-5.8,5.3v53.8c0,19-4.5,29.3-18.5,29.3c-10.1,0-14.5-6.6-14.5-14.8c0-5.7,2-11.1,5.5-17
		c-3.7-5.4-5.5-14.1-5.5-24.2c0-14.6,4.3-33.3,18.2-33.3H337.5z M304.9,101c-2.3,4.2-3.2,7.8-3.2,11.6c0,6.9,3.5,11.1,9,11.1
		c7.1,0,9.2-5.8,9.2-18v-0.9c-1.8,0.6-4,1-6.1,1C310.2,105.8,307.3,104.1,304.9,101z M310.4,74.3c0,15.4,2.3,25.7,7.8,25.7
		c0.5,0,1.1-0.1,1.6-0.4V46.2C315.4,46.2,310.4,54.3,310.4,74.3z"/>
</g>
</svg>
