<svg id="레이어_1" data-name="레이어 1" xmlns="http://www.w3.org/2000/svg" viewBox="0 0 160 40"><defs><style>.cls-1{fill:#c8a8e3;}.cls-2{fill:#9150c8;}</style></defs><title>logo대지 1</title><path class="cls-1" d="M12.5,0S0,0,0,12.5v15S0,40,12.5,40h135S160,40,160,27.5v-15S160,0,147.5,0Z"/><path class="cls-2" d="M25.14,23l-1,3h-1.7L26.8,14h2.4l4.38,12H31.84l-1-3a7.69,7.69,0,0,1-2.76.44A8.4,8.4,0,0,1,25.14,23Zm.32-.94h5l-.78-2.26c-.5-1.48-1.06-3.26-1.38-4.56h-.6c-.36,1.3-1,3.08-1.5,4.56Z"/><path class="cls-2" d="M41.8,24.08c-1.2,1.2-2.42,2.08-3.9,2.08-1.76,0-2.72-1.26-2.72-4.48,0-3.72,1.72-5.1,4-5.1a6.36,6.36,0,0,1,2.66.7V12.6h1.6V26H41.8Zm-.26-.72a7.36,7.36,0,0,0,.26-2.16v-3A14.12,14.12,0,0,0,39.74,18a10.06,10.06,0,0,0-2.7.3,15.06,15.06,0,0,0-.24,3.08c0,2.66.62,3.3,1.9,3.3A5.43,5.43,0,0,0,41.54,23.36Z"/><path class="cls-2" d="M53.42,24.08c-1.2,1.2-2.42,2.08-3.9,2.08-1.76,0-2.72-1.26-2.72-4.48,0-3.72,1.72-5.1,4-5.1a6.36,6.36,0,0,1,2.66.7V12.6H55V26h-1.6Zm-.26-.72a7.36,7.36,0,0,0,.26-2.16v-3A14.12,14.12,0,0,0,51.36,18a10.06,10.06,0,0,0-2.7.3,15.06,15.06,0,0,0-.24,3.08c0,2.66.62,3.3,1.9,3.3A5.43,5.43,0,0,0,53.16,23.36Z"/><path class="cls-2" d="M63.82,22.56h1.64c0,1.76.92,2.24,3.24,2.24a5.38,5.38,0,0,0,2.56-.58,4.27,4.27,0,0,0,.14-1c0-1.24-.8-1.82-2.94-2.38-3.24-.86-4.26-1.76-4.26-3.66s1.54-3.34,4.48-3.34,4.08,1.14,3.94,3.7H71c0-1.78-.6-2.28-2.56-2.28a9.09,9.09,0,0,0-2.66.36,5.24,5.24,0,0,0-.1,1.1c0,1.34.74,2,3.28,2.68,3.46.92,4,2,4,3.66,0,2-1.52,3.18-4.42,3.18C65,26.2,63.7,25.08,63.82,22.56Z"/><path class="cls-2" d="M79.12,16.78h5.52v1.4a32.26,32.26,0,0,1-5.52-.36v4.24c0,1.64.34,2.74,2.4,2.74a4.31,4.31,0,0,0,1.38-.14,7.46,7.46,0,0,0,.2-2.24h1.64c0,2.52-.88,3.78-3.58,3.78-2.18,0-3.64-.84-3.64-3.82v-4.2h-2.2v-1.4h2.2V14.62h1.6Z"/><path class="cls-2" d="M87.76,14.5V12.6h1.92v1.9ZM87.92,26V16.78h1.6V26Z"/><path class="cls-2" d="M99.82,24.64c0-.5.06-1,.06-1.34h1.6c.08,2-1.2,2.9-4,2.9s-4.36-1-4.36-4.7c0-3.1,1.4-4.92,4.56-4.92,2.74,0,3.84,1.28,3.72,3.7h-1.6c0-1.82-.5-2.3-2.4-2.3a8.14,8.14,0,0,0-2.06.22,7.84,7.84,0,0,0-.6,3c0,2,.4,3.6,2.92,3.6A9,9,0,0,0,99.82,24.64Z"/><path class="cls-2" d="M105.18,26V12.6h1.6v8.24h2.3a21.52,21.52,0,0,0,2.78-4.06h1.94a17.62,17.62,0,0,1-3.68,4.5L114.2,26h-2.14l-3.12-4.1h-2.16V26Z"/><path class="cls-2" d="M123.1,24.56a8.33,8.33,0,0,0,.06-1.16h1.52v.18c0,1.78-1.26,2.62-3.9,2.62-2.94,0-4.56-1.22-4.56-4.7,0-3.1,1.46-4.92,4.7-4.92,2.62,0,3.86,1.38,3.86,3.82a11.21,11.21,0,0,1-.1,1.38H117.8c.1,1.74.72,3,3.28,3A6.22,6.22,0,0,0,123.1,24.56Zm-4.86-6.32a8.44,8.44,0,0,0-.46,2.86,25.85,25.85,0,0,1,5.38-.56c-.06-1.88-.62-2.58-2.58-2.58A11.91,11.91,0,0,0,118.24,18.24Z"/><path class="cls-2" d="M136.62,19.12v1.94H135V19.7c0-1.12-.4-1.7-1.58-1.7a4.61,4.61,0,0,0-3.16,1.22,7.08,7.08,0,0,0-.26,2.12V26h-1.6V16.78H130v1.7a4.91,4.91,0,0,1,3.8-1.9C135.5,16.58,136.62,17.3,136.62,19.12Z"/></svg>