<?xml version="1.0" encoding="utf-8"?>
<!-- Generator: Adobe Illustrator 25.0.1, SVG Export Plug-In . SVG Version: 6.00 Build 0)  -->
<svg version="1.1" id="레이어_1" xmlns="http://www.w3.org/2000/svg" xmlns:xlink="http://www.w3.org/1999/xlink" x="0px"
	 y="0px" viewBox="0 0 212.6 136.1" style="enable-background:new 0 0 212.6 136.1;" xml:space="preserve">
<style type="text/css">
	.st0{fill:#0000FF;}
</style>
<g>
	<g>
		<path class="st0" d="M11.7,28.5c0,5.9-1.6,7.7-4.4,7.7c-3.8,0-4.9-2.8-4.9-7.9v-16H0V12l6.9-8.1L7.1,4v5.6h4.6V28.5z M7.1,12.3
			v15.1c0,4.7,0.7,5.5,2,5.5s2.2-0.9,2.2-4.5V16.6L10,12.3H7.1z"/>
		<path class="st0" d="M20,0v9.6l-0.5,5h0.2c0.9-3.5,2.6-5.5,5-5.5c3.7,0,4.1,3.2,4.1,7.8V33l2.3,2.1v0.3H12.9v-0.3l2.3-2.1V2.5
			l-2.3-2.1V0H20z M20,18.7V33l2.2,2.1L24,33V15.9c0-2.4-0.5-3.1-1.4-3.1C21.2,12.7,20,15.5,20,18.7z"/>
		<path class="st0" d="M44.9,22.3c0,10.9-2.4,13.9-6.2,13.9c-4.5,0-6.6-4.1-6.6-13c0-8.5,1.6-14.3,6.9-14.3
			C43.2,8.9,44.9,11.9,44.9,22.3z M44.6,22.3h-7.9c0,6.5,0.9,10,3.7,10C42.7,32.4,44.6,29,44.6,22.3z M36.8,20.1h4.4
			c0-7-0.8-9.2-2.2-9.2C37.7,10.9,36.8,13.2,36.8,20.1z"/>
		<path class="st0" d="M32,50c6.1,0,8.5,3.9,8.5,11.1c0,4-1.2,7-4,8.6c0.8,1,1.4,2.5,2.1,4.8L42.2,86c-0.6,0-1.1,0-1.6,0
			c-3,0-4.1-1.6-5-4.8l-2.9-10.4c-0.5,0-1,0-1.6,0V83l2.8,2.2v0.3h-9.8v-0.3l2.3-2.2V52.5l-2.3-2.2V50H32z M31.1,68.3h0.5
			c3.1,0,3.9-0.8,3.9-7.3c0-6.6-1.6-8.5-3.5-8.5h-0.8v15.8H31.1z"/>
		<path class="st0" d="M56.2,67.7V83l2.3,2.1v0.3h-9.6c-3.4,0-6-2.5-6-8c0-3.3,1.1-5.8,2.9-7.1c-1-0.9-1.9-2.7-1.9-4.7
			c0-4.2,2.5-6.9,6.2-6.9C53.6,58.9,56.2,61,56.2,67.7z M46.1,70.2c0.9-0.5,1.9-0.8,3.1-0.8c0.8,0,1.5,0,2.3,0.2v-1.9
			c0-4-1-6.2-3.5-6.2c-1.9,0-3.6,1.3-3.6,4.2C44.4,67.6,45.1,69.3,46.1,70.2z M47.7,77.6c0,4.1,0.6,6,2.5,6c0.4,0,0.8-0.1,1.2-0.4
			V71c-0.1,0-0.3,0-0.4,0C48.3,71,47.7,73.5,47.7,77.6z"/>
		<path class="st0" d="M66,59.6V83l2.3,2.1v0.3H59v-0.3l2.3-2.1V62L59,59.9v-0.3C59,59.6,66,59.6,66,59.6z M66.3,53.9
			c0,1.5-1.2,2.6-2.7,2.6S61,55.3,61,53.9s1.2-2.7,2.7-2.7C65.2,51.2,66.3,52.4,66.3,53.9z"/>
		<path class="st0" d="M75.6,59.6l-0.2,5h0.2c0.9-3.5,2.6-5.5,5-5.5c3.7,0,4.1,3.2,4.1,7.8V83l2.3,2.1v0.3H68.8v-0.3l2.3-2.1V62
			l-2.3-2.1v-0.3C68.8,59.6,75.6,59.6,75.6,59.6z M75.9,68.7V83l2.2,2.1L80,83V65.8c0-2.4-0.5-3.2-1.4-3.2
			C77.1,62.7,75.9,65.5,75.9,68.7z"/>
		<path class="st0" d="M95.2,59.6v0.3L93,62l2.5,14.3c0.1,0.8,0.2,2.8,0.2,3h0.2c0-0.2,0-1.5,0-1.7c0.2-2.3,1.9-13.8,2.4-15.6
			l-2-2.1v-0.3h6.7v0.3l-1.9,2.1C99.2,68.9,96,86.8,96,92.4l2.5,2.2V95H92l1.1-8.2L88,62l-2-2.1v-0.3C86,59.6,95.2,59.6,95.2,59.6z"
			/>
		<path class="st0" d="M128.9,101.5l2.3-1.4l0.2,0.2l-5.8,13.8c2.7,3.5,5.7,7.4,5.7,12.9c0,5.6-2.5,9.2-7.3,9.2
			c-1.8,0-4-0.5-5.2-1.7l-2.9,1.5l-0.2-0.1l6.9-16.4c-2.4-3.1-4.9-6.4-4.9-11.5c0-5.7,3.2-8.5,6.6-8.5
			C126.6,99.5,127.5,100,128.9,101.5z M122.9,119.8c-2.3,5.9-3.2,13.6,1.1,13.6c2.3,0,3.1-1.8,3.1-4.5
			C127.1,125.2,125.1,122.6,122.9,119.8z M125.3,113.7c1.3-3,2.7-11.4-1.1-11.4c-1.5,0-2.6,1.2-2.6,3.5
			C121.6,108.6,123.3,111.1,125.3,113.7z"/>
		<path class="st0" d="M145.7,122.3c0,10.9-2.4,13.9-6.2,13.9c-4.5,0-6.6-4.1-6.6-13c0-8.5,1.6-14.3,6.9-14.3
			C144,108.9,145.7,111.9,145.7,122.3z M145.4,122.3h-7.9c0,6.5,0.9,10,3.7,10C143.4,132.4,145.4,129,145.4,122.3z M137.6,120.1h4.4
			c0-7-0.8-9.2-2.2-9.2C138.5,110.9,137.6,113.2,137.6,120.1z"/>
		<path class="st0" d="M161,117.7V133l2.3,2.1v0.3h-9.6c-3.4,0-6-2.5-6-8c0-3.3,1.1-5.8,2.9-7.1c-1-0.9-1.8-2.7-1.8-4.7
			c0-4.2,2.4-6.9,6.2-6.9C158.4,108.9,161,111,161,117.7z M150.9,120.2c0.8-0.5,1.9-0.8,3.1-0.8c0.8,0,1.5,0,2.3,0.2v-1.9
			c0-4-1-6.2-3.5-6.2c-1.8,0-3.5,1.3-3.5,4.2C149.2,117.6,149.9,119.3,150.9,120.2z M152.5,127.6c0,4.1,0.6,6,2.4,6
			c0.4,0,0.8-0.1,1.2-0.4V121c-0.1,0-0.3,0-0.4,0C153.1,121,152.5,123.5,152.5,127.6z"/>
		<path class="st0" d="M174.8,110.4l2-0.8l0.2,0.1l-5.1,10.1c2.2,2.5,4.8,5.1,4.8,9.2c0,4.5-3.2,7.2-6.3,7.2c-1.8,0-3.6-0.5-4.7-1.5
			l-2,0.8l-0.2-0.2l5.7-10.9c-2-2.5-4.2-5.2-4.2-8.7c0-4.6,3-6.9,5.8-6.9C172.5,108.9,173.8,109.3,174.8,110.4z M169.3,124.8
			l-0.2,0.5c-1.5,3.1-2.5,8.4,1,8.4c1.2,0,2.2-0.8,2.2-2.5C172.3,128.9,170.9,126.9,169.3,124.8z M171.6,119.4l0.5-1
			c2-3.9,1-7.2-1.2-7.2c-1.1,0-1.9,1-1.9,2.7C168.9,116.1,170.1,117.8,171.6,119.4z"/>
		<path class="st0" d="M193,123.2c0,8.9-1.7,13-7.1,13c-5.5,0-7.2-4.1-7.2-13c0-8.5,1.8-14.3,7.2-14.3S193,114.7,193,123.2z
			 M183.6,122.4c0,8.1,0.6,11.4,2.2,11.4c1.6,0,2.2-3.3,2.2-11.4c0-7.9-0.6-11.5-2.2-11.5C184.3,110.9,183.6,114.6,183.6,122.4z"/>
		<path class="st0" d="M201.3,109.6l-0.2,5h0.2c0.8-3.5,2.7-5.5,5-5.5c3.7,0,4.1,3.2,4.1,7.8V133l2.3,2.1v0.3h-18.1v-0.3l2.3-2.1
			v-21l-2.3-2.1v-0.3H201.3z M201.5,118.7V133l2.2,2.1l1.8-2.1v-17.2c0-2.4-0.4-3.2-1.4-3.2C202.8,112.7,201.5,115.5,201.5,118.7z"
			/>
	</g>
	<g>
		<path class="st0" d="M25.6,135.6c-0.5-0.3-0.8-0.8-1.1-1.4c-0.2-0.6-0.4-1.3-0.4-2s0.1-1.4,0.4-2s0.6-1.1,1.1-1.4
			c0.5-0.3,1-0.5,1.7-0.5s1.2,0.2,1.7,0.5s0.8,0.8,1.1,1.4c0.2,0.6,0.4,1.3,0.4,2s-0.1,1.4-0.4,2c-0.2,0.6-0.6,1.1-1.1,1.4
			c-0.5,0.3-1,0.5-1.7,0.5S26,135.9,25.6,135.6z M28.5,135.4c0.3-0.3,0.6-0.8,0.8-1.3s0.3-1.2,0.3-1.9s-0.1-1.3-0.3-1.9
			c-0.2-0.6-0.4-1-0.8-1.3c-0.3-0.3-0.8-0.5-1.2-0.5c-0.5,0-0.9,0.2-1.2,0.5c-0.3,0.3-0.6,0.8-0.8,1.3s-0.3,1.2-0.3,1.9
			s0.1,1.3,0.3,1.9c0.2,0.6,0.4,1,0.8,1.3s0.8,0.5,1.2,0.5S28.1,135.7,28.5,135.4z"/>
		<path class="st0" d="M31.8,135.8c0.4,0,0.7,0,0.9,0s0.3-0.1,0.4-0.2s0.1-0.3,0.1-0.6v-5H31v-0.2h1c0.4,0,0.8,0,1-0.1
			c0.2,0,0.4-0.2,0.5-0.4s0.2-0.5,0.2-1H34v6.6c0,0.3,0,0.5,0.1,0.6s0.2,0.2,0.4,0.2s0.5,0,0.9,0h0.8v0.2H31v-0.2L31.8,135.8
			L31.8,135.8z"/>
	</g>
</g>
<text transform="matrix(1 0 0 1 299.666 23.9487)"><tspan x="0" y="0" style="fill:#00FF00; font-family:'NotoSerifKR-Light-KSCpc-EUC-H'; font-size:10px;">권</tspan><tspan x="0" y="12" style="fill:#00FF00; font-family:'NotoSerifKR-Light-KSCpc-EUC-H'; font-size:10px;">세</tspan><tspan x="0" y="24" style="fill:#00FF00; font-family:'NotoSerifKR-Light-KSCpc-EUC-H'; font-size:10px;">정</tspan></text>
</svg>
