<?xml version="1.0" encoding="utf-8"?>
<!-- Generator: Adobe Illustrator 25.0.1, SVG Export Plug-In . SVG Version: 6.00 Build 0)  -->
<svg version="1.1" id="레이어_1" xmlns="http://www.w3.org/2000/svg" xmlns:xlink="http://www.w3.org/1999/xlink" x="0px"
	 y="0px" viewBox="0 0 293.4 56.9" style="enable-background:new 0 0 293.4 56.9;" xml:space="preserve">
<style type="text/css">
	.st0{fill:#0000FF;}
</style>
<g>
	<g>
		<path class="st0" d="M184.1,7.7c0,4-0.5,7-3.2,7s-3.2-2.9-3.2-7c0-3.6,0.8-7.7,3.2-7.7S184.1,4.1,184.1,7.7z M179.7,7.3
			c0,4.7,0.1,6.3,1.1,6.3c1.1,0,1.2-1.6,1.2-6.3c0-4-0.4-6.2-1.2-6.2C180.1,1,179.7,3.3,179.7,7.3z"/>
		<path class="st0" d="M187.1,2c0,2.1-1.1,5.3-1.9,7.2h2.2V2.9c0.7-0.8,1.1-1.7,1.5-2.9h0.1v9.2h1.5v1.4H189v2.8l1.1,0.9v0.1h-3.7
			v-0.1l1-0.9v-2.8h-2.9c1-2.1,1.4-4.2,1.4-5.9c0-1.9-0.5-3.2-1.3-3.2c0-1,0.6-1.5,1.1-1.5C186.7,0,187.1,0.8,187.1,2z"/>
	</g>
	<g>
		<path class="st0" d="M14.2,22.1v1c-1.8,0-3,0.1-3.6,0.2c-0.7,0.2-1,0.6-1,1.2c0,0.3,0.1,0.9,0.5,1.7l11,26.1L32,26.4
			c0.4-0.9,0.5-1.5,0.5-1.9c0-0.6-0.3-1-1-1.2s-1.9-0.2-3.6-0.2v-1h11.6v1c-1.4,0-2.4,0.1-3.1,0.2c-0.7,0.1-1.2,0.4-1.7,0.8
			c-0.4,0.4-0.9,1.2-1.3,2.2l-13,30.6H19L6,26.3c-0.5-1-0.9-1.7-1.4-2.2c-0.5-0.4-1-0.7-1.7-0.8C2.4,23.1,1.4,23,0,23v-1h14.2V22.1z
			"/>
		<path class="st0" d="M45.6,31.9v19.6c0,1.3,0.1,2.2,0.4,2.8c0.3,0.6,0.8,0.9,1.4,1c0.6,0.1,1.7,0.2,3.2,0.2v1H37.1v-1
			c1.5,0,2.6-0.1,3.2-0.2c0.6-0.1,1.1-0.5,1.4-1c0.3-0.6,0.5-1.5,0.5-2.8V37.7c0-0.9-0.1-1.6-0.2-1.9c-0.2-0.3-0.5-0.5-0.9-0.5
			c-0.7,0-2,0.5-3.9,1.6l-0.4-0.7l8.5-4.8L45.6,31.9z M41.6,22.3c0.6-0.5,1.4-0.7,2.3-0.7s1.7,0.2,2.3,0.7s0.9,1,0.9,1.6
			c0,0.7-0.3,1.2-0.9,1.7c-0.6,0.5-1.4,0.7-2.3,0.7s-1.7-0.2-2.3-0.7s-0.9-1-0.9-1.7C40.7,23.3,41,22.7,41.6,22.3z"/>
		<path class="st0" d="M57.7,53.3c1.9,1.8,4.3,2.6,7,2.6c1.4,0,2.5-0.3,3.6-0.8c1-0.6,1.8-1.3,2.4-2.3s0.8-2,0.8-3.1
			c0-1.8-0.5-3.2-1.6-4.3c-1.1-1-2.4-1.6-4-1.6c-0.8,0-1.8,0.2-3,0.5c-1.4,0.3-2.5,0.5-3.5,0.5c-1.2,0-2.4-0.3-3.4-0.8
			s-1.9-1.3-2.5-2.2s-0.9-2-0.9-3.2c0-1.3,0.4-2.4,1.1-3.5c0.7-1.1,1.8-2,3.2-2.6c1.4-0.7,3.1-1,5-1c2.7,0,5.2,0.8,7.4,2.2l0.6-2.2
			h0.8l4.6,9.4l-0.6,0.5c-1.5-2.8-3.3-5-5.3-6.6c-2-1.5-4.2-2.3-6.5-2.3c-1.9,0-3.5,0.5-4.7,1.6s-1.8,2.5-1.8,4.3
			c0,1.5,0.5,2.7,1.4,3.7s2.2,1.5,3.7,1.5c0.7,0,1.8-0.2,3-0.5c1.4-0.3,2.5-0.5,3.5-0.5c1.4,0,2.6,0.3,3.7,0.9
			c1.1,0.6,2,1.4,2.6,2.4s0.9,2.1,0.9,3.4c0,1.4-0.4,2.7-1.3,3.8c-0.8,1.2-2,2.1-3.4,2.8c-1.5,0.7-3.1,1-4.8,1
			c-2.9,0-5.5-0.8-7.6-2.3l-0.7,2.3h-0.8l-5-10.4l0.6-0.5C53.9,49.1,55.7,51.5,57.7,53.3z"/>
		<path class="st0" d="M85.7,31.9v15.3c0,2.6,0.6,4.6,1.7,5.9c1.1,1.3,2.6,1.9,4.5,1.9c1.2,0,2.3-0.3,3.4-1s2.1-1.7,2.8-3.2
			c0.7-1.5,1.1-3.4,1.1-5.7V37c0-1.3-0.2-2.2-0.4-2.8c-0.3-0.6-0.8-0.9-1.4-1S95.7,33,94.2,33v-1h8.5v18.9c0,1,0.1,1.8,0.2,2.2
			c0.2,0.4,0.5,0.7,1,0.7c0.7,0,2-0.3,3.8-1l0.3,0.8l-9,3.5l-0.5-0.5l1.2-7.5c-0.4,1.8-1.1,3.3-2.1,4.5s-2.1,2.1-3.4,2.6
			c-1.2,0.6-2.5,0.9-3.8,0.9c-2.4,0-4.4-0.8-5.9-2.4c-1.5-1.6-2.3-3.8-2.3-6.6V36.8c0-1.3-0.2-2.2-0.5-2.8s-0.8-0.9-1.4-1
			s-1.7-0.2-3.2-0.2v-1h8.6V31.9z"/>
		<path class="st0" d="M115.2,34.2c2.3-1.9,5-2.8,8.3-2.8c2.7,0,4.9,0.7,6.6,2.1c1.7,1.4,2.5,3.5,2.5,6.4V51c0,2.6,0.8,3.9,2.5,3.9
			c1.5,0,2.6-1.2,3.3-3.6h0.8c-0.4,1.7-1.1,3.1-2,4.1s-2.1,1.5-3.4,1.5c-1.4,0-2.5-0.5-3.3-1.5s-1.2-2.4-1.2-4.4v-3.6
			c-0.7,2.9-1.8,5.1-3.5,6.9c-1.7,1.7-3.8,2.6-6.5,2.6c-2.1,0-3.9-0.6-5.3-1.8s-2.1-2.8-2.1-4.8c0-3.5,2.9-6,8.8-7.3l2.6-0.7
			c3.8-1,5.7-2.7,5.7-5.3c0-1.3-0.5-2.4-1.5-3.2c-1-0.9-2.3-1.3-4-1.3s-3.2,0.4-4.5,1.3c-1.3,0.9-2.3,2-3,3.4s-1.2,3-1.3,4.6h-4.2
			C111.3,38.6,112.9,36,115.2,34.2z M117,53.5c1,0.9,2.2,1.4,3.7,1.4s2.9-0.6,4.2-1.7c1.3-1.1,2.3-2.7,3.1-4.7
			c0.7-2,1.1-4.3,1.1-6.9v-2.3c-0.5,1-1.2,1.8-2.1,2.4c-0.9,0.6-1.9,1.1-3,1.4l-2.7,0.9c-2,0.6-3.5,1.4-4.4,2.5s-1.4,2.3-1.4,3.6
			C115.6,51.5,116.1,52.6,117,53.5z"/>
		<path class="st0" d="M147.6,21.1v30.4c0,1.3,0.2,2.2,0.4,2.8c0.3,0.6,0.8,0.9,1.4,1s1.7,0.2,3.2,0.2v1H139v-1
			c1.5,0,2.6-0.1,3.2-0.2c0.6-0.1,1.1-0.5,1.4-1c0.3-0.6,0.5-1.5,0.5-2.8V26.9c0-0.9-0.1-1.6-0.2-1.9c-0.2-0.3-0.5-0.5-0.9-0.5
			c-0.7,0-2,0.5-3.9,1.6l-0.4-0.7l8.5-4.8L147.6,21.1z"/>
		<path class="st0" d="M178.8,55.2c0.8-0.1,1.3-0.5,1.6-1s0.5-1.5,0.5-2.8V27c0-1.3-0.2-2.2-0.5-2.8s-0.9-0.9-1.6-1
			c-0.8-0.1-2.1-0.2-4-0.2v-1h26.9l4.7,10.5l-0.7,0.5c-1.5-2.7-2.8-4.7-3.8-6s-2.2-2.3-3.5-3s-3-1-5-1h-8.9v14.4h9.3
			c1.5,0,2.6-0.2,3.4-0.5c0.7-0.3,1.3-0.9,1.6-1.8c0.3-0.8,0.4-2.1,0.4-3.8h0.9v14.8h-0.9c0-2.2-0.1-3.8-0.4-4.9
			c-0.3-1.1-0.8-1.8-1.6-2.2s-1.9-0.6-3.4-0.6h-9.3v13c0,1.3,0.2,2.3,0.6,2.8c0.4,0.5,1,0.8,1.9,1c0.9,0.1,2.6,0.2,5,0.2v1h-17.1v-1
			C176.8,55.4,178.1,55.3,178.8,55.2z"/>
		<path class="st0" d="M215.1,31.9v19.6c0,1.3,0.2,2.2,0.5,2.8s0.8,0.9,1.4,1c0.6,0.1,1.7,0.2,3.2,0.2v1h-13.6v-1
			c1.5,0,2.6-0.1,3.2-0.2c0.6-0.1,1.1-0.5,1.4-1c0.3-0.6,0.4-1.5,0.4-2.8V37.7c0-0.9-0.1-1.6-0.2-1.9c-0.2-0.3-0.5-0.5-0.9-0.5
			c-0.7,0-2,0.5-3.9,1.6l-0.4-0.7l8.5-4.8L215.1,31.9z M211.1,22.3c0.6-0.5,1.4-0.7,2.3-0.7c0.9,0,1.7,0.2,2.3,0.7s0.9,1,0.9,1.6
			c0,0.7-0.3,1.2-0.9,1.7c-0.6,0.5-1.4,0.7-2.3,0.7c-0.9,0-1.7-0.2-2.3-0.7s-0.9-1-0.9-1.7C210.2,23.3,210.5,22.7,211.1,22.3z"/>
		<path class="st0" d="M223.9,37.6c1.1-1.9,2.6-3.4,4.5-4.5c1.9-1.1,3.9-1.6,6.1-1.6c3.1,0,5.7,0.9,7.8,2.8c2.1,1.8,3.6,4.4,4.7,7.7
			h-20.8c-0.1,0.7-0.1,1.3-0.1,1.7c0,2.2,0.4,4.2,1.3,6c0.9,1.7,2,3.1,3.5,4s3.1,1.4,4.9,1.4c2.2,0,4.1-0.7,5.9-2.1
			c1.7-1.4,3.1-3.5,4.1-6.5l0.7,0.4c-0.9,2.8-2.3,5.2-4.2,7.2s-4.4,3-7.4,3c-2.2,0-4.2-0.6-6.2-1.7c-1.9-1.1-3.5-2.7-4.6-4.7
			s-1.7-4.1-1.7-6.5S222.8,39.5,223.9,37.6z M239.9,34.8c-1.4-1.6-3.1-2.4-5.3-2.4c-2,0-3.8,0.8-5.4,2.3c-1.6,1.6-2.6,3.6-3,6.1
			h16.3C242.2,38.4,241.3,36.4,239.9,34.8z"/>
		<path class="st0" d="M257.2,21.1v30.4c0,1.3,0.2,2.2,0.5,2.8s0.8,0.9,1.4,1s1.7,0.2,3.2,0.2v1h-13.6v-1c1.5,0,2.6-0.1,3.2-0.2
			c0.6-0.1,1.1-0.5,1.4-1c0.3-0.6,0.4-1.5,0.4-2.8V26.9c0-0.9-0.1-1.6-0.2-1.9c-0.2-0.3-0.5-0.5-0.9-0.5c-0.7,0-2,0.5-3.9,1.6
			l-0.4-0.7l8.5-4.8L257.2,21.1z"/>
		<path class="st0" d="M265.8,37.5c1-1.9,2.4-3.5,4.2-4.5s3.7-1.6,5.7-1.6s3.8,0.5,5.3,1.5c1.5,1,2.7,2.3,3.6,3.9v-9.9
			c0-0.9-0.1-1.6-0.2-1.9c-0.2-0.3-0.5-0.5-0.9-0.5c-0.7,0-2,0.5-3.9,1.6l-0.4-0.7l8.5-4.8l0.4,0.5v29.7c0,1,0.1,1.8,0.3,2.2
			c0.2,0.5,0.5,0.7,1.1,0.7c0.7,0,2-0.3,3.8-1l0.3,0.8l-9.1,3.5l-0.5-0.5l1.3-8c-0.8,2.8-1.9,4.9-3.5,6.3c-1.6,1.4-3.6,2.2-5.9,2.2
			c-2,0-3.9-0.5-5.6-1.6s-3.2-2.6-4.2-4.6c-1.1-2-1.6-4.1-1.6-6.6S264.8,39.5,265.8,37.5z M269.3,49.9c0.8,1.6,1.9,2.9,3.2,3.7
			s2.7,1.3,4.2,1.3c2,0,3.7-0.7,5-2c1.4-1.3,2.4-3.3,2.9-6v-4.3c0-1.8-0.4-3.4-1.1-4.8s-1.7-2.5-2.9-3.3c-1.2-0.8-2.6-1.2-4-1.2
			c-1.5,0-2.9,0.4-4.2,1.3c-1.3,0.9-2.4,2.1-3.2,3.7c-0.8,1.6-1.2,3.5-1.2,5.8C268.1,46.4,268.5,48.3,269.3,49.9z"/>
	</g>
</g>
</svg>
