<?xml version="1.0" encoding="utf-8"?>
<!-- Generator: Adobe Illustrator 25.0.1, SVG Export Plug-In . SVG Version: 6.00 Build 0)  -->
<svg version="1.1" id="레이어_1" xmlns="http://www.w3.org/2000/svg" xmlns:xlink="http://www.w3.org/1999/xlink" x="0px"
	 y="0px" viewBox="0 0 500 300" style="enable-background:new 0 0 500 300;" xml:space="preserve">
<style type="text/css">
	.st0{fill:#0000FF;}
</style>
<g>
	<g>
		<path class="st0" d="M287.4,79.2c0,4-0.5,7-3.2,7s-3.2-2.9-3.2-7c0-3.6,0.8-7.7,3.2-7.7S287.4,75.7,287.4,79.2z M283,78.8
			c0,4.7,0.1,6.3,1.1,6.3c1.1,0,1.2-1.6,1.2-6.3c0-4-0.4-6.2-1.2-6.2C283.4,72.6,283,74.8,283,78.8z"/>
		<path class="st0" d="M290.4,73.6c0,2.1-1.1,5.3-1.9,7.2h2.2v-6.3c0.7-0.8,1.1-1.7,1.5-2.9h0.1v9.2h1.5v1.4h-1.5v2.8l1.1,0.9v0.1
			h-3.7v-0.1l1-0.9v-2.8h-2.9c1-2.1,1.4-4.2,1.4-5.9c0-1.9-0.5-3.2-1.3-3.2c0-1,0.6-1.5,1.1-1.5C290,71.6,290.4,72.3,290.4,73.6z"/>
	</g>
	<g>
		<path class="st0" d="M117.5,93.7v1c-1.8,0-3,0.1-3.6,0.2c-0.7,0.2-1,0.6-1,1.2c0,0.3,0.1,0.9,0.5,1.7l11,26.1L135.3,98
			c0.4-0.9,0.5-1.5,0.5-1.9c0-0.6-0.3-1-1-1.2c-0.7-0.2-1.9-0.2-3.6-0.2v-1h11.6v1c-1.4,0-2.4,0.1-3.1,0.2c-0.7,0.1-1.2,0.4-1.7,0.8
			c-0.4,0.4-0.9,1.2-1.3,2.2l-13,30.6h-1.4l-13-30.6c-0.5-1-0.9-1.7-1.4-2.2c-0.5-0.4-1-0.7-1.7-0.8c-0.5-0.2-1.5-0.3-2.9-0.3v-1
			L117.5,93.7L117.5,93.7z"/>
		<path class="st0" d="M148.9,103.4v19.6c0,1.3,0.1,2.2,0.4,2.8s0.8,0.9,1.4,1c0.6,0.1,1.7,0.2,3.2,0.2v1h-13.5v-1
			c1.5,0,2.6-0.1,3.2-0.2c0.6-0.1,1.1-0.5,1.4-1c0.3-0.6,0.5-1.5,0.5-2.8v-13.8c0-0.9-0.1-1.6-0.2-1.9c-0.2-0.3-0.5-0.5-0.9-0.5
			c-0.7,0-2,0.5-3.9,1.6l-0.4-0.7l8.5-4.8L148.9,103.4z M144.9,93.8c0.6-0.5,1.4-0.7,2.3-0.7c0.9,0,1.7,0.2,2.3,0.7s0.9,1,0.9,1.6
			c0,0.7-0.3,1.2-0.9,1.7s-1.4,0.7-2.3,0.7c-0.9,0-1.7-0.2-2.3-0.7c-0.6-0.5-0.9-1-0.9-1.7C144,94.8,144.3,94.2,144.9,93.8z"/>
		<path class="st0" d="M161,124.8c1.9,1.8,4.3,2.6,7,2.6c1.4,0,2.5-0.3,3.6-0.8c1-0.6,1.8-1.3,2.4-2.3s0.8-2,0.8-3.1
			c0-1.8-0.5-3.2-1.6-4.3c-1.1-1-2.4-1.6-4-1.6c-0.8,0-1.8,0.2-3,0.5c-1.4,0.3-2.5,0.5-3.5,0.5c-1.2,0-2.4-0.3-3.4-0.8
			s-1.9-1.3-2.5-2.2c-0.6-0.9-0.9-2-0.9-3.2c0-1.3,0.4-2.4,1.1-3.5s1.8-2,3.2-2.6c1.4-0.7,3.1-1,5-1c2.7,0,5.2,0.8,7.4,2.2l0.6-2.2
			h0.8l4.6,9.4l-0.6,0.5c-1.5-2.8-3.3-5-5.3-6.6c-2-1.5-4.2-2.3-6.5-2.3c-1.9,0-3.5,0.5-4.7,1.6c-1.2,1.1-1.8,2.5-1.8,4.3
			c0,1.5,0.5,2.7,1.4,3.7c0.9,1,2.2,1.5,3.7,1.5c0.7,0,1.8-0.2,3-0.5c1.4-0.3,2.5-0.5,3.5-0.5c1.4,0,2.6,0.3,3.7,0.9
			c1.1,0.6,2,1.4,2.6,2.4c0.6,1,0.9,2.1,0.9,3.4c0,1.4-0.4,2.7-1.3,3.8c-0.8,1.2-2,2.1-3.4,2.8c-1.5,0.7-3.1,1-4.8,1
			c-2.9,0-5.5-0.8-7.6-2.3l-0.7,2.3h-0.8l-5-10.4l0.6-0.5C157.2,120.6,159,123.1,161,124.8z"/>
		<path class="st0" d="M189,103.4v15.3c0,2.6,0.6,4.6,1.7,5.9c1.1,1.3,2.6,1.9,4.5,1.9c1.2,0,2.3-0.3,3.4-1c1.1-0.7,2.1-1.7,2.8-3.2
			c0.7-1.5,1.1-3.4,1.1-5.7v-8.1c0-1.3-0.2-2.2-0.4-2.8c-0.3-0.6-0.8-0.9-1.4-1s-1.7-0.2-3.2-0.2v-1h8.5v18.9c0,1,0.1,1.8,0.2,2.2
			c0.2,0.4,0.5,0.7,1,0.7c0.7,0,2-0.3,3.8-1l0.3,0.8l-9,3.5l-0.5-0.5l1.2-7.5c-0.4,1.8-1.1,3.3-2.1,4.5s-2.1,2.1-3.4,2.6
			c-1.2,0.6-2.5,0.9-3.8,0.9c-2.4,0-4.4-0.8-5.9-2.4c-1.5-1.6-2.3-3.8-2.3-6.6v-11.3c0-1.3-0.2-2.2-0.5-2.8c-0.3-0.6-0.8-0.9-1.4-1
			c-0.6-0.1-1.7-0.2-3.2-0.2v-1L189,103.4L189,103.4z"/>
		<path class="st0" d="M218.5,105.8c2.3-1.9,5-2.8,8.3-2.8c2.7,0,4.9,0.7,6.6,2.1c1.7,1.4,2.5,3.5,2.5,6.4v11.1
			c0,2.6,0.8,3.9,2.5,3.9c1.5,0,2.6-1.2,3.3-3.6h0.8c-0.4,1.7-1.1,3.1-2,4.1s-2.1,1.5-3.4,1.5c-1.4,0-2.5-0.5-3.3-1.5
			s-1.2-2.4-1.2-4.4v-3.6c-0.7,2.9-1.8,5.1-3.5,6.9c-1.7,1.7-3.8,2.6-6.5,2.6c-2.1,0-3.9-0.6-5.3-1.8s-2.1-2.8-2.1-4.8
			c0-3.5,2.9-6,8.8-7.3l2.6-0.7c3.8-1,5.7-2.7,5.7-5.3c0-1.3-0.5-2.4-1.5-3.2c-1-0.9-2.3-1.3-4-1.3s-3.2,0.4-4.5,1.3
			c-1.3,0.9-2.3,2-3,3.4c-0.7,1.4-1.2,3-1.3,4.6h-4.2C214.6,110.1,216.2,107.6,218.5,105.8z M220.3,125.1c1,0.9,2.2,1.4,3.7,1.4
			s2.9-0.6,4.2-1.7c1.3-1.1,2.3-2.7,3.1-4.7c0.7-2,1.1-4.3,1.1-6.9v-2.3c-0.5,1-1.2,1.8-2.1,2.4c-0.9,0.6-1.9,1.1-3,1.4l-2.7,0.9
			c-2,0.6-3.5,1.4-4.4,2.5s-1.4,2.3-1.4,3.6C218.9,123.1,219.4,124.1,220.3,125.1z"/>
		<path class="st0" d="M250.9,92.7v30.4c0,1.3,0.2,2.2,0.4,2.8c0.3,0.6,0.8,0.9,1.4,1s1.7,0.2,3.2,0.2v1h-13.6v-1
			c1.5,0,2.6-0.1,3.2-0.2c0.6-0.1,1.1-0.5,1.4-1c0.3-0.6,0.5-1.5,0.5-2.8V98.4c0-0.9-0.1-1.6-0.2-1.9c-0.2-0.3-0.5-0.5-0.9-0.5
			c-0.7,0-2,0.5-3.9,1.6l-0.4-0.7l8.5-4.8L250.9,92.7z"/>
		<path class="st0" d="M282.1,126.8c0.8-0.1,1.3-0.5,1.6-1s0.5-1.5,0.5-2.8V98.6c0-1.3-0.2-2.2-0.5-2.8s-0.9-0.9-1.6-1
			c-0.8-0.1-2.1-0.2-4-0.2v-1H305l4.7,10.5l-0.7,0.5c-1.5-2.7-2.8-4.7-3.8-6c-1-1.3-2.2-2.3-3.5-3c-1.3-0.7-3-1-5-1h-8.9v14.4h9.3
			c1.5,0,2.6-0.2,3.4-0.5c0.7-0.3,1.3-0.9,1.6-1.8c0.3-0.8,0.4-2.1,0.4-3.8h0.9v14.8h-0.9c0-2.2-0.1-3.8-0.4-4.9
			c-0.3-1.1-0.8-1.8-1.6-2.2c-0.8-0.4-1.9-0.6-3.4-0.6h-9.3v13c0,1.3,0.2,2.3,0.6,2.8c0.4,0.5,1,0.8,1.9,1c0.9,0.1,2.6,0.2,5,0.2v1
			h-17.1v-1C280.1,126.9,281.4,126.8,282.1,126.8z"/>
		<path class="st0" d="M318.4,103.4v19.6c0,1.3,0.2,2.2,0.5,2.8c0.3,0.6,0.8,0.9,1.4,1c0.6,0.1,1.7,0.2,3.2,0.2v1h-13.6v-1
			c1.5,0,2.6-0.1,3.2-0.2c0.6-0.1,1.1-0.5,1.4-1c0.3-0.6,0.4-1.5,0.4-2.8v-13.8c0-0.9-0.1-1.6-0.2-1.9c-0.2-0.3-0.5-0.5-0.9-0.5
			c-0.7,0-2,0.5-3.9,1.6l-0.4-0.7l8.5-4.8L318.4,103.4z M314.4,93.8c0.6-0.5,1.4-0.7,2.3-0.7c0.9,0,1.7,0.2,2.3,0.7
			c0.6,0.5,0.9,1,0.9,1.6c0,0.7-0.3,1.2-0.9,1.7c-0.6,0.5-1.4,0.7-2.3,0.7c-0.9,0-1.7-0.2-2.3-0.7c-0.6-0.5-0.9-1-0.9-1.7
			C313.5,94.8,313.8,94.2,314.4,93.8z"/>
		<path class="st0" d="M327.2,109.1c1.1-1.9,2.6-3.4,4.5-4.5c1.9-1.1,3.9-1.6,6.1-1.6c3.1,0,5.7,0.9,7.8,2.8
			c2.1,1.8,3.6,4.4,4.7,7.7h-20.8c-0.1,0.7-0.1,1.3-0.1,1.7c0,2.2,0.4,4.2,1.3,6c0.9,1.7,2,3.1,3.5,4s3.1,1.4,4.9,1.4
			c2.2,0,4.1-0.7,5.9-2.1c1.7-1.4,3.1-3.5,4.1-6.5l0.7,0.4c-0.9,2.8-2.3,5.2-4.2,7.2c-1.9,2-4.4,3-7.4,3c-2.2,0-4.2-0.6-6.2-1.7
			c-1.9-1.1-3.5-2.7-4.6-4.7s-1.7-4.1-1.7-6.5C325.7,113.4,326.1,111.1,327.2,109.1z M343.2,106.3c-1.4-1.6-3.1-2.4-5.3-2.4
			c-2,0-3.8,0.8-5.4,2.3c-1.6,1.6-2.6,3.6-3,6.1h16.3C345.5,109.9,344.6,107.9,343.2,106.3z"/>
		<path class="st0" d="M360.5,92.7v30.4c0,1.3,0.2,2.2,0.5,2.8s0.8,0.9,1.4,1c0.6,0.1,1.7,0.2,3.2,0.2v1H352v-1
			c1.5,0,2.6-0.1,3.2-0.2c0.6-0.1,1.1-0.5,1.4-1c0.3-0.6,0.4-1.5,0.4-2.8V98.4c0-0.9-0.1-1.6-0.2-1.9c-0.2-0.3-0.5-0.5-0.9-0.5
			c-0.7,0-2,0.5-3.9,1.6l-0.4-0.7l8.5-4.8L360.5,92.7z"/>
		<path class="st0" d="M369.1,109.1c1-1.9,2.4-3.5,4.2-4.5c1.8-1,3.7-1.6,5.7-1.6s3.8,0.5,5.3,1.5s2.7,2.3,3.6,3.9v-9.9
			c0-0.9-0.1-1.6-0.2-1.9c-0.2-0.3-0.5-0.5-0.9-0.5c-0.7,0-2,0.5-3.9,1.6l-0.4-0.7l8.5-4.8l0.4,0.5v29.7c0,1,0.1,1.8,0.3,2.2
			c0.2,0.5,0.5,0.7,1.1,0.7c0.7,0,2-0.3,3.8-1l0.3,0.8l-9.1,3.5l-0.5-0.5l1.3-8c-0.8,2.8-1.9,4.9-3.5,6.3c-1.6,1.4-3.6,2.2-5.9,2.2
			c-2,0-3.9-0.5-5.6-1.6s-3.2-2.6-4.2-4.6c-1.1-2-1.6-4.1-1.6-6.6S368.1,111.1,369.1,109.1z M372.6,121.4c0.8,1.6,1.9,2.9,3.2,3.7
			c1.3,0.8,2.7,1.3,4.2,1.3c2,0,3.7-0.7,5-2c1.4-1.3,2.4-3.3,2.9-6v-4.3c0-1.8-0.4-3.4-1.1-4.8c-0.7-1.4-1.7-2.5-2.9-3.3
			c-1.2-0.8-2.6-1.2-4-1.2c-1.5,0-2.9,0.4-4.2,1.3s-2.4,2.1-3.2,3.7c-0.8,1.6-1.2,3.5-1.2,5.8C371.4,117.9,371.8,119.8,372.6,121.4z
			"/>
	</g>
</g>
<g>
	<path class="st0" d="M192.8,244.8c-2.2,0-3.7-1.5-3.7-3.3s1.6-3.3,3.7-3.3c2.2,0,3.7,1.5,3.7,3.3S195,244.8,192.8,244.8z
		 M195.4,250.9c-2.1,0-5.1-0.4-5.1-2.5c0-2.2,2.9-2.6,5.1-2.6c2.2,0,5.1,0.4,5.1,2.6C200.5,250.6,197.6,250.9,195.4,250.9z
		 M192.8,239.9c-1,0-1.7,0.7-1.7,1.6s0.7,1.6,1.7,1.6s1.7-0.7,1.7-1.6S193.9,239.9,192.8,239.9z M195.4,247.3c-1,0-3.1,0.2-3.1,1.1
		c0,0.9,2,1,3.1,1c1.1,0,3.1-0.1,3.1-1C198.5,247.5,196.4,247.3,195.4,247.3z M200.4,244.1v1.4h-2v-8.2c0.3,0,1.2,0,1.6,0
		c0.8,0,0.4,0.4,0.4,0.6v1.2h1.8v1.7h-1.8v1.6h1.8v1.7H200.4z"/>
	<path class="st0" d="M218.7,225.8v1.9h-1.9v-1.9h-1.6v1.9h-1.9v-1.9h-4.4v-1.7h13.2v1.7H218.7z M215.4,222.9
		c-2.3,0-5.3-0.3-5.3-2.5c0-2.2,3.1-2.5,5.2-2.5c2.1,0,5.3,0.4,5.3,2.5C220.7,222.6,217.6,222.9,215.4,222.9z M210.5,230.7v-3.9
		c0.6,0,1.4,0,1.8,0c0.6,0,0.2,0.4,0.2,0.6v1.6h8.4v1.7H210.5z M215.4,219.4c-1.3,0-3.1,0.2-3.1,1c0,0.9,1.9,1,3.1,1
		c1.3,0,3.1-0.1,3.1-1C218.5,219.6,216.6,219.4,215.4,219.4z"/>
	<path class="st0" d="M234.6,208.5c-2.5,0.2-4,0.2-4.5,0.2c-0.2,0-0.8,0.4-0.9,0c-0.1-0.6-0.1-1.3-0.1-1.6c0.4,0,1.1,0,1.9,0
		c0.3,0,1.1,0,2-0.1l0-0.8c-0.4,0-2.4-0.3-2.4-2c0-1.7,2.2-2,3.3-2c1.1,0,3.1,0.3,3.1,2c0,1.6-1.8,1.9-2.3,2v0.7
		c0.9,0,1.6-0.1,1.6-0.1c0.9,0,1.6-0.1,2-0.1v1.5C237.9,208.3,236.6,208.3,234.6,208.5z M229.9,201.8v-1.5h8v1.5H229.9z M232,199.6
		v-1.4h3.9v1.4H232z M233.9,203.5c-0.3,0-1.4,0.1-1.5,0.7c0,0.6,0.9,0.8,1.4,0.8c0.4,0,1.4-0.1,1.4-0.8
		C235.3,203.5,234.3,203.5,233.9,203.5z M240.9,204.7v6.4h-2v-13.8c0.3,0,1.4,0,1.8,0.1c0.6,0,0.2,0.4,0.2,0.9v4.6h1.7v1.9H240.9z"
		/>
</g>
</svg>
