<?xml version="1.0" encoding="utf-8"?>
<!-- Generator: Adobe Illustrator 25.0.1, SVG Export Plug-In . SVG Version: 6.00 Build 0)  -->
<svg version="1.1" id="레이어_1" xmlns="http://www.w3.org/2000/svg" xmlns:xlink="http://www.w3.org/1999/xlink" x="0px"
	 y="0px" viewBox="0 0 300 200" style="enable-background:new 0 0 300 200;" xml:space="preserve">
<style type="text/css">
	.st0{fill:#0000FF;}
</style>
<g>
	<g>
		<path class="st0" d="M117.1,0v0.3l-2.3,2.2v29.7h3.9l2-13.4h0.3l1.4,16.7h-14.6v-0.3l2.3-2.2V2.5l-2.3-2.2V0H117.1z"/>
		<path class="st0" d="M137.8,23.2c0,8.9-1.7,13-7.1,13c-5.5,0-7.2-4.1-7.2-13c0-8.5,1.8-14.3,7.2-14.3
			C136,8.9,137.8,14.7,137.8,23.2z M128.5,22.4c0,8.1,0.6,11.4,2.2,11.4s2.2-3.3,2.2-11.4c0-7.9-0.7-11.5-2.2-11.5
			C129.1,10.9,128.5,14.6,128.5,22.4z"/>
		<path class="st0" d="M146.1,9.6l-0.2,5h0.2c0.9-3.5,2.7-5.5,5-5.5c3.7,0,4.1,3.2,4.1,7.8V33l2.3,2.1v0.3h-18.1v-0.3l2.3-2.1V12
			l-2.3-2.1V9.6H146.1z M146.4,18.7V33l2.2,2.1l1.9-2.1V15.8c0-2.4-0.5-3.2-1.4-3.2C147.6,12.7,146.4,15.5,146.4,18.7z"/>
		<path class="st0" d="M171.4,22.3c0,10.9-2.3,13.9-6.2,13.9c-4.5,0-6.6-4.1-6.6-13c0-8.5,1.6-14.3,6.9-14.3
			C169.7,8.9,171.4,11.9,171.4,22.3z M171.1,22.3h-7.9c0,6.5,0.9,10,3.7,10C169.1,32.4,171.1,29,171.1,22.3z M163.3,20.1h4.4
			c0-7-0.8-9.2-2.2-9.2C164.2,10.9,163.3,13.2,163.3,20.1z"/>
		<path class="st0" d="M179.6,0v33l2.3,2.1v0.3h-9.3v-0.3l2.3-2.1V2.5l-2.3-2.1V0H179.6z"/>
		<path class="st0" d="M189.4,9.6V33l2.3,2.1v0.3h-9.3v-0.3l2.3-2.1V12l-2.3-2.1V9.6H189.4z M189.7,3.9c0,1.5-1.2,2.6-2.7,2.6
			s-2.7-1.2-2.7-2.6s1.2-2.7,2.7-2.7S189.7,2.4,189.7,3.9z"/>
		<path class="st0" d="M199,9.6l-0.2,5h0.2c0.9-3.5,2.7-5.5,5-5.5c3.7,0,4.1,3.2,4.1,7.8V33l2.3,2.1v0.3h-18.1v-0.3l2.3-2.1V12
			l-2.3-2.1V9.6H199z M199.3,18.7V33l2.2,2.1l1.9-2.1V15.8c0-2.4-0.5-3.2-1.4-3.2C200.5,12.7,199.3,15.5,199.3,18.7z"/>
		<path class="st0" d="M224.3,22.3c0,10.9-2.3,13.9-6.2,13.9c-4.5,0-6.6-4.1-6.6-13c0-8.5,1.6-14.3,6.9-14.3
			C222.6,8.9,224.3,11.9,224.3,22.3z M224,22.3h-7.9c0,6.5,0.9,10,3.7,10C222,32.4,224,29,224,22.3z M216.2,20.1h4.4
			c0-7-0.8-9.2-2.2-9.2C217.1,10.9,216.2,13.2,216.2,20.1z"/>
		<path class="st0" d="M236.1,10.4l2-0.8l0.2,0.1l-5.1,10.1c2.2,2.5,4.8,5.1,4.8,9.2c0,4.5-3.3,7.2-6.3,7.2c-1.9,0-3.6-0.5-4.7-1.5
			l-2,0.8l-0.2-0.2l5.7-10.9c-2-2.5-4.2-5.2-4.2-8.7c0-4.6,3-6.9,5.8-6.9C233.9,8.9,235.2,9.3,236.1,10.4z M230.7,24.8l-0.2,0.5
			c-1.5,3.1-2.5,8.4,1,8.4c1.2,0,2.2-0.8,2.2-2.5C233.7,28.9,232.3,26.9,230.7,24.8z M232.9,19.4l0.5-1c2-3.9,1-7.2-1.2-7.2
			c-1.1,0-2,1-2,2.7C230.3,16.1,231.5,17.8,232.9,19.4z"/>
		<path class="st0" d="M250.3,10.4l2-0.8l0.2,0.1l-5.1,10.1c2.2,2.5,4.8,5.1,4.8,9.2c0,4.5-3.3,7.2-6.3,7.2c-1.9,0-3.6-0.5-4.7-1.5
			l-2,0.8l-0.2-0.2l5.7-10.9c-2-2.5-4.2-5.2-4.2-8.7c0-4.6,3-6.9,5.8-6.9C248,8.9,249.3,9.3,250.3,10.4z M244.8,24.8l-0.2,0.5
			c-1.5,3.1-2.5,8.4,1,8.4c1.2,0,2.2-0.8,2.2-2.5C247.8,28.9,246.4,26.9,244.8,24.8z M247.1,19.4l0.5-1c2-3.9,1-7.2-1.2-7.2
			c-1.1,0-2,1-2,2.7C244.4,16.1,245.6,17.8,247.1,19.4z"/>
		<path class="st0" d="M256,42c1.3-1.4,2.7-4.3,2.8-6.3c-1.6,0-3.2-1-3.2-2.9c0-1.8,1.3-3,3-3c1.6,0,2.9,1.5,2.9,3.4
			c0,4-2.2,7.4-5.3,9.1L256,42z"/>
		<path class="st0" d="M43.2,39.5l2-1.6l0.2,0.1L42,54.3l-0.5-0.1c1.7-6.3,0.8-14.1-1.7-14.1c-1.6,0-2.6,3.4-2.6,15.5
			c0,12.2,1.7,13.7,3.5,13.7c2.2,0,3.4-2.6,3.4-9h0.5c0.1,1.8,0.2,3.3,0.2,4.8c0,7.9-2.8,9.1-5.4,9.1c-5,0-7.2-5.3-7.2-17.5
			C32.1,45,34.6,37.5,40,37.5C41.6,37.5,42.7,38.2,43.2,39.5z"/>
		<path class="st0" d="M60.1,55.7V71l2.3,2.1v0.3h-9.6c-3.4,0-6-2.5-6-8c0-3.3,1-5.8,2.9-7.1c-1-0.9-1.9-2.7-1.9-4.7
			c0-4.2,2.5-6.8,6.2-6.8C57.5,46.9,60.1,49,60.1,55.7z M50,58.2c0.8-0.5,1.9-0.8,3-0.8c0.8,0,1.5,0.1,2.3,0.2v-1.9
			c0-4-1-6.2-3.5-6.2c-1.8,0-3.5,1.3-3.5,4.2C48.3,55.6,49,57.3,50,58.2z M51.6,65.6c0,4.1,0.7,6,2.5,6c0.4,0,0.8-0.1,1.2-0.4V59
			c-0.1,0-0.3,0-0.4,0C52.2,59,51.6,61.5,51.6,65.6z"/>
		<path class="st0" d="M69.9,47.6L69.7,53h0.2c0-2.2,1.8-6.1,5.1-6.1v13.2h-0.4v-3.8L72.9,52c-1.8,0-3,2.7-3,5.4v13.5l2.8,2.2v0.3
			h-9.8v-0.3l2.3-2.2V50l-2.3-2.1v-0.3C62.9,47.6,69.9,47.6,69.9,47.6z"/>
		<path class="st0" d="M89,60.3c0,10.8-2.4,13.9-6.2,13.9c-4.5,0-6.6-4.1-6.6-13c0-8.5,1.6-14.3,6.9-14.3C87.3,46.9,89,49.9,89,60.3
			z M88.7,60.3h-7.9c0,6.5,0.9,10,3.7,10C86.7,70.4,88.7,67,88.7,60.3z M80.9,58.1h4.4c0-7-0.8-9.2-2.2-9.2
			C81.8,48.9,80.9,51.1,80.9,58.1z"/>
		<path class="st0" d="M92.9,80c1.3-1.4,2.7-4.2,2.8-6.2c-1.6,0-3.2-1.1-3.2-2.9s1.3-3,3-3c1.6,0,2.9,1.5,2.9,3.3
			c0,4-2.2,7.4-5.3,9.1L92.9,80z"/>
		<path class="st0" d="M117.8,38v0.3l-2.3,2.1v29.7h3.8l2-13.4h0.3l1.3,16.7h-14.4v-0.3l2.3-2.2V40.5l-2.3-2.1V38H117.8z"/>
		<path class="st0" d="M137.3,55.7V71l2.3,2.1v0.3H130c-3.4,0-6-2.5-6-8c0-3.3,1-5.8,2.9-7.1c-1-0.9-1.9-2.7-1.9-4.7
			c0-4.2,2.5-6.8,6.2-6.8C134.7,46.9,137.3,49,137.3,55.7z M127.2,58.2c0.8-0.5,1.9-0.8,3-0.8c0.8,0,1.5,0.1,2.3,0.2v-1.9
			c0-4-1-6.2-3.5-6.2c-1.8,0-3.5,1.3-3.5,4.2C125.5,55.6,126.2,57.3,127.2,58.2z M128.9,65.6c0,4.1,0.7,6,2.5,6
			c0.4,0,0.8-0.1,1.2-0.4V59c-0.1-0.1-0.3-0.1-0.4-0.1C129.5,59,128.9,61.5,128.9,65.6z"/>
		<path class="st0" d="M139.9,73.5v-0.3l2.3-2.1V40.5l-2.2-2.1V38h7v9.3c0.4-0.1,0.7-0.1,1-0.1c5.2,0,7.5,5.7,7.5,14
			c0,6.8-1,12.3-6.5,12.3H139.9z M146.9,71.4c0.2,0.1,0.5,0.2,0.7,0.2c2.2,0,3.1-3.3,3.1-10.3c0-6.4-1.2-12.2-3.8-12.2
			C146.9,49.1,146.9,71.4,146.9,71.4z"/>
		<path class="st0" d="M171.8,61.2c0,8.9-1.7,13-7.1,13c-5.5,0-7.2-4.1-7.2-13c0-8.5,1.8-14.3,7.2-14.3
			C170,46.9,171.8,52.7,171.8,61.2z M162.4,60.4c0,8.1,0.6,11.4,2.2,11.4s2.2-3.3,2.2-11.4c0-7.9-0.7-11.5-2.2-11.5
			S162.4,52.6,162.4,60.4z"/>
		<path class="st0" d="M180.1,47.6v19.7c0,2.4,0.5,3.1,1.4,3.1c1.4,0,2.7-2.8,2.7-6V50l-2.2-2.1v-0.3h7V71l2.3,2.1v0.3h-6.8l0.2-4.6
			h-0.2c-0.8,3.5-2.5,5.1-4.8,5.1c-3.7,0-4.2-3.2-4.2-7.8V50l-2.3-2.1v-0.3C173.2,47.6,180.1,47.6,180.1,47.6z"/>
		<path class="st0" d="M198.7,47.6l-0.2,5.4h0.2c0-2.2,1.8-6.1,5-6.1v13.2h-0.3v-3.8l-1.7-4.3c-1.8,0-3,2.7-3,5.4v13.5l2.8,2.2v0.3
			h-9.8v-0.3l2.3-2.2V50l-2.3-2.1v-0.3C191.7,47.6,198.7,47.6,198.7,47.6z"/>
	</g>
	<g>
		<path class="st0" d="M256.4,8.6c-0.5-0.3-0.8-0.8-1.1-1.4c-0.2-0.6-0.4-1.3-0.4-2s0.1-1.4,0.4-2c0.2-0.6,0.6-1.1,1.1-1.4
			s1-0.5,1.7-0.5c0.7,0,1.2,0.2,1.7,0.5s0.8,0.8,1.1,1.4c0.3,0.6,0.4,1.3,0.4,2s-0.1,1.4-0.4,2s-0.6,1.1-1.1,1.4s-1,0.5-1.7,0.5
			C257.5,9.2,256.9,9,256.4,8.6z M259.3,8.4c0.3-0.3,0.6-0.8,0.8-1.3c0.2-0.5,0.3-1.2,0.3-1.9s-0.1-1.3-0.3-1.9
			c-0.2-0.6-0.4-1-0.8-1.3c-0.4-0.3-0.8-0.5-1.2-0.5c-0.5,0-0.9,0.2-1.2,0.5c-0.3,0.3-0.6,0.8-0.8,1.3c-0.2,0.5-0.3,1.2-0.3,1.9
			s0.1,1.3,0.3,1.9c0.2,0.6,0.4,1,0.8,1.3c0.4,0.3,0.8,0.5,1.2,0.5C258.6,8.9,259,8.8,259.3,8.4z"/>
		<path class="st0" d="M263.4,8.2c0.5,0.4,0.9,0.6,1.5,0.6c0.4,0,0.8-0.1,1.1-0.3c0.3-0.2,0.6-0.5,0.8-0.8c0.2-0.3,0.3-0.7,0.3-1.1
			s-0.1-0.8-0.3-1.1c-0.2-0.3-0.4-0.6-0.8-0.8c-0.3-0.2-0.7-0.3-1.1-0.3c-0.4,0-0.8,0.1-1.2,0.3c-0.4,0.2-0.6,0.5-0.9,0.8h-0.3v-4
			h4.3l1,2.3l-0.2,0.1c-0.3-0.5-0.6-0.9-0.8-1.2c-0.2-0.3-0.5-0.4-0.8-0.5C265.9,2,265.5,2,265,2h-2.1v3c0.6-0.7,1.4-1,2.3-1
			c0.5,0,1,0.1,1.4,0.3s0.8,0.5,1,0.9c0.2,0.4,0.4,0.8,0.4,1.3s-0.1,0.9-0.4,1.3c-0.2,0.4-0.6,0.7-1,0.9S265.7,9,265.2,9
			c-0.7,0-1.3-0.2-1.8-0.7s-0.9-1.1-1.2-1.9l0.2-0.1C262.6,7.3,262.9,7.8,263.4,8.2z"/>
	</g>
</g>
<g>
	<path class="st0" d="M216.4,147.6c-2,0-3.4-1.3-3.4-3.2c0-1.9,1.5-3.2,3.4-3.2c1.9,0,3.4,1.3,3.4,3.2
		C219.8,146.3,218.4,147.6,216.4,147.6z M216.4,141.9c-1.4,0-2.4,0.9-2.4,2.5c0,1.6,1.1,2.5,2.4,2.5s2.4-0.9,2.4-2.5
		C218.9,142.8,217.8,141.9,216.4,141.9z M222.7,152.8c0-0.6-0.1-2-0.1-2.6v-10.6c-0.3-0.3-0.8-0.6-1.3-0.8l0.1-0.3
		c0-0.1,0-0.1,0.2-0.1c0.5,0,1.4,0.2,1.8,0.4c0.1,0,0.2,0.2,0.2,0.3l0,0.8v10c0,0.8-0.1,2.1-0.3,3H222.7z"/>
	<path class="st0" d="M241.3,146.1c0.5,0,1.3,0.1,1.6,0.2c0.1,0,0.2,0.1,0.2,0.2c0,0.2-0.2,0.4-0.3,0.5c-0.4,0-1.2-0.1-1.7-0.1
		c-0.5,0-2.5,0-4.4,0v2.7c0,0.8-0.1,2.2-0.3,3h-0.6c0-0.7-0.1-2-0.1-2.7v-3c-1.7,0-3.2,0.1-3.5,0.1c-0.4,0-1.1,0.2-1.5,0.3
		c-0.5-0.2-1.1-0.4-1.4-0.7c0,0-0.1-0.1,0-0.1l0.1-0.2c0.5,0.1,1.2,0.2,1.6,0.2c0.9,0,8.7-0.1,9.7-0.2L241.3,146.1z M230.5,144.9
		c0-0.1,0-0.1,0-0.1c3.3-1.2,6.2-2.8,8-4.5c-1.2,0-3.9,0-4.5,0c-0.3,0-0.9,0.1-1.2,0.2c-0.4-0.1-0.9-0.4-1.3-0.6c0,0-0.1-0.1,0-0.1
		l0.1-0.2c0.4,0.1,1,0.1,1.4,0.1c0.8,0,4.8,0,5.7-0.1l0.6-0.2c0.1,0,0.2,0,0.3,0c0.2,0.1,0.6,0.2,0.7,0.3c0.1,0,0.1,0.1,0,0.2
		l-0.4,0.3c-0.8,0.8-1.8,1.6-3,2.3l3,0.8l0.9,0c0.3,0.1,0.7,0.3,0.9,0.4c0.1,0.1,0.2,0.2,0.2,0.2c0,0.2-0.1,0.4-0.3,0.4
		c-0.1,0-0.2,0-0.3,0l-5.1-1.5c-1.6,0.9-3.5,1.6-5.4,2.1c-0.1,0-0.1,0-0.1,0L230.5,144.9z"/>
	<path class="st0" d="M257.7,145.1c-0.6,0-1.3,0-1.7,0c-0.3,0-0.7,0.1-0.9,0.2c-0.3-0.1-0.7-0.3-0.9-0.5c-0.6,0.9-1.6,1.5-2.9,1.5
		c-2,0-3.4-1.3-3.4-3.1c0-1.8,1.4-3.1,3.4-3.1c1.9,0,3.3,1.3,3.3,3.1c0,0.5-0.1,0.9-0.3,1.3c0.3,0,0.6,0,0.9,0c0.5,0,1.7,0,2.5-0.1
		v-2.7c-0.5,0-1,0-1.3,0c-0.3,0-0.7,0.1-0.9,0.2c-0.4-0.2-0.8-0.3-1-0.6c0,0-0.1-0.1,0-0.1l0.1-0.1c0.4,0,0.8,0.1,1.2,0.1
		c0.4,0,1.4,0,2.1-0.1v-1.8c-0.3-0.3-0.8-0.6-1.3-0.7l0.1-0.3c0-0.1,0-0.1,0.1-0.1c0.5,0,1.4,0.2,1.8,0.4c0.1,0,0.2,0.2,0.2,0.3
		l0,0.8v6.5c0,1-0.1,2.1-0.3,2.8h-0.5c-0.1-0.6-0.1-1.8-0.1-2.5V145.1z M251.3,145.7c1.4,0,2.4-0.9,2.4-2.4c0-1.5-1-2.4-2.4-2.4
		c-1.4,0-2.4,0.9-2.4,2.4C248.9,144.8,249.9,145.7,251.3,145.7z M258.1,151.3c0.4,0,1.1,0,1.4,0.1c0.1,0,0.2,0.1,0.2,0.2
		c0,0.2-0.1,0.4-0.2,0.5c0,0-0.1,0.1-0.2,0.1l-6.5,0h0c-0.9,0-1.3-0.3-1.3-1.1v-2.2c-0.2-0.2-0.7-0.3-1.1-0.4l0.1-0.3
		c0-0.1,0.1-0.1,0.1-0.1c0.5,0,1.2,0,1.6,0.1c0.1,0,0.2,0.1,0.2,0.3l0,0.6v2.1c0,0.3,0.1,0.4,0.4,0.4c1,0,3.9,0,4.7,0L258.1,151.3z"
		/>
</g>
</svg>
