<?xml version="1.0" encoding="utf-8"?>
<!-- Generator: Adobe Illustrator 25.0.1, SVG Export Plug-In . SVG Version: 6.00 Build 0)  -->
<svg version="1.1" id="레이어_1" xmlns="http://www.w3.org/2000/svg" xmlns:xlink="http://www.w3.org/1999/xlink" x="0px"
	 y="0px" viewBox="0 0 235.8 80.3" style="enable-background:new 0 0 235.8 80.3;" xml:space="preserve">
<style type="text/css">
	.st0{fill:#0000FF;}
</style>
<g>
	<g>
		<path class="st0" d="M85,0v0.3l-2.3,2.2v29.7h3.9l2-13.4h0.3l1.4,16.7H75.7v-0.3L78,33V2.5l-2.3-2.2V0H85z"/>
		<path class="st0" d="M105.7,23.2c0,8.9-1.7,13-7.1,13c-5.5,0-7.2-4.1-7.2-13c0-8.5,1.8-14.3,7.2-14.3
			C103.9,8.9,105.7,14.7,105.7,23.2z M96.4,22.4c0,8.1,0.6,11.4,2.2,11.4c1.6,0,2.2-3.3,2.2-11.4c0-7.9-0.7-11.5-2.2-11.5
			C97,10.9,96.4,14.6,96.4,22.4z"/>
		<path class="st0" d="M114,9.6l-0.2,5h0.2c0.9-3.5,2.7-5.5,5-5.5c3.7,0,4.1,3.2,4.1,7.8V33l2.3,2.1v0.3h-18.1v-0.3l2.3-2.1V12
			l-2.3-2.1V9.6H114z M114.3,18.7V33l2.2,2.1l1.9-2.1V15.8c0-2.4-0.5-3.2-1.4-3.2C115.5,12.7,114.3,15.5,114.3,18.7z"/>
		<path class="st0" d="M139.3,22.3c0,10.9-2.3,13.9-6.2,13.9c-4.5,0-6.6-4.1-6.6-13c0-8.5,1.6-14.3,6.9-14.3
			C137.6,8.9,139.3,11.9,139.3,22.3z M139,22.3h-7.9c0,6.5,0.9,10,3.7,10C137,32.4,139,29,139,22.3z M131.2,20.1h4.4
			c0-7-0.8-9.2-2.2-9.2C132.1,10.9,131.2,13.2,131.2,20.1z"/>
		<path class="st0" d="M147.5,0v33l2.3,2.1v0.3h-9.3v-0.3l2.3-2.1V2.5l-2.3-2.1V0H147.5z"/>
		<path class="st0" d="M157.3,9.6V33l2.3,2.1v0.3h-9.3v-0.3l2.3-2.1V12l-2.3-2.1V9.6H157.3z M157.6,3.9c0,1.5-1.2,2.6-2.7,2.6
			s-2.7-1.2-2.7-2.6s1.2-2.7,2.7-2.7S157.6,2.4,157.6,3.9z"/>
		<path class="st0" d="M166.9,9.6l-0.2,5h0.2c0.9-3.5,2.7-5.5,5-5.5c3.7,0,4.1,3.2,4.1,7.8V33l2.3,2.1v0.3h-18.1v-0.3l2.3-2.1V12
			l-2.3-2.1V9.6H166.9z M167.2,18.7V33l2.2,2.1l1.9-2.1V15.8c0-2.4-0.5-3.2-1.4-3.2C168.4,12.7,167.2,15.5,167.2,18.7z"/>
		<path class="st0" d="M192.2,22.3c0,10.9-2.3,13.9-6.2,13.9c-4.5,0-6.6-4.1-6.6-13c0-8.5,1.6-14.3,6.9-14.3
			C190.5,8.9,192.2,11.9,192.2,22.3z M191.9,22.3H184c0,6.5,0.9,10,3.7,10C189.9,32.4,191.9,29,191.9,22.3z M184.1,20.1h4.4
			c0-7-0.8-9.2-2.2-9.2C185,10.9,184.1,13.2,184.1,20.1z"/>
		<path class="st0" d="M204,10.4l2-0.8l0.2,0.1l-5.1,10.1c2.2,2.5,4.8,5.1,4.8,9.2c0,4.5-3.3,7.2-6.3,7.2c-1.9,0-3.6-0.5-4.7-1.5
			l-2,0.8l-0.2-0.2l5.7-10.9c-2-2.5-4.2-5.2-4.2-8.7c0-4.6,3-6.9,5.8-6.9C201.8,8.9,203.1,9.3,204,10.4z M198.6,24.8l-0.2,0.5
			c-1.5,3.1-2.5,8.4,1,8.4c1.2,0,2.2-0.8,2.2-2.5C201.6,28.9,200.2,26.9,198.6,24.8z M200.8,19.4l0.5-1c2-3.9,1-7.2-1.2-7.2
			c-1.1,0-2,1-2,2.7C198.2,16.1,199.4,17.8,200.8,19.4z"/>
		<path class="st0" d="M218.2,10.4l2-0.8l0.2,0.1l-5.1,10.1c2.2,2.5,4.8,5.1,4.8,9.2c0,4.5-3.3,7.2-6.3,7.2c-1.9,0-3.6-0.5-4.7-1.5
			l-2,0.8l-0.2-0.2l5.7-10.9c-2-2.5-4.2-5.2-4.2-8.7c0-4.6,3-6.9,5.8-6.9C215.9,8.9,217.2,9.3,218.2,10.4z M212.7,24.8l-0.2,0.5
			c-1.5,3.1-2.5,8.4,1,8.4c1.2,0,2.2-0.8,2.2-2.5C215.7,28.9,214.3,26.9,212.7,24.8z M215,19.4l0.5-1c2-3.9,1-7.2-1.2-7.2
			c-1.1,0-2,1-2,2.7C212.3,16.1,213.5,17.8,215,19.4z"/>
		<path class="st0" d="M223.9,42c1.3-1.4,2.7-4.3,2.8-6.3c-1.6,0-3.2-1-3.2-2.9c0-1.8,1.3-3,3-3c1.6,0,2.9,1.5,2.9,3.4
			c0,4-2.2,7.4-5.3,9.1L223.9,42z"/>
		<path class="st0" d="M11.1,39.5l2-1.6l0.2,0.1L9.9,54.3l-0.5-0.1c1.7-6.3,0.8-14.1-1.7-14.1c-1.6,0-2.6,3.4-2.6,15.5
			c0,12.2,1.7,13.7,3.5,13.7c2.2,0,3.4-2.6,3.4-9h0.5c0.1,1.8,0.2,3.3,0.2,4.8c0,7.9-2.8,9.1-5.4,9.1c-5,0-7.2-5.3-7.2-17.5
			C0,45,2.5,37.5,7.9,37.5C9.5,37.5,10.6,38.2,11.1,39.5z"/>
		<path class="st0" d="M28,55.7V71l2.3,2.1v0.3h-9.6c-3.4,0-6-2.5-6-8c0-3.3,1-5.8,2.9-7.1c-1-0.9-1.9-2.7-1.9-4.7
			c0-4.2,2.5-6.8,6.2-6.8C25.4,46.9,28,49,28,55.7z M17.9,58.2c0.8-0.5,1.9-0.8,3-0.8c0.8,0,1.5,0.1,2.3,0.2v-1.9c0-4-1-6.2-3.5-6.2
			c-1.8,0-3.5,1.3-3.5,4.2C16.2,55.6,16.9,57.3,17.9,58.2z M19.5,65.6c0,4.1,0.7,6,2.5,6c0.4,0,0.8-0.1,1.2-0.4V59
			C23.1,59,22.9,59,22.8,59C20.1,59,19.5,61.5,19.5,65.6z"/>
		<path class="st0" d="M37.8,47.6l-0.2,5.4h0.2c0-2.2,1.8-6.1,5.1-6.1v13.2h-0.4v-3.8l-1.7-4.3c-1.8,0-3,2.7-3,5.4v13.5l2.8,2.2v0.3
			h-9.8v-0.3l2.3-2.2V50l-2.3-2.1v-0.3H37.8z"/>
		<path class="st0" d="M56.9,60.3c0,10.8-2.4,13.9-6.2,13.9c-4.5,0-6.6-4.1-6.6-13c0-8.5,1.6-14.3,6.9-14.3
			C55.2,46.9,56.9,49.9,56.9,60.3z M56.6,60.3h-7.9c0,6.5,0.9,10,3.7,10C54.6,70.4,56.6,67,56.6,60.3z M48.8,58.1h4.4
			c0-7-0.8-9.2-2.2-9.2C49.7,48.9,48.8,51.1,48.8,58.1z"/>
		<path class="st0" d="M60.8,80c1.3-1.4,2.7-4.2,2.8-6.2c-1.6,0-3.2-1.1-3.2-2.9c0-1.8,1.3-3,3-3c1.6,0,2.9,1.5,2.9,3.3
			c0,4-2.2,7.4-5.3,9.1L60.8,80z"/>
		<path class="st0" d="M85.7,38v0.3l-2.3,2.1v29.7h3.8l2-13.4h0.3l1.3,16.7H76.4v-0.3l2.3-2.2V40.5l-2.3-2.1V38H85.7z"/>
		<path class="st0" d="M105.2,55.7V71l2.3,2.1v0.3h-9.6c-3.4,0-6-2.5-6-8c0-3.3,1-5.8,2.9-7.1c-1-0.9-1.9-2.7-1.9-4.7
			c0-4.2,2.5-6.8,6.2-6.8C102.6,46.9,105.2,49,105.2,55.7z M95.1,58.2c0.8-0.5,1.9-0.8,3-0.8c0.8,0,1.5,0.1,2.3,0.2v-1.9
			c0-4-1-6.2-3.5-6.2c-1.8,0-3.5,1.3-3.5,4.2C93.4,55.6,94.1,57.3,95.1,58.2z M96.8,65.6c0,4.1,0.7,6,2.5,6c0.4,0,0.8-0.1,1.2-0.4
			V59c-0.1-0.1-0.3-0.1-0.4-0.1C97.4,59,96.8,61.5,96.8,65.6z"/>
		<path class="st0" d="M107.8,73.5v-0.3l2.3-2.1V40.5l-2.2-2.1V38h7v9.3c0.4-0.1,0.7-0.1,1-0.1c5.2,0,7.5,5.7,7.5,14
			c0,6.8-1,12.3-6.5,12.3H107.8z M114.8,71.4c0.2,0.1,0.5,0.2,0.7,0.2c2.2,0,3.1-3.3,3.1-10.3c0-6.4-1.2-12.2-3.8-12.2V71.4z"/>
		<path class="st0" d="M139.7,61.2c0,8.9-1.7,13-7.1,13c-5.5,0-7.2-4.1-7.2-13c0-8.5,1.8-14.3,7.2-14.3
			C137.9,46.9,139.7,52.7,139.7,61.2z M130.3,60.4c0,8.1,0.6,11.4,2.2,11.4c1.6,0,2.2-3.3,2.2-11.4c0-7.9-0.7-11.5-2.2-11.5
			C131,48.9,130.3,52.6,130.3,60.4z"/>
		<path class="st0" d="M148,47.6v19.7c0,2.4,0.5,3.1,1.4,3.1c1.4,0,2.7-2.8,2.7-6V50l-2.2-2.1v-0.3h7V71l2.3,2.1v0.3h-6.8l0.2-4.6
			h-0.2c-0.8,3.5-2.5,5.1-4.8,5.1c-3.7,0-4.2-3.2-4.2-7.8V50l-2.3-2.1v-0.3H148z"/>
		<path class="st0" d="M166.6,47.6l-0.2,5.4h0.2c0-2.2,1.8-6.1,5-6.1v13.2h-0.3v-3.8l-1.7-4.3c-1.8,0-3,2.7-3,5.4v13.5l2.8,2.2v0.3
			h-9.8v-0.3l2.3-2.2V50l-2.3-2.1v-0.3H166.6z"/>
	</g>
	<g>
		<path class="st0" d="M224.3,8.6c-0.5-0.3-0.8-0.8-1.1-1.4c-0.2-0.6-0.4-1.3-0.4-2c0-0.7,0.1-1.4,0.4-2c0.2-0.6,0.6-1.1,1.1-1.4
			c0.5-0.3,1-0.5,1.7-0.5s1.2,0.2,1.7,0.5c0.5,0.3,0.8,0.8,1.1,1.4s0.4,1.3,0.4,2c0,0.7-0.1,1.4-0.4,2s-0.6,1.1-1.1,1.4
			c-0.5,0.3-1,0.5-1.7,0.5C225.4,9.2,224.8,9,224.3,8.6z M227.2,8.4c0.3-0.3,0.6-0.8,0.8-1.3s0.3-1.2,0.3-1.9s-0.1-1.3-0.3-1.9
			c-0.2-0.6-0.4-1-0.8-1.3s-0.8-0.5-1.2-0.5c-0.5,0-0.9,0.2-1.2,0.5c-0.3,0.3-0.6,0.8-0.8,1.3s-0.3,1.2-0.3,1.9
			c0,0.7,0.1,1.3,0.3,1.9c0.2,0.6,0.4,1,0.8,1.3s0.8,0.5,1.2,0.5C226.5,8.9,226.9,8.8,227.2,8.4z"/>
		<path class="st0" d="M231.3,8.2c0.5,0.4,0.9,0.6,1.5,0.6c0.4,0,0.8-0.1,1.1-0.3c0.3-0.2,0.6-0.5,0.8-0.8c0.2-0.3,0.3-0.7,0.3-1.1
			c0-0.4-0.1-0.8-0.3-1.1s-0.4-0.6-0.8-0.8c-0.3-0.2-0.7-0.3-1.1-0.3c-0.4,0-0.8,0.1-1.2,0.3c-0.4,0.2-0.6,0.5-0.9,0.8h-0.3v-4h4.3
			l1,2.3l-0.2,0.1c-0.3-0.5-0.6-0.9-0.8-1.2c-0.2-0.3-0.5-0.4-0.8-0.5C233.8,2,233.4,2,232.9,2h-2.1V5c0.6-0.7,1.4-1,2.3-1
			c0.5,0,1,0.1,1.4,0.3s0.8,0.5,1,0.9c0.2,0.4,0.4,0.8,0.4,1.3c0,0.5-0.1,0.9-0.4,1.3c-0.2,0.4-0.6,0.7-1,0.9s-0.9,0.3-1.4,0.3
			c-0.7,0-1.3-0.2-1.8-0.7s-0.9-1.1-1.2-1.9l0.2-0.1C230.5,7.3,230.8,7.8,231.3,8.2z"/>
	</g>
</g>
</svg>
