<?xml version="1.0" encoding="utf-8"?>
<!-- Generator: Adobe Illustrator 25.0.1, SVG Export Plug-In . SVG Version: 6.00 Build 0)  -->
<svg version="1.1" id="레이어_1" xmlns="http://www.w3.org/2000/svg" xmlns:xlink="http://www.w3.org/1999/xlink" x="0px"
	 y="0px" viewBox="0 0 41.1 238.7" style="enable-background:new 0 0 41.1 238.7;" xml:space="preserve">
<style type="text/css">
	.st0{fill:#0000FF;}
</style>
<g>
	<g>
		<path class="st0" d="M1.1,2.6c0.1,0.5,0.3,0.9,0.7,1.1c0.4,0.2,1,0.3,1.9,0.3h16.3c0.9,0,1.5-0.1,1.9-0.3c0.4-0.2,0.6-0.6,0.7-1.1
			c0.1-0.5,0.1-1.4,0.1-2.6h0.7v10.5h-0.7c0-1.3,0-2.1-0.1-2.6c-0.1-0.5-0.3-0.9-0.7-1.1c-0.4-0.2-1-0.3-1.9-0.3H1v6.1
			c0,1.3,0.2,2.4,0.7,3.3c0.4,0.9,1.1,1.7,2,2.3c0.9,0.7,2.2,1.5,4,2.5l-0.3,0.5l-7-3.1V0H1C1,1.3,1,2.1,1.1,2.6z"/>
		<path class="st0" d="M15.2,38.8c1.2,1.5,1.9,3.4,1.9,5.5c0,1.8-0.5,3.3-1.4,4.4c-0.9,1.1-2.4,1.7-4.3,1.7H3.9
			c-1.7,0-2.6,0.5-2.6,1.7c0,1,0.8,1.7,2.4,2.2v0.5c-1.1-0.3-2-0.7-2.7-1.3c-0.7-0.6-1-1.4-1-2.3c0-0.9,0.3-1.7,1-2.2
			c0.7-0.5,1.6-0.8,2.9-0.8h2.4c-1.9-0.4-3.4-1.2-4.6-2.3C0.6,44.7,0,43.2,0,41.5c0-1.4,0.4-2.6,1.2-3.5C2,37,3,36.5,4.4,36.5
			c2.3,0,4,2,4.9,5.9l0.5,1.7c0.6,2.5,1.8,3.8,3.5,3.8c0.9,0,1.6-0.3,2.2-1c0.6-0.7,0.9-1.6,0.9-2.6c0-1.1-0.3-2.1-0.9-3
			s-1.3-1.5-2.3-2c-1-0.5-2-0.8-3.1-0.9v-2.8C12.2,36.2,13.9,37.3,15.2,38.8z M2.2,40c-0.6,0.7-0.9,1.5-0.9,2.5c0,1,0.4,2,1.1,2.8
			c0.8,0.9,1.8,1.5,3.1,2c1.4,0.5,2.9,0.8,4.6,0.8h1.5c-0.7-0.3-1.2-0.8-1.6-1.4c-0.4-0.6-0.7-1.3-0.9-2l-0.6-1.8
			c-0.4-1.3-1-2.3-1.7-2.9C6.2,39.3,5.4,39,4.5,39C3.6,39,2.8,39.4,2.2,40z"/>
		<path class="st0" d="M16.7,84.4h-0.3L1,72.6v4.6c0,1.3,0.2,2.4,0.6,3.2c0.4,0.8,1,1.5,1.8,2.1s2.2,1.5,4,2.5L7,85.5l-6.7-3V69.8
			h0.3L16,81.7v-4.3c0-1.4-0.2-2.5-0.5-3.3c-0.4-0.8-0.9-1.5-1.6-2.1c-0.7-0.6-1.9-1.3-3.5-2.2l0.4-0.5l6,2.7V84.4z"/>
		<path class="st0" d="M16.7,106h-13c-0.9,0-1.5,0.1-1.8,0.3c-0.4,0.2-0.6,0.5-0.7,0.9C1,107.7,1,108.4,1,109.4H0.3v-9.1H1
			c0,1,0,1.7,0.1,2.1c0.1,0.4,0.3,0.7,0.7,0.9c0.4,0.2,1,0.3,1.8,0.3h9.2c0.6,0,1-0.1,1.3-0.2c0.2-0.1,0.3-0.3,0.3-0.6
			c0-0.5-0.4-1.4-1-2.6l0.5-0.3l3.2,5.7L16.7,106z M23.1,103.3c0.3,0.4,0.5,0.9,0.5,1.5s-0.2,1.1-0.5,1.5c-0.3,0.4-0.7,0.6-1.1,0.6
			c-0.4,0-0.8-0.2-1.1-0.6c-0.3-0.4-0.5-0.9-0.5-1.5s0.2-1.1,0.5-1.5c0.3-0.4,0.7-0.6,1.1-0.6C22.4,102.7,22.8,102.9,23.1,103.3z"/>
		<path class="st0" d="M16.7,130.8l-4.7-0.6c1.1,0.3,2.1,0.8,2.8,1.4c0.8,0.7,1.3,1.4,1.7,2.2c0.4,0.8,0.5,1.6,0.5,2.4
			c0,1-0.2,2-0.7,2.8c-0.5,0.8-1.1,1.5-2,2c-0.9,0.5-2,0.7-3.2,0.7H3.6c-0.9,0-1.5,0.1-1.8,0.3s-0.6,0.5-0.7,0.9
			C1,143.5,1,144.3,1,145.3H0.3v-9.1H1c0,1,0,1.7,0.1,2.1c0.1,0.4,0.3,0.7,0.7,0.9s1,0.3,1.8,0.3h6.9c1.7,0,3-0.4,3.9-1.2
			c0.9-0.8,1.3-1.8,1.3-3c0-0.8-0.2-1.5-0.7-2.3c-0.4-0.8-1.2-1.4-2.1-1.9c-1-0.5-2.3-0.8-3.8-0.8H3.6c-0.9,0-1.5,0.1-1.8,0.3
			c-0.4,0.2-0.6,0.5-0.7,0.9C1,132.1,1,132.9,1,133.9H0.3v-9.1H1c0,1,0,1.7,0.1,2.1c0.1,0.4,0.3,0.7,0.7,0.9c0.4,0.2,1,0.3,1.8,0.3
			h9.2c0.6,0,1-0.1,1.3-0.2c0.2-0.1,0.3-0.3,0.3-0.6c0-0.5-0.4-1.4-1-2.6l0.5-0.3l3.2,6L16.7,130.8z"/>
		<path class="st0" d="M12.9,160.5c1.3,0.8,2.3,1.8,3,3c0.7,1.2,1.1,2.6,1.1,4c0,2.1-0.6,3.8-1.8,5.2c-1.2,1.4-2.9,2.4-5.1,3.1
			v-13.9c-0.5,0-0.9-0.1-1.1-0.1c-1.5,0-2.8,0.3-4,0.9c-1.2,0.6-2,1.3-2.7,2.3c-0.6,1-0.9,2.1-0.9,3.3c0,1.5,0.5,2.8,1.4,3.9
			c0.9,1.2,2.4,2.1,4.3,2.7l-0.2,0.5c-1.9-0.6-3.5-1.5-4.8-2.8c-1.3-1.3-2-2.9-2-5c0-1.5,0.4-2.8,1.1-4.1c0.8-1.3,1.8-2.3,3.1-3.1
			c1.3-0.8,2.8-1.1,4.3-1.1S11.6,159.7,12.9,160.5z M14.7,171.1c1.1-0.9,1.6-2.1,1.6-3.5c0-1.4-0.5-2.6-1.6-3.6s-2.4-1.7-4.1-2v10.9
			C12.3,172.7,13.7,172.1,14.7,171.1z"/>
		<path class="st0" d="M2.4,195.3c-1.2,1.3-1.8,2.9-1.8,4.7c0,0.9,0.2,1.7,0.6,2.4s0.9,1.2,1.5,1.6c0.6,0.4,1.3,0.6,2.1,0.6
			c1.2,0,2.1-0.4,2.8-1.1s1-1.6,1-2.6c0-0.5-0.1-1.2-0.3-2c-0.2-0.9-0.3-1.7-0.3-2.3c0-0.8,0.2-1.6,0.5-2.3s0.8-1.2,1.5-1.6
			c0.6-0.4,1.3-0.6,2.1-0.6c0.8,0,1.6,0.2,2.4,0.7c0.7,0.5,1.3,1.2,1.8,2.2c0.4,0.9,0.7,2.1,0.7,3.3c0,1.8-0.5,3.5-1.5,4.9l1.5,0.4
			v0.5l-6.3,3.1l-0.3-0.4c1.9-1,3.4-2.2,4.4-3.6c1-1.3,1.5-2.8,1.5-4.4c0-1.3-0.4-2.3-1.1-3.1c-0.7-0.8-1.7-1.2-2.9-1.2
			c-1,0-1.8,0.3-2.5,0.9c-0.7,0.6-1,1.5-1,2.5c0,0.5,0.1,1.2,0.3,2c0.2,0.9,0.3,1.7,0.3,2.3c0,0.9-0.2,1.7-0.6,2.4
			c-0.4,0.7-0.9,1.3-1.6,1.7c-0.7,0.4-1.4,0.6-2.3,0.6c-0.9,0-1.8-0.3-2.6-0.8c-0.8-0.6-1.4-1.3-1.9-2.3s-0.7-2-0.7-3.2
			c0-2,0.5-3.7,1.5-5.1L0,195.1v-0.5l6.9-3.3l0.3,0.4C5.2,192.8,3.6,194,2.4,195.3z"/>
		<path class="st0" d="M2.4,226.9c-1.2,1.3-1.8,2.9-1.8,4.7c0,0.9,0.2,1.7,0.6,2.4c0.4,0.7,0.9,1.2,1.5,1.6c0.6,0.4,1.3,0.6,2.1,0.6
			c1.2,0,2.1-0.3,2.8-1s1-1.6,1-2.6c0-0.5-0.1-1.2-0.3-2c-0.2-0.9-0.3-1.7-0.3-2.3c0-0.8,0.2-1.6,0.5-2.3s0.8-1.2,1.5-1.6
			s1.3-0.6,2.1-0.6c0.8,0,1.6,0.2,2.4,0.7c0.7,0.5,1.3,1.2,1.8,2.2c0.4,1,0.7,2.1,0.7,3.3c0,1.8-0.5,3.5-1.5,4.9l1.5,0.4v0.5
			l-6.3,3.1l-0.3-0.4c1.9-1,3.4-2.2,4.4-3.6c1-1.4,1.5-2.8,1.5-4.4c0-1.3-0.4-2.3-1.1-3.1c-0.7-0.8-1.7-1.2-2.9-1.2
			c-1,0-1.8,0.3-2.5,0.9c-0.7,0.6-1,1.5-1,2.5c0,0.5,0.1,1.2,0.3,2c0.2,0.9,0.3,1.7,0.3,2.3c0,0.9-0.2,1.7-0.6,2.4
			c-0.4,0.7-0.9,1.3-1.6,1.7c-0.7,0.4-1.4,0.6-2.3,0.6c-0.9,0-1.8-0.3-2.6-0.8c-0.8-0.6-1.4-1.3-1.9-2.3s-0.7-2-0.7-3.2
			c0-2,0.5-3.7,1.5-5.1L0,226.7v-0.5l6.9-3.3l0.3,0.4C5.2,224.4,3.6,225.6,2.4,226.9z"/>
	</g>
	<g>
		<path class="st0" d="M34.7,104.8c0,4-0.5,7-3.2,7s-3.2-2.9-3.2-7c0-3.6,0.8-7.7,3.2-7.7C34,97.1,34.7,101.1,34.7,104.8z
			 M30.4,104.4c0,4.7,0.1,6.3,1.1,6.3c1.1,0,1.2-1.6,1.2-6.3c0-4-0.4-6.2-1.2-6.2S30.4,100.3,30.4,104.4z"/>
		<path class="st0" d="M40.8,100c0,1.1-0.2,2.3-0.6,3.2c0.6,0.8,1,2.2,1,3.6c0,2.6-0.6,4.8-2.7,4.8c-2.4,0-2.9-2.2-2.9-6.7
			c0-4.8,1.2-8,3.5-8C40.3,97.1,40.8,98.4,40.8,100z M40.1,103.1c0.2-0.7,0.3-1.5,0.3-2.2c0-1.5-0.4-2.7-1.2-2.7
			c-1.1,0-1.5,1.7-1.6,5c0.5-0.5,0.9-0.8,1.3-0.8C39.4,102.5,39.7,102.7,40.1,103.1z M37.6,103.4v1.4c0,4.6,0.3,5.8,0.9,5.8
			c0.6,0,0.8-1.4,0.8-3.6c0-2.1-0.4-3.7-1.2-3.7C37.9,103.3,37.8,103.3,37.6,103.4z"/>
	</g>
</g>
</svg>
