<?xml version="1.0" encoding="utf-8"?>
<!-- Generator: Adobe Illustrator 25.0.1, SVG Export Plug-In . SVG Version: 6.00 Build 0)  -->
<svg version="1.1" id="레이어_1" xmlns="http://www.w3.org/2000/svg" xmlns:xlink="http://www.w3.org/1999/xlink" x="0px"
	 y="0px" viewBox="0 0 500 400" style="enable-background:new 0 0 500 400;" xml:space="preserve">
<style type="text/css">
	.st0{fill:#0000FF;}
</style>
<g>
	<g>
		<path class="st0" d="M460,2.6c0.1,0.5,0.3,0.9,0.7,1.1c0.4,0.2,1,0.3,1.9,0.3h16.3c0.9,0,1.5-0.1,1.9-0.3c0.4-0.2,0.6-0.6,0.7-1.1
			s0.1-1.4,0.1-2.6h0.7v10.5h-0.7c0-1.3,0-2.1-0.1-2.6s-0.3-0.9-0.7-1.1c-0.4-0.2-1-0.3-1.9-0.3h-19v6.1c0,1.3,0.2,2.4,0.7,3.3
			c0.4,0.9,1.1,1.7,2,2.3c0.9,0.7,2.2,1.5,4,2.5l-0.3,0.5l-7-3.1V0h0.6C459.9,1.3,459.9,2.1,460,2.6z"/>
		<path class="st0" d="M474.1,38.8c1.2,1.5,1.9,3.4,1.9,5.5c0,1.8-0.5,3.3-1.4,4.4c-0.9,1.1-2.4,1.7-4.3,1.7h-7.5
			c-1.7,0-2.6,0.5-2.6,1.7c0,1,0.8,1.7,2.4,2.2v0.5c-1.1-0.3-2-0.7-2.7-1.3c-0.7-0.6-1-1.4-1-2.3c0-0.9,0.3-1.7,1-2.2
			c0.7-0.5,1.6-0.8,2.9-0.8h2.4c-1.9-0.4-3.4-1.2-4.6-2.3c-1.1-1.2-1.7-2.7-1.7-4.4c0-1.4,0.4-2.6,1.2-3.5c0.8-1,1.8-1.5,3.2-1.5
			c2.3,0,4,2,4.9,5.9l0.5,1.7c0.6,2.5,1.8,3.8,3.5,3.8c0.9,0,1.6-0.3,2.2-1s0.9-1.6,0.9-2.6c0-1.1-0.3-2.1-0.9-3s-1.3-1.5-2.3-2
			s-2-0.8-3.1-0.9v-2.8C471.1,36.2,472.8,37.3,474.1,38.8z M461.1,40c-0.6,0.7-0.9,1.5-0.9,2.5s0.4,2,1.1,2.8c0.8,0.9,1.8,1.5,3.1,2
			c1.4,0.5,2.9,0.8,4.6,0.8h1.5c-0.7-0.3-1.2-0.8-1.6-1.4c-0.4-0.6-0.7-1.3-0.9-2l-0.6-1.8c-0.4-1.3-1-2.3-1.7-2.9
			c-0.6-0.7-1.4-1-2.3-1S461.7,39.4,461.1,40z"/>
		<path class="st0" d="M475.6,84.4h-0.3l-15.4-11.8v4.6c0,1.3,0.2,2.4,0.6,3.2c0.4,0.8,1,1.5,1.8,2.1c0.8,0.6,2.2,1.5,4,2.5
			l-0.4,0.5l-6.7-3V69.8h0.3l15.4,11.9v-4.3c0-1.4-0.2-2.5-0.5-3.3c-0.4-0.8-0.9-1.5-1.6-2.1c-0.7-0.6-1.9-1.3-3.5-2.2l0.4-0.5
			l6,2.7v12.4H475.6z"/>
		<path class="st0" d="M475.6,106h-13c-0.9,0-1.5,0.1-1.8,0.3c-0.4,0.2-0.6,0.5-0.7,0.9c-0.2,0.5-0.2,1.2-0.2,2.2h-0.7v-9.1h0.7
			c0,1,0,1.7,0.1,2.1s0.3,0.7,0.7,0.9c0.4,0.2,1,0.3,1.8,0.3h9.2c0.6,0,1-0.1,1.3-0.2c0.2-0.1,0.3-0.3,0.3-0.6c0-0.5-0.4-1.4-1-2.6
			l0.5-0.3l3.2,5.7L475.6,106z M482,103.3c0.3,0.4,0.5,0.9,0.5,1.5s-0.2,1.1-0.5,1.5s-0.7,0.6-1.1,0.6s-0.8-0.2-1.1-0.6
			c-0.3-0.4-0.5-0.9-0.5-1.5s0.2-1.1,0.5-1.5c0.3-0.4,0.7-0.6,1.1-0.6C481.3,102.7,481.7,102.9,482,103.3z"/>
		<path class="st0" d="M475.6,130.8l-4.7-0.6c1.1,0.3,2.1,0.8,2.8,1.4c0.8,0.7,1.3,1.4,1.7,2.2s0.5,1.6,0.5,2.4c0,1-0.2,2-0.7,2.8
			s-1.1,1.5-2,2c-0.9,0.5-2,0.7-3.2,0.7h-7.5c-0.9,0-1.5,0.1-1.8,0.3c-0.3,0.2-0.6,0.5-0.7,0.9c-0.1,0.6-0.1,1.4-0.1,2.4h-0.7v-9.1
			h0.7c0,1,0,1.7,0.1,2.1c0.1,0.4,0.3,0.7,0.7,0.9c0.4,0.2,1,0.3,1.8,0.3h6.9c1.7,0,3-0.4,3.9-1.2c0.9-0.8,1.3-1.8,1.3-3
			c0-0.8-0.2-1.5-0.7-2.3c-0.4-0.8-1.2-1.4-2.1-1.9c-1-0.5-2.3-0.8-3.8-0.8h-5.5c-0.9,0-1.5,0.1-1.8,0.3c-0.4,0.2-0.6,0.5-0.7,0.9
			c-0.1,0.6-0.1,1.4-0.1,2.4h-0.7v-9.1h0.7c0,1,0,1.7,0.1,2.1s0.3,0.7,0.7,0.9c0.4,0.2,1,0.3,1.8,0.3h9.2c0.6,0,1-0.1,1.3-0.2
			c0.2-0.1,0.3-0.3,0.3-0.6c0-0.5-0.4-1.4-1-2.6l0.5-0.3l3.2,6L475.6,130.8z"/>
		<path class="st0" d="M471.8,160.5c1.3,0.8,2.3,1.8,3,3c0.7,1.2,1.1,2.6,1.1,4c0,2.1-0.6,3.8-1.8,5.2c-1.2,1.4-2.9,2.4-5.1,3.1
			v-13.9c-0.5,0-0.9-0.1-1.1-0.1c-1.5,0-2.8,0.3-4,0.9c-1.2,0.6-2,1.3-2.7,2.3c-0.6,1-0.9,2.1-0.9,3.3c0,1.5,0.5,2.8,1.4,3.9
			c0.9,1.2,2.4,2.1,4.3,2.7l-0.2,0.5c-1.9-0.6-3.5-1.5-4.8-2.8s-2-2.9-2-5c0-1.5,0.4-2.8,1.1-4.1c0.8-1.3,1.8-2.3,3.1-3.1
			c1.3-0.8,2.8-1.1,4.3-1.1S470.5,159.7,471.8,160.5z M473.6,171.1c1.1-0.9,1.6-2.1,1.6-3.5s-0.5-2.6-1.6-3.6s-2.4-1.7-4.1-2v10.9
			C471.2,172.7,472.6,172.1,473.6,171.1z"/>
		<path class="st0" d="M461.3,195.3c-1.2,1.3-1.8,2.9-1.8,4.7c0,0.9,0.2,1.7,0.6,2.4s0.9,1.2,1.5,1.6c0.6,0.4,1.3,0.6,2.1,0.6
			c1.2,0,2.1-0.4,2.8-1.1s1-1.6,1-2.6c0-0.5-0.1-1.2-0.3-2c-0.2-0.9-0.3-1.7-0.3-2.3c0-0.8,0.2-1.6,0.5-2.3c0.3-0.7,0.8-1.2,1.5-1.6
			c0.6-0.4,1.3-0.6,2.1-0.6s1.6,0.2,2.4,0.7c0.7,0.5,1.3,1.2,1.8,2.2c0.4,0.9,0.7,2.1,0.7,3.3c0,1.8-0.5,3.5-1.5,4.9l1.5,0.4v0.5
			l-6.3,3.1l-0.3-0.4c1.9-1,3.4-2.2,4.4-3.6c1-1.3,1.5-2.8,1.5-4.4c0-1.3-0.4-2.3-1.1-3.1c-0.7-0.8-1.7-1.2-2.9-1.2
			c-1,0-1.8,0.3-2.5,0.9c-0.7,0.6-1,1.5-1,2.5c0,0.5,0.1,1.2,0.3,2c0.2,0.9,0.3,1.7,0.3,2.3c0,0.9-0.2,1.7-0.6,2.4
			c-0.4,0.7-0.9,1.3-1.6,1.7c-0.7,0.4-1.4,0.6-2.3,0.6c-0.9,0-1.8-0.3-2.6-0.8c-0.8-0.6-1.4-1.3-1.9-2.3s-0.7-2-0.7-3.2
			c0-2,0.5-3.7,1.5-5.1l-1.2-0.4v-0.5l6.9-3.3l0.3,0.4C464.1,192.8,462.5,194,461.3,195.3z"/>
		<path class="st0" d="M461.3,226.9c-1.2,1.3-1.8,2.9-1.8,4.7c0,0.9,0.2,1.7,0.6,2.4s0.9,1.2,1.5,1.6c0.6,0.4,1.3,0.6,2.1,0.6
			c1.2,0,2.1-0.3,2.8-1s1-1.6,1-2.6c0-0.5-0.1-1.2-0.3-2c-0.2-0.9-0.3-1.7-0.3-2.3c0-0.8,0.2-1.6,0.5-2.3c0.3-0.7,0.8-1.2,1.5-1.6
			c0.7-0.4,1.3-0.6,2.1-0.6s1.6,0.2,2.4,0.7c0.7,0.5,1.3,1.2,1.8,2.2c0.4,1,0.7,2.1,0.7,3.3c0,1.8-0.5,3.5-1.5,4.9l1.5,0.4v0.5
			l-6.3,3.1l-0.3-0.4c1.9-1,3.4-2.2,4.4-3.6c1-1.4,1.5-2.8,1.5-4.4c0-1.3-0.4-2.3-1.1-3.1c-0.7-0.8-1.7-1.2-2.9-1.2
			c-1,0-1.8,0.3-2.5,0.9c-0.7,0.6-1,1.5-1,2.5c0,0.5,0.1,1.2,0.3,2c0.2,0.9,0.3,1.7,0.3,2.3c0,0.9-0.2,1.7-0.6,2.4
			c-0.4,0.7-0.9,1.3-1.6,1.7c-0.7,0.4-1.4,0.6-2.3,0.6c-0.9,0-1.8-0.3-2.6-0.8c-0.8-0.6-1.4-1.3-1.9-2.3s-0.7-2-0.7-3.2
			c0-2,0.5-3.7,1.5-5.1l-1.2-0.5v-0.5l6.9-3.3l0.3,0.4C464.1,224.4,462.5,225.6,461.3,226.9z"/>
	</g>
	<g>
		<path class="st0" d="M493.6,104.8c0,4-0.5,7-3.2,7c-2.7,0-3.2-2.9-3.2-7c0-3.6,0.8-7.7,3.2-7.7
			C492.9,97.1,493.6,101.1,493.6,104.8z M489.3,104.4c0,4.7,0.1,6.3,1.1,6.3c1.1,0,1.2-1.6,1.2-6.3c0-4-0.4-6.2-1.2-6.2
			C489.6,98.2,489.3,100.3,489.3,104.4z"/>
		<path class="st0" d="M499.7,100c0,1.1-0.2,2.3-0.6,3.2c0.6,0.8,1,2.2,1,3.6c0,2.6-0.6,4.8-2.7,4.8c-2.4,0-2.9-2.2-2.9-6.7
			c0-4.8,1.2-8,3.5-8C499.2,97.1,499.7,98.4,499.7,100z M499,103.1c0.2-0.7,0.3-1.5,0.3-2.2c0-1.5-0.4-2.7-1.2-2.7
			c-1.1,0-1.5,1.7-1.6,5c0.5-0.5,0.9-0.8,1.3-0.8C498.3,102.5,498.6,102.7,499,103.1z M496.5,103.4v1.4c0,4.6,0.3,5.8,0.9,5.8
			s0.8-1.4,0.8-3.6c0-2.1-0.4-3.7-1.2-3.7C496.8,103.3,496.7,103.3,496.5,103.4z"/>
	</g>
</g>
<g>
	<path class="st0" d="M29.7,230.3v-1.6h8.4v1.6H29.7z M34,235.1c-1,0-3.7-0.3-3.7-2.2c0-2,2.6-2.2,3.7-2.2c1,0,3.6,0.2,3.6,2.2
		C37.6,234.9,34.9,235.1,34,235.1z M31.4,239.5v-3.8c0.2,0,1.5,0,1.7,0c0.7,0,0.3,0.5,0.3,0.7v1.2h8.1v1.8H31.4z M32,228v-1.4h3.9
		v1.4H32z M34,232.1c-0.5,0-1.7,0.2-1.7,0.9c0,0.8,1.4,0.9,1.7,0.9c0.4,0,1.6-0.1,1.6-0.8C35.7,232.3,34.6,232.1,34,232.1z
		 M41.2,232.6v3.7h-2v-10.2c0.3,0,1.6,0,1.9,0c0.5,0,0.1,0.5,0.1,0.7v3.9h1.8v1.8H41.2z"/>
	<path class="st0" d="M62.3,236.7c-0.4-0.2-1-0.5-1.7-1.4c-0.7-0.8-1.1-1.5-1.2-1.9c-0.2,0.4-0.5,1-1.3,1.8
		c-0.8,0.8-1.5,1.3-1.9,1.5c-0.3-0.4-0.9-1-1.5-1.3c0.8-0.4,2-1.3,2.9-2.5c1.1-1.5,1-2.8,1-3.7h-2.9v-1.7h7.5v1.7h-2.7
		c0,0.8-0.2,2.1,0.6,3.6c0.8,1.4,1.9,2,2.4,2.3C63.2,235.5,62.7,236.1,62.3,236.7z M65,239.9v-13.8c0.5,0,1.2,0,1.8,0.1
		c0.6,0,0.2,0.5,0.2,1v12.7H65z"/>
	<path class="st0" d="M80.8,230v-1.5h8.3v1.5H80.8z M85,234.5c-0.9,0-3.5-0.3-3.5-2.1c0-1.9,2.5-2.1,3.5-2.1c1,0,3.4,0.2,3.4,2.1
		C88.5,234.3,85.9,234.5,85,234.5z M87.4,239.7c-0.8,0-4.8,0-4.8-2.3c0-2.3,4-2.3,4.8-2.3c0.8,0,5,0,5,2.3
		C92.4,239.7,88.3,239.7,87.4,239.7z M83,228v-1.4h3.9v1.4H83z M85,231.6c-0.4,0-1.6,0.1-1.6,0.9c0,0.7,1.3,0.8,1.6,0.8
		s1.5-0.1,1.5-0.8C86.6,231.8,85.6,231.6,85,231.6z M87.5,236.4c-0.5,0-3,0-3,0.9c0,1,2.5,1,3,1c0.5,0,3.1,0,3.1-1
		C90.5,236.3,88,236.4,87.5,236.4z M90.5,235.2v-0.7h-1.6v-1.6h1.6v-0.9h-1.6v-1.6h1.6v-4.2c0.4,0,1.6,0,1.8,0
		c0.6,0,0.2,0.6,0.2,0.7v8.3H90.5z"/>
</g>
</svg>
