<?xml version="1.0" encoding="utf-8"?>
<!-- Generator: Adobe Illustrator 25.0.1, SVG Export Plug-In . SVG Version: 6.00 Build 0)  -->
<svg version="1.1" id="레이어_1" xmlns="http://www.w3.org/2000/svg" xmlns:xlink="http://www.w3.org/1999/xlink" x="0px"
	 y="0px" viewBox="0 0 31.7 397.4" style="enable-background:new 0 0 31.7 397.4;" xml:space="preserve">
<style type="text/css">
	.st0{fill:#00FF00;}
</style>
<g>
	<g>
		<path class="st0" d="M16,7.9v12.7h-0.2l-2.2-9.4H9.1v14.3h0.1c0-1.8,2.1-3.5,4-3.5v7.9H13l-1.7-3.5c-1.1,0.3-2.2,2.5-2.2,5.2v9.3
			l3.3,2.2v0.3H2.1V43l2.3-2.2V10.4L2.1,8.3V7.9H16z"/>
		<path class="st0" d="M11.4,59.9v33l2.3,2.1v0.3H4.4V95l2.3-2.1V62.4l-2.3-2.1V60h7V59.9z"/>
		<path class="st0" d="M16.2,130.1c0,8.9-1.7,13-7.1,13c-5.5,0-7.2-4.1-7.2-13c0-8.5,1.9-14.3,7.2-14.3S16.2,121.6,16.2,130.1z
			 M6.8,129.3c0,8.1,0.6,11.4,2.2,11.4s2.2-3.3,2.2-11.4c0-7.9-0.6-11.5-2.2-11.5C7.5,117.8,6.8,121.5,6.8,129.3z"/>
		<path class="st0" d="M7,166.5v19.7c0,2.4,0.5,3.1,1.4,3.1c1.4,0,2.7-2.8,2.7-6v-14.4l-2.2-2.1v-0.3h7V190l2.3,2.1v0.3h-6.8
			l0.2-4.5h-0.2c-0.8,3.5-2.5,5-4.9,5c-3.7,0-4.2-3.2-4.2-7.8v-16.2L0,166.8v-0.3H7z"/>
		<path class="st0" d="M6.9,217.5l-0.2,5h0.2c0.9-3.5,2.7-5.5,5-5.5c3.7,0,4.1,3.2,4.1,7.8V241l2.3,2.1v0.3H0.1V243l2.3-2.1v-21
			l-2.3-2.1v-0.3L6.9,217.5L6.9,217.5z M7.1,226.6V241l2.2,2.1l1.9-2.1v-17.2c0-2.4-0.5-3.2-1.4-3.2C8.4,220.6,7.1,223.4,7.1,226.6z
			"/>
		<path class="st0" d="M14.9,262.9v33l2.3,2.1v0.3h-9c-5.4,0-6.5-5.5-6.5-12.3c0-8.3,2.2-14,7.5-14c0.3,0,0.6,0,1,0.1v-6.8l-2.3-2.1
			v-0.3L14.9,262.9L14.9,262.9z M6.4,286.1c0,7,0.9,10.3,3.1,10.3c0.2,0,0.5,0,0.7-0.2V274C7.6,274,6.4,279.7,6.4,286.1z"/>
		<path class="st0" d="M15.4,333.2c0,10.9-2.3,13.9-6.2,13.9c-4.5,0-6.6-4.1-6.6-13c0-8.5,1.6-14.3,6.9-14.3
			C13.7,319.8,15.4,322.8,15.4,333.2z M15.1,333.2H7.2c0,6.5,0.9,10,3.7,10C13.2,343.3,15.1,339.9,15.1,333.2z M7.3,331h4.4
			c0-7-0.8-9.2-2.2-9.2C8.2,321.8,7.3,324.1,7.3,331z"/>
		<path class="st0" d="M10.1,371.5l-0.2,5.4h0.2c0-2.2,1.8-6.1,5-6.1V384h-0.3v-3.8l-1.7-4.3c-1.8,0-3,2.7-3,5.4v13.5l2.8,2.2v0.3
			H3.1V397l2.3-2.2v-20.9l-2.3-2.1v-0.3H10.1z"/>
	</g>
	<g>
		<path class="st0" d="M20.2,7.3c-0.5-0.3-0.8-0.8-1.1-1.4s-0.4-1.3-0.4-2s0.1-1.4,0.4-2c0.2-0.6,0.6-1.1,1.1-1.4s1-0.5,1.7-0.5
			s1.2,0.2,1.7,0.5s0.8,0.8,1.1,1.4s0.4,1.3,0.4,2s-0.1,1.4-0.4,2S24,7,23.6,7.3c-0.5,0.3-1,0.5-1.7,0.5C21.2,7.9,20.7,7.7,20.2,7.3
			z M23.1,7.1c0.3-0.3,0.6-0.8,0.8-1.3s0.3-1.2,0.3-1.9S24,2.6,23.9,2.1c-0.2-0.6-0.4-1-0.8-1.3s-0.8-0.5-1.2-0.5
			c-0.5,0-0.9,0.2-1.2,0.5c-0.3,0.3-0.6,0.8-0.8,1.3S19.6,3.3,19.6,4s0.1,1.3,0.3,1.9s0.4,1,0.8,1.3c0.3,0.3,0.8,0.5,1.2,0.5
			C22.4,7.6,22.8,7.5,23.1,7.1z"/>
		<path class="st0" d="M27,0.8C27.5,0.3,28.2,0,29.1,0c0.4,0,0.8,0.1,1.2,0.2s0.6,0.4,0.8,0.6s0.3,0.6,0.3,0.9
			c0,0.5-0.2,0.9-0.6,1.2s-1,0.5-1.6,0.6c0.5,0,1,0.1,1.3,0.3c0.4,0.2,0.7,0.4,0.9,0.7c0.2,0.3,0.3,0.7,0.3,1c0,0.4-0.1,0.8-0.4,1.1
			c-0.2,0.3-0.6,0.6-1,0.8c-0.4,0.2-0.8,0.3-1.3,0.3c-0.7,0-1.4-0.2-1.9-0.6c-0.6-0.4-1-1.1-1.2-1.9l0.2-0.1
			c0.2,0.8,0.6,1.4,1.1,1.7s1,0.6,1.6,0.6c0.4,0,0.7-0.1,1-0.2c0.3-0.2,0.5-0.4,0.7-0.7c0.2-0.3,0.2-0.6,0.2-0.9S30.6,5,30.4,4.7
			c-0.2-0.3-0.5-0.5-0.8-0.7c-0.4-0.2-0.9-0.3-1.4-0.3h-0.8V3.5h0.5c0.8,0,1.4-0.2,1.9-0.5c0.4-0.3,0.7-0.8,0.7-1.4
			c0-0.3-0.1-0.5-0.2-0.7S30,0.5,29.8,0.4S29.3,0.2,29,0.2c-0.4,0-0.8,0.1-1.1,0.4c-0.3,0.2-0.6,0.6-0.8,1s-0.3,0.8-0.3,1.3h-0.9
			C26,2,26.4,1.3,27,0.8z"/>
	</g>
</g>
</svg>
