<?xml version="1.0" encoding="utf-8"?>
<!-- Generator: Adobe Illustrator 25.0.1, SVG Export Plug-In . SVG Version: 6.00 Build 0)  -->
<svg version="1.1" id="레이어_1" xmlns="http://www.w3.org/2000/svg" xmlns:xlink="http://www.w3.org/1999/xlink" x="0px"
	 y="0px" viewBox="0 0 700 397.4" style="enable-background:new 0 0 700 397.4;" xml:space="preserve">
<style type="text/css">
	.st0{fill:#0000FF;}
</style>
<g>
	<g>
		<g>
			<path class="st0" d="M317.5,7.9v12.7h-0.2l-2.2-9.4h-4.5v14.3h0.1c0-1.8,2.1-3.5,4-3.5v7.9h-0.2l-1.7-3.5
				c-1.1,0.3-2.2,2.5-2.2,5.2v9.3l3.3,2.2v0.3h-10.3V43l2.3-2.2V10.4l-2.3-2.1V7.9H317.5z"/>
			<path class="st0" d="M312.9,59.9v33l2.3,2.1v0.3h-9.3V95l2.3-2.1V62.4l-2.3-2.1V60h7V59.9z"/>
			<path class="st0" d="M317.7,130.1c0,8.9-1.7,13-7.1,13c-5.5,0-7.2-4.1-7.2-13c0-8.5,1.9-14.3,7.2-14.3S317.7,121.6,317.7,130.1z
				 M308.3,129.3c0,8.1,0.6,11.4,2.2,11.4s2.2-3.3,2.2-11.4c0-7.9-0.6-11.5-2.2-11.5C309,117.8,308.3,121.5,308.3,129.3z"/>
			<path class="st0" d="M308.5,166.5v19.7c0,2.4,0.5,3.1,1.4,3.1c1.4,0,2.7-2.8,2.7-6v-14.4l-2.2-2.1v-0.3h7V190l2.3,2.1v0.3h-6.8
				l0.2-4.5h-0.2c-0.8,3.5-2.5,5-4.9,5c-3.7,0-4.2-3.2-4.2-7.8v-16.2l-2.3-2.1v-0.3H308.5z"/>
			<path class="st0" d="M308.4,217.5l-0.2,5h0.2c0.9-3.5,2.7-5.5,5-5.5c3.7,0,4.1,3.2,4.1,7.8V241l2.3,2.1v0.3h-18.2V243l2.3-2.1
				v-21l-2.3-2.1v-0.3L308.4,217.5L308.4,217.5z M308.6,226.6V241l2.2,2.1l1.9-2.1v-17.2c0-2.4-0.5-3.2-1.4-3.2
				C309.9,220.6,308.6,223.4,308.6,226.6z"/>
			<path class="st0" d="M316.4,262.9v33l2.3,2.1v0.3h-9c-5.4,0-6.5-5.5-6.5-12.3c0-8.3,2.2-14,7.5-14c0.3,0,0.6,0,1,0.1v-6.8
				l-2.3-2.1v-0.3L316.4,262.9L316.4,262.9z M307.9,286.1c0,7,0.9,10.3,3.1,10.3c0.2,0,0.5,0,0.7-0.2V274
				C309.1,274,307.9,279.7,307.9,286.1z"/>
			<path class="st0" d="M316.9,333.2c0,10.9-2.3,13.9-6.2,13.9c-4.5,0-6.6-4.1-6.6-13c0-8.5,1.6-14.3,6.9-14.3
				C315.2,319.8,316.9,322.8,316.9,333.2z M316.6,333.2h-7.9c0,6.5,0.9,10,3.7,10C314.7,343.3,316.6,339.9,316.6,333.2z M308.8,331
				h4.4c0-7-0.8-9.2-2.2-9.2C309.7,321.8,308.8,324.1,308.8,331z"/>
			<path class="st0" d="M311.6,371.5l-0.2,5.4h0.2c0-2.2,1.8-6.1,5-6.1V384h-0.3v-3.8l-1.7-4.3c-1.8,0-3,2.7-3,5.4v13.5l2.8,2.2v0.3
				h-9.8V397l2.3-2.2v-20.9l-2.3-2.1v-0.3H311.6z"/>
		</g>
		<g>
			<path class="st0" d="M321.7,7.3c-0.5-0.3-0.8-0.8-1.1-1.4s-0.4-1.3-0.4-2s0.1-1.4,0.4-2c0.2-0.6,0.6-1.1,1.1-1.4s1-0.5,1.7-0.5
				c0.7,0,1.2,0.2,1.7,0.5s0.8,0.8,1.1,1.4c0.3,0.6,0.4,1.3,0.4,2s-0.1,1.4-0.4,2s-0.7,1.1-1.1,1.4c-0.5,0.3-1,0.5-1.7,0.5
				C322.7,7.9,322.2,7.7,321.7,7.3z M324.6,7.1c0.3-0.3,0.6-0.8,0.8-1.3c0.2-0.5,0.3-1.2,0.3-1.9s-0.2-1.3-0.3-1.8
				c-0.2-0.6-0.4-1-0.8-1.3s-0.8-0.5-1.2-0.5c-0.5,0-0.9,0.2-1.2,0.5c-0.3,0.3-0.6,0.8-0.8,1.3c-0.2,0.5-0.3,1.2-0.3,1.9
				s0.1,1.3,0.3,1.9c0.2,0.6,0.4,1,0.8,1.3c0.3,0.3,0.8,0.5,1.2,0.5C323.9,7.6,324.3,7.5,324.6,7.1z"/>
			<path class="st0" d="M328.5,0.8c0.5-0.5,1.2-0.8,2.1-0.8c0.4,0,0.8,0.1,1.2,0.2c0.4,0.1,0.6,0.4,0.8,0.6s0.3,0.6,0.3,0.9
				c0,0.5-0.2,0.9-0.6,1.2c-0.4,0.3-1,0.5-1.6,0.6c0.5,0,1,0.1,1.3,0.3c0.4,0.2,0.7,0.4,0.9,0.7c0.2,0.3,0.3,0.7,0.3,1
				c0,0.4-0.1,0.8-0.4,1.1c-0.2,0.3-0.6,0.6-1,0.8c-0.4,0.2-0.8,0.3-1.3,0.3c-0.7,0-1.4-0.2-1.9-0.6c-0.6-0.4-1-1.1-1.2-1.9l0.2-0.1
				c0.2,0.8,0.6,1.4,1.1,1.7s1,0.6,1.6,0.6c0.4,0,0.7-0.1,1-0.2c0.3-0.2,0.5-0.4,0.7-0.7c0.2-0.3,0.2-0.6,0.2-0.9s-0.1-0.6-0.3-0.9
				c-0.2-0.3-0.5-0.5-0.8-0.7c-0.4-0.2-0.9-0.3-1.4-0.3h-0.8V3.5h0.5c0.8,0,1.4-0.2,1.9-0.5c0.4-0.3,0.7-0.8,0.7-1.4
				c0-0.3-0.1-0.5-0.2-0.7s-0.3-0.4-0.5-0.5c-0.2-0.1-0.5-0.2-0.8-0.2c-0.4,0-0.8,0.1-1.1,0.4c-0.3,0.2-0.6,0.6-0.8,1
				c-0.2,0.4-0.3,0.8-0.3,1.3h-0.9C327.5,2,327.9,1.3,328.5,0.8z"/>
		</g>
	</g>
	<g>
		<path class="st0" d="M362.2,131.7c-3.2,0-5.5-2.1-5.5-5.1s2.3-5.1,5.5-5.1s5.5,2.1,5.5,5.1S365.4,131.7,362.2,131.7z M362.2,130.5
			c2.2,0,4-1.4,4-3.9c0-2.5-1.8-3.9-4-3.9c-2.2,0-3.9,1.5-3.9,3.9C358.3,129,360,130.5,362.2,130.5z M373.1,140
			c0.7,0,1.8,0.1,2.3,0.2c0.2,0,0.3,0.1,0.3,0.3c0,0.4-0.1,0.7-0.2,0.8c-0.1,0.1-0.2,0.1-0.3,0.1l-10.6,0c-1.6,0-2.1-0.5-2.1-1.9
			v-3.7c-0.4-0.3-1.1-0.5-1.8-0.7l0.1-0.5c0-0.1,0.1-0.2,0.2-0.2c0.8,0,2.1,0.1,2.7,0.2c0.2,0.1,0.4,0.2,0.4,0.5l0,1v3.6
			c0,0.5,0.2,0.6,0.6,0.6c1.6,0,6.2,0,7.7-0.1L373.1,140z M376.4,126.8c0.7,0,1.7,0,2.2,0.1c0.2,0,0.3,0.2,0.3,0.4
			c0,0.4-0.2,0.7-0.3,0.8c-0.1,0.1-0.3,0.1-0.4,0.1l-4.4,0v3.2c0,1.7-0.2,3.5-0.5,4.7h-0.9c-0.1-1-0.1-3-0.1-4.1v-11.7
			c-0.5-0.5-1.2-0.9-2.1-1.2l0.2-0.5c0-0.1,0.1-0.1,0.2-0.1c0.8,0,2.3,0.3,3,0.6c0.2,0.1,0.3,0.2,0.3,0.5l0,1.3v6.5l1.8-0.1
			L376.4,126.8z"/>
		<path class="st0" d="M412.1,136.8c0.9,0,2.1,0.1,2.7,0.3c0.2,0,0.3,0.2,0.3,0.4c0,0.4-0.3,0.7-0.5,0.8c-0.7-0.1-2.1-0.1-2.8-0.1
			c-1.8,0-13.4,0.1-14.7,0.2c-0.6,0.1-1.8,0.3-2.4,0.5c-0.9-0.3-1.8-0.7-2.4-1.2c-0.1-0.1-0.1-0.1-0.1-0.2l0.2-0.3
			c0.8,0.2,1.9,0.2,2.7,0.2c0.8,0,4.4,0,8.1-0.1v-3.9c-0.3-0.3-1-0.6-1.6-0.8l0.1-0.5c0,0,0.1-0.1,0.2-0.1c0.8,0,2,0.1,2.7,0.3
			c0.2,0,0.2,0.2,0.2,0.3l-0.1,1l-0.1,3.6c3.1-0.1,5.9-0.1,6.6-0.2L412.1,136.8z M394,133.2c0,0,0-0.2,0-0.2
			c5.7-2.2,10.5-5,13.5-8.2c-2.1,0-7,0.1-8.1,0.2c-0.5,0-1.5,0.2-2,0.4c-0.8-0.2-1.6-0.7-2.1-1.1c-0.1-0.1-0.1-0.2-0.1-0.2l0.2-0.3
			c0.7,0.1,1.7,0.2,2.4,0.2c1.2,0,8.4-0.1,9.9-0.2l1-0.4c0.1,0,0.3,0,0.4,0c0.3,0.1,0.9,0.3,1.2,0.5c0.1,0,0.1,0.2,0,0.3l-0.6,0.6
			c-1.3,1.5-3.2,3-5.2,4.3l4.2,1.2l1.7,0c0.7,0.2,1.7,0.7,2.1,1c0.3,0.2,0.4,0.3,0.5,0.5c0,0.3-0.2,0.6-0.4,0.6
			c-0.2,0.1-0.5,0-0.7-0.1l-8.5-2.6c-2.7,1.5-5.8,2.8-9,3.7c-0.1,0-0.2,0-0.2,0L394,133.2z M399.4,119.7c2.3,0.4,4.9,0.5,6.8,0.5
			c0.2,0,0.3,0.1,0.3,0.2c0.1,0.2,0,0.7,0,0.8c0,0.1-0.2,0.2-0.3,0.2c-1.5,0-3.6,0-4.7,0.1c-0.2,0-0.3,0-0.5-0.1
			c-0.5-0.3-1.2-0.8-1.7-1.3c0-0.1,0-0.1,0-0.2L399.4,119.7z"/>
		<path class="st0" d="M448.8,131c0.9,0,2.1,0.2,2.7,0.3c0.2,0,0.3,0.2,0.3,0.4c0,0.4-0.3,0.7-0.5,0.8c-0.7-0.1-2.1-0.1-2.8-0.1
			c-1.8,0-13.4,0.1-14.7,0.2c-0.6,0-1.8,0.3-2.4,0.5c-0.9-0.3-1.8-0.7-2.4-1.2c-0.1,0-0.1-0.1-0.1-0.2l0.2-0.4
			c0.8,0.2,1.9,0.2,2.7,0.2s4.2,0,7.8-0.1v-2.8l-3.9,0.1c-1.3,0-1.6-0.4-1.6-1.5V125c-0.4-0.3-0.9-0.5-1.5-0.6l0.1-0.5
			c0-0.1,0.1-0.1,0.2-0.1c0.6,0,2.1,0,2.7,0.1c2,0,7.5-0.1,8.5-0.2l0.4-0.1c0.1-0.6,0.1-2.1,0.1-2.8c-1.6,0-6.6,0.1-7.7,0.1
			c-0.4,0-1.4,0.2-2,0.4c-0.8-0.2-1.5-0.6-2-1c-0.1-0.1-0.1-0.2-0.1-0.2l0.2-0.2c0.6,0.2,1.6,0.2,2.3,0.2c1.3,0,7.9-0.1,9.5-0.2
			l0.7-0.4c0.1,0,0.2,0,0.4,0c0.2,0.1,0.7,0.4,0.8,0.5c0.1,0.1,0.1,0.2,0,0.3l-0.3,0.5c-0.1,0.8-0.3,2-0.5,2.7l0.5,0.2
			c0.1,0.1,0.1,0.1,0.1,0.2c0,0.2-0.1,0.4-0.2,0.5l-10.7,0.2v2.7c0,0.3,0.1,0.4,0.4,0.4c2.1,0,7-0.1,8.5-0.2l0.7-0.4
			c0.7,0,1.7,0,2.1,0.1c0.2,0,0.3,0.1,0.3,0.3c0,0.4-0.1,0.6-0.2,0.7c-0.1,0.1-0.2,0.1-0.3,0.1l-6.1,0.1v2.8c3.1,0,6.1-0.1,6.8-0.2
			L448.8,131z M445.7,138.4c0,2.4-2.2,4.2-5.5,4.2s-5.5-1.7-5.5-4.2c0-2.4,2.2-4,5.5-4S445.7,136,445.7,138.4z M444.1,138.4
			c0-1.9-1.6-3.1-3.9-3.1c-2.2,0-3.8,1.2-3.8,3.1c0,1.9,1.6,3.1,3.8,3.1C442.5,141.4,444.1,140.3,444.1,138.4z"/>
	</g>
</g>
</svg>
