<?xml version="1.0" encoding="utf-8"?>
<!-- Generator: Adobe Illustrator 25.0.1, SVG Export Plug-In . SVG Version: 6.00 Build 0)  -->
<svg version="1.1" id="레이어_1" xmlns="http://www.w3.org/2000/svg" xmlns:xlink="http://www.w3.org/1999/xlink" x="0px"
	 y="0px" viewBox="0 0 590.7 400" style="enable-background:new 0 0 590.7 400;" xml:space="preserve">
<style type="text/css">
	.st0{fill:#0000FF;}
</style>
<g>
	<path class="st0" d="M138.3,225.8v11.1c0.5-1.4,1.3-2.5,2.4-3.2c1.1-0.7,2.2-1.1,3.4-1.1c1,0,2,0.2,2.8,0.7s1.5,1.1,2,2
		c0.5,0.9,0.7,2,0.7,3.2v7.4c0,0.9,0.1,1.5,0.3,1.8c0.2,0.4,0.5,0.6,0.9,0.7s1.1,0.1,2.1,0.1v0.7H144v-0.7c1,0,1.7,0,2.1-0.1
		c0.4-0.1,0.7-0.3,0.9-0.7c0.2-0.4,0.3-1,0.3-1.8V239c0-1.7-0.4-3-1.2-3.9c-0.8-0.9-1.8-1.3-3-1.3c-0.8,0-1.5,0.2-2.3,0.7
		c-0.8,0.4-1.4,1.2-1.9,2.1c-0.5,1-0.8,2.3-0.8,3.8v5.4c0,0.9,0.1,1.5,0.3,1.8s0.5,0.6,0.9,0.7c0.4,0.1,1.1,0.1,2.1,0.1v0.7h-9.1
		v-0.7c1,0,1.7,0,2.1-0.1c0.4-0.1,0.7-0.3,0.9-0.7c0.2-0.4,0.3-1,0.3-1.8v-16.1c0-0.6-0.1-1-0.2-1.3c-0.1-0.2-0.3-0.3-0.6-0.3
		c-0.5,0-1.4,0.4-2.6,1l-0.3-0.5l6.1-3.1L138.3,225.8z"/>
	<path class="st0" d="M171.3,248.6c-1.3-0.8-2.3-1.8-3.1-3.1c-0.8-1.3-1.1-2.7-1.1-4.3c0-1.5,0.4-3,1.1-4.3c0.8-1.3,1.8-2.3,3.1-3.1
		s2.7-1.1,4.2-1.1s3,0.4,4.2,1.1c1.3,0.8,2.3,1.8,3.1,3.1s1.1,2.7,1.1,4.3c0,1.6-0.4,3-1.1,4.3c-0.8,1.3-1.8,2.3-3.1,3.1
		s-2.7,1.1-4.2,1.1S172.6,249.3,171.3,248.6z M178.8,248c0.9-0.7,1.5-1.6,2-2.8s0.7-2.5,0.7-4s-0.2-2.8-0.7-4s-1.2-2.1-2.1-2.8
		c-0.9-0.7-2-1-3.2-1c-1.1,0-2.1,0.3-3,1s-1.5,1.6-2,2.8s-0.7,2.5-0.7,4s0.2,2.8,0.7,4s1.2,2.1,2.1,2.8c0.9,0.7,2,1,3.2,1
		C176.9,249,177.9,248.7,178.8,248z"/>
	<path class="st0" d="M204.7,225.8V246c0,0.9,0.1,1.5,0.3,1.8c0.2,0.3,0.5,0.6,0.9,0.7c0.4,0.1,1.1,0.1,2.1,0.1v0.7h-9v-0.7
		c1,0,1.7,0,2.1-0.1c0.4-0.1,0.7-0.3,0.9-0.7c0.2-0.4,0.3-1,0.3-1.8v-16.3c0-0.6-0.1-1-0.2-1.3c-0.1-0.2-0.3-0.3-0.6-0.3
		c-0.5,0-1.4,0.4-2.6,1l-0.3-0.5l5.7-3.2L204.7,225.8z"/>
	<path class="st0" d="M228.7,225.8V246c0,0.9,0.1,1.5,0.3,1.8c0.2,0.3,0.5,0.6,0.9,0.7c0.4,0.1,1.1,0.1,2.1,0.1v0.7h-9v-0.7
		c1,0,1.7,0,2.1-0.1c0.4-0.1,0.7-0.3,0.9-0.7c0.2-0.4,0.3-1,0.3-1.8v-16.3c0-0.6-0.1-1-0.2-1.3c-0.1-0.2-0.3-0.3-0.6-0.3
		c-0.5,0-1.4,0.4-2.6,1l-0.3-0.5l5.7-3.2L228.7,225.8z"/>
	<path class="st0" d="M251.4,248.6c-1.3-0.8-2.3-1.8-3.1-3.1c-0.8-1.3-1.1-2.7-1.1-4.3c0-1.5,0.4-3,1.1-4.3c0.8-1.3,1.8-2.3,3.1-3.1
		s2.7-1.1,4.2-1.1c1.5,0,3,0.4,4.2,1.1c1.3,0.8,2.3,1.8,3.1,3.1c0.8,1.3,1.1,2.7,1.1,4.3c0,1.6-0.4,3-1.1,4.3
		c-0.8,1.3-1.8,2.3-3.1,3.1c-1.3,0.8-2.7,1.1-4.2,1.1S252.7,249.3,251.4,248.6z M258.8,248c0.9-0.7,1.5-1.6,2-2.8s0.7-2.5,0.7-4
		s-0.2-2.8-0.7-4s-1.2-2.1-2.1-2.8s-2-1-3.2-1c-1.1,0-2.1,0.3-3,1s-1.5,1.6-2,2.8s-0.7,2.5-0.7,4s0.2,2.8,0.7,4s1.2,2.1,2.1,2.8
		c0.9,0.7,2,1,3.2,1C257,249,258,248.7,258.8,248z"/>
	<path class="st0" d="M286.1,233v0.7c-0.9,0-1.6,0-1.9,0.1c-0.3,0.1-0.5,0.3-0.5,0.7c0,0.3,0.1,0.8,0.4,1.4l4.1,10.5l3.5-9.2
		l-0.5-1.3c-0.3-0.7-0.6-1.3-0.9-1.6s-0.6-0.5-1-0.6c-0.4-0.1-0.9-0.1-1.7-0.1V233h7.9v0.7c-0.9,0-1.6,0-1.9,0.1
		c-0.3,0.1-0.5,0.3-0.5,0.7c0,0.3,0.1,0.8,0.4,1.4l4.1,10.5l3.8-9.8c0.4-1,0.6-1.7,0.6-2.1c0-0.4-0.2-0.6-0.5-0.7
		c-0.3-0.1-0.9-0.1-1.8-0.1V233h6.3v0.7c-0.8,0-1.3,0-1.7,0.1c-0.4,0.1-0.7,0.3-1,0.8c-0.3,0.4-0.7,1.1-1,2l-5.1,13.1h-0.6
		l-4.5-11.4l-4.4,11.4h-0.6l-5.4-13.7c-0.3-0.7-0.6-1.3-0.9-1.6s-0.6-0.5-1-0.6c-0.4-0.1-0.9-0.1-1.7-0.1V233H286.1z"/>
	<path class="st0" d="M347.5,233l-0.6,4.7c0.3-1.1,0.8-2.1,1.4-2.8s1.4-1.3,2.2-1.7c0.8-0.4,1.6-0.5,2.4-0.5c1.4,0,2.6,0.4,3.6,1.2
		s1.6,1.9,1.8,3.4c0.5-1.5,1.3-2.7,2.4-3.4c1.1-0.8,2.3-1.2,3.5-1.2c1,0,2,0.2,2.8,0.7s1.5,1.1,2,2s0.7,2,0.7,3.2v7.4
		c0,0.9,0.1,1.5,0.3,1.8c0.2,0.4,0.5,0.6,0.9,0.7c0.4,0.1,1.1,0.1,2.1,0.1v0.7h-9.1v-0.7c1,0,1.7,0,2.1-0.1c0.4-0.1,0.7-0.3,0.9-0.7
		c0.2-0.4,0.3-1,0.3-1.8v-6.9c0-1.7-0.4-3-1.2-3.9c-0.8-0.9-1.8-1.3-3-1.3c-0.8,0-1.5,0.2-2.3,0.7c-0.8,0.4-1.4,1.2-1.9,2.1
		c-0.5,1-0.8,2.3-0.8,3.8v5.4c0,0.9,0.1,1.5,0.3,1.8c0.2,0.4,0.5,0.6,0.9,0.7s1.1,0.1,2.1,0.1v0.7h-9.1v-0.7c1,0,1.7,0,2.1-0.1
		s0.7-0.3,0.9-0.7c0.2-0.4,0.3-1,0.3-1.8V239c0-1.7-0.4-3-1.2-3.9c-0.8-0.9-1.8-1.3-3-1.3c-0.8,0-1.5,0.2-2.3,0.7
		c-0.8,0.4-1.4,1.2-1.9,2.1c-0.5,1-0.8,2.3-0.8,3.8v5.4c0,0.9,0.1,1.5,0.3,1.8s0.5,0.6,0.9,0.7c0.4,0.1,1.1,0.1,2.1,0.1v0.7h-9.1
		v-0.7c1,0,1.7,0,2.1-0.1c0.4-0.1,0.7-0.3,0.9-0.7c0.2-0.4,0.3-1,0.3-1.8v-9.2c0-0.6-0.1-1-0.2-1.3c-0.1-0.2-0.3-0.3-0.6-0.3
		c-0.5,0-1.4,0.4-2.6,1l-0.3-0.5l6-3.2L347.5,233z"/>
	<path class="st0" d="M388.5,236.8c0.8-1.3,1.8-2.3,3-3c1.2-0.7,2.6-1.1,4-1.1c2.1,0,3.8,0.6,5.2,1.8c1.4,1.2,2.4,2.9,3.1,5.1H390
		c0,0.5-0.1,0.9-0.1,1.1c0,1.5,0.3,2.8,0.9,4s1.3,2,2.3,2.7c1,0.6,2.1,0.9,3.3,0.9c1.5,0,2.8-0.5,3.9-1.4s2.1-2.4,2.7-4.3l0.5,0.2
		c-0.6,1.9-1.5,3.5-2.8,4.8s-2.9,2-5,2c-1.5,0-2.8-0.4-4.1-1.1c-1.3-0.8-2.3-1.8-3.1-3.1c-0.8-1.3-1.1-2.8-1.1-4.3
		S387.8,238.1,388.5,236.8z M399.2,235c-0.9-1.1-2.1-1.6-3.5-1.6s-2.6,0.5-3.6,1.6c-1,1.1-1.7,2.4-2,4.1H401
		C400.7,237.4,400.1,236.1,399.2,235z"/>
	<path class="st0" d="M424.8,233l-0.6,4.7c0.3-1.1,0.8-2.1,1.4-2.8c0.7-0.8,1.4-1.3,2.2-1.7c0.8-0.4,1.6-0.5,2.4-0.5
		c1,0,2,0.2,2.8,0.7s1.5,1.1,2,2s0.7,2,0.7,3.2v7.4c0,0.9,0.1,1.5,0.3,1.8c0.2,0.4,0.5,0.6,0.9,0.7c0.4,0.1,1.1,0.1,2.1,0.1v0.7
		h-9.1v-0.7c1,0,1.7,0,2.1-0.1c0.4-0.1,0.7-0.3,0.9-0.7c0.2-0.4,0.3-1,0.3-1.8v-6.9c0-1.7-0.4-3-1.2-3.9c-0.8-0.9-1.8-1.3-3-1.3
		c-0.8,0-1.5,0.2-2.3,0.7c-0.8,0.4-1.4,1.2-1.9,2.1c-0.5,1-0.8,2.3-0.8,3.8v5.4c0,0.9,0.1,1.5,0.3,1.8c0.2,0.4,0.5,0.6,0.9,0.7
		s1.1,0.1,2.1,0.1v0.7h-9.1v-0.7c1,0,1.7,0,2.1-0.1s0.7-0.3,0.9-0.7c0.2-0.4,0.3-1,0.3-1.8v-9.2c0-0.6-0.1-1-0.2-1.3
		c-0.1-0.2-0.3-0.3-0.6-0.3c-0.5,0-1.3,0.4-2.6,1l-0.3-0.5l6-3.2L424.8,233z"/>
	<path class="st0" d="M456.5,249.7c-0.6,0-1.1-0.2-1.5-0.5s-0.6-0.7-0.6-1.1c0-0.4,0.2-0.8,0.6-1.1c0.4-0.3,0.9-0.5,1.5-0.5
		s1.1,0.2,1.5,0.5c0.4,0.3,0.6,0.7,0.6,1.1c0,0.3-0.1,0.6-0.3,0.9c-0.2,0.3-0.6,0.9-1.1,1.6c-0.6,0.7-1.5,1.9-2.9,3.6h-2.2l5.4-4.7
		C457.2,249.6,456.9,249.7,456.5,249.7z"/>
	<path class="st0" d="M5.7,283v10.2c0,1.8,0.4,3.1,1.1,3.9c0.8,0.8,1.8,1.3,3,1.3c0.8,0,1.5-0.2,2.3-0.7c0.8-0.4,1.4-1.2,1.9-2.1
		s0.8-2.3,0.8-3.8v-5.4c0-0.9-0.1-1.5-0.3-1.8c-0.2-0.3-0.5-0.6-0.9-0.7s-1.1-0.1-2.1-0.1v-0.7H17v12.6c0,0.7,0.1,1.2,0.2,1.5
		c0.1,0.3,0.3,0.5,0.7,0.5c0.5,0,1.3-0.2,2.5-0.7l0.2,0.5l-6,2.3l-0.3-0.3l0.8-5c-0.3,1.2-0.8,2.2-1.4,3s-1.4,1.4-2.2,1.8
		c-0.8,0.4-1.7,0.6-2.5,0.6c-1.6,0-2.9-0.5-3.9-1.6c-1-1.1-1.5-2.5-1.5-4.4v-7.4c0-0.9-0.1-1.5-0.3-1.8c-0.2-0.3-0.5-0.6-0.9-0.7
		c-0.7-0.3-1.4-0.3-2.4-0.3V283H5.7z"/>
	<path class="st0" d="M41.2,283l-0.6,4.7c0.3-1.1,0.8-2.1,1.4-2.8s1.4-1.3,2.2-1.7c0.8-0.4,1.6-0.5,2.4-0.5c1,0,2,0.2,2.8,0.7
		s1.5,1.1,2,2s0.7,2,0.7,3.2v7.4c0,0.9,0.1,1.5,0.3,1.8c0.2,0.4,0.5,0.6,0.9,0.7c0.4,0.1,1.1,0.1,2.1,0.1v0.7h-9.1v-0.7
		c1,0,1.7,0,2.1-0.1c0.4-0.1,0.7-0.3,0.9-0.7s0.3-1,0.3-1.8v-6.9c0-1.7-0.4-3-1.2-3.9s-1.8-1.3-3-1.3c-0.8,0-1.5,0.2-2.3,0.7
		c-0.8,0.4-1.4,1.2-1.9,2.1c-0.5,1-0.8,2.3-0.8,3.8v5.4c0,0.9,0.1,1.5,0.3,1.8c0.2,0.3,0.5,0.6,0.9,0.7s1.1,0.1,2.1,0.1v0.7h-9.1
		v-0.7c1,0,1.7,0,2.1-0.1c0.4-0.1,0.7-0.3,0.9-0.7c0.2-0.4,0.3-1,0.3-1.8v-9.2c0-0.6-0.1-1-0.2-1.3c-0.1-0.2-0.3-0.3-0.6-0.3
		c-0.5,0-1.4,0.4-2.6,1l0.5-0.2l6-3.2L41.2,283z"/>
	<path class="st0" d="M75.9,283v13.1c0,0.9,0.1,1.5,0.3,1.8s0.5,0.6,0.9,0.7c0.4,0.1,1.1,0.1,2.1,0.1v0.7h-9.1v-0.7
		c1,0,1.7,0,2.1-0.1c0.4-0.1,0.7-0.3,0.9-0.7s0.3-1,0.3-1.8v-9.2c0-0.6-0.1-1-0.2-1.3c-0.1-0.2-0.3-0.3-0.6-0.3
		c-0.5,0-1.4,0.4-2.6,1l-0.3-0.5l5.7-3.2L75.9,283z M73.2,276.6c0.4-0.3,0.9-0.5,1.5-0.5s1.1,0.2,1.5,0.5c0.4,0.3,0.6,0.7,0.6,1.1
		s-0.2,0.8-0.6,1.1s-0.9,0.5-1.5,0.5s-1.1-0.2-1.5-0.5s-0.6-0.7-0.6-1.1S72.8,276.9,73.2,276.6z"/>
	<path class="st0" d="M100.7,283l-0.6,4.7c0.3-1.1,0.8-2.1,1.4-2.8c0.7-0.8,1.4-1.3,2.2-1.7c0.8-0.4,1.6-0.5,2.4-0.5
		c1,0,2,0.2,2.8,0.7s1.5,1.1,2,2s0.7,2,0.7,3.2v7.4c0,0.9,0.1,1.5,0.3,1.8c0.2,0.4,0.5,0.6,0.9,0.7c0.4,0.1,1.1,0.1,2.1,0.1v0.7
		h-9.1v-0.7c1,0,1.7,0,2.1-0.1c0.4-0.1,0.7-0.3,0.9-0.7s0.3-1,0.3-1.8v-6.9c0-1.7-0.4-3-1.2-3.9c-0.8-0.9-1.8-1.3-3-1.3
		c-0.8,0-1.5,0.2-2.3,0.7c-0.8,0.4-1.4,1.2-1.9,2.1c-0.5,1-0.8,2.3-0.8,3.8v5.4c0,0.9,0.1,1.5,0.3,1.8c0.2,0.4,0.5,0.6,0.9,0.7
		s1.1,0.1,2.1,0.1v0.7h-9.1v-0.7c1,0,1.7,0,2.1-0.1s0.7-0.3,0.9-0.7c0.2-0.4,0.3-1,0.3-1.8v-9.2c0-0.6-0.1-1-0.2-1.3
		c-0.1-0.2-0.3-0.3-0.6-0.3c-0.5,0-1.3,0.4-2.6,1l-0.3-0.5l6-3.2L100.7,283z"/>
	<path class="st0" d="M135.2,283v0.7c-0.9,0-1.5,0-1.9,0.1s-0.5,0.3-0.5,0.7c0,0.4,0.2,0.9,0.5,1.7l4.3,10.4l4-9.8
		c0.4-1.1,0.7-1.8,0.7-2.2c0-0.4-0.2-0.6-0.5-0.7s-0.9-0.1-1.8-0.1v-0.7h6.4v0.7c-0.8,0-1.3,0.1-1.7,0.2c-0.4,0.1-0.7,0.4-1.1,0.8
		c-0.3,0.4-0.7,1.2-1.2,2.2l-5.2,12.8h-0.6l-5.4-13.1c-0.4-0.9-0.8-1.6-1.1-2c-0.3-0.4-0.7-0.7-1-0.8c-0.4-0.1-0.9-0.1-1.7-0.1v-0.7
		h7.8V283z"/>
	<path class="st0" d="M166.3,283v13.1c0,0.9,0.1,1.5,0.3,1.8c0.2,0.4,0.5,0.6,0.9,0.7c0.4,0.1,1.1,0.1,2.1,0.1v0.7h-9.1v-0.7
		c1,0,1.7,0,2.1-0.1c0.4-0.1,0.7-0.3,0.9-0.7s0.3-1,0.3-1.8v-9.2c0-0.6-0.1-1-0.2-1.3c-0.1-0.2-0.3-0.3-0.6-0.3
		c-0.5,0-1.3,0.4-2.6,1l-0.3-0.5l5.7-3.2L166.3,283z M163.6,276.6c0.4-0.3,0.9-0.5,1.5-0.5s1.1,0.2,1.5,0.5c0.4,0.3,0.6,0.7,0.6,1.1
		s-0.2,0.8-0.6,1.1c-0.4,0.3-0.9,0.5-1.5,0.5s-1.1-0.2-1.5-0.5s-0.6-0.7-0.6-1.1S163.2,276.9,163.6,276.6z"/>
	<path class="st0" d="M184.2,283c1.1,0,1.9-0.1,2.6-0.4c0.7-0.3,1.2-0.8,1.6-1.6c0.4-0.8,0.6-1.8,0.7-3.2h0.6v5.2h7.8v0.7h-7.8v10.6
		c0,1.4,0.3,2.4,0.9,3.1s1.4,1,2.5,1s2.1-0.5,3-1.4c0.8-1,1.5-2.4,1.9-4.2l0.5,0.2c-0.3,2-1,3.6-2.1,4.9s-2.5,1.9-4.2,1.9
		c-1.4,0-2.5-0.4-3.4-1.3c-0.9-0.9-1.4-2-1.4-3.6v-11.2h-3.8V283H184.2z"/>
	<path class="st0" d="M214.6,286.8c0.8-1.3,1.8-2.3,3-3s2.6-1.1,4-1.1c2.1,0,3.8,0.6,5.2,1.8c1.4,1.2,2.4,2.9,3.1,5.1H216
		c0,0.5-0.1,0.9-0.1,1.1c0,1.5,0.3,2.8,0.9,4c0.6,1.2,1.3,2,2.3,2.7c1,0.6,2.1,0.9,3.3,0.9c1.5,0,2.8-0.5,3.9-1.4
		c1.2-0.9,2.1-2.4,2.7-4.3l0.5,0.2c-0.6,1.9-1.5,3.5-2.8,4.8c-1.3,1.3-2.9,2-5,2c-1.5,0-2.8-0.4-4.1-1.1c-1.3-0.8-2.3-1.8-3.1-3.1
		c-0.8-1.3-1.1-2.8-1.1-4.3C213.5,289.5,213.9,288.1,214.6,286.8z M225.3,285c-0.9-1.1-2.1-1.6-3.5-1.6s-2.6,0.5-3.6,1.6
		c-1,1-1.7,2.4-2,4.1H227C226.8,287.4,226.2,286.1,225.3,285z"/>
	<path class="st0" d="M247.2,286.8c0.7-1.3,1.6-2.3,2.8-3s2.4-1.1,3.8-1.1c1.3,0,2.5,0.3,3.6,1c1.1,0.7,1.8,1.5,2.4,2.6v-6.6
		c0-0.6-0.1-1-0.2-1.3c-0.1-0.2-0.3-0.3-0.6-0.3c-0.5,0-1.3,0.4-2.6,1l-0.3-0.5l5.7-3.2l0.3,0.3v19.8c0,0.7,0.1,1.2,0.2,1.5
		c0.1,0.3,0.4,0.5,0.7,0.5c0.5,0,1.3-0.2,2.5-0.7l0.2,0.5l-6.1,2.3l-0.3-0.3l0.9-5.3c-0.5,1.9-1.3,3.3-2.3,4.2
		c-1.1,1-2.4,1.4-3.9,1.4c-1.3,0-2.6-0.4-3.8-1.1c-1.2-0.7-2.1-1.7-2.8-3c-0.7-1.3-1.1-2.8-1.1-4.4
		C246.1,289.6,246.5,288.1,247.2,286.8z M249.4,295.1c0.5,1.1,1.2,1.9,2.1,2.5c0.9,0.6,1.8,0.8,2.8,0.8c1.3,0,2.4-0.4,3.4-1.3
		c1-0.9,1.6-2.2,2-4v-2.9c0-1.2-0.2-2.3-0.7-3.2c-0.5-0.9-1.1-1.7-1.9-2.2s-1.7-0.8-2.7-0.8s-1.9,0.3-2.8,0.9
		c-0.9,0.6-1.6,1.4-2.1,2.5s-0.8,2.4-0.8,3.8C248.6,292.7,248.9,294,249.4,295.1z"/>
	<path class="st0" d="M304.4,284.6c1.5-1.2,3.4-1.9,5.5-1.9c1.8,0,3.3,0.5,4.4,1.4c1.1,0.9,1.7,2.4,1.7,4.3v7.4
		c0,1.7,0.5,2.6,1.7,2.6c1,0,1.7-0.8,2.2-2.4h0.5c-0.3,1.1-0.7,2-1.3,2.7c-0.6,0.7-1.4,1-2.3,1s-1.7-0.3-2.2-1s-0.8-1.6-0.8-2.9
		v-2.4c-0.4,1.9-1.2,3.4-2.3,4.6c-1.1,1.2-2.5,1.7-4.3,1.7c-1.4,0-2.6-0.4-3.5-1.2c-1-0.8-1.4-1.9-1.4-3.2c0-2.3,2-4,5.9-4.9
		l1.7-0.5c2.5-0.6,3.8-1.8,3.8-3.5c0-0.9-0.3-1.6-1-2.2s-1.6-0.9-2.6-0.9c-1.1,0-2.1,0.3-3,0.9s-1.5,1.3-2,2.3s-0.8,2-0.9,3.1h-2.8
		C301.8,287.5,302.9,285.8,304.4,284.6z M305.6,297.5c0.7,0.6,1.5,0.9,2.5,0.9s2-0.4,2.8-1.1c0.8-0.7,1.5-1.8,2-3.1
		c0.5-1.4,0.8-2.9,0.8-4.6v-1.5c-0.3,0.7-0.8,1.2-1.4,1.6c-0.6,0.4-1.3,0.7-2,0.9l-1.8,0.6c-1.3,0.4-2.3,1-2.9,1.7s-0.9,1.5-0.9,2.4
		C304.6,296.1,304.9,296.9,305.6,297.5z"/>
	<path class="st0" d="M347.1,286.6c-0.5-1-1.1-1.7-1.8-2.3c-0.8-0.6-1.7-0.9-2.7-0.9c-1.1,0-2,0.3-2.9,1c-0.9,0.6-1.6,1.5-2.1,2.7
		c-0.5,1.1-0.8,2.4-0.8,3.8c0,1.5,0.3,2.8,0.9,4s1.3,2,2.3,2.7c1,0.6,2.1,0.9,3.3,0.9c1.5,0,2.8-0.5,3.9-1.4
		c1.1-0.9,2.1-2.4,2.7-4.3l0.5,0.2c-0.6,1.9-1.5,3.5-2.8,4.8s-2.9,2-5,2c-1.5,0-2.8-0.4-4.1-1.1c-1.3-0.8-2.3-1.8-3.1-3.1
		c-0.8-1.3-1.1-2.8-1.1-4.3c0-1.6,0.4-3,1.1-4.3c0.7-1.3,1.8-2.3,3-3c1.2-0.7,2.6-1.1,4-1.1c2.1,0,3.8,0.6,5.2,1.8
		c1.4,1.2,2.4,2.9,3.1,5.1h-2.8C347.8,288.6,347.6,287.5,347.1,286.6z"/>
	<path class="st0" d="M379.8,286.6c-0.5-1-1.1-1.7-1.8-2.3c-0.8-0.6-1.7-0.9-2.7-0.9c-1.1,0-2,0.3-2.9,1c-0.9,0.6-1.6,1.5-2.1,2.7
		c-0.5,1.1-0.8,2.4-0.8,3.8c0,1.5,0.3,2.8,0.9,4s1.3,2,2.3,2.7c1,0.6,2.1,0.9,3.3,0.9c1.5,0,2.8-0.5,3.9-1.4
		c1.2-0.9,2.1-2.4,2.7-4.3l0.5,0.2c-0.6,1.9-1.5,3.5-2.8,4.8s-2.9,2-5,2c-1.5,0-2.8-0.4-4.1-1.1c-1.3-0.8-2.3-1.8-3.1-3.1
		c-0.8-1.3-1.1-2.8-1.1-4.3c0-1.6,0.4-3,1.1-4.3c0.7-1.3,1.8-2.3,3-3c1.2-0.7,2.6-1.1,4-1.1c2.1,0,3.8,0.6,5.2,1.8
		c1.4,1.2,2.4,2.9,3.1,5.1h-2.8C380.5,288.6,380.2,287.5,379.8,286.6z"/>
	<path class="st0" d="M400.7,286.8c0.8-1.3,1.8-2.3,3-3s2.6-1.1,4-1.1c2.1,0,3.8,0.6,5.2,1.8c1.4,1.2,2.4,2.9,3.1,5.1h-13.9
		c0,0.5-0.1,0.9-0.1,1.1c0,1.5,0.3,2.8,0.9,4c0.6,1.2,1.3,2,2.3,2.7c1,0.6,2.1,0.9,3.3,0.9c1.5,0,2.8-0.5,3.9-1.4
		c1.2-0.9,2.1-2.4,2.7-4.3l0.5,0.2c-0.6,1.9-1.5,3.5-2.8,4.8c-1.3,1.3-2.9,2-5,2c-1.5,0-2.8-0.4-4.1-1.1c-1.3-0.8-2.3-1.8-3.1-3.1
		c-0.8-1.3-1.1-2.8-1.1-4.3C399.6,289.5,399.9,288.1,400.7,286.8z M411.4,285c-0.9-1.1-2.1-1.6-3.5-1.6s-2.6,0.5-3.6,1.6
		c-1,1-1.7,2.4-2,4.1h10.9C412.9,287.4,412.3,286.1,411.4,285z"/>
	<path class="st0" d="M435.5,297.3c1.3,1.2,2.9,1.8,4.7,1.8c0.9,0,1.7-0.2,2.4-0.6s1.2-0.9,1.6-1.5s0.6-1.3,0.6-2.1
		c0-1.2-0.3-2.1-1-2.8c-0.7-0.7-1.6-1-2.6-1c-0.5,0-1.2,0.1-2,0.3c-0.9,0.2-1.7,0.3-2.3,0.3c-0.8,0-1.6-0.2-2.3-0.5
		c-0.7-0.3-1.2-0.8-1.6-1.5c-0.4-0.7-0.6-1.3-0.6-2.1s0.2-1.6,0.7-2.4c0.5-0.7,1.2-1.3,2.2-1.8c1-0.4,2.1-0.7,3.3-0.7
		c1.8,0,3.5,0.5,4.9,1.5l0.4-1.5h0.5l3.1,6.3l-0.4,0.3c-1-1.9-2.2-3.4-3.6-4.4c-1.3-1-2.8-1.5-4.4-1.5c-1.3,0-2.3,0.4-3.1,1.1
		c-0.8,0.7-1.2,1.7-1.2,2.9c0,1,0.3,1.8,0.9,2.5c0.6,0.7,1.5,1,2.5,1c0.5,0,1.2-0.1,2-0.3c0.9-0.2,1.7-0.3,2.3-0.3
		c0.9,0,1.7,0.2,2.4,0.6c0.7,0.4,1.3,0.9,1.7,1.6c0.4,0.7,0.6,1.4,0.6,2.3c0,0.9-0.3,1.8-0.8,2.6c-0.6,0.8-1.3,1.4-2.3,1.9
		s-2,0.7-3.2,0.7c-2,0-3.7-0.5-5.1-1.5l-0.5,1.5h-0.5l-3.3-6.9l0.4-0.3C433,294.5,434.2,296.1,435.5,297.3z"/>
	<path class="st0" d="M467.1,297.3c1.3,1.2,2.9,1.8,4.7,1.8c0.9,0,1.7-0.2,2.4-0.6s1.2-0.9,1.6-1.5s0.6-1.3,0.6-2.1
		c0-1.2-0.3-2.1-1-2.8c-0.7-0.7-1.6-1-2.6-1c-0.5,0-1.2,0.1-2,0.3c-0.9,0.2-1.7,0.3-2.3,0.3c-0.8,0-1.6-0.2-2.3-0.5
		c-0.7-0.3-1.2-0.8-1.6-1.5c-0.4-0.7-0.6-1.3-0.6-2.1s0.2-1.6,0.7-2.4c0.5-0.7,1.2-1.3,2.2-1.8c1-0.4,2.1-0.7,3.3-0.7
		c1.8,0,3.5,0.5,4.9,1.5l0.4-1.5h0.5l3.1,6.3l-0.4,0.3c-1-1.9-2.2-3.4-3.6-4.4c-1.3-1-2.8-1.5-4.4-1.5c-1.3,0-2.3,0.4-3.1,1.1
		c-0.8,0.7-1.2,1.7-1.2,2.9c0,1,0.3,1.8,0.9,2.5c0.6,0.7,1.5,1,2.5,1c0.5,0,1.2-0.1,2-0.3c0.9-0.2,1.7-0.3,2.3-0.3
		c0.9,0,1.7,0.2,2.4,0.6c0.7,0.4,1.3,0.9,1.7,1.6c0.4,0.7,0.6,1.4,0.6,2.3c0,0.9-0.3,1.8-0.8,2.6c-0.6,0.8-1.3,1.4-2.3,1.9
		s-2,0.7-3.2,0.7c-2,0-3.7-0.5-5.1-1.5l-0.5,1.5h-0.5l-3.3-6.9l0.4-0.3C464.6,294.5,465.8,296.1,467.1,297.3z"/>
	<path class="st0" d="M499.3,298.6c-1.3-0.8-2.3-1.8-3.1-3.1c-0.8-1.3-1.1-2.7-1.1-4.3c0-1.5,0.4-3,1.1-4.3c0.8-1.3,1.8-2.3,3.1-3.1
		c1.3-0.8,2.7-1.1,4.2-1.1s3,0.4,4.2,1.1c1.3,0.8,2.3,1.8,3.1,3.1c0.8,1.3,1.1,2.7,1.1,4.3s-0.4,3-1.1,4.3c-0.8,1.3-1.8,2.3-3.1,3.1
		c-1.3,0.8-2.7,1.1-4.2,1.1S500.6,299.3,499.3,298.6z M506.7,298c0.9-0.7,1.5-1.6,2-2.8c0.5-1.2,0.7-2.5,0.7-4s-0.2-2.8-0.7-4
		c-0.5-1.2-1.2-2.1-2.1-2.8c-0.9-0.7-2-1-3.2-1c-1.1,0-2.1,0.3-3,1c-0.9,0.7-1.5,1.6-2,2.8c-0.5,1.2-0.7,2.5-0.7,4s0.2,2.8,0.7,4
		c0.5,1.2,1.2,2.1,2.1,2.8c0.9,0.7,2,1,3.2,1C504.9,299.1,505.9,298.7,506.7,298z"/>
	<path class="st0" d="M533.9,283l-0.6,4.7c0.3-1.1,0.8-2,1.4-2.8c0.6-0.8,1.4-1.3,2.2-1.7c0.8-0.4,1.6-0.6,2.3-0.6
		c1.4,0,2.7,0.4,4,1.3l-1.2,2.4c-0.5-0.8-1.1-1.3-1.7-1.8c-0.6-0.4-1.3-0.6-2.1-0.6c-0.6,0-1.3,0.2-2,0.7c-0.7,0.4-1.3,1.2-1.8,2.2
		s-0.8,2.3-0.8,3.8v5.4c0,0.9,0.1,1.5,0.4,1.9c0.2,0.4,0.6,0.6,1.2,0.7c0.5,0.1,1.5,0.1,2.8,0.1v0.7h-10v-0.7c1,0,1.7,0,2.1-0.1
		c0.4-0.1,0.7-0.3,0.9-0.7s0.3-1,0.3-1.8v-9.2c0-0.6-0.1-1-0.2-1.3c-0.1-0.2-0.3-0.3-0.6-0.3c-0.5,0-1.4,0.4-2.6,1l-0.3-0.5l6-3.2
		L533.9,283z"/>
	<path class="st0" d="M564.6,283v0.7c-0.9,0-1.5,0-1.9,0.1s-0.5,0.3-0.5,0.7c0,0.4,0.2,0.9,0.5,1.7l4.3,10.3l4-10
		c0.4-0.9,0.5-1.6,0.5-2c0-0.4-0.2-0.6-0.5-0.7s-0.9-0.1-1.8-0.1V283h6.4v0.7c-0.8,0-1.3,0.1-1.7,0.2s-0.7,0.4-1.1,0.8
		c-0.3,0.4-0.7,1.2-1.2,2.2l-6.2,15.2c-0.5,1.2-1,2.1-1.6,2.7s-1.1,1-1.7,1.2c-0.6,0.2-1.1,0.3-1.7,0.3c-1.3,0-2.4-0.5-3.4-1.4
		l1.3-2.5c0.5,0.8,1,1.5,1.6,1.9s1.2,0.6,1.8,0.6s1.2-0.3,1.7-0.9c0.5-0.6,0.9-1.4,1.3-2.5l0.9-2.2l-5.3-12.8
		c-0.4-0.9-0.8-1.6-1.1-2c-0.3-0.4-0.7-0.7-1-0.8c-0.4-0.1-0.9-0.1-1.7-0.1v-0.7h8.1V283z"/>
	<path class="st0" d="M588.5,299.7c-0.6,0-1.1-0.2-1.5-0.5c-0.4-0.3-0.6-0.7-0.6-1.1c0-0.4,0.2-0.8,0.6-1.1c0.4-0.3,0.9-0.5,1.5-0.5
		s1.1,0.2,1.5,0.5c0.4,0.3,0.6,0.7,0.6,1.1c0,0.3-0.1,0.6-0.3,0.9c-0.2,0.3-0.6,0.9-1.1,1.6c-0.6,0.7-1.5,1.9-2.9,3.6h-2.2l5.4-4.7
		C589.2,299.6,588.9,299.7,588.5,299.7z"/>
	<path class="st0" d="M59.5,333l-0.6,4.7c0.3-1.1,0.8-2.1,1.4-2.8c0.7-0.8,1.4-1.3,2.2-1.7s1.6-0.5,2.4-0.5c1.4,0,2.6,0.4,3.6,1.2
		c1,0.8,1.6,1.9,1.8,3.4c0.5-1.5,1.3-2.7,2.4-3.4c1.1-0.8,2.3-1.2,3.5-1.2c1,0,2,0.2,2.8,0.7s1.5,1.1,2,2s0.7,2,0.7,3.2v7.4
		c0,0.9,0.1,1.5,0.3,1.8s0.5,0.6,0.9,0.7c0.4,0.1,1.1,0.1,2.1,0.1v0.7h-9.1v-0.7c1,0,1.7,0,2.1-0.1c0.4-0.1,0.7-0.3,0.9-0.7
		c0.2-0.4,0.3-1,0.3-1.8v-6.9c0-1.7-0.4-3-1.2-3.9c-0.8-0.9-1.8-1.3-3-1.3c-0.8,0-1.5,0.2-2.3,0.7c-0.8,0.4-1.4,1.2-1.9,2.1
		c-0.5,1-0.8,2.3-0.8,3.8v5.4c0,0.9,0.1,1.5,0.3,1.8c0.2,0.4,0.5,0.6,0.9,0.7c0.4,0.1,1.1,0.1,2.1,0.1v0.7h-9.1v-0.7
		c1,0,1.7,0,2.1-0.1c0.4-0.1,0.7-0.3,0.9-0.7s0.3-1,0.3-1.8V339c0-1.7-0.4-3-1.2-3.9c-0.8-0.9-1.8-1.3-3-1.3c-0.8,0-1.5,0.2-2.3,0.7
		c-0.8,0.4-1.4,1.2-1.9,2.1c-0.5,1-0.8,2.3-0.8,3.8v5.4c0,0.9,0.1,1.5,0.3,1.8c0.2,0.4,0.5,0.6,0.9,0.7c0.4,0.1,1.1,0.1,2.1,0.1v0.7
		h-9.1v-0.7c1,0,1.7,0,2.1-0.1c0.4-0.1,0.7-0.3,0.9-0.7s0.3-1,0.3-1.8v-9.2c0-0.6-0.1-1-0.2-1.3c-0.1-0.2-0.3-0.3-0.6-0.3
		c-0.5,0-1.3,0.4-2.6,1l-0.3-0.5l6-3.2L59.5,333z"/>
	<path class="st0" d="M103.2,334.6c1.5-1.2,3.4-1.9,5.5-1.9c1.8,0,3.3,0.5,4.4,1.4c1.1,0.9,1.7,2.4,1.7,4.3v7.4
		c0,1.7,0.5,2.6,1.7,2.6c1,0,1.7-0.8,2.2-2.4h0.5c-0.3,1.1-0.7,2-1.3,2.7c-0.6,0.7-1.4,1-2.3,1s-1.7-0.3-2.2-1
		c-0.5-0.7-0.8-1.6-0.8-2.9v-2.4c-0.4,1.9-1.2,3.4-2.3,4.6c-1.1,1.2-2.5,1.7-4.3,1.7c-1.4,0-2.6-0.4-3.5-1.2c-1-0.8-1.4-1.9-1.4-3.2
		c0-2.3,2-4,5.9-4.9l1.7-0.5c2.5-0.6,3.8-1.8,3.8-3.5c0-0.9-0.3-1.6-1-2.2s-1.6-0.9-2.6-0.9c-1.1,0-2.1,0.3-3,0.9s-1.5,1.3-2,2.3
		s-0.8,2-0.9,3.1h-3C100.6,337.5,101.7,335.8,103.2,334.6z M104.5,347.5c0.7,0.6,1.5,0.9,2.5,0.9s2-0.4,2.8-1.1
		c0.8-0.7,1.5-1.8,2-3.1c0.5-1.4,0.8-2.9,0.8-4.6v-1.5c-0.3,0.7-0.8,1.2-1.4,1.6c-0.6,0.4-1.3,0.7-2,0.9l-1.8,0.6
		c-1.3,0.4-2.3,1-2.9,1.7s-0.9,1.5-0.9,2.4C103.5,346.1,103.8,346.9,104.5,347.5z"/>
	<path class="st0" d="M132.2,333c1.1,0,1.9-0.1,2.6-0.4c0.7-0.3,1.2-0.8,1.6-1.6c0.4-0.8,0.6-1.8,0.7-3.2h0.6v5.2h7.8v0.7h-7.8v10.6
		c0,1.4,0.3,2.4,0.9,3.1c0.6,0.7,1.4,1,2.5,1s2.1-0.5,3-1.4c0.8-1,1.5-2.4,1.9-4.2l0.5,0.2c-0.3,2-1,3.6-2.1,4.9
		c-1.1,1.3-2.5,1.9-4.2,1.9c-1.4,0-2.5-0.4-3.4-1.3c-0.9-0.9-1.4-2-1.4-3.6v-11.2h-3.8V333H132.2z"/>
	<path class="st0" d="M162.6,336.8c0.8-1.3,1.8-2.3,3-3c1.2-0.7,2.6-1.1,4-1.1c2.1,0,3.8,0.6,5.2,1.8s2.4,2.9,3.1,5.1H164
		c0,0.5-0.1,0.9-0.1,1.1c0,1.5,0.3,2.8,0.9,4c0.6,1.2,1.3,2,2.3,2.7c1,0.6,2.1,0.9,3.3,0.9c1.5,0,2.8-0.5,3.9-1.4
		c1.2-0.9,2.1-2.4,2.7-4.3l0.5,0.2c-0.6,1.9-1.5,3.5-2.8,4.8c-1.3,1.3-2.9,2-5,2c-1.5,0-2.8-0.4-4.1-1.1c-1.3-0.8-2.3-1.8-3.1-3.1
		c-0.8-1.3-1.1-2.8-1.1-4.3S161.9,338.1,162.6,336.8z M173.3,335c-0.9-1.1-2.1-1.6-3.5-1.6s-2.6,0.5-3.6,1.6c-1,1-1.7,2.4-2,4.1H175
		C174.8,337.4,174.2,336.1,173.3,335z"/>
	<path class="st0" d="M198.9,333l-0.6,4.7c0.3-1.1,0.8-2,1.4-2.8c0.6-0.8,1.4-1.3,2.2-1.7s1.6-0.6,2.3-0.6c1.4,0,2.7,0.4,4,1.3
		l-1.2,2.4c-0.5-0.8-1.1-1.3-1.7-1.8c-0.6-0.4-1.3-0.6-2.1-0.6c-0.6,0-1.3,0.2-2,0.7c-0.7,0.4-1.3,1.2-1.8,2.2s-0.8,2.3-0.8,3.8v5.4
		c0,0.9,0.1,1.5,0.4,1.9c0.2,0.4,0.6,0.6,1.2,0.7c0.5,0.1,1.5,0.1,2.8,0.1v0.7h-10v-0.7c1,0,1.7,0,2.1-0.1c0.4-0.1,0.7-0.3,0.9-0.7
		s0.3-1,0.3-1.8v-9.2c0-0.6-0.1-1-0.2-1.3c-0.1-0.2-0.3-0.3-0.6-0.3c-0.5,0-1.4,0.4-2.6,1l-0.3-0.5l6-3.2L198.9,333z"/>
	<path class="st0" d="M228.2,333v13c0,0.9,0.1,1.5,0.3,1.8c0.2,0.3,0.5,0.6,0.9,0.7c0.4,0.1,1.1,0.1,2.1,0.1v0.7h-9.1v-0.7
		c1,0,1.7,0,2.1-0.1c0.4-0.1,0.7-0.3,0.9-0.7s0.3-1,0.3-1.8v-9.2c0-0.6-0.1-1-0.2-1.3c-0.1-0.2-0.3-0.3-0.6-0.3
		c-0.5,0-1.4,0.4-2.6,1l-0.3-0.5l5.7-3.2L228.2,333z M225.5,326.6c0.4-0.3,0.9-0.5,1.5-0.5s1.1,0.2,1.5,0.5c0.4,0.3,0.6,0.7,0.6,1.1
		s-0.2,0.8-0.6,1.1c-0.4,0.3-0.9,0.5-1.5,0.5s-1.1-0.2-1.5-0.5s-0.6-0.7-0.6-1.1S225.1,326.9,225.5,326.6z"/>
	<path class="st0" d="M250,334.6c1.5-1.2,3.4-1.9,5.5-1.9c1.8,0,3.3,0.5,4.4,1.4c1.1,0.9,1.7,2.4,1.7,4.3v7.4c0,1.7,0.5,2.6,1.7,2.6
		c1,0,1.7-0.8,2.2-2.4h0.5c-0.3,1.1-0.7,2-1.3,2.7c-0.6,0.7-1.4,1-2.3,1s-1.7-0.3-2.2-1c-0.5-0.7-0.8-1.6-0.8-2.9v-2.4
		c-0.4,1.9-1.2,3.4-2.3,4.6c-1.1,1.2-2.5,1.7-4.3,1.7c-1.4,0-2.6-0.4-3.5-1.2c-1-0.8-1.4-1.9-1.4-3.2c0-2.3,2-4,5.8-4.9l1.7-0.5
		c2.5-0.6,3.8-1.8,3.8-3.5c0-0.9-0.3-1.6-1-2.2s-1.6-0.9-2.6-0.9c-1.1,0-2.1,0.3-3,0.9s-1.5,1.3-2,2.3s-0.8,2-0.9,3.1h-2.8
		C247.4,337.5,248.5,335.8,250,334.6z M251.2,347.5c0.7,0.6,1.5,0.9,2.5,0.9s2-0.4,2.8-1.1c0.9-0.8,1.5-1.8,2-3.1
		c0.5-1.4,0.8-2.9,0.8-4.6v-1.5c-0.3,0.7-0.8,1.2-1.4,1.6c-0.6,0.4-1.3,0.7-2,0.9l-1.8,0.6c-1.3,0.4-2.3,1-2.9,1.7s-0.9,1.5-0.9,2.4
		C250.3,346.1,250.6,346.9,251.2,347.5z"/>
	<path class="st0" d="M285.4,325.8V346c0,0.9,0.1,1.5,0.3,1.8c0.2,0.3,0.5,0.6,0.9,0.7c0.4,0.1,1.1,0.1,2.1,0.1v0.7h-9.1v-0.7
		c1,0,1.7,0,2.1-0.1c0.4-0.1,0.7-0.3,0.9-0.7s0.3-1,0.3-1.8v-16.4c0-0.6-0.1-1-0.2-1.3c-0.1-0.2-0.3-0.3-0.6-0.3
		c-0.5,0-1.4,0.4-2.6,1l-0.3-0.5l5.7-3.2L285.4,325.8z"/>
	<path class="st0" d="M330.3,333l-0.6,4.7c0.3-1.1,0.8-2,1.4-2.8c0.6-0.8,1.4-1.3,2.2-1.7c0.8-0.4,1.6-0.6,2.3-0.6
		c1.4,0,2.7,0.4,4,1.3l-1.2,2.4c-0.5-0.8-1.1-1.3-1.7-1.8c-0.6-0.4-1.3-0.6-2.1-0.6c-0.6,0-1.3,0.2-2,0.7c-0.7,0.4-1.3,1.2-1.8,2.2
		s-0.8,2.3-0.8,3.8v5.4c0,0.9,0.1,1.5,0.4,1.9c0.2,0.4,0.6,0.6,1.2,0.7c0.5,0.1,1.5,0.1,2.8,0.1v0.7h-10v-0.7c1,0,1.7,0,2.1-0.1
		c0.4-0.1,0.7-0.3,0.9-0.7s0.3-1,0.3-1.8v-9.2c0-0.6-0.1-1-0.2-1.3c-0.1-0.2-0.3-0.3-0.6-0.3c-0.5,0-1.4,0.4-2.6,1l-0.3-0.5l6-3.2
		L330.3,333z"/>
	<path class="st0" d="M355.2,336.8c0.8-1.3,1.8-2.3,3-3c1.2-0.7,2.6-1.1,4-1.1c2.1,0,3.8,0.6,5.2,1.8c1.4,1.2,2.4,2.9,3.1,5.1h-13.9
		c0,0.5-0.1,0.9-0.1,1.1c0,1.5,0.3,2.8,0.9,4c0.6,1.2,1.3,2,2.3,2.7c1,0.6,2.1,0.9,3.3,0.9c1.5,0,2.8-0.5,3.9-1.4
		c1.2-0.9,2.1-2.4,2.7-4.3l0.5,0.2c-0.6,1.9-1.5,3.5-2.8,4.8c-1.3,1.3-2.9,2-5,2c-1.5,0-2.8-0.4-4.1-1.1c-1.3-0.8-2.3-1.8-3.1-3.1
		c-0.8-1.3-1.1-2.8-1.1-4.3S354.4,338.1,355.2,336.8z M365.8,335c-0.9-1.1-2.1-1.6-3.5-1.6s-2.6,0.5-3.6,1.6c-1,1-1.7,2.4-2,4.1
		h10.9C367.3,337.4,366.7,336.1,365.8,335z"/>
	<path class="st0" d="M391.4,333l-0.6,4.7c0.3-1.1,0.8-2.1,1.4-2.8c0.7-0.8,1.4-1.3,2.2-1.7c0.8-0.4,1.6-0.5,2.4-0.5
		c1.4,0,2.6,0.4,3.6,1.2c1,0.8,1.6,1.9,1.8,3.4c0.5-1.5,1.3-2.7,2.4-3.4c1.1-0.8,2.3-1.2,3.5-1.2c1,0,2,0.2,2.8,0.7s1.5,1.1,2,2
		s0.7,2,0.7,3.2v7.4c0,0.9,0.1,1.5,0.3,1.8s0.5,0.6,0.9,0.7c0.4,0.1,1.1,0.1,2.1,0.1v0.7h-9.1v-0.7c1,0,1.7,0,2.1-0.1
		c0.4-0.1,0.7-0.3,0.9-0.7c0.2-0.4,0.3-1,0.3-1.8v-6.9c0-1.7-0.4-3-1.2-3.9c-0.8-0.9-1.8-1.3-3-1.3c-0.8,0-1.5,0.2-2.3,0.7
		c-0.8,0.4-1.4,1.2-1.9,2.1c-0.5,1-0.8,2.3-0.8,3.8v5.4c0,0.9,0.1,1.5,0.3,1.8c0.2,0.4,0.5,0.6,0.9,0.7c0.4,0.1,1.1,0.1,2.1,0.1v0.7
		h-9.1v-0.7c1,0,1.7,0,2.1-0.1c0.4-0.1,0.7-0.3,0.9-0.7s0.3-1,0.3-1.8V339c0-1.7-0.4-3-1.2-3.9c-0.8-0.9-1.8-1.3-3-1.3
		c-0.8,0-1.5,0.2-2.3,0.7c-0.8,0.4-1.4,1.2-1.9,2.1c-0.5,1-0.8,2.3-0.8,3.8v5.4c0,0.9,0.1,1.5,0.3,1.8c0.2,0.4,0.5,0.6,0.9,0.7
		c0.4,0.1,1.1,0.1,2.1,0.1v0.7h-9.1v-0.7c1,0,1.7,0,2.1-0.1c0.4-0.1,0.7-0.3,0.9-0.7c0.2-0.4,0.3-1,0.3-1.8v-9.2
		c0-0.6-0.1-1-0.2-1.3c-0.1-0.2-0.3-0.3-0.6-0.3c-0.5,0-1.3,0.4-2.6,1l-0.3-0.5l6-3.2L391.4,333z"/>
	<path class="st0" d="M435.1,334.6c1.5-1.2,3.4-1.9,5.5-1.9c1.8,0,3.3,0.5,4.4,1.4c1.1,0.9,1.7,2.4,1.7,4.3v7.4
		c0,1.7,0.5,2.6,1.7,2.6c1,0,1.7-0.8,2.2-2.4h0.5c-0.3,1.1-0.7,2-1.3,2.7c-0.6,0.7-1.4,1-2.3,1s-1.7-0.3-2.2-1
		c-0.5-0.7-0.8-1.6-0.8-2.9v-2.4c-0.4,1.9-1.2,3.4-2.3,4.6c-1.1,1.2-2.5,1.7-4.3,1.7c-1.4,0-2.6-0.4-3.5-1.2c-1-0.8-1.4-1.9-1.4-3.2
		c0-2.3,2-4,5.9-4.9l1.7-0.5c2.5-0.6,3.8-1.8,3.8-3.5c0-0.9-0.3-1.6-1-2.2s-1.6-0.9-2.6-0.9c-1.1,0-2.1,0.3-3,0.9s-1.5,1.3-2,2.3
		s-0.8,2-0.9,3.1h-2.8C432.5,337.5,433.6,335.8,435.1,334.6z M436.3,347.5c0.7,0.6,1.5,0.9,2.5,0.9s2-0.4,2.8-1.1
		c0.8-0.7,1.5-1.8,2-3.1c0.5-1.4,0.8-2.9,0.8-4.6v-1.5c-0.3,0.7-0.8,1.2-1.4,1.6c-0.6,0.4-1.3,0.7-2,0.9l-1.8,0.6
		c-1.3,0.4-2.3,1-2.9,1.7s-0.9,1.5-0.9,2.4C435.3,346.1,435.7,346.9,436.3,347.5z"/>
	<path class="st0" d="M470.3,333v13c0,0.9,0.1,1.5,0.3,1.8c0.2,0.4,0.5,0.6,0.9,0.7c0.4,0.1,1.1,0.1,2.1,0.1v0.7h-9.1v-0.7
		c1,0,1.7,0,2.1-0.1c0.4-0.1,0.7-0.3,0.9-0.7c0.2-0.4,0.3-1,0.3-1.8v-9.2c0-0.6-0.1-1-0.2-1.3c-0.1-0.2-0.3-0.3-0.6-0.3
		c-0.5,0-1.3,0.4-2.6,1l-0.3-0.5l5.7-3.2L470.3,333z M467.7,326.6c0.4-0.3,0.9-0.5,1.5-0.5s1.1,0.2,1.5,0.5c0.4,0.3,0.6,0.7,0.6,1.1
		s-0.2,0.8-0.6,1.1s-0.9,0.5-1.5,0.5s-1.1-0.2-1.5-0.5s-0.6-0.7-0.6-1.1C467,327.3,467.2,326.9,467.7,326.6z"/>
	<path class="st0" d="M495.1,333l-0.6,4.7c0.3-1.1,0.8-2.1,1.4-2.8c0.7-0.8,1.4-1.3,2.2-1.7c0.8-0.4,1.6-0.5,2.4-0.5
		c1,0,2,0.2,2.8,0.7s1.5,1.1,2,2s0.7,2,0.7,3.2v7.4c0,0.9,0.1,1.5,0.3,1.8c0.2,0.4,0.5,0.6,0.9,0.7c0.4,0.1,1.1,0.1,2.1,0.1v0.7
		h-9.1v-0.7c1,0,1.7,0,2.1-0.1c0.4-0.1,0.7-0.3,0.9-0.7s0.3-1,0.3-1.8v-6.9c0-1.7-0.4-3-1.2-3.9c-0.8-0.9-1.8-1.3-3-1.3
		c-0.8,0-1.5,0.2-2.3,0.7c-0.8,0.4-1.4,1.2-1.9,2.1c-0.5,1-0.8,2.3-0.8,3.8v5.4c0,0.9,0.1,1.5,0.3,1.8c0.2,0.4,0.5,0.6,0.9,0.7
		c0.4,0.1,1.1,0.1,2.1,0.1v0.7h-9.1v-0.7c1,0,1.7,0,2.1-0.1c0.4-0.1,0.7-0.3,0.9-0.7c0.2-0.4,0.3-1,0.3-1.8v-9.2
		c0-0.6-0.1-1-0.2-1.3c-0.1-0.2-0.3-0.3-0.6-0.3c-0.5,0-1.3,0.4-2.6,1l-0.3-0.5l6-3.2L495.1,333z"/>
	<path class="st0" d="M527.5,347.3c1.3,1.2,2.9,1.8,4.7,1.8c0.9,0,1.7-0.2,2.4-0.6s1.2-0.9,1.6-1.5c0.4-0.6,0.6-1.3,0.6-2.1
		c0-1.2-0.4-2.1-1.1-2.8c-0.7-0.7-1.6-1-2.6-1c-0.5,0-1.2,0.1-2,0.3c-0.9,0.2-1.7,0.3-2.3,0.3c-0.8,0-1.6-0.2-2.3-0.5
		c-0.7-0.3-1.2-0.8-1.6-1.5c-0.4-0.6-0.6-1.3-0.6-2.1c0-0.8,0.2-1.6,0.7-2.4c0.5-0.7,1.2-1.3,2.2-1.8c0.9-0.4,2.1-0.7,3.3-0.7
		c1.8,0,3.5,0.5,4.9,1.5l0.4-1.5h0.5l3.1,6.3l-0.4,0.3c-1-1.9-2.2-3.4-3.6-4.4c-1.4-1-2.8-1.5-4.4-1.5c-1.3,0-2.3,0.4-3.1,1.1
		c-0.8,0.7-1.2,1.7-1.2,2.9c0,1,0.3,1.8,0.9,2.5c0.6,0.7,1.5,1,2.5,1c0.5,0,1.2-0.1,2-0.3c0.9-0.2,1.7-0.3,2.3-0.3
		c0.9,0,1.7,0.2,2.4,0.6s1.3,0.9,1.7,1.6s0.6,1.4,0.6,2.3c0,0.9-0.3,1.8-0.8,2.6c-0.6,0.8-1.3,1.4-2.3,1.9s-2,0.7-3.2,0.7
		c-2,0-3.7-0.5-5.1-1.5l-0.4,1.5h-0.5l-3.3-6.9l0.4-0.3C524.9,344.5,526.2,346.1,527.5,347.3z"/>
	<g>
		<path class="st0" d="M563.9,342.7c0,4-0.5,7-3.2,7s-3.2-2.9-3.2-7c0-3.6,0.8-7.7,3.2-7.7C563.2,335,563.9,339,563.9,342.7z
			 M559.6,342.3c0,4.7,0.1,6.3,1.1,6.3c1.1,0,1.2-1.6,1.2-6.3c0-4-0.4-6.2-1.2-6.2C559.9,336,559.6,338.2,559.6,342.3z"/>
		<path class="st0" d="M570,337.9c0,3.3-2.9,6.9-2.9,10.1h1.7l0.8-4.3h0.1l0.4,5.6H565c0-2.7,1-4.8,1.9-6.7l-2.4-7.4l0.1-0.1l1,0.6
			c0.4-0.5,1.1-0.9,2-0.9C569.2,335,570,336,570,337.9z M566.5,341l0.4,1.4c0.7-1.5,1.3-2.9,1.3-4.5c0-0.9-0.4-1.7-1.1-1.7
			c-0.8,0-1.2,0.7-1.2,1.8C565.9,339.1,566.2,340,566.5,341z"/>
	</g>
</g>
<g>
	<path class="st0" d="M136.2,8.3V0.9c0.4,0,1.2,0.1,2,0.1c0.4,0,0.2,0.4,0.2,0.6V3h3.3V0.8c0.6,0,1.2,0,2,0c0.5,0,0.2,0.5,0.2,0.7
		v6.7H136.2z M146.3,15.6v-4h-9.4v-2h11.6v6H146.3z M141.6,4.7h-3.3v1.8h3.3V4.7z M148.5,5.8v3h-2.3V0c0.3,0,1.8,0,2.1,0.1
		c0.5,0,0.1,0.6,0.1,0.8v2.9h2v2.1H148.5z"/>
	<path class="st0" d="M135.3,55.7v-2.1h6.4v-2c0.5,0,1.6,0,2.2,0.1c0.5,0,0.1,0.4,0.1,0.8v1.1h6.3v2.1H135.3z M137.1,51.2v-7.5
		c0.6,0,1.5,0,2.1,0c0.6,0,0.2,0.5,0.2,0.8v1.1h6.9v-2c0.5,0,1.6,0,2,0c0.6,0,0.2,0.6,0.2,0.8v6.7H137.1z M146.2,47.5h-6.8v1.8h6.8
		V47.5z"/>
	<path class="st0" d="M136.2,96.3V86.1h7.6v10.2H136.2z M141.6,88.1h-3.2v6.4h3.2V88.1z M148.6,92.8v7.2h-2.3V84.4
		c0.3,0,1.6,0.1,2.1,0.1c0.6,0,0.2,0.4,0.2,1v5.1h2v2.1H148.6z"/>
</g>
</svg>
