<?xml version="1.0" encoding="utf-8"?>
<!-- Generator: Adobe Illustrator 25.0.1, SVG Export Plug-In . SVG Version: 6.00 Build 0)  -->
<svg version="1.1" id="레이어_1" xmlns="http://www.w3.org/2000/svg" xmlns:xlink="http://www.w3.org/1999/xlink" x="0px"
	 y="0px" viewBox="0 0 590.7 124.2" style="enable-background:new 0 0 590.7 124.2;" xml:space="preserve">
<style type="text/css">
	.st0{fill:#00FF00;}
</style>
<g>
	<g>
		<path class="st0" d="M138.3,0.3v11.1c0.5-1.4,1.3-2.5,2.4-3.2c1.1-0.7,2.2-1.1,3.4-1.1c1,0,2,0.2,2.8,0.7s1.5,1.1,2,2
			c0.5,0.9,0.7,2,0.7,3.2v7.4c0,0.9,0.1,1.5,0.3,1.8c0.2,0.4,0.5,0.6,0.9,0.7s1.1,0.1,2.1,0.1v0.7H144V23c1,0,1.7,0,2.1-0.1
			c0.4-0.1,0.7-0.3,0.9-0.7c0.2-0.4,0.3-1,0.3-1.8v-6.9c0-1.7-0.4-3-1.2-3.9s-1.8-1.3-3-1.3c-0.8,0-1.5,0.2-2.3,0.7
			c-0.8,0.4-1.4,1.2-1.9,2.1c-0.5,1-0.8,2.3-0.8,3.8v5.4c0,0.9,0.1,1.5,0.3,1.8s0.5,0.6,0.9,0.7s1.1,0.1,2.1,0.1v0.7h-9.1v-0.7
			c1,0,1.7,0,2.1-0.1c0.4-0.1,0.7-0.3,0.9-0.7s0.3-1,0.3-1.8V4.2c0-0.6-0.1-1-0.2-1.3c-0.1-0.2-0.3-0.3-0.6-0.3
			c-0.5,0-1.4,0.4-2.6,1l-0.3-0.5L138,0L138.3,0.3z"/>
		<path class="st0" d="M171.3,23.1c-1.3-0.8-2.3-1.8-3.1-3.1c-0.8-1.3-1.1-2.7-1.1-4.3c0-1.5,0.4-3,1.1-4.3c0.8-1.3,1.8-2.3,3.1-3.1
			s2.7-1.1,4.2-1.1s3,0.4,4.2,1.1c1.3,0.8,2.3,1.8,3.1,3.1s1.1,2.7,1.1,4.3s-0.4,3-1.1,4.3c-0.8,1.3-1.8,2.3-3.1,3.1
			c-1.3,0.8-2.7,1.1-4.2,1.1S172.6,23.8,171.3,23.1z M178.8,22.5c0.9-0.7,1.5-1.6,2-2.8c0.5-1.2,0.7-2.5,0.7-4s-0.2-2.8-0.7-4
			s-1.2-2.1-2.1-2.8c-0.9-0.7-2-1-3.2-1c-1.1,0-2.1,0.3-3,1s-1.5,1.6-2,2.8s-0.7,2.5-0.7,4s0.2,2.8,0.7,4s1.2,2.1,2.1,2.8
			c0.9,0.7,2,1,3.2,1C176.9,23.5,177.9,23.2,178.8,22.5z"/>
		<path class="st0" d="M204.7,0.3v20.2c0,0.9,0.1,1.5,0.3,1.8s0.5,0.6,0.9,0.7s1.1,0.1,2.1,0.1v0.7h-9v-0.7c1,0,1.7,0,2.1-0.1
			c0.4-0.1,0.7-0.3,0.9-0.7s0.3-1,0.3-1.8V4.2c0-0.6-0.1-1-0.2-1.3c-0.1-0.2-0.3-0.3-0.6-0.3c-0.5,0-1.4,0.4-2.6,1l-0.3-0.5l5.7-3.2
			L204.7,0.3z"/>
		<path class="st0" d="M228.7,0.3v20.2c0,0.9,0.1,1.5,0.3,1.8s0.5,0.6,0.9,0.7s1.1,0.1,2.1,0.1v0.7h-9v-0.7c1,0,1.7,0,2.1-0.1
			c0.4-0.1,0.7-0.3,0.9-0.7s0.3-1,0.3-1.8V4.2c0-0.6-0.1-1-0.2-1.3c-0.1-0.2-0.3-0.3-0.6-0.3c-0.5,0-1.4,0.4-2.6,1l-0.3-0.5l5.7-3.2
			L228.7,0.3z"/>
		<path class="st0" d="M251.4,23.1c-1.3-0.8-2.3-1.8-3.1-3.1c-0.8-1.3-1.1-2.7-1.1-4.3c0-1.5,0.4-3,1.1-4.3c0.8-1.3,1.8-2.3,3.1-3.1
			s2.7-1.1,4.2-1.1c1.5,0,3,0.4,4.2,1.1c1.3,0.8,2.3,1.8,3.1,3.1c0.8,1.3,1.1,2.7,1.1,4.3s-0.4,3-1.1,4.3c-0.8,1.3-1.8,2.3-3.1,3.1
			c-1.3,0.8-2.7,1.1-4.2,1.1S252.7,23.8,251.4,23.1z M258.8,22.5c0.9-0.7,1.5-1.6,2-2.8c0.5-1.2,0.7-2.5,0.7-4s-0.2-2.8-0.7-4
			s-1.2-2.1-2.1-2.8s-2-1-3.2-1c-1.1,0-2.1,0.3-3,1s-1.5,1.6-2,2.8s-0.7,2.5-0.7,4s0.2,2.8,0.7,4s1.2,2.1,2.1,2.8c0.9,0.7,2,1,3.2,1
			C257,23.5,258,23.2,258.8,22.5z"/>
		<path class="st0" d="M286.1,7.5v0.7c-0.9,0-1.6,0-1.9,0.1s-0.5,0.3-0.5,0.7c0,0.3,0.1,0.8,0.4,1.4l4.1,10.5l3.5-9.2l-0.5-1.3
			c-0.3-0.7-0.6-1.3-0.9-1.6s-0.6-0.5-1-0.6s-0.9-0.1-1.7-0.1V7.5h7.9v0.7c-0.9,0-1.6,0-1.9,0.1s-0.5,0.3-0.5,0.7
			c0,0.3,0.1,0.8,0.4,1.4l4.1,10.5l3.8-9.8c0.4-1,0.6-1.7,0.6-2.1s-0.2-0.6-0.5-0.7c-0.3-0.1-0.9-0.1-1.8-0.1V7.5h6.3v0.7
			c-0.8,0-1.3,0-1.7,0.1s-0.7,0.3-1,0.8c-0.3,0.4-0.7,1.1-1,2l-5.1,13.1h-0.6l-4.5-11.4l-4.4,11.4h-0.6l-5.4-13.7
			c-0.3-0.7-0.6-1.3-0.9-1.6s-0.6-0.5-1-0.6s-0.9-0.1-1.7-0.1V7.5H286.1z"/>
		<path class="st0" d="M347.5,7.5l-0.6,4.7c0.3-1.1,0.8-2.1,1.4-2.8s1.4-1.3,2.2-1.7c0.8-0.4,1.6-0.5,2.4-0.5c1.4,0,2.6,0.4,3.6,1.2
			s1.6,1.9,1.8,3.4c0.5-1.5,1.3-2.7,2.4-3.4c1.1-0.8,2.3-1.2,3.5-1.2c1,0,2,0.2,2.8,0.7s1.5,1.1,2,2s0.7,2,0.7,3.2v7.4
			c0,0.9,0.1,1.5,0.3,1.8c0.2,0.4,0.5,0.6,0.9,0.7s1.1,0.1,2.1,0.1v0.7h-9.1v-0.7c1,0,1.7,0,2.1-0.1s0.7-0.3,0.9-0.7
			c0.2-0.4,0.3-1,0.3-1.8v-6.9c0-1.7-0.4-3-1.2-3.9c-0.8-0.9-1.8-1.3-3-1.3c-0.8,0-1.5,0.2-2.3,0.7c-0.8,0.4-1.4,1.2-1.9,2.1
			c-0.5,1-0.8,2.3-0.8,3.8v5.4c0,0.9,0.1,1.5,0.3,1.8c0.2,0.4,0.5,0.6,0.9,0.7s1.1,0.1,2.1,0.1v0.7h-9.1V23c1,0,1.7,0,2.1-0.1
			s0.7-0.3,0.9-0.7c0.2-0.4,0.3-1,0.3-1.8v-6.9c0-1.7-0.4-3-1.2-3.9c-0.8-0.9-1.8-1.3-3-1.3c-0.8,0-1.5,0.2-2.3,0.7
			c-0.8,0.4-1.4,1.2-1.9,2.1c-0.5,1-0.8,2.3-0.8,3.8v5.4c0,0.9,0.1,1.5,0.3,1.8s0.5,0.6,0.9,0.7s1.1,0.1,2.1,0.1v0.7h-9.1v-0.7
			c1,0,1.7,0,2.1-0.1s0.7-0.3,0.9-0.7s0.3-1,0.3-1.8v-9.2c0-0.6-0.1-1-0.2-1.3c-0.1-0.2-0.3-0.3-0.6-0.3c-0.5,0-1.4,0.4-2.6,1
			l-0.3-0.5l6-3.2L347.5,7.5z"/>
		<path class="st0" d="M388.5,11.3c0.8-1.3,1.8-2.3,3-3s2.6-1.1,4-1.1c2.1,0,3.8,0.6,5.2,1.8c1.4,1.2,2.4,2.9,3.1,5.1H390
			c0,0.5-0.1,0.9-0.1,1.1c0,1.5,0.3,2.8,0.9,4s1.3,2,2.3,2.7c1,0.6,2.1,0.9,3.3,0.9c1.5,0,2.8-0.5,3.9-1.4s2.1-2.4,2.7-4.3l0.5,0.2
			c-0.6,1.9-1.5,3.5-2.8,4.8s-2.9,2-5,2c-1.5,0-2.8-0.4-4.1-1.1c-1.3-0.8-2.3-1.8-3.1-3.1c-0.8-1.3-1.1-2.8-1.1-4.3
			S387.8,12.6,388.5,11.3z M399.2,9.5c-0.9-1.1-2.1-1.6-3.5-1.6s-2.6,0.5-3.6,1.6s-1.7,2.4-2,4.1H401
			C400.7,11.9,400.1,10.6,399.2,9.5z"/>
		<path class="st0" d="M424.8,7.5l-0.6,4.7c0.3-1.1,0.8-2.1,1.4-2.8c0.7-0.8,1.4-1.3,2.2-1.7c0.8-0.4,1.6-0.5,2.4-0.5
			c1,0,2,0.2,2.8,0.7s1.5,1.1,2,2s0.7,2,0.7,3.2v7.4c0,0.9,0.1,1.5,0.3,1.8c0.2,0.4,0.5,0.6,0.9,0.7s1.1,0.1,2.1,0.1v0.7h-9.1v-0.7
			c1,0,1.7,0,2.1-0.1s0.7-0.3,0.9-0.7s0.3-1,0.3-1.8v-6.9c0-1.7-0.4-3-1.2-3.9c-0.8-0.9-1.8-1.3-3-1.3c-0.8,0-1.5,0.2-2.3,0.7
			c-0.8,0.4-1.4,1.2-1.9,2.1c-0.5,1-0.8,2.3-0.8,3.8v5.4c0,0.9,0.1,1.5,0.3,1.8c0.2,0.4,0.5,0.6,0.9,0.7s1.1,0.1,2.1,0.1v0.7h-9.1
			V23c1,0,1.7,0,2.1-0.1s0.7-0.3,0.9-0.7c0.2-0.4,0.3-1,0.3-1.8v-9.2c0-0.6-0.1-1-0.2-1.3c-0.1-0.2-0.3-0.3-0.6-0.3
			c-0.5,0-1.3,0.4-2.6,1l-0.3-0.5l6-3.2L424.8,7.5z"/>
		<path class="st0" d="M456.5,24.2c-0.6,0-1.1-0.2-1.5-0.5s-0.6-0.7-0.6-1.1s0.2-0.8,0.6-1.1c0.4-0.3,0.9-0.5,1.5-0.5
			s1.1,0.2,1.5,0.5s0.6,0.7,0.6,1.1c0,0.3-0.1,0.6-0.3,0.9c-0.2,0.3-0.6,0.9-1.1,1.6c-0.6,0.7-1.5,1.9-2.9,3.6h-2.2l5.4-4.7
			C457.2,24.1,456.9,24.2,456.5,24.2z"/>
		<path class="st0" d="M5.7,57.5v10.2c0,1.8,0.4,3.1,1.1,3.9c0.8,0.8,1.8,1.3,3,1.3c0.8,0,1.5-0.2,2.3-0.7c0.8-0.4,1.4-1.2,1.9-2.1
			s0.8-2.3,0.8-3.8v-5.4c0-0.9-0.1-1.5-0.3-1.8s-0.5-0.6-0.9-0.7c-0.4-0.1-1.1-0.1-2.1-0.1v-0.7H17v12.6c0,0.7,0.1,1.2,0.2,1.5
			s0.3,0.5,0.7,0.5c0.5,0,1.3-0.2,2.5-0.7l0.2,0.5l-6,2.3L14.3,74l0.8-5c-0.3,1.2-0.8,2.2-1.4,3s-1.4,1.4-2.2,1.8S9.8,74.4,9,74.4
			c-1.6,0-2.9-0.5-3.9-1.6s-1.5-2.5-1.5-4.4V61c0-0.9-0.1-1.5-0.3-1.8s-0.5-0.6-0.9-0.7C1.7,58.2,1,58.2,0,58.2v-0.7H5.7z"/>
		<path class="st0" d="M41.2,57.5l-0.6,4.7c0.3-1.1,0.8-2.1,1.4-2.8s1.4-1.3,2.2-1.7s1.6-0.5,2.4-0.5c1,0,2,0.2,2.8,0.7s1.5,1.1,2,2
			s0.7,2,0.7,3.2v7.4c0,0.9,0.1,1.5,0.3,1.8c0.2,0.4,0.5,0.6,0.9,0.7s1.1,0.1,2.1,0.1v0.7h-9.1v-0.7c1,0,1.7,0,2.1-0.1
			c0.4-0.1,0.7-0.3,0.9-0.7c0.2-0.4,0.3-1,0.3-1.8v-6.9c0-1.7-0.4-3-1.2-3.9s-1.8-1.3-3-1.3c-0.8,0-1.5,0.2-2.3,0.7
			c-0.8,0.4-1.4,1.2-1.9,2.1c-0.5,1-0.8,2.3-0.8,3.8v5.4c0,0.9,0.1,1.5,0.3,1.8s0.5,0.6,0.9,0.7s1.1,0.1,2.1,0.1v0.7h-9.1V73
			c1,0,1.7,0,2.1-0.1c0.4-0.1,0.7-0.3,0.9-0.7s0.3-1,0.3-1.8v-9.2c0-0.6-0.1-1-0.2-1.3c-0.1-0.2-0.3-0.3-0.6-0.3
			c-0.5,0-1.4,0.4-2.6,1l0.5-0.2l6-3.2L41.2,57.5z"/>
		<path class="st0" d="M75.9,57.5v13.1c0,0.9,0.1,1.5,0.3,1.8s0.5,0.6,0.9,0.7s1.1,0.1,2.1,0.1v0.7h-9.1v-0.7c1,0,1.7,0,2.1-0.1
			s0.7-0.3,0.9-0.7s0.3-1,0.3-1.8v-9.2c0-0.6-0.1-1-0.2-1.3c-0.1-0.2-0.3-0.3-0.6-0.3c-0.5,0-1.4,0.4-2.6,1l-0.3-0.5l5.7-3.2
			L75.9,57.5z M73.2,51.1c0.4-0.3,0.9-0.5,1.5-0.5s1.1,0.2,1.5,0.5s0.6,0.7,0.6,1.1c0,0.4-0.2,0.8-0.6,1.1s-0.9,0.5-1.5,0.5
			s-1.1-0.2-1.5-0.5s-0.6-0.7-0.6-1.1S72.8,51.4,73.2,51.1z"/>
		<path class="st0" d="M100.7,57.5l-0.6,4.7c0.3-1.1,0.8-2.1,1.4-2.8c0.7-0.8,1.4-1.3,2.2-1.7c0.8-0.4,1.6-0.5,2.4-0.5
			c1,0,2,0.2,2.8,0.7s1.5,1.1,2,2s0.7,2,0.7,3.2v7.4c0,0.9,0.1,1.5,0.3,1.8c0.2,0.4,0.5,0.6,0.9,0.7s1.1,0.1,2.1,0.1v0.7h-9.1v-0.7
			c1,0,1.7,0,2.1-0.1s0.7-0.3,0.9-0.7s0.3-1,0.3-1.8v-6.9c0-1.7-0.4-3-1.2-3.9c-0.8-0.9-1.8-1.3-3-1.3c-0.8,0-1.5,0.2-2.3,0.7
			c-0.8,0.4-1.4,1.2-1.9,2.1c-0.5,1-0.8,2.3-0.8,3.8v5.4c0,0.9,0.1,1.5,0.3,1.8c0.2,0.4,0.5,0.6,0.9,0.7s1.1,0.1,2.1,0.1v0.7h-9.1
			V73c1,0,1.7,0,2.1-0.1s0.7-0.3,0.9-0.7c0.2-0.4,0.3-1,0.3-1.8v-9.2c0-0.6-0.1-1-0.2-1.3c-0.1-0.2-0.3-0.3-0.6-0.3
			c-0.5,0-1.3,0.4-2.6,1l-0.3-0.5l6-3.2L100.7,57.5z"/>
		<path class="st0" d="M135.2,57.5v0.7c-0.9,0-1.5,0-1.9,0.1s-0.5,0.3-0.5,0.7s0.2,0.9,0.5,1.7l4.3,10.4l4-9.8
			c0.4-1.1,0.7-1.8,0.7-2.2s-0.2-0.6-0.5-0.7s-0.9-0.1-1.8-0.1v-0.7h6.4v0.7c-0.8,0-1.3,0.1-1.7,0.2c-0.4,0.1-0.7,0.4-1.1,0.8
			c-0.3,0.4-0.7,1.2-1.2,2.2l-5.2,12.8h-0.6l-5.4-13.1c-0.4-0.9-0.8-1.6-1.1-2s-0.7-0.7-1-0.8c-0.4-0.1-0.9-0.1-1.7-0.1v-0.7h7.8
			V57.5z"/>
		<path class="st0" d="M166.3,57.5v13.1c0,0.9,0.1,1.5,0.3,1.8c0.2,0.4,0.5,0.6,0.9,0.7s1.1,0.1,2.1,0.1v0.7h-9.1v-0.7
			c1,0,1.7,0,2.1-0.1c0.4-0.1,0.7-0.3,0.9-0.7c0.2-0.4,0.3-1,0.3-1.8v-9.2c0-0.6-0.1-1-0.2-1.3c-0.1-0.2-0.3-0.3-0.6-0.3
			c-0.5,0-1.3,0.4-2.6,1l-0.3-0.5l5.7-3.2L166.3,57.5z M163.6,51.1c0.4-0.3,0.9-0.5,1.5-0.5s1.1,0.2,1.5,0.5s0.6,0.7,0.6,1.1
			c0,0.4-0.2,0.8-0.6,1.1c-0.4,0.3-0.9,0.5-1.5,0.5s-1.1-0.2-1.5-0.5s-0.6-0.7-0.6-1.1S163.2,51.4,163.6,51.1z"/>
		<path class="st0" d="M184.2,57.5c1.1,0,1.9-0.1,2.6-0.4c0.7-0.3,1.2-0.8,1.6-1.6c0.4-0.8,0.6-1.8,0.7-3.2h0.6v5.2h7.8v0.7h-7.8
			v10.6c0,1.4,0.3,2.4,0.9,3.1s1.4,1,2.5,1s2.1-0.5,3-1.4c0.8-1,1.5-2.4,1.9-4.2l0.5,0.2c-0.3,2-1,3.6-2.1,4.9s-2.5,1.9-4.2,1.9
			c-1.4,0-2.5-0.4-3.4-1.3s-1.4-2-1.4-3.6V58.2h-3.8v-0.7H184.2z"/>
		<path class="st0" d="M214.6,61.3c0.8-1.3,1.8-2.3,3-3s2.6-1.1,4-1.1c2.1,0,3.8,0.6,5.2,1.8s2.4,2.9,3.1,5.1H216
			c0,0.5-0.1,0.9-0.1,1.1c0,1.5,0.3,2.8,0.9,4c0.6,1.2,1.3,2,2.3,2.7c1,0.6,2.1,0.9,3.3,0.9c1.5,0,2.8-0.5,3.9-1.4
			c1.2-0.9,2.1-2.4,2.7-4.3l0.5,0.2c-0.6,1.9-1.5,3.5-2.8,4.8s-2.9,2-5,2c-1.5,0-2.8-0.4-4.1-1.1c-1.3-0.8-2.3-1.8-3.1-3.1
			c-0.8-1.3-1.1-2.8-1.1-4.3C213.5,64,213.9,62.6,214.6,61.3z M225.3,59.5c-0.9-1.1-2.1-1.6-3.5-1.6s-2.6,0.5-3.6,1.6
			c-1,1-1.7,2.4-2,4.1H227C226.8,61.9,226.2,60.6,225.3,59.5z"/>
		<path class="st0" d="M247.2,61.3c0.7-1.3,1.6-2.3,2.8-3s2.4-1.1,3.8-1.1c1.3,0,2.5,0.3,3.6,1s1.8,1.5,2.4,2.6v-6.6
			c0-0.6-0.1-1-0.2-1.3c-0.1-0.2-0.3-0.3-0.6-0.3c-0.5,0-1.3,0.4-2.6,1l-0.3-0.5l5.7-3.2l0.3,0.3V70c0,0.7,0.1,1.2,0.2,1.5
			s0.4,0.5,0.7,0.5c0.5,0,1.3-0.2,2.5-0.7l0.2,0.5l-6.1,2.3l-0.3-0.3l0.9-5.3c-0.5,1.9-1.3,3.3-2.3,4.2c-1.1,1-2.4,1.4-3.9,1.4
			c-1.3,0-2.6-0.4-3.8-1.1s-2.1-1.7-2.8-3s-1.1-2.8-1.1-4.4C246.1,64.1,246.5,62.6,247.2,61.3z M249.4,69.6c0.5,1.1,1.2,1.9,2.1,2.5
			c0.9,0.6,1.8,0.8,2.8,0.8c1.3,0,2.4-0.4,3.4-1.3s1.6-2.2,2-4v-2.9c0-1.2-0.2-2.3-0.7-3.2s-1.1-1.7-1.9-2.2s-1.7-0.8-2.7-0.8
			s-1.9,0.3-2.8,0.9c-0.9,0.6-1.6,1.4-2.1,2.5s-0.8,2.4-0.8,3.8C248.6,67.2,248.9,68.5,249.4,69.6z"/>
		<path class="st0" d="M304.4,59.1c1.5-1.2,3.4-1.9,5.5-1.9c1.8,0,3.3,0.5,4.4,1.4s1.7,2.4,1.7,4.3v7.4c0,1.7,0.5,2.6,1.7,2.6
			c1,0,1.7-0.8,2.2-2.4h0.5c-0.3,1.1-0.7,2-1.3,2.7c-0.6,0.7-1.4,1-2.3,1s-1.7-0.3-2.2-1s-0.8-1.6-0.8-2.9v-2.4
			c-0.4,1.9-1.2,3.4-2.3,4.6c-1.1,1.2-2.5,1.7-4.3,1.7c-1.4,0-2.6-0.4-3.5-1.2c-1-0.8-1.4-1.9-1.4-3.2c0-2.3,2-4,5.9-4.9l1.7-0.5
			c2.5-0.6,3.8-1.8,3.8-3.5c0-0.9-0.3-1.6-1-2.2c-0.7-0.6-1.6-0.9-2.6-0.9c-1.1,0-2.1,0.3-3,0.9c-0.9,0.6-1.5,1.3-2,2.3
			s-0.8,2-0.9,3.1h-2.8C301.8,62,302.9,60.3,304.4,59.1z M305.6,72c0.7,0.6,1.5,0.9,2.5,0.9s2-0.4,2.8-1.1s1.5-1.8,2-3.1
			c0.5-1.4,0.8-2.9,0.8-4.6v-1.5c-0.3,0.7-0.8,1.2-1.4,1.6c-0.6,0.4-1.3,0.7-2,0.9l-1.8,0.6c-1.3,0.4-2.3,1-2.9,1.7
			s-0.9,1.5-0.9,2.4C304.6,70.6,304.9,71.4,305.6,72z"/>
		<path class="st0" d="M347.1,61.1c-0.5-1-1.1-1.7-1.8-2.3c-0.8-0.6-1.7-0.9-2.7-0.9c-1.1,0-2,0.3-2.9,1c-0.9,0.6-1.6,1.5-2.1,2.7
			c-0.5,1.1-0.8,2.4-0.8,3.8c0,1.5,0.3,2.8,0.9,4s1.3,2,2.3,2.7c1,0.6,2.1,0.9,3.3,0.9c1.5,0,2.8-0.5,3.9-1.4s2.1-2.4,2.7-4.3
			l0.5,0.2c-0.6,1.9-1.5,3.5-2.8,4.8s-2.9,2-5,2c-1.5,0-2.8-0.4-4.1-1.1c-1.3-0.8-2.3-1.8-3.1-3.1c-0.8-1.3-1.1-2.8-1.1-4.3
			c0-1.6,0.4-3,1.1-4.3s1.8-2.3,3-3s2.6-1.1,4-1.1c2.1,0,3.8,0.6,5.2,1.8c1.4,1.2,2.4,2.9,3.1,5.1h-2.8
			C347.8,63.1,347.6,62,347.1,61.1z"/>
		<path class="st0" d="M379.8,61.1c-0.5-1-1.1-1.7-1.8-2.3c-0.8-0.6-1.7-0.9-2.7-0.9c-1.1,0-2,0.3-2.9,1c-0.9,0.6-1.6,1.5-2.1,2.7
			c-0.5,1.1-0.8,2.4-0.8,3.8c0,1.5,0.3,2.8,0.9,4s1.3,2,2.3,2.7c1,0.6,2.1,0.9,3.3,0.9c1.5,0,2.8-0.5,3.9-1.4
			c1.2-0.9,2.1-2.4,2.7-4.3l0.5,0.2c-0.6,1.9-1.5,3.5-2.8,4.8s-2.9,2-5,2c-1.5,0-2.8-0.4-4.1-1.1c-1.3-0.8-2.3-1.8-3.1-3.1
			c-0.8-1.3-1.1-2.8-1.1-4.3c0-1.6,0.4-3,1.1-4.3s1.8-2.3,3-3s2.6-1.1,4-1.1c2.1,0,3.8,0.6,5.2,1.8c1.4,1.2,2.4,2.9,3.1,5.1h-2.8
			C380.5,63.1,380.2,62,379.8,61.1z"/>
		<path class="st0" d="M400.7,61.3c0.8-1.3,1.8-2.3,3-3s2.6-1.1,4-1.1c2.1,0,3.8,0.6,5.2,1.8c1.4,1.2,2.4,2.9,3.1,5.1h-13.9
			c0,0.5-0.1,0.9-0.1,1.1c0,1.5,0.3,2.8,0.9,4s1.3,2,2.3,2.7c1,0.6,2.1,0.9,3.3,0.9c1.5,0,2.8-0.5,3.9-1.4c1.2-0.9,2.1-2.4,2.7-4.3
			l0.5,0.2c-0.6,1.9-1.5,3.5-2.8,4.8s-2.9,2-5,2c-1.5,0-2.8-0.4-4.1-1.1c-1.3-0.8-2.3-1.8-3.1-3.1c-0.8-1.3-1.1-2.8-1.1-4.3
			C399.6,64,399.9,62.6,400.7,61.3z M411.4,59.5c-0.9-1.1-2.1-1.6-3.5-1.6s-2.6,0.5-3.6,1.6c-1,1-1.7,2.4-2,4.1h10.9
			C412.9,61.9,412.3,60.6,411.4,59.5z"/>
		<path class="st0" d="M435.5,71.8c1.3,1.2,2.9,1.8,4.7,1.8c0.9,0,1.7-0.2,2.4-0.6s1.2-0.9,1.6-1.5s0.6-1.3,0.6-2.1
			c0-1.2-0.3-2.1-1-2.8c-0.7-0.7-1.6-1-2.6-1c-0.5,0-1.2,0.1-2,0.3c-0.9,0.2-1.7,0.3-2.3,0.3c-0.8,0-1.6-0.2-2.3-0.5
			c-0.7-0.3-1.2-0.8-1.6-1.5s-0.6-1.3-0.6-2.1s0.2-1.6,0.7-2.4c0.5-0.7,1.2-1.3,2.2-1.8c1-0.4,2.1-0.7,3.3-0.7
			c1.8,0,3.5,0.5,4.9,1.5l0.4-1.5h0.5l3.1,6.3l-0.4,0.3c-1-1.9-2.2-3.4-3.6-4.4c-1.3-1-2.8-1.5-4.4-1.5c-1.3,0-2.3,0.4-3.1,1.1
			c-0.8,0.7-1.2,1.7-1.2,2.9c0,1,0.3,1.8,0.9,2.5c0.6,0.7,1.5,1,2.5,1c0.5,0,1.2-0.1,2-0.3c0.9-0.2,1.7-0.3,2.3-0.3
			c0.9,0,1.7,0.2,2.4,0.6c0.7,0.4,1.3,0.9,1.7,1.6c0.4,0.7,0.6,1.4,0.6,2.3s-0.3,1.8-0.8,2.6c-0.6,0.8-1.3,1.4-2.3,1.9
			s-2,0.7-3.2,0.7c-2,0-3.7-0.5-5.1-1.5l-0.5,1.5h-0.5l-3.3-6.9l0.4-0.3C433,69,434.2,70.6,435.5,71.8z"/>
		<path class="st0" d="M467.1,71.8c1.3,1.2,2.9,1.8,4.7,1.8c0.9,0,1.7-0.2,2.4-0.6s1.2-0.9,1.6-1.5s0.6-1.3,0.6-2.1
			c0-1.2-0.3-2.1-1-2.8c-0.7-0.7-1.6-1-2.6-1c-0.5,0-1.2,0.1-2,0.3c-0.9,0.2-1.7,0.3-2.3,0.3c-0.8,0-1.6-0.2-2.3-0.5
			c-0.7-0.3-1.2-0.8-1.6-1.5s-0.6-1.3-0.6-2.1s0.2-1.6,0.7-2.4c0.5-0.7,1.2-1.3,2.2-1.8c1-0.4,2.1-0.7,3.3-0.7
			c1.8,0,3.5,0.5,4.9,1.5l0.4-1.5h0.5l3.1,6.3l-0.4,0.3c-1-1.9-2.2-3.4-3.6-4.4c-1.3-1-2.8-1.5-4.4-1.5c-1.3,0-2.3,0.4-3.1,1.1
			c-0.8,0.7-1.2,1.7-1.2,2.9c0,1,0.3,1.8,0.9,2.5c0.6,0.7,1.5,1,2.5,1c0.5,0,1.2-0.1,2-0.3c0.9-0.2,1.7-0.3,2.3-0.3
			c0.9,0,1.7,0.2,2.4,0.6c0.7,0.4,1.3,0.9,1.7,1.6c0.4,0.7,0.6,1.4,0.6,2.3s-0.3,1.8-0.8,2.6c-0.6,0.8-1.3,1.4-2.3,1.9
			s-2,0.7-3.2,0.7c-2,0-3.7-0.5-5.1-1.5l-0.5,1.5h-0.5l-3.3-6.9l0.4-0.3C464.6,69,465.8,70.6,467.1,71.8z"/>
		<path class="st0" d="M499.3,73.1c-1.3-0.8-2.3-1.8-3.1-3.1c-0.8-1.3-1.1-2.7-1.1-4.3c0-1.5,0.4-3,1.1-4.3c0.8-1.3,1.8-2.3,3.1-3.1
			c1.3-0.8,2.7-1.1,4.2-1.1s3,0.4,4.2,1.1c1.3,0.8,2.3,1.8,3.1,3.1c0.8,1.3,1.1,2.7,1.1,4.3s-0.4,3-1.1,4.3
			c-0.8,1.3-1.8,2.3-3.1,3.1c-1.3,0.8-2.7,1.1-4.2,1.1S500.6,73.8,499.3,73.1z M506.7,72.5c0.9-0.7,1.5-1.6,2-2.8
			c0.5-1.2,0.7-2.5,0.7-4s-0.2-2.8-0.7-4s-1.2-2.1-2.1-2.8s-2-1-3.2-1c-1.1,0-2.1,0.3-3,1s-1.5,1.6-2,2.8s-0.7,2.5-0.7,4
			s0.2,2.8,0.7,4s1.2,2.1,2.1,2.8c0.9,0.7,2,1,3.2,1C504.9,73.6,505.9,73.2,506.7,72.5z"/>
		<path class="st0" d="M533.9,57.5l-0.6,4.7c0.3-1.1,0.8-2,1.4-2.8c0.6-0.8,1.4-1.3,2.2-1.7s1.6-0.6,2.3-0.6c1.4,0,2.7,0.4,4,1.3
			l-1.2,2.4c-0.5-0.8-1.1-1.3-1.7-1.8c-0.6-0.4-1.3-0.6-2.1-0.6c-0.6,0-1.3,0.2-2,0.7c-0.7,0.4-1.3,1.2-1.8,2.2s-0.8,2.3-0.8,3.8
			v5.4c0,0.9,0.1,1.5,0.4,1.9c0.2,0.4,0.6,0.6,1.2,0.7c0.5,0.1,1.5,0.1,2.8,0.1v0.7h-10v-0.7c1,0,1.7,0,2.1-0.1
			c0.4-0.1,0.7-0.3,0.9-0.7s0.3-1,0.3-1.8v-9.2c0-0.6-0.1-1-0.2-1.3c-0.1-0.2-0.3-0.3-0.6-0.3c-0.5,0-1.4,0.4-2.6,1l-0.3-0.5l6-3.2
			L533.9,57.5z"/>
		<path class="st0" d="M564.6,57.5v0.7c-0.9,0-1.5,0-1.9,0.1s-0.5,0.3-0.5,0.7s0.2,0.9,0.5,1.7L567,71l4-10c0.4-0.9,0.5-1.6,0.5-2
			s-0.2-0.6-0.5-0.7s-0.9-0.1-1.8-0.1v-0.7h6.4v0.7c-0.8,0-1.3,0.1-1.7,0.2c-0.4,0.1-0.7,0.4-1.1,0.8c-0.3,0.4-0.7,1.2-1.2,2.2
			l-6.2,15.2c-0.5,1.2-1,2.1-1.6,2.7s-1.1,1-1.7,1.2s-1.1,0.3-1.7,0.3c-1.3,0-2.4-0.5-3.4-1.4l1.3-2.5c0.5,0.8,1,1.5,1.6,1.9
			s1.2,0.6,1.8,0.6s1.2-0.3,1.7-0.9s0.9-1.4,1.3-2.5l0.9-2.2L560.3,61c-0.4-0.9-0.8-1.6-1.1-2s-0.7-0.7-1-0.8
			c-0.4-0.1-0.9-0.1-1.7-0.1v-0.7h8.1V57.5z"/>
		<path class="st0" d="M588.5,74.2c-0.6,0-1.1-0.2-1.5-0.5s-0.6-0.7-0.6-1.1s0.2-0.8,0.6-1.1c0.4-0.3,0.9-0.5,1.5-0.5
			s1.1,0.2,1.5,0.5s0.6,0.7,0.6,1.1c0,0.3-0.1,0.6-0.3,0.9s-0.6,0.9-1.1,1.6c-0.6,0.7-1.5,1.9-2.9,3.6h-2.2l5.4-4.7
			C589.2,74.1,588.9,74.2,588.5,74.2z"/>
		<path class="st0" d="M59.5,107.5l-0.6,4.7c0.3-1.1,0.8-2.1,1.4-2.8c0.7-0.8,1.4-1.3,2.2-1.7c0.8-0.4,1.6-0.5,2.4-0.5
			c1.4,0,2.6,0.4,3.6,1.2c1,0.8,1.6,1.9,1.8,3.4c0.5-1.5,1.3-2.7,2.4-3.4c1.1-0.8,2.3-1.2,3.5-1.2c1,0,2,0.2,2.8,0.7s1.5,1.1,2,2
			s0.7,2,0.7,3.2v7.4c0,0.9,0.1,1.5,0.3,1.8s0.5,0.6,0.9,0.7s1.1,0.1,2.1,0.1v0.7h-9.1v-0.7c1,0,1.7,0,2.1-0.1s0.7-0.3,0.9-0.7
			c0.2-0.4,0.3-1,0.3-1.8v-6.9c0-1.7-0.4-3-1.2-3.9c-0.8-0.9-1.8-1.3-3-1.3c-0.8,0-1.5,0.2-2.3,0.7c-0.8,0.4-1.4,1.2-1.9,2.1
			c-0.5,1-0.8,2.3-0.8,3.8v5.4c0,0.9,0.1,1.5,0.3,1.8c0.2,0.4,0.5,0.6,0.9,0.7s1.1,0.1,2.1,0.1v0.7h-9.1V123c1,0,1.7,0,2.1-0.1
			s0.7-0.3,0.9-0.7s0.3-1,0.3-1.8v-6.9c0-1.7-0.4-3-1.2-3.9c-0.8-0.9-1.8-1.3-3-1.3c-0.8,0-1.5,0.2-2.3,0.7
			c-0.8,0.4-1.4,1.2-1.9,2.1c-0.5,1-0.8,2.3-0.8,3.8v5.4c0,0.9,0.1,1.5,0.3,1.8c0.2,0.4,0.5,0.6,0.9,0.7s1.1,0.1,2.1,0.1v0.7h-9.1
			v-0.7c1,0,1.7,0,2.1-0.1c0.4-0.1,0.7-0.3,0.9-0.7c0.2-0.4,0.3-1,0.3-1.8v-9.2c0-0.6-0.1-1-0.2-1.3c-0.1-0.2-0.3-0.3-0.6-0.3
			c-0.5,0-1.3,0.4-2.6,1l-0.3-0.5l6-3.2L59.5,107.5z"/>
		<path class="st0" d="M103.2,109.1c1.5-1.2,3.4-1.9,5.5-1.9c1.8,0,3.3,0.5,4.4,1.4s1.7,2.4,1.7,4.3v7.4c0,1.7,0.5,2.6,1.7,2.6
			c1,0,1.7-0.8,2.2-2.4h0.5c-0.3,1.1-0.7,2-1.3,2.7c-0.6,0.7-1.4,1-2.3,1s-1.7-0.3-2.2-1s-0.8-1.6-0.8-2.9v-2.4
			c-0.4,1.9-1.2,3.4-2.3,4.6c-1.1,1.2-2.5,1.7-4.3,1.7c-1.4,0-2.6-0.4-3.5-1.2c-1-0.8-1.4-1.9-1.4-3.2c0-2.3,2-4,5.9-4.9l1.7-0.5
			c2.5-0.6,3.8-1.8,3.8-3.5c0-0.9-0.3-1.6-1-2.2s-1.6-0.9-2.6-0.9c-1.1,0-2.1,0.3-3,0.9s-1.5,1.3-2,2.3s-0.8,2-0.9,3.1h-3
			C100.6,112,101.7,110.3,103.2,109.1z M104.5,122c0.7,0.6,1.5,0.9,2.5,0.9s2-0.4,2.8-1.1s1.5-1.8,2-3.1c0.5-1.4,0.8-2.9,0.8-4.6
			v-1.5c-0.3,0.7-0.8,1.2-1.4,1.6s-1.3,0.7-2,0.9l-1.8,0.6c-1.3,0.4-2.3,1-2.9,1.7s-0.9,1.5-0.9,2.4
			C103.5,120.6,103.8,121.4,104.5,122z"/>
		<path class="st0" d="M132.2,107.5c1.1,0,1.9-0.1,2.6-0.4c0.7-0.3,1.2-0.8,1.6-1.6c0.4-0.8,0.6-1.8,0.7-3.2h0.6v5.2h7.8v0.7h-7.8
			v10.6c0,1.4,0.3,2.4,0.9,3.1s1.4,1,2.5,1s2.1-0.5,3-1.4c0.8-1,1.5-2.4,1.9-4.2l0.5,0.2c-0.3,2-1,3.6-2.1,4.9s-2.5,1.9-4.2,1.9
			c-1.4,0-2.5-0.4-3.4-1.3s-1.4-2-1.4-3.6v-11.2h-3.8v-0.7H132.2z"/>
		<path class="st0" d="M162.6,111.3c0.8-1.3,1.8-2.3,3-3s2.6-1.1,4-1.1c2.1,0,3.8,0.6,5.2,1.8c1.4,1.2,2.4,2.9,3.1,5.1H164
			c0,0.5-0.1,0.9-0.1,1.1c0,1.5,0.3,2.8,0.9,4c0.6,1.2,1.3,2,2.3,2.7c1,0.6,2.1,0.9,3.3,0.9c1.5,0,2.8-0.5,3.9-1.4
			c1.2-0.9,2.1-2.4,2.7-4.3l0.5,0.2c-0.6,1.9-1.5,3.5-2.8,4.8s-2.9,2-5,2c-1.5,0-2.8-0.4-4.1-1.1c-1.3-0.8-2.3-1.8-3.1-3.1
			c-0.8-1.3-1.1-2.8-1.1-4.3S161.9,112.6,162.6,111.3z M173.3,109.5c-0.9-1.1-2.1-1.6-3.5-1.6s-2.6,0.5-3.6,1.6c-1,1-1.7,2.4-2,4.1
			H175C174.8,111.9,174.2,110.6,173.3,109.5z"/>
		<path class="st0" d="M198.9,107.5l-0.6,4.7c0.3-1.1,0.8-2,1.4-2.8c0.6-0.8,1.4-1.3,2.2-1.7c0.8-0.4,1.6-0.6,2.3-0.6
			c1.4,0,2.7,0.4,4,1.3l-1.2,2.4c-0.5-0.8-1.1-1.3-1.7-1.8c-0.6-0.4-1.3-0.6-2.1-0.6c-0.6,0-1.3,0.2-2,0.7c-0.7,0.4-1.3,1.2-1.8,2.2
			s-0.8,2.3-0.8,3.8v5.4c0,0.9,0.1,1.5,0.4,1.9c0.2,0.4,0.6,0.6,1.2,0.7c0.5,0.1,1.5,0.1,2.8,0.1v0.7h-10v-0.7c1,0,1.7,0,2.1-0.1
			c0.4-0.1,0.7-0.3,0.9-0.7s0.3-1,0.3-1.8v-9.2c0-0.6-0.1-1-0.2-1.3c-0.1-0.2-0.3-0.3-0.6-0.3c-0.5,0-1.4,0.4-2.6,1l-0.3-0.5l6-3.2
			L198.9,107.5z"/>
		<path class="st0" d="M228.2,107.5v13c0,0.9,0.1,1.5,0.3,1.8s0.5,0.6,0.9,0.7s1.1,0.1,2.1,0.1v0.7h-9.1v-0.7c1,0,1.7,0,2.1-0.1
			c0.4-0.1,0.7-0.3,0.9-0.7s0.3-1,0.3-1.8v-9.2c0-0.6-0.1-1-0.2-1.3c-0.1-0.2-0.3-0.3-0.6-0.3c-0.5,0-1.4,0.4-2.6,1l-0.3-0.5
			l5.7-3.2L228.2,107.5z M225.5,101.1c0.4-0.3,0.9-0.5,1.5-0.5s1.1,0.2,1.5,0.5s0.6,0.7,0.6,1.1s-0.2,0.8-0.6,1.1
			c-0.4,0.3-0.9,0.5-1.5,0.5s-1.1-0.2-1.5-0.5s-0.6-0.7-0.6-1.1C224.9,101.8,225.1,101.4,225.5,101.1z"/>
		<path class="st0" d="M250,109.1c1.5-1.2,3.4-1.9,5.5-1.9c1.8,0,3.3,0.5,4.4,1.4s1.7,2.4,1.7,4.3v7.4c0,1.7,0.5,2.6,1.7,2.6
			c1,0,1.7-0.8,2.2-2.4h0.5c-0.3,1.1-0.7,2-1.3,2.7c-0.6,0.7-1.4,1-2.3,1s-1.7-0.3-2.2-1s-0.8-1.6-0.8-2.9v-2.4
			c-0.4,1.9-1.2,3.4-2.3,4.6c-1.1,1.2-2.5,1.7-4.3,1.7c-1.4,0-2.6-0.4-3.5-1.2c-1-0.8-1.4-1.9-1.4-3.2c0-2.3,2-4,5.8-4.9l1.7-0.5
			c2.5-0.6,3.8-1.8,3.8-3.5c0-0.9-0.3-1.6-1-2.2s-1.6-0.9-2.6-0.9c-1.1,0-2.1,0.3-3,0.9s-1.5,1.3-2,2.3s-0.8,2-0.9,3.1h-2.8
			C247.4,112,248.5,110.3,250,109.1z M251.2,122c0.7,0.6,1.5,0.9,2.5,0.9s2-0.4,2.8-1.1c0.9-0.8,1.5-1.8,2-3.1
			c0.5-1.4,0.8-2.9,0.8-4.6v-1.5c-0.3,0.7-0.8,1.2-1.4,1.6s-1.3,0.7-2,0.9l-1.8,0.6c-1.3,0.4-2.3,1-2.9,1.7s-0.9,1.5-0.9,2.4
			C250.3,120.6,250.6,121.4,251.2,122z"/>
		<path class="st0" d="M285.4,100.3v20.2c0,0.9,0.1,1.5,0.3,1.8s0.5,0.6,0.9,0.7s1.1,0.1,2.1,0.1v0.7h-9.1v-0.7c1,0,1.7,0,2.1-0.1
			s0.7-0.3,0.9-0.7s0.3-1,0.3-1.8v-16.4c0-0.6-0.1-1-0.2-1.3c-0.1-0.2-0.3-0.3-0.6-0.3c-0.5,0-1.4,0.4-2.6,1l-0.3-0.5l5.7-3.2
			L285.4,100.3z"/>
		<path class="st0" d="M330.3,107.5l-0.6,4.7c0.3-1.1,0.8-2,1.4-2.8s1.4-1.3,2.2-1.7c0.8-0.4,1.6-0.6,2.3-0.6c1.4,0,2.7,0.4,4,1.3
			l-1.2,2.4c-0.5-0.8-1.1-1.3-1.7-1.8c-0.6-0.4-1.3-0.6-2.1-0.6c-0.6,0-1.3,0.2-2,0.7c-0.7,0.4-1.3,1.2-1.8,2.2s-0.8,2.3-0.8,3.8
			v5.4c0,0.9,0.1,1.5,0.4,1.9c0.2,0.4,0.6,0.6,1.2,0.7c0.5,0.1,1.5,0.1,2.8,0.1v0.7h-10v-0.7c1,0,1.7,0,2.1-0.1s0.7-0.3,0.9-0.7
			s0.3-1,0.3-1.8v-9.2c0-0.6-0.1-1-0.2-1.3c-0.1-0.2-0.3-0.3-0.6-0.3c-0.5,0-1.4,0.4-2.6,1l-0.3-0.5l6-3.2L330.3,107.5z"/>
		<path class="st0" d="M355.2,111.3c0.8-1.3,1.8-2.3,3-3s2.6-1.1,4-1.1c2.1,0,3.8,0.6,5.2,1.8c1.4,1.2,2.4,2.9,3.1,5.1h-13.9
			c0,0.5-0.1,0.9-0.1,1.1c0,1.5,0.3,2.8,0.9,4s1.3,2,2.3,2.7c1,0.6,2.1,0.9,3.3,0.9c1.5,0,2.8-0.5,3.9-1.4c1.2-0.9,2.1-2.4,2.7-4.3
			l0.5,0.2c-0.6,1.9-1.5,3.5-2.8,4.8s-2.9,2-5,2c-1.5,0-2.8-0.4-4.1-1.1c-1.3-0.8-2.3-1.8-3.1-3.1c-0.8-1.3-1.1-2.8-1.1-4.3
			S354.4,112.6,355.2,111.3z M365.8,109.5c-0.9-1.1-2.1-1.6-3.5-1.6s-2.6,0.5-3.6,1.6c-1,1-1.7,2.4-2,4.1h10.9
			C367.3,111.9,366.7,110.6,365.8,109.5z"/>
		<path class="st0" d="M391.4,107.5l-0.6,4.7c0.3-1.1,0.8-2.1,1.4-2.8c0.7-0.8,1.4-1.3,2.2-1.7c0.8-0.4,1.6-0.5,2.4-0.5
			c1.4,0,2.6,0.4,3.6,1.2c1,0.8,1.6,1.9,1.8,3.4c0.5-1.5,1.3-2.7,2.4-3.4c1.1-0.8,2.3-1.2,3.5-1.2c1,0,2,0.2,2.8,0.7s1.5,1.1,2,2
			s0.7,2,0.7,3.2v7.4c0,0.9,0.1,1.5,0.3,1.8s0.5,0.6,0.9,0.7s1.1,0.1,2.1,0.1v0.7h-9.1v-0.7c1,0,1.7,0,2.1-0.1s0.7-0.3,0.9-0.7
			c0.2-0.4,0.3-1,0.3-1.8v-6.9c0-1.7-0.4-3-1.2-3.9c-0.8-0.9-1.8-1.3-3-1.3c-0.8,0-1.5,0.2-2.3,0.7c-0.8,0.4-1.4,1.2-1.9,2.1
			c-0.5,1-0.8,2.3-0.8,3.8v5.4c0,0.9,0.1,1.5,0.3,1.8c0.2,0.4,0.5,0.6,0.9,0.7s1.1,0.1,2.1,0.1v0.7h-9.1V123c1,0,1.7,0,2.1-0.1
			s0.7-0.3,0.9-0.7s0.3-1,0.3-1.8v-6.9c0-1.7-0.4-3-1.2-3.9c-0.8-0.9-1.8-1.3-3-1.3c-0.8,0-1.5,0.2-2.3,0.7
			c-0.8,0.4-1.4,1.2-1.9,2.1c-0.5,1-0.8,2.3-0.8,3.8v5.4c0,0.9,0.1,1.5,0.3,1.8c0.2,0.4,0.5,0.6,0.9,0.7s1.1,0.1,2.1,0.1v0.7h-9.1
			v-0.7c1,0,1.7,0,2.1-0.1s0.7-0.3,0.9-0.7c0.2-0.4,0.3-1,0.3-1.8v-9.2c0-0.6-0.1-1-0.2-1.3c-0.1-0.2-0.3-0.3-0.6-0.3
			c-0.5,0-1.3,0.4-2.6,1L384,110l6-3.2L391.4,107.5z"/>
		<path class="st0" d="M435.1,109.1c1.5-1.2,3.4-1.9,5.5-1.9c1.8,0,3.3,0.5,4.4,1.4s1.7,2.4,1.7,4.3v7.4c0,1.7,0.5,2.6,1.7,2.6
			c1,0,1.7-0.8,2.2-2.4h0.5c-0.3,1.1-0.7,2-1.3,2.7c-0.6,0.7-1.4,1-2.3,1s-1.7-0.3-2.2-1s-0.8-1.6-0.8-2.9v-2.4
			c-0.4,1.9-1.2,3.4-2.3,4.6c-1.1,1.2-2.5,1.7-4.3,1.7c-1.4,0-2.6-0.4-3.5-1.2c-1-0.8-1.4-1.9-1.4-3.2c0-2.3,2-4,5.9-4.9l1.7-0.5
			c2.5-0.6,3.8-1.8,3.8-3.5c0-0.9-0.3-1.6-1-2.2s-1.6-0.9-2.6-0.9c-1.1,0-2.1,0.3-3,0.9s-1.5,1.3-2,2.3s-0.8,2-0.9,3.1h-2.8
			C432.5,112,433.6,110.3,435.1,109.1z M436.3,122c0.7,0.6,1.5,0.9,2.5,0.9s2-0.4,2.8-1.1s1.5-1.8,2-3.1c0.5-1.4,0.8-2.9,0.8-4.6
			v-1.5c-0.3,0.7-0.8,1.2-1.4,1.6s-1.3,0.7-2,0.9l-1.8,0.6c-1.3,0.4-2.3,1-2.9,1.7s-0.9,1.5-0.9,2.4
			C435.3,120.6,435.7,121.4,436.3,122z"/>
		<path class="st0" d="M470.3,107.5v13c0,0.9,0.1,1.5,0.3,1.8c0.2,0.4,0.5,0.6,0.9,0.7s1.1,0.1,2.1,0.1v0.7h-9.1v-0.7
			c1,0,1.7,0,2.1-0.1s0.7-0.3,0.9-0.7c0.2-0.4,0.3-1,0.3-1.8v-9.2c0-0.6-0.1-1-0.2-1.3c-0.1-0.2-0.3-0.3-0.6-0.3
			c-0.5,0-1.3,0.4-2.6,1l-0.3-0.5l5.7-3.2L470.3,107.5z M467.7,101.1c0.4-0.3,0.9-0.5,1.5-0.5s1.1,0.2,1.5,0.5s0.6,0.7,0.6,1.1
			s-0.2,0.8-0.6,1.1c-0.4,0.3-0.9,0.5-1.5,0.5s-1.1-0.2-1.5-0.5s-0.6-0.7-0.6-1.1C467,101.8,467.2,101.4,467.7,101.1z"/>
		<path class="st0" d="M495.1,107.5l-0.6,4.7c0.3-1.1,0.8-2.1,1.4-2.8c0.7-0.8,1.4-1.3,2.2-1.7c0.8-0.4,1.6-0.5,2.4-0.5
			c1,0,2,0.2,2.8,0.7s1.5,1.1,2,2s0.7,2,0.7,3.2v7.4c0,0.9,0.1,1.5,0.3,1.8c0.2,0.4,0.5,0.6,0.9,0.7s1.1,0.1,2.1,0.1v0.7h-9.1v-0.7
			c1,0,1.7,0,2.1-0.1s0.7-0.3,0.9-0.7s0.3-1,0.3-1.8v-6.9c0-1.7-0.4-3-1.2-3.9c-0.8-0.9-1.8-1.3-3-1.3c-0.8,0-1.5,0.2-2.3,0.7
			c-0.8,0.4-1.4,1.2-1.9,2.1c-0.5,1-0.8,2.3-0.8,3.8v5.4c0,0.9,0.1,1.5,0.3,1.8c0.2,0.4,0.5,0.6,0.9,0.7s1.1,0.1,2.1,0.1v0.7h-9.1
			V123c1,0,1.7,0,2.1-0.1s0.7-0.3,0.9-0.7c0.2-0.4,0.3-1,0.3-1.8v-9.2c0-0.6-0.1-1-0.2-1.3c-0.1-0.2-0.3-0.3-0.6-0.3
			c-0.5,0-1.3,0.4-2.6,1l-0.3-0.5l6-3.2L495.1,107.5z"/>
		<path class="st0" d="M527.5,121.8c1.3,1.2,2.9,1.8,4.7,1.8c0.9,0,1.7-0.2,2.4-0.6s1.2-0.9,1.6-1.5c0.4-0.6,0.6-1.3,0.6-2.1
			c0-1.2-0.4-2.1-1.1-2.8s-1.6-1-2.6-1c-0.5,0-1.2,0.1-2,0.3c-0.9,0.2-1.7,0.3-2.3,0.3c-0.8,0-1.6-0.2-2.3-0.5s-1.2-0.8-1.6-1.5
			c-0.4-0.6-0.6-1.3-0.6-2.1c0-0.8,0.2-1.6,0.7-2.4c0.5-0.7,1.2-1.3,2.2-1.8c0.9-0.4,2.1-0.7,3.3-0.7c1.8,0,3.5,0.5,4.9,1.5l0.4-1.5
			h0.5l3.1,6.3l-0.4,0.3c-1-1.9-2.2-3.4-3.6-4.4c-1.4-1-2.8-1.5-4.4-1.5c-1.3,0-2.3,0.4-3.1,1.1s-1.2,1.7-1.2,2.9
			c0,1,0.3,1.8,0.9,2.5c0.6,0.7,1.5,1,2.5,1c0.5,0,1.2-0.1,2-0.3c0.9-0.2,1.7-0.3,2.3-0.3c0.9,0,1.7,0.2,2.4,0.6s1.3,0.9,1.7,1.6
			s0.6,1.4,0.6,2.3s-0.3,1.8-0.8,2.6c-0.6,0.8-1.3,1.4-2.3,1.9s-2,0.7-3.2,0.7c-2,0-3.7-0.5-5.1-1.5l-0.4,1.5h-0.5l-3.3-6.9l0.4-0.3
			C524.9,119,526.2,120.6,527.5,121.8z"/>
	</g>
	<g>
		<path class="st0" d="M563.9,117.2c0,4-0.5,7-3.2,7s-3.2-2.9-3.2-7c0-3.6,0.8-7.7,3.2-7.7C563.2,109.5,563.9,113.5,563.9,117.2z
			 M559.6,116.8c0,4.7,0.1,6.3,1.1,6.3c1.1,0,1.2-1.6,1.2-6.3c0-4-0.4-6.2-1.2-6.2C559.9,110.5,559.6,112.7,559.6,116.8z"/>
		<path class="st0" d="M570,112.4c0,3.3-2.9,6.9-2.9,10.1h1.7l0.8-4.3h0.1l0.4,5.6H565c0-2.7,1-4.8,1.9-6.7l-2.4-7.4l0.1-0.1l1,0.6
			c0.4-0.5,1.1-0.9,2-0.9C569.2,109.5,570,110.5,570,112.4z M566.5,115.5l0.4,1.4c0.7-1.5,1.3-2.9,1.3-4.5c0-0.9-0.4-1.7-1.1-1.7
			c-0.8,0-1.2,0.7-1.2,1.8C565.9,113.6,566.2,114.5,566.5,115.5z"/>
	</g>
</g>
</svg>
